MESH dimension 3 ElemType Linear Nnode 2
Coordinates
    1               0               0               0
    2             0.5               0               0
    3               0             0.5               0
    4             0.5             0.5               0
    5               1               0               0
    6               0               1               0
    7               1             0.5               0
    8             0.5               1               0
    9               1               1               0
   10             1.5               0               0
   11               0             1.5               0
   12             1.5             0.5               0
   13             0.5             1.5               0
   14             1.5               1               0
   15               1             1.5               0
   16               2               0               0
   17               0               2               0
   18               2             0.5               0
   19             0.5               2               0
   20             1.5             1.5               0
   21               2               1               0
   22               1               2               0
   23               2             1.5               0
   24             2.5               0               0
   25               0             2.5               0
   26             1.5               2               0
   27             2.5             0.5               0
   28             0.5             2.5               0
   29             2.5               1               0
   30               1             2.5               0
   31               2               2               0
   32             1.5             2.5               0
   33             2.5             1.5               0
   34               3               0               0
   35               0               3               0
   36             0.5               3               0
   37               3             0.5               0
   38               3               1               0
   39               1               3               0
   40               2             2.5               0
   41             2.5               2               0
   42               3             1.5               0
   43             1.5               3               0
   44             3.5               0               0
   45               0             3.5               0
   46             2.5             2.5               0
   47             3.5             0.5               0
   48             0.5             3.5               0
   49               3               2               0
   50               2               3               0
   51               1             3.5               0
   52             3.5               1               0
   53             1.5             3.5               0
   54             3.5             1.5               0
   55               3             2.5               0
   56             2.5               3               0
   57               4               0               0
   58               0               4               0
   59               4             0.5               0
   60               2             3.5               0
   61             3.5               2               0
   62             0.5               4               0
   63               4               1               0
   64               1               4               0
   65               3               3               0
   66               4             1.5               0
   67             1.5               4               0
   68             2.5             3.5               0
   69             3.5             2.5               0
   70               2               4               0
   71               4               2               0
   72             4.5               0               0
   73               0             4.5               0
   74             0.5             4.5               0
   75             4.5             0.5               0
   76               1             4.5               0
   77               3             3.5               0
   78             4.5               1               0
   79             3.5               3               0
   80             2.5               4               0
   81               4             2.5               0
   82             4.5             1.5               0
   83             1.5             4.5               0
   84               2             4.5               0
   85             4.5               2               0
   86             3.5             3.5               0
   87               5               0               0
   88               0               5               0
   89               3               4               0
   90               4               3               0
   91               5             0.5               0
   92             0.5               5               0
   93               5               1               0
   94               1               5               0
   95             4.5             2.5               0
   96             2.5             4.5               0
   97               5             1.5               0
   98             1.5               5               0
   99               4             3.5               0
  100             3.5               4               0
  101               5               2               0
  102               2               5               0
  103               3             4.5               0
  104             4.5               3               0
  105               5             2.5               0
  106             2.5               5               0
  107               4               4               0
  108             4.5             3.5               0
  109             3.5             4.5               0
  110               5               3               0
  111               3               5               0
  112             4.5               4               0
  113               4             4.5               0
  114               5             3.5               0
  115             3.5               5               0
  116             4.5             4.5               0
  117               5               4               0
  118               4               5               0
  119               5             4.5               0
  120             4.5               5               0
  121               5               5               0
End Coordinates

Elements
201 115 111
202 118 115
203 92 88
204 94 92
205 117 119
206 119 121
207 2 5
208 5 10
209 101 105
210 105 110
211 1 2
212 3 1
213 57 72
214 44 57
215 114 117
216 72 87
217 111 106
218 58 45
219 45 35
220 120 118
221 121 120
222 102 98
223 98 94
224 93 97
225 97 101
226 25 17
227 17 11
228 35 25
229 91 93
230 11 6
231 6 3
232 24 34
233 34 44
234 88 73
235 16 24
236 106 102
237 10 16
238 87 91
239 73 58
240 110 114
End Elements

MESH dimension 3 ElemType Triangle Nnode 3
Coordinates
End Coordinates

Elements
1 2 4 1
2 4 3 1
3 5 7 2
4 7 4 2
5 10 12 5
6 12 7 5
7 16 18 10
8 18 12 10
9 24 27 16
10 27 18 16
11 34 37 24
12 37 27 24
13 44 47 34
14 47 37 34
15 57 59 44
16 59 47 44
17 72 75 57
18 75 59 57
19 87 91 72
20 91 75 72
21 4 8 3
22 8 6 3
23 7 9 4
24 9 8 4
25 12 14 7
26 14 9 7
27 18 21 12
28 21 14 12
29 27 29 18
30 29 21 18
31 37 38 27
32 38 29 27
33 47 52 37
34 52 38 37
35 59 63 47
36 63 52 47
37 75 78 59
38 78 63 59
39 91 93 75
40 93 78 75
41 8 13 6
42 13 11 6
43 9 15 8
44 15 13 8
45 14 20 9
46 20 15 9
47 21 23 14
48 23 20 14
49 29 33 21
50 33 23 21
51 38 42 29
52 42 33 29
53 52 54 38
54 54 42 38
55 63 66 52
56 66 54 52
57 78 82 63
58 82 66 63
59 93 97 78
60 97 82 78
61 13 19 11
62 19 17 11
63 15 22 13
64 22 19 13
65 20 26 15
66 26 22 15
67 23 31 20
68 31 26 20
69 33 41 23
70 41 31 23
71 42 49 33
72 49 41 33
73 54 61 42
74 61 49 42
75 66 71 54
76 71 61 54
77 82 85 66
78 85 71 66
79 97 101 82
80 101 85 82
81 19 28 17
82 28 25 17
83 22 30 19
84 30 28 19
85 26 32 22
86 32 30 22
87 31 40 26
88 40 32 26
89 41 46 31
90 46 40 31
91 49 55 41
92 55 46 41
93 61 69 49
94 69 55 49
95 71 81 61
96 81 69 61
97 85 95 71
98 95 81 71
99 101 105 85
100 105 95 85
101 28 36 25
102 36 35 25
103 30 39 28
104 39 36 28
105 32 43 30
106 43 39 30
107 40 50 32
108 50 43 32
109 46 56 40
110 56 50 40
111 55 65 46
112 65 56 46
113 69 79 55
114 79 65 55
115 81 90 69
116 90 79 69
117 95 104 81
118 104 90 81
119 105 110 95
120 110 104 95
121 36 48 35
122 48 45 35
123 39 51 36
124 51 48 36
125 43 53 39
126 53 51 39
127 50 60 43
128 60 53 43
129 56 68 50
130 68 60 50
131 65 77 56
132 77 68 56
133 79 86 65
134 86 77 65
135 90 99 79
136 99 86 79
137 104 108 90
138 108 99 90
139 110 114 104
140 114 108 104
141 48 62 45
142 62 58 45
143 51 64 48
144 64 62 48
145 53 67 51
146 67 64 51
147 60 70 53
148 70 67 53
149 68 80 60
150 80 70 60
151 77 89 68
152 89 80 68
153 86 100 77
154 100 89 77
155 99 107 86
156 107 100 86
157 108 112 99
158 112 107 99
159 114 117 108
160 117 112 108
161 62 74 58
162 74 73 58
163 64 76 62
164 76 74 62
165 67 83 64
166 83 76 64
167 70 84 67
168 84 83 67
169 80 96 70
170 96 84 70
171 89 103 80
172 103 96 80
173 100 109 89
174 109 103 89
175 107 113 100
176 113 109 100
177 112 116 107
178 116 113 107
179 117 119 112
180 119 116 112
181 74 92 73
182 92 88 73
183 76 94 74
184 94 92 74
185 83 98 76
186 98 94 76
187 84 102 83
188 102 98 83
189 96 106 84
190 106 102 84
191 103 111 96
192 111 106 96
193 109 115 103
194 115 111 103
195 113 118 109
196 118 115 109
197 116 120 113
198 120 118 113
199 119 121 116
200 121 120 116
End Elements

