# vtk DataFile Version 3.0
TPZGeoMesh VTK Visualization
ASCII

DATASET UNSTRUCTURED_GRID
POINTS 953 float
18.6603 -23.6603 0 
18.6603 -19.4817 0 
16.3277 -23.6603 0 
18.6603 -5 0 
15.7014 -5 0 
18.6603 -6.58405 0 
4.66506 -23.6603 0 
9.33013 -23.6603 0 
6.9976 -19.3249 0 
13.9952 -23.6603 0 
16.3277 -23.6603 0 
15.1615 -20.2689 0 
16.3277 -23.6603 0 
18.6603 -19.4817 0 
15.1615 -20.2689 0 
18.6603 -8.1681 0 
18.6603 -6.58405 0 
16.3328 -7.37607 0 
18.6603 -6.58405 0 
15.7014 -5 0 
16.3328 -7.37607 0 
18.6603 -11.5401 0 
18.6603 -8.1681 0 
16.8566 -9.85408 0 
18.6603 -8.1681 0 
16.3328 -7.37607 0 
16.8566 -9.85408 0 
16.3328 -7.37607 0 
14.5138 -9.07496 0 
16.8566 -9.85408 0 
-1.25652 0 0 
-2.82882 0 0 
-2.04267 -1.46473 0 
0 0 0 
-1.25652 0 0 
-0.628262 -1.08469 0 
-1.25652 0 0 
-2.04267 -1.46473 0 
-0.628262 -1.08469 0 
-2.04267 -1.46473 0 
-0.628262 -2.33818 0 
-0.628262 -1.08469 0 
-18.6603 -2.36603 0 
-18.6603 -4.73205 0 
-15.1735 -3.54904 0 
-18.6603 0 0 
-18.6603 -2.36603 0 
-16.4267 0 0 
-18.6603 -2.36603 0 
-15.1735 -3.54904 0 
-16.4267 0 0 
-15.1735 -3.54904 0 
-14.1932 0 0 
-16.4267 0 0 
-18.6603 -18.9282 0 
-18.6603 -21.2942 0 
-15.1277 -20.1112 0 
-18.6603 -21.2942 0 
-18.6603 -23.6603 0 
-16.3277 -23.6603 0 
-13.9952 -23.6603 0 
-15.1277 -20.1112 0 
-16.3277 -23.6603 0 
-15.1277 -20.1112 0 
-18.6603 -21.2942 0 
-16.3277 -23.6603 0 
4.66506 -23.6603 0 
6.9976 -19.3249 0 
2.33253 -19.6101 0 
7.31859e-13 -23.6603 0 
4.66506 -23.6603 0 
2.33253 -19.6101 0 
15.1615 -20.2689 0 
18.6603 -19.4817 0 
16.3538 -17.3994 0 
18.6603 -19.4817 0 
18.6603 -15.3171 0 
16.3538 -17.3994 0 
6.9976 -19.3249 0 
9.33013 -23.6603 0 
11.0639 -19.9323 0 
13.9952 -23.6603 0 
15.1615 -20.2689 0 
11.0639 -19.9323 0 
9.33013 -23.6603 0 
13.9952 -23.6603 0 
11.0639 -19.9323 0 
14.5138 -9.07496 0 
16.3328 -7.37607 0 
14.5138 -6.58752 0 
16.3328 -7.37607 0 
15.7014 -5 0 
14.5138 -6.58752 0 
15.7014 -5 0 
13.3262 -5 0 
14.5138 -6.58752 0 
13.3262 -5 0 
11.4195 -5 0 
12.3728 -6.06157 0 
12.3728 -7.48838 0 
14.5138 -6.58752 0 
12.3728 -6.06157 0 
14.5138 -6.58752 0 
13.3262 -5 0 
12.3728 -6.06157 0 
18.6603 -15.3171 0 
18.6603 -11.5401 0 
15.9227 -13.4286 0 
12.8428 -14.6832 0 
16.3538 -17.3994 0 
15.9227 -13.4286 0 
16.3538 -17.3994 0 
18.6603 -15.3171 0 
15.9227 -13.4286 0 
-4.79624 0 0 
-7.25807 0 0 
-6.02715 -2.10658 0 
-2.82882 0 0 
-4.79624 0 0 
-3.81253 -1.41064 0 
-4.79624 0 0 
-6.02715 -2.10658 0 
-3.81253 -1.41064 0 
-6.02715 -2.10658 0 
-3.81253 -3.13041 0 
-3.81253 -1.41064 0 
-3.81253 -3.13041 0 
-2.04267 -1.46473 0 
-3.81253 -1.41064 0 
-2.04267 -1.46473 0 
-2.82882 0 0 
-3.81253 -1.41064 0 
-0.628262 -2.33818 0 
-2.04267 -1.46473 0 
-2.11396 -3.1621 0 
-2.04267 -1.46473 0 
-3.81253 -3.13041 0 
-2.11396 -3.1621 0 
1.49531 -3.66005 0 
0.913783 -2.16728 0 
0.256922 -3.28283 0 
0.913783 -2.16728 0 
1.49531 -3.66005 0 
2.14651 -2.54671 0 
2.16506 -1.25 0 
0.913783 -2.16728 0 
2.14651 -2.54671 0 
3.2476 -1.875 0 
2.16506 -1.25 0 
2.14651 -2.54671 0 
0 0 0 
-0.628262 -1.08469 0 
0.227455 -0.856036 0 
1.08253 -0.625 0 
0 0 0 
0.227455 -0.856036 0 
-12.2659 -6.29381 0 
-15.1735 -3.54904 0 
-15.8241 -7.15071 0 
-15.1735 -3.54904 0 
-18.6603 -4.73205 0 
-15.8241 -7.15071 0 
-18.6603 -4.73205 0 
-18.6603 -9.4641 0 
-15.8241 -7.15071 0 
-12.2659 -6.29381 0 
-8.79833 -3.91367 0 
-12.2659 -2.44227 0 
-15.1735 -3.54904 0 
-12.2659 -6.29381 0 
-12.2659 -2.44227 0 
-14.1932 0 0 
-15.1735 -3.54904 0 
-12.2659 -2.44227 0 
-10.3386 0 0 
-14.1932 0 0 
-12.2659 -2.44227 0 
-7.25807 0 0 
-10.3386 0 0 
-8.79833 -1.65375 0 
-10.3386 0 0 
-12.2659 -2.44227 0 
-8.79833 -1.65375 0 
-12.2659 -2.44227 0 
-8.79833 -3.91367 0 
-8.79833 -1.65375 0 
-8.79833 -3.91367 0 
-6.02715 -2.10658 0 
-8.79833 -1.65375 0 
-6.02715 -2.10658 0 
-7.25807 0 0 
-8.79833 -1.65375 0 
-11.5952 -16.5622 0 
-15.1277 -20.1112 0 
-11.3077 -20.3809 0 
-15.1277 -20.1112 0 
-13.9952 -23.6603 0 
-11.3077 -20.3809 0 
-13.9952 -23.6603 0 
-9.33013 -23.6603 0 
-11.3077 -20.3809 0 
-9.33013 -23.6603 0 
-6.9976 -19.0055 0 
-11.3077 -20.3809 0 
-6.9976 -19.0055 0 
-11.5952 -16.5622 0 
-11.3077 -20.3809 0 
-15.1277 -20.1112 0 
-11.5952 -16.5622 0 
-15.429 -16.2788 0 
-18.6603 -18.9282 0 
-15.1277 -20.1112 0 
-15.429 -16.2788 0 
-18.6603 -14.1962 0 
-18.6603 -18.9282 0 
-15.429 -16.2788 0 
7.31859e-13 -23.6603 0 
2.33253 -19.6101 0 
-2.33193 -19.2985 0 
-4.66506 -23.6603 0 
7.31859e-13 -23.6603 0 
-2.33193 -19.2985 0 
9.88891 -5 0 
8.66025 -5 0 
9.27458 -6.14278 0 
16.3538 -17.3994 0 
12.8428 -14.6832 0 
13.3006 -17.8132 0 
11.0639 -19.9323 0 
15.1615 -20.2689 0 
13.3006 -17.8132 0 
15.1615 -20.2689 0 
16.3538 -17.3994 0 
13.3006 -17.8132 0 
9.98828 -13.1279 0 
6.9976 -14.4018 0 
9.4438 -16.8634 0 
12.8428 -14.6832 0 
9.98828 -13.1279 0 
9.4438 -16.8634 0 
6.9976 -19.3249 0 
11.0639 -19.9323 0 
9.4438 -16.8634 0 
11.0639 -19.9323 0 
13.3006 -17.8132 0 
9.4438 -16.8634 0 
13.3006 -17.8132 0 
12.8428 -14.6832 0 
9.4438 -16.8634 0 
12.0116 -10.2136 0 
14.5138 -9.07496 0 
12.9472 -8.95107 0 
14.5138 -9.07496 0 
14.5138 -6.58752 0 
12.9472 -8.95107 0 
14.5138 -6.58752 0 
12.3728 -7.48838 0 
12.9472 -8.95107 0 
12.0116 -10.2136 0 
12.9472 -8.95107 0 
10.805 -8.66713 0 
12.9472 -8.95107 0 
12.3728 -7.48838 0 
10.805 -8.66713 0 
14.5138 -9.07496 0 
12.0116 -10.2136 0 
15.0754 -11.298 0 
16.8566 -9.85408 0 
14.5138 -9.07496 0 
15.0754 -11.298 0 
15.9227 -13.4286 0 
18.6603 -11.5401 0 
15.0754 -11.298 0 
18.6603 -11.5401 0 
16.8566 -9.85408 0 
15.0754 -11.298 0 
6.9976 -14.4018 0 
9.98828 -13.1279 0 
7.7286 -11.9705 0 
9.98828 -13.1279 0 
12.8428 -14.6832 0 
12.1849 -12.4935 0 
15.0754 -11.298 0 
12.0116 -10.2136 0 
12.1849 -12.4935 0 
15.9227 -13.4286 0 
15.0754 -11.298 0 
12.1849 -12.4935 0 
12.8428 -14.6832 0 
15.9227 -13.4286 0 
12.1849 -12.4935 0 
7.7286 -11.9705 0 
9.98828 -13.1279 0 
10.5251 -11.3411 0 
9.98828 -13.1279 0 
12.1849 -12.4935 0 
10.5251 -11.3411 0 
12.1849 -12.4935 0 
12.0116 -10.2136 0 
10.5251 -11.3411 0 
12.0116 -10.2136 0 
10.805 -8.66713 0 
10.5251 -11.3411 0 
10.805 -8.66713 0 
9.27458 -9.95657 0 
10.5251 -11.3411 0 
-3.81253 -3.13041 0 
-6.02715 -2.10658 0 
-6.05995 -5.08463 0 
-6.02715 -2.10658 0 
-8.79833 -3.91367 0 
-6.05995 -5.08463 0 
-3.81253 -3.13041 0 
-6.05995 -5.08463 0 
-2.99544 -4.87202 0 
-2.11396 -3.1621 0 
-3.81253 -3.13041 0 
-2.99544 -4.87202 0 
0.256922 -3.28283 0 
-0.628262 -2.33818 0 
-0.943712 -3.52083 0 
-0.628262 -2.33818 0 
-2.11396 -3.1621 0 
-0.943712 -3.52083 0 
-2.11396 -3.1621 0 
-2.99544 -4.87202 0 
-0.943712 -3.52083 0 
-2.99544 -4.87202 0 
-1.41548 -5.96954 0 
-0.943712 -3.52083 0 
2.14651 -2.54671 0 
1.49531 -3.66005 0 
2.89645 -3.73247 0 
1.6238 -0.9375 0 
1.08253 -0.625 0 
0.998157 -1.39614 0 
2.16506 -1.25 0 
1.6238 -0.9375 0 
0.998157 -1.39614 0 
0.913783 -2.16728 0 
2.16506 -1.25 0 
0.998157 -1.39614 0 
1.08253 -0.625 0 
0.227455 -0.856036 0 
0.998157 -1.39614 0 
-8.79833 -3.91367 0 
-12.2659 -6.29381 0 
-8.99764 -7.33931 0 
-6.05995 -5.08463 0 
-8.79833 -3.91367 0 
-8.99764 -7.33931 0 
-13.6479 -11.5402 0 
-11.5952 -16.5622 0 
-9.91663 -12.9456 0 
-18.6603 -14.1962 0 
-15.429 -16.2788 0 
-15.8669 -13.4101 0 
-15.429 -16.2788 0 
-11.5952 -16.5622 0 
-15.8669 -13.4101 0 
-11.5952 -16.5622 0 
-13.6479 -11.5402 0 
-15.8669 -13.4101 0 
-18.6603 -11.8301 0 
-18.6603 -14.1962 0 
-15.8669 -13.4101 0 
-6.9976 -23.6603 0 
-4.66506 -23.6603 0 
-5.83133 -21.3329 0 
-9.33013 -23.6603 0 
-6.9976 -23.6603 0 
-5.83133 -21.3329 0 
-6.9976 -19.0055 0 
-9.33013 -23.6603 0 
-5.83133 -21.3329 0 
-4.66506 -23.6603 0 
-2.33193 -19.2985 0 
-5.83133 -21.3329 0 
-18.6603 -9.4641 0 
-18.6603 -11.8301 0 
-16.2141 -10.6471 0 
-18.6603 -11.8301 0 
-15.8669 -13.4101 0 
-16.2141 -10.6471 0 
-15.8669 -13.4101 0 
-13.6479 -11.5402 0 
-16.2141 -10.6471 0 
-13.6479 -11.5402 0 
-15.8241 -7.15071 0 
-16.2141 -10.6471 0 
-15.8241 -7.15071 0 
-18.6603 -9.4641 0 
-16.2141 -10.6471 0 
2.33253 -19.6101 0 
6.9976 -19.3249 0 
4.53084 -17.2724 0 
-2.33193 -19.2985 0 
-2.33253 -14.6237 0 
-4.52717 -16.9614 0 
-6.9976 -19.0055 0 
-5.83133 -21.3329 0 
-4.52717 -16.9614 0 
-5.83133 -21.3329 0 
-2.33193 -19.2985 0 
-4.52717 -16.9614 0 
-2.33193 -19.2985 0 
2.33253 -19.6101 0 
0.146672 -17.2632 0 
-2.33253 -14.6237 0 
-2.33193 -19.2985 0 
0.146672 -17.2632 0 
2.34235 -14.9255 0 
-2.33253 -14.6237 0 
0.146672 -17.2632 0 
2.33253 -19.6101 0 
4.53084 -17.2724 0 
0.146672 -17.2632 0 
4.53084 -17.2724 0 
2.34235 -14.9255 0 
0.146672 -17.2632 0 
12.3728 -7.48838 0 
12.3728 -6.06157 0 
10.6542 -6.14791 0 
12.3728 -6.06157 0 
11.4195 -5 0 
10.6542 -6.14791 0 
9.88891 -5 0 
9.27458 -6.14278 0 
10.6542 -6.14791 0 
11.4195 -5 0 
9.88891 -5 0 
10.6542 -6.14791 0 
4.53084 -17.2724 0 
6.9976 -19.3249 0 
6.98224 -16.8634 0 
6.9976 -19.3249 0 
9.4438 -16.8634 0 
6.98224 -16.8634 0 
9.4438 -16.8634 0 
6.9976 -14.4018 0 
6.98224 -16.8634 0 
9.27458 -9.95657 0 
10.805 -8.66713 0 
9.52293 -8.6984 0 
3.66109 -4.90881 0 
2.89645 -3.73247 0 
2.11203 -5.09291 0 
2.89645 -3.73247 0 
1.49531 -3.66005 0 
2.11203 -5.09291 0 
-1.41548 -5.96954 0 
1.33282 -6.44432 0 
0.153004 -5.08201 0 
1.33282 -6.44432 0 
2.11203 -5.09291 0 
0.153004 -5.08201 0 
0.256922 -3.28283 0 
-0.943712 -3.52083 0 
0.153004 -5.08201 0 
-0.943712 -3.52083 0 
-1.41548 -5.96954 0 
0.153004 -5.08201 0 
2.11203 -5.09291 0 
1.49531 -3.66005 0 
0.153004 -5.08201 0 
1.49531 -3.66005 0 
0.256922 -3.28283 0 
0.153004 -5.08201 0 
7.57772 -4.375 0 
6.49519 -3.75 0 
6.47165 -5.04078 0 
3.66109 -4.90881 0 
5.22774 -4.69529 0 
4.30658 -3.79078 0 
5.41266 -3.125 0 
4.33013 -2.5 0 
4.30658 -3.79078 0 
2.89645 -3.73247 0 
3.66109 -4.90881 0 
4.30658 -3.79078 0 
2.14651 -2.54671 0 
2.89645 -3.73247 0 
3.057 -2.80089 0 
3.2476 -1.875 0 
2.14651 -2.54671 0 
3.057 -2.80089 0 
4.33013 -2.5 0 
3.2476 -1.875 0 
3.057 -2.80089 0 
0.913783 -2.16728 0 
0.998157 -1.39614 0 
0.210508 -1.70015 0 
0.998157 -1.39614 0 
0.227455 -0.856036 0 
0.210508 -1.70015 0 
0.227455 -0.856036 0 
-0.628262 -1.08469 0 
0.210508 -1.70015 0 
-0.628262 -1.08469 0 
-0.628262 -2.33818 0 
0.210508 -1.70015 0 
-0.628262 -2.33818 0 
0.256922 -3.28283 0 
0.210508 -1.70015 0 
0.256922 -3.28283 0 
0.913783 -2.16728 0 
0.210508 -1.70015 0 
-8.99764 -7.33931 0 
-12.2659 -6.29381 0 
-11.4322 -9.31862 0 
-13.6479 -11.5402 0 
-9.91663 -12.9456 0 
-11.4322 -9.31862 0 
-12.2659 -6.29381 0 
-15.8241 -7.15071 0 
-11.4322 -9.31862 0 
-15.8241 -7.15071 0 
-13.6479 -11.5402 0 
-11.4322 -9.31862 0 
-9.91663 -12.9456 0 
-7.05575 -10.1684 0 
-11.4322 -9.31862 0 
-7.05575 -10.1684 0 
-8.99764 -7.33931 0 
-11.4322 -9.31862 0 
-6.05995 -5.08463 0 
-8.99764 -7.33931 0 
-6.42282 -7.65296 0 
-8.99764 -7.33931 0 
-7.05575 -10.1684 0 
-6.42282 -7.65296 0 
-4.52717 -16.9614 0 
-2.33253 -14.6237 0 
-4.87224 -12.5848 0 
-7.05575 -10.1684 0 
-9.91663 -12.9456 0 
-4.87224 -12.5848 0 
-2.33253 -14.6237 0 
-2.6375 -10.2157 0 
-4.87224 -12.5848 0 
1.33282 -6.44432 0 
-1.41548 -5.96954 0 
-0.44568 -8.54757 0 
-2.6375 -10.2157 0 
-2.33253 -14.6237 0 
0.168818 -12.2361 0 
-2.33253 -14.6237 0 
2.34235 -14.9255 0 
0.168818 -12.2361 0 
-6.9976 -19.0055 0 
-4.52717 -16.9614 0 
-8.29353 -15.8967 0 
-4.52717 -16.9614 0 
-4.87224 -12.5848 0 
-8.29353 -15.8967 0 
-4.87224 -12.5848 0 
-9.91663 -12.9456 0 
-8.29353 -15.8967 0 
-9.91663 -12.9456 0 
-11.5952 -16.5622 0 
-8.29353 -15.8967 0 
-11.5952 -16.5622 0 
-6.9976 -19.0055 0 
-8.29353 -15.8967 0 
2.34235 -14.9255 0 
4.53084 -17.2724 0 
4.699 -14.9218 0 
4.53084 -17.2724 0 
6.98224 -16.8634 0 
4.699 -14.9218 0 
6.98224 -16.8634 0 
6.9976 -14.4018 0 
4.699 -14.9218 0 
6.9976 -14.4018 0 
4.40366 -12.2964 0 
4.699 -14.9218 0 
4.40366 -12.2964 0 
2.34235 -14.9255 0 
4.699 -14.9218 0 
12.3728 -7.48838 0 
10.6542 -6.14791 0 
10.5491 -7.41832 0 
10.805 -8.66713 0 
12.3728 -7.48838 0 
10.5491 -7.41832 0 
10.6542 -6.14791 0 
9.27458 -6.14278 0 
10.5491 -7.41832 0 
9.27458 -6.14278 0 
9.27458 -7.44022 0 
10.5491 -7.41832 0 
9.27458 -7.44022 0 
9.52293 -8.6984 0 
10.5491 -7.41832 0 
9.52293 -8.6984 0 
10.805 -8.66713 0 
10.5491 -7.41832 0 
3.5743 -7.31012 0 
5.97672 -7.26358 0 
4.75497 -6.22652 0 
5.22774 -4.69529 0 
3.66109 -4.90881 0 
4.75497 -6.22652 0 
3.66109 -4.90881 0 
2.11203 -5.09291 0 
3.01573 -6.08771 0 
1.33282 -6.44432 0 
3.5743 -7.31012 0 
3.01573 -6.08771 0 
2.11203 -5.09291 0 
1.33282 -6.44432 0 
3.01573 -6.08771 0 
3.5743 -7.31012 0 
4.75497 -6.22652 0 
3.01573 -6.08771 0 
4.75497 -6.22652 0 
3.66109 -4.90881 0 
3.01573 -6.08771 0 
4.40366 -12.2964 0 
6.9976 -14.4018 0 
5.98669 -11.323 0 
6.9976 -14.4018 0 
7.7286 -11.9705 0 
5.98669 -11.323 0 
5.98669 -11.323 0 
6.78187 -9.64338 0 
4.80841 -8.98495 0 
5.97672 -7.26358 0 
3.5743 -7.31012 0 
4.80841 -8.98495 0 
9.27458 -9.95657 0 
9.52293 -8.6984 0 
8.11932 -9.07494 0 
9.27458 -6.14278 0 
8.66025 -5 0 
8.25883 -5.95231 0 
7.65567 -6.7915 0 
9.27458 -7.44022 0 
8.25883 -5.95231 0 
9.27458 -7.44022 0 
9.27458 -6.14278 0 
8.25883 -5.95231 0 
5.41266 -3.125 0 
4.30658 -3.79078 0 
5.3202 -3.91014 0 
4.30658 -3.79078 0 
5.22774 -4.69529 0 
5.3202 -3.91014 0 
5.95392 -3.4375 0 
5.41266 -3.125 0 
5.3202 -3.91014 0 
4.33013 -2.5 0 
3.057 -2.80089 0 
3.80834 -3.13609 0 
4.30658 -3.79078 0 
4.33013 -2.5 0 
3.80834 -3.13609 0 
3.057 -2.80089 0 
2.89645 -3.73247 0 
3.80834 -3.13609 0 
2.89645 -3.73247 0 
4.30658 -3.79078 0 
3.80834 -3.13609 0 
-6.42282 -7.65296 0 
-7.05575 -10.1684 0 
-4.83803 -9.38907 0 
-7.05575 -10.1684 0 
-4.87224 -12.5848 0 
-4.83803 -9.38907 0 
-4.87224 -12.5848 0 
-2.6375 -10.2157 0 
-4.83803 -9.38907 0 
-6.42282 -7.65296 0 
-4.83803 -9.38907 0 
-4.41331 -6.62708 0 
-1.41548 -5.96954 0 
-2.99544 -4.87202 0 
-4.41331 -6.62708 0 
-6.05995 -5.08463 0 
-6.42282 -7.65296 0 
-4.41331 -6.62708 0 
-2.99544 -4.87202 0 
-6.05995 -5.08463 0 
-4.41331 -6.62708 0 
1.33282 -6.44432 0 
-0.44568 -8.54757 0 
1.77853 -8.62479 0 
3.5743 -7.31012 0 
1.33282 -6.44432 0 
1.77853 -8.62479 0 
6.59317 -6.23434 0 
6.47165 -5.04078 0 
5.63024 -5.65816 0 
5.97672 -7.26358 0 
6.59317 -6.23434 0 
5.63024 -5.65816 0 
4.75497 -6.22652 0 
5.97672 -7.26358 0 
5.63024 -5.65816 0 
5.22774 -4.69529 0 
4.75497 -6.22652 0 
5.63024 -5.65816 0 
9.27458 -7.44022 0 
7.65567 -6.7915 0 
8.15975 -7.87794 0 
8.11932 -9.07494 0 
9.52293 -8.6984 0 
8.15975 -7.87794 0 
9.52293 -8.6984 0 
9.27458 -7.44022 0 
8.15975 -7.87794 0 
9.27458 -9.95657 0 
8.11932 -9.07494 0 
7.93917 -10.5087 0 
8.11932 -9.07494 0 
6.78187 -9.64338 0 
7.93917 -10.5087 0 
6.78187 -9.64338 0 
5.98669 -11.323 0 
7.93917 -10.5087 0 
5.98669 -11.323 0 
7.7286 -11.9705 0 
7.93917 -10.5087 0 
7.7286 -11.9705 0 
10.5251 -11.3411 0 
7.93917 -10.5087 0 
10.5251 -11.3411 0 
9.27458 -9.95657 0 
7.93917 -10.5087 0 
8.25883 -5.95231 0 
8.66025 -5 0 
8.11899 -4.6875 0 
6.47165 -5.04078 0 
6.59317 -6.23434 0 
7.33499 -5.55584 0 
6.59317 -6.23434 0 
7.65567 -6.7915 0 
7.33499 -5.55584 0 
7.65567 -6.7915 0 
8.25883 -5.95231 0 
7.33499 -5.55584 0 
8.25883 -5.95231 0 
8.11899 -4.6875 0 
7.33499 -5.55584 0 
8.11899 -4.6875 0 
7.57772 -4.375 0 
7.33499 -5.55584 0 
7.57772 -4.375 0 
6.47165 -5.04078 0 
7.33499 -5.55584 0 
6.47165 -5.04078 0 
6.49519 -3.75 0 
5.9835 -4.38627 0 
5.95392 -3.4375 0 
5.3202 -3.91014 0 
5.9835 -4.38627 0 
6.49519 -3.75 0 
5.95392 -3.4375 0 
5.9835 -4.38627 0 
5.3202 -3.91014 0 
5.22774 -4.69529 0 
5.9835 -4.38627 0 
5.22774 -4.69529 0 
5.63024 -5.65816 0 
5.9835 -4.38627 0 
5.63024 -5.65816 0 
6.47165 -5.04078 0 
5.9835 -4.38627 0 
-2.6375 -10.2157 0 
-0.44568 -8.54757 0 
-2.6152 -7.97098 0 
-1.41548 -5.96954 0 
-4.41331 -6.62708 0 
-2.6152 -7.97098 0 
-0.44568 -8.54757 0 
-1.41548 -5.96954 0 
-2.6152 -7.97098 0 
-4.41331 -6.62708 0 
-4.83803 -9.38907 0 
-2.6152 -7.97098 0 
-4.83803 -9.38907 0 
-2.6375 -10.2157 0 
-2.6152 -7.97098 0 
3.5743 -7.31012 0 
1.77853 -8.62479 0 
3.29291 -8.80956 0 
4.80841 -8.98495 0 
3.5743 -7.31012 0 
3.29291 -8.80956 0 
1.77853 -8.62479 0 
-0.44568 -8.54757 0 
0.608059 -10.2675 0 
-2.6375 -10.2157 0 
0.168818 -12.2361 0 
0.608059 -10.2675 0 
-0.44568 -8.54757 0 
-2.6375 -10.2157 0 
0.608059 -10.2675 0 
8.11932 -9.07494 0 
8.15975 -7.87794 0 
7.01856 -7.74726 0 
6.78187 -9.64338 0 
8.11932 -9.07494 0 
7.01856 -7.74726 0 
8.15975 -7.87794 0 
7.65567 -6.7915 0 
7.01856 -7.74726 0 
7.65567 -6.7915 0 
6.59317 -6.23434 0 
7.01856 -7.74726 0 
6.59317 -6.23434 0 
5.97672 -7.26358 0 
7.01856 -7.74726 0 
4.80841 -8.98495 0 
3.29291 -8.80956 0 
3.85946 -10.5494 0 
5.98669 -11.323 0 
4.80841 -8.98495 0 
3.85946 -10.5494 0 
4.40366 -12.2964 0 
5.98669 -11.323 0 
3.85946 -10.5494 0 
3.29291 -8.80956 0 
1.77853 -8.62479 0 
3.85946 -10.5494 0 
6.78187 -9.64338 0 
7.01856 -7.74726 0 
6.0144 -8.54631 0 
4.80841 -8.98495 0 
6.78187 -9.64338 0 
6.0144 -8.54631 0 
7.01856 -7.74726 0 
5.97672 -7.26358 0 
6.0144 -8.54631 0 
5.97672 -7.26358 0 
4.80841 -8.98495 0 
6.0144 -8.54631 0 
4.40366 -12.2964 0 
3.85946 -10.5494 0 
2.12699 -11.6397 0 
0.608059 -10.2675 0 
0.168818 -12.2361 0 
2.12699 -11.6397 0 
0.168818 -12.2361 0 
2.34235 -14.9255 0 
2.12699 -11.6397 0 
2.34235 -14.9255 0 
4.40366 -12.2964 0 
2.12699 -11.6397 0 
3.85946 -10.5494 0 
1.77853 -8.62479 0 
2.12699 -11.6397 0 
1.77853 -8.62479 0 
0.608059 -10.2675 0 
2.12699 -11.6397 0 
18.6603 -23.6603 0 
18.6603 -19.4817 0 
18.6603 -19.4817 0 
18.6603 -15.3171 0 
16.3277 -23.6603 0 
18.6603 -23.6603 0 
18.6603 -5 0 
15.7014 -5 0 
15.7014 -5 0 
13.3262 -5 0 
18.6603 -6.58405 0 
18.6603 -5 0 
4.66506 -23.6603 0 
9.33013 -23.6603 0 
9.33013 -23.6603 0 
13.9952 -23.6603 0 
13.9952 -23.6603 0 
16.3277 -23.6603 0 
18.6603 -8.1681 0 
18.6603 -6.58405 0 
18.6603 -11.5401 0 
18.6603 -8.1681 0 
-1.25652 0 0 
-2.82882 0 0 
-2.82882 0 0 
-4.79624 0 0 
0 0 0 
-1.25652 0 0 
-18.6603 -2.36603 0 
-18.6603 -4.73205 0 
-18.6603 -4.73205 0 
-18.6603 -9.4641 0 
-18.6603 0 0 
-18.6603 -2.36603 0 
-16.4267 0 0 
-18.6603 0 0 
-14.1932 0 0 
-16.4267 0 0 
-18.6603 -18.9282 0 
-18.6603 -21.2942 0 
-18.6603 -21.2942 0 
-18.6603 -23.6603 0 
-18.6603 -23.6603 0 
-16.3277 -23.6603 0 
-16.3277 -23.6603 0 
-13.9952 -23.6603 0 
-13.9952 -23.6603 0 
-9.33013 -23.6603 0 
7.31859e-13 -23.6603 0 
4.66506 -23.6603 0 
18.6603 -15.3171 0 
18.6603 -11.5401 0 
13.3262 -5 0 
11.4195 -5 0 
11.4195 -5 0 
9.88891 -5 0 
-4.79624 0 0 
-7.25807 0 0 
-7.25807 0 0 
-10.3386 0 0 
2.16506 -1.25 0 
1.6238 -0.9375 0 
3.2476 -1.875 0 
2.16506 -1.25 0 
1.08253 -0.625 0 
0 0 0 
-18.6603 -9.4641 0 
-18.6603 -11.8301 0 
-10.3386 0 0 
-14.1932 0 0 
-9.33013 -23.6603 0 
-6.9976 -23.6603 0 
-18.6603 -14.1962 0 
-18.6603 -18.9282 0 
-4.66506 -23.6603 0 
7.31859e-13 -23.6603 0 
9.88891 -5 0 
8.66025 -5 0 
8.66025 -5 0 
8.11899 -4.6875 0 
1.6238 -0.9375 0 
1.08253 -0.625 0 
-18.6603 -11.8301 0 
-18.6603 -14.1962 0 
-6.9976 -23.6603 0 
-4.66506 -23.6603 0 
7.57772 -4.375 0 
6.49519 -3.75 0 
6.49519 -3.75 0 
5.95392 -3.4375 0 
5.41266 -3.125 0 
4.33013 -2.5 0 
4.33013 -2.5 0 
3.2476 -1.875 0 
5.95392 -3.4375 0 
5.41266 -3.125 0 
8.11899 -4.6875 0 
7.57772 -4.375 0 

CELLS 334 1287
3 0 1 2
3 3 4 5
3 6 7 8
3 9 10 11
3 12 13 14
3 15 16 17
3 18 19 20
3 21 22 23
3 24 25 26
3 27 28 29
3 30 31 32
3 33 34 35
3 36 37 38
3 39 40 41
3 42 43 44
3 45 46 47
3 48 49 50
3 51 52 53
3 54 55 56
3 57 58 59
3 60 61 62
3 63 64 65
3 66 67 68
3 69 70 71
3 72 73 74
3 75 76 77
3 78 79 80
3 81 82 83
3 84 85 86
3 87 88 89
3 90 91 92
3 93 94 95
3 96 97 98
3 99 100 101
3 102 103 104
3 105 106 107
3 108 109 110
3 111 112 113
3 114 115 116
3 117 118 119
3 120 121 122
3 123 124 125
3 126 127 128
3 129 130 131
3 132 133 134
3 135 136 137
3 138 139 140
3 141 142 143
3 144 145 146
3 147 148 149
3 150 151 152
3 153 154 155
3 156 157 158
3 159 160 161
3 162 163 164
3 165 166 167
3 168 169 170
3 171 172 173
3 174 175 176
3 177 178 179
3 180 181 182
3 183 184 185
3 186 187 188
3 189 190 191
3 192 193 194
3 195 196 197
3 198 199 200
3 201 202 203
3 204 205 206
3 207 208 209
3 210 211 212
3 213 214 215
3 216 217 218
3 219 220 221
3 222 223 224
3 225 226 227
3 228 229 230
3 231 232 233
3 234 235 236
3 237 238 239
3 240 241 242
3 243 244 245
3 246 247 248
3 249 250 251
3 252 253 254
3 255 256 257
3 258 259 260
3 261 262 263
3 264 265 266
3 267 268 269
3 270 271 272
3 273 274 275
3 276 277 278
3 279 280 281
3 282 283 284
3 285 286 287
3 288 289 290
3 291 292 293
3 294 295 296
3 297 298 299
3 300 301 302
3 303 304 305
3 306 307 308
3 309 310 311
3 312 313 314
3 315 316 317
3 318 319 320
3 321 322 323
3 324 325 326
3 327 328 329
3 330 331 332
3 333 334 335
3 336 337 338
3 339 340 341
3 342 343 344
3 345 346 347
3 348 349 350
3 351 352 353
3 354 355 356
3 357 358 359
3 360 361 362
3 363 364 365
3 366 367 368
3 369 370 371
3 372 373 374
3 375 376 377
3 378 379 380
3 381 382 383
3 384 385 386
3 387 388 389
3 390 391 392
3 393 394 395
3 396 397 398
3 399 400 401
3 402 403 404
3 405 406 407
3 408 409 410
3 411 412 413
3 414 415 416
3 417 418 419
3 420 421 422
3 423 424 425
3 426 427 428
3 429 430 431
3 432 433 434
3 435 436 437
3 438 439 440
3 441 442 443
3 444 445 446
3 447 448 449
3 450 451 452
3 453 454 455
3 456 457 458
3 459 460 461
3 462 463 464
3 465 466 467
3 468 469 470
3 471 472 473
3 474 475 476
3 477 478 479
3 480 481 482
3 483 484 485
3 486 487 488
3 489 490 491
3 492 493 494
3 495 496 497
3 498 499 500
3 501 502 503
3 504 505 506
3 507 508 509
3 510 511 512
3 513 514 515
3 516 517 518
3 519 520 521
3 522 523 524
3 525 526 527
3 528 529 530
3 531 532 533
3 534 535 536
3 537 538 539
3 540 541 542
3 543 544 545
3 546 547 548
3 549 550 551
3 552 553 554
3 555 556 557
3 558 559 560
3 561 562 563
3 564 565 566
3 567 568 569
3 570 571 572
3 573 574 575
3 576 577 578
3 579 580 581
3 582 583 584
3 585 586 587
3 588 589 590
3 591 592 593
3 594 595 596
3 597 598 599
3 600 601 602
3 603 604 605
3 606 607 608
3 609 610 611
3 612 613 614
3 615 616 617
3 618 619 620
3 621 622 623
3 624 625 626
3 627 628 629
3 630 631 632
3 633 634 635
3 636 637 638
3 639 640 641
3 642 643 644
3 645 646 647
3 648 649 650
3 651 652 653
3 654 655 656
3 657 658 659
3 660 661 662
3 663 664 665
3 666 667 668
3 669 670 671
3 672 673 674
3 675 676 677
3 678 679 680
3 681 682 683
3 684 685 686
3 687 688 689
3 690 691 692
3 693 694 695
3 696 697 698
3 699 700 701
3 702 703 704
3 705 706 707
3 708 709 710
3 711 712 713
3 714 715 716
3 717 718 719
3 720 721 722
3 723 724 725
3 726 727 728
3 729 730 731
3 732 733 734
3 735 736 737
3 738 739 740
3 741 742 743
3 744 745 746
3 747 748 749
3 750 751 752
3 753 754 755
3 756 757 758
3 759 760 761
3 762 763 764
3 765 766 767
3 768 769 770
3 771 772 773
3 774 775 776
3 777 778 779
3 780 781 782
3 783 784 785
3 786 787 788
3 789 790 791
3 792 793 794
3 795 796 797
3 798 799 800
3 801 802 803
3 804 805 806
3 807 808 809
3 810 811 812
3 813 814 815
3 816 817 818
3 819 820 821
3 822 823 824
3 825 826 827
3 828 829 830
3 831 832 833
3 834 835 836
3 837 838 839
3 840 841 842
3 843 844 845
3 846 847 848
3 849 850 851
3 852 853 854
2 855 856
2 857 858
2 859 860
2 861 862
2 863 864
2 865 866
2 867 868
2 869 870
2 871 872
2 873 874
2 875 876
2 877 878
2 879 880
2 881 882
2 883 884
2 885 886
2 887 888
2 889 890
2 891 892
2 893 894
2 895 896
2 897 898
2 899 900
2 901 902
2 903 904
2 905 906
2 907 908
2 909 910
2 911 912
2 913 914
2 915 916
2 917 918
2 919 920
2 921 922
2 923 924
2 925 926
2 927 928
2 929 930
2 931 932
2 933 934
2 935 936
2 937 938
2 939 940
2 941 942
2 943 944
2 945 946
2 947 948
2 949 950
2 951 952

CELL_TYPES 334
5
5
5
5
5
5
5
5
5
5
5
5
5
5
5
5
5
5
5
5
5
5
5
5
5
5
5
5
5
5
5
5
5
5
5
5
5
5
5
5
5
5
5
5
5
5
5
5
5
5
5
5
5
5
5
5
5
5
5
5
5
5
5
5
5
5
5
5
5
5
5
5
5
5
5
5
5
5
5
5
5
5
5
5
5
5
5
5
5
5
5
5
5
5
5
5
5
5
5
5
5
5
5
5
5
5
5
5
5
5
5
5
5
5
5
5
5
5
5
5
5
5
5
5
5
5
5
5
5
5
5
5
5
5
5
5
5
5
5
5
5
5
5
5
5
5
5
5
5
5
5
5
5
5
5
5
5
5
5
5
5
5
5
5
5
5
5
5
5
5
5
5
5
5
5
5
5
5
5
5
5
5
5
5
5
5
5
5
5
5
5
5
5
5
5
5
5
5
5
5
5
5
5
5
5
5
5
5
5
5
5
5
5
5
5
5
5
5
5
5
5
5
5
5
5
5
5
5
5
5
5
5
5
5
5
5
5
5
5
5
5
5
5
5
5
5
5
5
5
5
5
5
5
5
5
5
5
5
5
5
5
5
5
5
5
5
5
5
5
5
5
5
5
5
5
5
5
5
5
5
5
5
5
5
5
3
3
3
3
3
3
3
3
3
3
3
3
3
3
3
3
3
3
3
3
3
3
3
3
3
3
3
3
3
3
3
3
3
3
3
3
3
3
3
3
3
3
3
3
3
3
3
3
3

CELL_DATA 334
FIELD FieldData 2
material 1 334 int
1
1
1
1
1
1
1
1
1
1
1
1
1
1
1
1
1
1
1
1
1
1
1
1
1
1
1
1
1
1
1
1
1
1
1
1
1
1
1
1
1
1
1
1
1
1
1
1
1
1
1
1
1
1
1
1
1
1
1
1
1
1
1
1
1
1
1
1
1
1
1
1
1
1
1
1
1
1
1
1
1
1
1
1
1
1
1
1
1
1
1
1
1
1
1
1
1
1
1
1
1
1
1
1
1
1
1
1
1
1
1
1
1
1
1
1
1
1
1
1
1
1
1
1
1
1
1
1
1
1
1
1
1
1
1
1
1
1
1
1
1
1
1
1
1
1
1
1
1
1
1
1
1
1
1
1
1
1
1
1
1
1
1
1
1
1
1
1
1
1
1
1
1
1
1
1
1
1
1
1
1
1
1
1
1
1
1
1
1
1
1
1
1
1
1
1
1
1
1
1
1
1
1
1
1
1
1
1
1
1
1
1
1
1
1
1
1
1
1
1
1
1
1
1
1
1
1
1
1
1
1
1
1
1
1
1
1
1
1
1
1
1
1
1
1
1
1
1
1
1
1
1
1
1
1
1
1
1
1
1
1
1
1
1
1
1
1
1
1
1
1
1
1
1
1
1
1
1
1
1
1
1
1
1
1
-2
-2
-1
-3
-3
-2
-1
-1
-1
-2
-2
-4
-4
-4
-5
-5
-5
-4
-4
-5
-5
-1
-1
-1
-1
-2
-3
-3
-4
-4
-6
-6
-6
-5
-4
-1
-5
-1
-3
-6
-6
-5
-1
-6
-6
-6
-6
-6
-6
elIndex 1 334 int
0
1
2
3
4
5
6
7
8
9
10
11
12
13
14
15
16
17
18
19
20
21
22
23
24
25
26
27
28
29
30
31
32
33
34
35
36
37
38
39
40
41
42
43
44
45
46
47
48
49
50
51
52
53
54
55
56
57
58
59
60
61
62
63
64
65
66
67
68
69
70
71
72
73
74
75
76
77
78
79
80
81
82
83
84
85
86
87
88
89
90
91
92
93
94
95
96
97
98
99
100
101
102
103
104
105
106
107
108
109
110
111
112
113
114
115
116
117
118
119
120
121
122
123
124
125
126
127
128
129
130
131
132
133
134
135
136
137
138
139
140
141
142
143
144
145
146
147
148
149
150
151
152
153
154
155
156
157
158
159
160
161
162
163
164
165
166
167
168
169
170
171
172
173
174
175
176
177
178
179
180
181
182
183
184
185
186
187
188
189
190
191
192
193
194
195
196
197
198
199
200
201
202
203
204
205
206
207
208
209
210
211
212
213
214
215
216
217
218
219
220
221
222
223
224
225
226
227
228
229
230
231
232
233
234
235
236
237
238
239
240
241
242
243
244
245
246
247
248
249
250
251
252
253
254
255
256
257
258
259
260
261
262
263
264
265
266
267
268
269
270
271
272
273
274
275
276
277
278
279
280
281
282
283
284
285
286
287
288
289
290
291
292
293
294
295
296
297
298
299
300
301
302
303
304
305
306
307
308
309
310
311
312
313
314
315
316
317
318
319
320
321
322
323
324
325
326
327
328
329
330
331
332
333
