# vtk DataFile Version 3.0
TPZGeoMesh VTK Visualization
ASCII

DATASET UNSTRUCTURED_GRID
POINTS 3365 float
18.6603 -23.6603 0 
18.6603 -19.4817 0 
16.3277 -23.6603 0 
18.6603 -5 0 
15.7014 -5 0 
18.6603 -6.58405 0 
4.66506 -23.6603 0 
9.33013 -23.6603 0 
6.9976 -19.3249 0 
13.9952 -23.6603 0 
16.3277 -23.6603 0 
15.1615 -20.2689 0 
16.3277 -23.6603 0 
18.6603 -19.4817 0 
15.1615 -20.2689 0 
18.6603 -8.1681 0 
18.6603 -6.58405 0 
16.3328 -7.37607 0 
18.6603 -6.58405 0 
15.7014 -5 0 
16.3328 -7.37607 0 
18.6603 -11.5401 0 
18.6603 -8.1681 0 
16.8566 -9.85408 0 
18.6603 -8.1681 0 
16.3328 -7.37607 0 
16.8566 -9.85408 0 
16.3328 -7.37607 0 
14.5138 -9.07496 0 
16.8566 -9.85408 0 
-1.25652 0 0 
-2.82882 0 0 
-2.04267 -1.46473 0 
-18.6603 -2.36603 0 
-18.6603 -4.73205 0 
-15.1735 -3.54904 0 
-18.6603 0 0 
-18.6603 -2.36603 0 
-16.4267 0 0 
-18.6603 -2.36603 0 
-15.1735 -3.54904 0 
-16.4267 0 0 
-15.1735 -3.54904 0 
-14.1932 0 0 
-16.4267 0 0 
-18.6603 -18.9282 0 
-18.6603 -21.2942 0 
-15.1277 -20.1112 0 
-18.6603 -21.2942 0 
-18.6603 -23.6603 0 
-16.3277 -23.6603 0 
-13.9952 -23.6603 0 
-15.1277 -20.1112 0 
-16.3277 -23.6603 0 
-15.1277 -20.1112 0 
-18.6603 -21.2942 0 
-16.3277 -23.6603 0 
4.66506 -23.6603 0 
6.9976 -19.3249 0 
2.33253 -19.6101 0 
7.31859e-13 -23.6603 0 
4.66506 -23.6603 0 
2.33253 -19.6101 0 
15.1615 -20.2689 0 
18.6603 -19.4817 0 
16.3538 -17.3994 0 
18.6603 -19.4817 0 
18.6603 -15.3171 0 
16.3538 -17.3994 0 
6.9976 -19.3249 0 
9.33013 -23.6603 0 
11.0639 -19.9323 0 
13.9952 -23.6603 0 
15.1615 -20.2689 0 
11.0639 -19.9323 0 
9.33013 -23.6603 0 
13.9952 -23.6603 0 
11.0639 -19.9323 0 
14.5138 -9.07496 0 
16.3328 -7.37607 0 
14.5138 -6.58752 0 
16.3328 -7.37607 0 
15.7014 -5 0 
14.5138 -6.58752 0 
15.7014 -5 0 
13.3262 -5 0 
14.5138 -6.58752 0 
12.3728 -7.48838 0 
14.5138 -6.58752 0 
12.3728 -6.06157 0 
14.5138 -6.58752 0 
13.3262 -5 0 
12.3728 -6.06157 0 
18.6603 -15.3171 0 
18.6603 -11.5401 0 
15.9227 -13.4286 0 
12.8428 -14.6832 0 
16.3538 -17.3994 0 
15.9227 -13.4286 0 
16.3538 -17.3994 0 
18.6603 -15.3171 0 
15.9227 -13.4286 0 
-4.79624 0 0 
-7.25807 0 0 
-6.02715 -2.10658 0 
-2.82882 0 0 
-4.79624 0 0 
-3.81253 -1.41064 0 
-4.79624 0 0 
-6.02715 -2.10658 0 
-3.81253 -1.41064 0 
-6.02715 -2.10658 0 
-3.81253 -3.13041 0 
-3.81253 -1.41064 0 
-3.81253 -3.13041 0 
-2.04267 -1.46473 0 
-3.81253 -1.41064 0 
-2.04267 -1.46473 0 
-2.82882 0 0 
-3.81253 -1.41064 0 
-0.628262 -2.33818 0 
-2.04267 -1.46473 0 
-2.11396 -3.1621 0 
-2.04267 -1.46473 0 
-3.81253 -3.13041 0 
-2.11396 -3.1621 0 
-12.2659 -6.29381 0 
-15.1735 -3.54904 0 
-15.8241 -7.15071 0 
-15.1735 -3.54904 0 
-18.6603 -4.73205 0 
-15.8241 -7.15071 0 
-18.6603 -4.73205 0 
-18.6603 -9.4641 0 
-15.8241 -7.15071 0 
-12.2659 -6.29381 0 
-8.79833 -3.91367 0 
-12.2659 -2.44227 0 
-15.1735 -3.54904 0 
-12.2659 -6.29381 0 
-12.2659 -2.44227 0 
-14.1932 0 0 
-15.1735 -3.54904 0 
-12.2659 -2.44227 0 
-10.3386 0 0 
-14.1932 0 0 
-12.2659 -2.44227 0 
-7.25807 0 0 
-10.3386 0 0 
-8.79833 -1.65375 0 
-10.3386 0 0 
-12.2659 -2.44227 0 
-8.79833 -1.65375 0 
-12.2659 -2.44227 0 
-8.79833 -3.91367 0 
-8.79833 -1.65375 0 
-8.79833 -3.91367 0 
-6.02715 -2.10658 0 
-8.79833 -1.65375 0 
-6.02715 -2.10658 0 
-7.25807 0 0 
-8.79833 -1.65375 0 
-11.5952 -16.5622 0 
-15.1277 -20.1112 0 
-11.3077 -20.3809 0 
-15.1277 -20.1112 0 
-13.9952 -23.6603 0 
-11.3077 -20.3809 0 
-13.9952 -23.6603 0 
-9.33013 -23.6603 0 
-11.3077 -20.3809 0 
-9.33013 -23.6603 0 
-6.9976 -19.0055 0 
-11.3077 -20.3809 0 
-6.9976 -19.0055 0 
-11.5952 -16.5622 0 
-11.3077 -20.3809 0 
-15.1277 -20.1112 0 
-11.5952 -16.5622 0 
-15.429 -16.2788 0 
-18.6603 -18.9282 0 
-15.1277 -20.1112 0 
-15.429 -16.2788 0 
-18.6603 -14.1962 0 
-18.6603 -18.9282 0 
-15.429 -16.2788 0 
7.31859e-13 -23.6603 0 
2.33253 -19.6101 0 
-2.33193 -19.2985 0 
-4.66506 -23.6603 0 
7.31859e-13 -23.6603 0 
-2.33193 -19.2985 0 
16.3538 -17.3994 0 
12.8428 -14.6832 0 
13.3006 -17.8132 0 
11.0639 -19.9323 0 
15.1615 -20.2689 0 
13.3006 -17.8132 0 
15.1615 -20.2689 0 
16.3538 -17.3994 0 
13.3006 -17.8132 0 
9.98828 -13.1279 0 
6.9976 -14.4018 0 
9.4438 -16.8634 0 
12.8428 -14.6832 0 
9.98828 -13.1279 0 
9.4438 -16.8634 0 
6.9976 -19.3249 0 
11.0639 -19.9323 0 
9.4438 -16.8634 0 
11.0639 -19.9323 0 
13.3006 -17.8132 0 
9.4438 -16.8634 0 
13.3006 -17.8132 0 
12.8428 -14.6832 0 
9.4438 -16.8634 0 
12.0116 -10.2136 0 
14.5138 -9.07496 0 
12.9472 -8.95107 0 
14.5138 -9.07496 0 
14.5138 -6.58752 0 
12.9472 -8.95107 0 
14.5138 -6.58752 0 
12.3728 -7.48838 0 
12.9472 -8.95107 0 
12.0116 -10.2136 0 
12.9472 -8.95107 0 
10.805 -8.66713 0 
12.9472 -8.95107 0 
12.3728 -7.48838 0 
10.805 -8.66713 0 
14.5138 -9.07496 0 
12.0116 -10.2136 0 
15.0754 -11.298 0 
16.8566 -9.85408 0 
14.5138 -9.07496 0 
15.0754 -11.298 0 
15.9227 -13.4286 0 
18.6603 -11.5401 0 
15.0754 -11.298 0 
18.6603 -11.5401 0 
16.8566 -9.85408 0 
15.0754 -11.298 0 
6.9976 -14.4018 0 
9.98828 -13.1279 0 
7.7286 -11.9705 0 
9.98828 -13.1279 0 
12.8428 -14.6832 0 
12.1849 -12.4935 0 
15.0754 -11.298 0 
12.0116 -10.2136 0 
12.1849 -12.4935 0 
15.9227 -13.4286 0 
15.0754 -11.298 0 
12.1849 -12.4935 0 
12.8428 -14.6832 0 
15.9227 -13.4286 0 
12.1849 -12.4935 0 
7.7286 -11.9705 0 
9.98828 -13.1279 0 
10.5251 -11.3411 0 
9.98828 -13.1279 0 
12.1849 -12.4935 0 
10.5251 -11.3411 0 
12.1849 -12.4935 0 
12.0116 -10.2136 0 
10.5251 -11.3411 0 
12.0116 -10.2136 0 
10.805 -8.66713 0 
10.5251 -11.3411 0 
10.805 -8.66713 0 
9.27458 -9.95657 0 
10.5251 -11.3411 0 
-3.81253 -3.13041 0 
-6.02715 -2.10658 0 
-6.05995 -5.08463 0 
-6.02715 -2.10658 0 
-8.79833 -3.91367 0 
-6.05995 -5.08463 0 
-3.81253 -3.13041 0 
-6.05995 -5.08463 0 
-2.99544 -4.87202 0 
-2.11396 -3.1621 0 
-3.81253 -3.13041 0 
-2.99544 -4.87202 0 
0.256922 -3.28283 0 
-0.628262 -2.33818 0 
-0.943712 -3.52083 0 
-0.628262 -2.33818 0 
-2.11396 -3.1621 0 
-0.943712 -3.52083 0 
-2.11396 -3.1621 0 
-2.99544 -4.87202 0 
-0.943712 -3.52083 0 
-2.99544 -4.87202 0 
-1.41548 -5.96954 0 
-0.943712 -3.52083 0 
-8.79833 -3.91367 0 
-12.2659 -6.29381 0 
-8.99764 -7.33931 0 
-6.05995 -5.08463 0 
-8.79833 -3.91367 0 
-8.99764 -7.33931 0 
-13.6479 -11.5402 0 
-11.5952 -16.5622 0 
-9.91663 -12.9456 0 
-18.6603 -14.1962 0 
-15.429 -16.2788 0 
-15.8669 -13.4101 0 
-15.429 -16.2788 0 
-11.5952 -16.5622 0 
-15.8669 -13.4101 0 
-11.5952 -16.5622 0 
-13.6479 -11.5402 0 
-15.8669 -13.4101 0 
-18.6603 -11.8301 0 
-18.6603 -14.1962 0 
-15.8669 -13.4101 0 
-6.9976 -23.6603 0 
-4.66506 -23.6603 0 
-5.83133 -21.3329 0 
-9.33013 -23.6603 0 
-6.9976 -23.6603 0 
-5.83133 -21.3329 0 
-6.9976 -19.0055 0 
-9.33013 -23.6603 0 
-5.83133 -21.3329 0 
-4.66506 -23.6603 0 
-2.33193 -19.2985 0 
-5.83133 -21.3329 0 
-18.6603 -9.4641 0 
-18.6603 -11.8301 0 
-16.2141 -10.6471 0 
-18.6603 -11.8301 0 
-15.8669 -13.4101 0 
-16.2141 -10.6471 0 
-15.8669 -13.4101 0 
-13.6479 -11.5402 0 
-16.2141 -10.6471 0 
-13.6479 -11.5402 0 
-15.8241 -7.15071 0 
-16.2141 -10.6471 0 
-15.8241 -7.15071 0 
-18.6603 -9.4641 0 
-16.2141 -10.6471 0 
2.33253 -19.6101 0 
6.9976 -19.3249 0 
4.53084 -17.2724 0 
-2.33193 -19.2985 0 
-2.33253 -14.6237 0 
-4.52717 -16.9614 0 
-6.9976 -19.0055 0 
-5.83133 -21.3329 0 
-4.52717 -16.9614 0 
-5.83133 -21.3329 0 
-2.33193 -19.2985 0 
-4.52717 -16.9614 0 
-2.33193 -19.2985 0 
2.33253 -19.6101 0 
0.146672 -17.2632 0 
-2.33253 -14.6237 0 
-2.33193 -19.2985 0 
0.146672 -17.2632 0 
2.34235 -14.9255 0 
-2.33253 -14.6237 0 
0.146672 -17.2632 0 
2.33253 -19.6101 0 
4.53084 -17.2724 0 
0.146672 -17.2632 0 
4.53084 -17.2724 0 
2.34235 -14.9255 0 
0.146672 -17.2632 0 
4.53084 -17.2724 0 
6.9976 -19.3249 0 
6.98224 -16.8634 0 
6.9976 -19.3249 0 
9.4438 -16.8634 0 
6.98224 -16.8634 0 
9.4438 -16.8634 0 
6.9976 -14.4018 0 
6.98224 -16.8634 0 
9.27458 -9.95657 0 
10.805 -8.66713 0 
9.52293 -8.6984 0 
-1.41548 -5.96954 0 
1.33282 -6.44432 0 
0.153004 -5.08201 0 
1.33282 -6.44432 0 
2.11203 -5.09291 0 
0.153004 -5.08201 0 
0.256922 -3.28283 0 
-0.943712 -3.52083 0 
0.153004 -5.08201 0 
-0.943712 -3.52083 0 
-1.41548 -5.96954 0 
0.153004 -5.08201 0 
-8.99764 -7.33931 0 
-12.2659 -6.29381 0 
-11.4322 -9.31862 0 
-13.6479 -11.5402 0 
-9.91663 -12.9456 0 
-11.4322 -9.31862 0 
-12.2659 -6.29381 0 
-15.8241 -7.15071 0 
-11.4322 -9.31862 0 
-15.8241 -7.15071 0 
-13.6479 -11.5402 0 
-11.4322 -9.31862 0 
-9.91663 -12.9456 0 
-7.05575 -10.1684 0 
-11.4322 -9.31862 0 
-7.05575 -10.1684 0 
-8.99764 -7.33931 0 
-11.4322 -9.31862 0 
-6.05995 -5.08463 0 
-8.99764 -7.33931 0 
-6.42282 -7.65296 0 
-8.99764 -7.33931 0 
-7.05575 -10.1684 0 
-6.42282 -7.65296 0 
-4.52717 -16.9614 0 
-2.33253 -14.6237 0 
-4.87224 -12.5848 0 
-7.05575 -10.1684 0 
-9.91663 -12.9456 0 
-4.87224 -12.5848 0 
-2.33253 -14.6237 0 
-2.6375 -10.2157 0 
-4.87224 -12.5848 0 
1.33282 -6.44432 0 
-1.41548 -5.96954 0 
-0.44568 -8.54757 0 
-2.6375 -10.2157 0 
-2.33253 -14.6237 0 
0.168818 -12.2361 0 
-2.33253 -14.6237 0 
2.34235 -14.9255 0 
0.168818 -12.2361 0 
-6.9976 -19.0055 0 
-4.52717 -16.9614 0 
-8.29353 -15.8967 0 
-4.52717 -16.9614 0 
-4.87224 -12.5848 0 
-8.29353 -15.8967 0 
-4.87224 -12.5848 0 
-9.91663 -12.9456 0 
-8.29353 -15.8967 0 
-9.91663 -12.9456 0 
-11.5952 -16.5622 0 
-8.29353 -15.8967 0 
-11.5952 -16.5622 0 
-6.9976 -19.0055 0 
-8.29353 -15.8967 0 
2.34235 -14.9255 0 
4.53084 -17.2724 0 
4.699 -14.9218 0 
4.53084 -17.2724 0 
6.98224 -16.8634 0 
4.699 -14.9218 0 
6.98224 -16.8634 0 
6.9976 -14.4018 0 
4.699 -14.9218 0 
6.9976 -14.4018 0 
4.40366 -12.2964 0 
4.699 -14.9218 0 
4.40366 -12.2964 0 
2.34235 -14.9255 0 
4.699 -14.9218 0 
10.805 -8.66713 0 
12.3728 -7.48838 0 
10.5491 -7.41832 0 
9.27458 -7.44022 0 
9.52293 -8.6984 0 
10.5491 -7.41832 0 
9.52293 -8.6984 0 
10.805 -8.66713 0 
10.5491 -7.41832 0 
3.5743 -7.31012 0 
5.97672 -7.26358 0 
4.75497 -6.22652 0 
1.33282 -6.44432 0 
3.5743 -7.31012 0 
3.01573 -6.08771 0 
2.11203 -5.09291 0 
1.33282 -6.44432 0 
3.01573 -6.08771 0 
3.5743 -7.31012 0 
4.75497 -6.22652 0 
3.01573 -6.08771 0 
4.40366 -12.2964 0 
6.9976 -14.4018 0 
5.98669 -11.323 0 
6.9976 -14.4018 0 
7.7286 -11.9705 0 
5.98669 -11.323 0 
5.98669 -11.323 0 
6.78187 -9.64338 0 
4.80841 -8.98495 0 
5.97672 -7.26358 0 
3.5743 -7.31012 0 
4.80841 -8.98495 0 
9.27458 -9.95657 0 
9.52293 -8.6984 0 
8.11932 -9.07494 0 
-6.42282 -7.65296 0 
-7.05575 -10.1684 0 
-4.83803 -9.38907 0 
-7.05575 -10.1684 0 
-4.87224 -12.5848 0 
-4.83803 -9.38907 0 
-4.87224 -12.5848 0 
-2.6375 -10.2157 0 
-4.83803 -9.38907 0 
-6.42282 -7.65296 0 
-4.83803 -9.38907 0 
-4.41331 -6.62708 0 
-1.41548 -5.96954 0 
-2.99544 -4.87202 0 
-4.41331 -6.62708 0 
-6.05995 -5.08463 0 
-6.42282 -7.65296 0 
-4.41331 -6.62708 0 
-2.99544 -4.87202 0 
-6.05995 -5.08463 0 
-4.41331 -6.62708 0 
1.33282 -6.44432 0 
-0.44568 -8.54757 0 
1.77853 -8.62479 0 
3.5743 -7.31012 0 
1.33282 -6.44432 0 
1.77853 -8.62479 0 
8.11932 -9.07494 0 
9.52293 -8.6984 0 
8.15975 -7.87794 0 
9.52293 -8.6984 0 
9.27458 -7.44022 0 
8.15975 -7.87794 0 
9.27458 -9.95657 0 
8.11932 -9.07494 0 
7.93917 -10.5087 0 
8.11932 -9.07494 0 
6.78187 -9.64338 0 
7.93917 -10.5087 0 
6.78187 -9.64338 0 
5.98669 -11.323 0 
7.93917 -10.5087 0 
5.98669 -11.323 0 
7.7286 -11.9705 0 
7.93917 -10.5087 0 
7.7286 -11.9705 0 
10.5251 -11.3411 0 
7.93917 -10.5087 0 
10.5251 -11.3411 0 
9.27458 -9.95657 0 
7.93917 -10.5087 0 
-2.6375 -10.2157 0 
-0.44568 -8.54757 0 
-2.6152 -7.97098 0 
-1.41548 -5.96954 0 
-4.41331 -6.62708 0 
-2.6152 -7.97098 0 
-0.44568 -8.54757 0 
-1.41548 -5.96954 0 
-2.6152 -7.97098 0 
-4.41331 -6.62708 0 
-4.83803 -9.38907 0 
-2.6152 -7.97098 0 
-4.83803 -9.38907 0 
-2.6375 -10.2157 0 
-2.6152 -7.97098 0 
3.5743 -7.31012 0 
1.77853 -8.62479 0 
3.29291 -8.80956 0 
4.80841 -8.98495 0 
3.5743 -7.31012 0 
3.29291 -8.80956 0 
1.77853 -8.62479 0 
-0.44568 -8.54757 0 
0.608059 -10.2675 0 
-2.6375 -10.2157 0 
0.168818 -12.2361 0 
0.608059 -10.2675 0 
-0.44568 -8.54757 0 
-2.6375 -10.2157 0 
0.608059 -10.2675 0 
8.11932 -9.07494 0 
8.15975 -7.87794 0 
7.01856 -7.74726 0 
6.78187 -9.64338 0 
8.11932 -9.07494 0 
7.01856 -7.74726 0 
4.80841 -8.98495 0 
3.29291 -8.80956 0 
3.85946 -10.5494 0 
5.98669 -11.323 0 
4.80841 -8.98495 0 
3.85946 -10.5494 0 
4.40366 -12.2964 0 
5.98669 -11.323 0 
3.85946 -10.5494 0 
3.29291 -8.80956 0 
1.77853 -8.62479 0 
3.85946 -10.5494 0 
6.78187 -9.64338 0 
7.01856 -7.74726 0 
6.0144 -8.54631 0 
4.80841 -8.98495 0 
6.78187 -9.64338 0 
6.0144 -8.54631 0 
7.01856 -7.74726 0 
5.97672 -7.26358 0 
6.0144 -8.54631 0 
5.97672 -7.26358 0 
4.80841 -8.98495 0 
6.0144 -8.54631 0 
4.40366 -12.2964 0 
3.85946 -10.5494 0 
2.12699 -11.6397 0 
0.608059 -10.2675 0 
0.168818 -12.2361 0 
2.12699 -11.6397 0 
0.168818 -12.2361 0 
2.34235 -14.9255 0 
2.12699 -11.6397 0 
2.34235 -14.9255 0 
4.40366 -12.2964 0 
2.12699 -11.6397 0 
3.85946 -10.5494 0 
1.77853 -8.62479 0 
2.12699 -11.6397 0 
1.77853 -8.62479 0 
0.608059 -10.2675 0 
2.12699 -11.6397 0 
18.6603 -23.6603 0 
18.6603 -19.4817 0 
18.6603 -19.4817 0 
18.6603 -15.3171 0 
16.3277 -23.6603 0 
18.6603 -23.6603 0 
18.6603 -5 0 
15.7014 -5 0 
15.7014 -5 0 
13.3262 -5 0 
18.6603 -6.58405 0 
18.6603 -5 0 
4.66506 -23.6603 0 
9.33013 -23.6603 0 
9.33013 -23.6603 0 
13.9952 -23.6603 0 
13.9952 -23.6603 0 
16.3277 -23.6603 0 
18.6603 -8.1681 0 
18.6603 -6.58405 0 
18.6603 -11.5401 0 
18.6603 -8.1681 0 
-1.25652 0 0 
-2.82882 0 0 
-2.82882 0 0 
-4.79624 0 0 
0 0 0 
-1.25652 0 0 
-18.6603 -2.36603 0 
-18.6603 -4.73205 0 
-18.6603 -4.73205 0 
-18.6603 -9.4641 0 
-18.6603 0 0 
-18.6603 -2.36603 0 
-16.4267 0 0 
-18.6603 0 0 
-14.1932 0 0 
-16.4267 0 0 
-18.6603 -18.9282 0 
-18.6603 -21.2942 0 
-18.6603 -21.2942 0 
-18.6603 -23.6603 0 
-18.6603 -23.6603 0 
-16.3277 -23.6603 0 
-16.3277 -23.6603 0 
-13.9952 -23.6603 0 
-13.9952 -23.6603 0 
-9.33013 -23.6603 0 
7.31859e-13 -23.6603 0 
4.66506 -23.6603 0 
18.6603 -15.3171 0 
18.6603 -11.5401 0 
13.3262 -5 0 
11.4195 -5 0 
11.4195 -5 0 
9.88891 -5 0 
-4.79624 0 0 
-7.25807 0 0 
-7.25807 0 0 
-10.3386 0 0 
2.16506 -1.25 0 
1.6238 -0.9375 0 
3.2476 -1.875 0 
2.16506 -1.25 0 
1.08253 -0.625 0 
0 0 0 
-18.6603 -9.4641 0 
-18.6603 -11.8301 0 
-10.3386 0 0 
-14.1932 0 0 
-9.33013 -23.6603 0 
-6.9976 -23.6603 0 
-18.6603 -14.1962 0 
-18.6603 -18.9282 0 
-4.66506 -23.6603 0 
7.31859e-13 -23.6603 0 
9.88891 -5 0 
8.66025 -5 0 
8.66025 -5 0 
8.11899 -4.6875 0 
1.6238 -0.9375 0 
1.08253 -0.625 0 
-18.6603 -11.8301 0 
-18.6603 -14.1962 0 
-6.9976 -23.6603 0 
-4.66506 -23.6603 0 
7.57772 -4.375 0 
6.49519 -3.75 0 
6.49519 -3.75 0 
5.95392 -3.4375 0 
5.41266 -3.125 0 
4.33013 -2.5 0 
4.33013 -2.5 0 
3.2476 -1.875 0 
5.95392 -3.4375 0 
5.41266 -3.125 0 
8.11899 -4.6875 0 
7.57772 -4.375 0 
13.3262 -5 0 
12.3728 -5 0 
12.8495 -5.53078 0 
12.8495 -5.53078 0 
11.8962 -5.53078 0 
12.3728 -6.06157 0 
11.8962 -5.53078 0 
12.8495 -5.53078 0 
12.3728 -5 0 
0.876117 -3.47144 0 
0.585352 -2.72505 0 
0.256922 -3.28283 0 
3.2476 -1.875 0 
2.70633 -1.5625 0 
2.69705 -2.21085 0 
2.70633 -1.5625 0 
2.16506 -1.25 0 
2.15579 -1.89835 0 
2.15579 -1.89835 0 
2.69705 -2.21085 0 
2.70633 -1.5625 0 
1.6238 -0.9375 0 
1.35316 -0.78125 0 
1.31098 -1.16682 0 
1.35316 -0.78125 0 
1.08253 -0.625 0 
1.04034 -1.01057 0 
1.04034 -1.01057 0 
1.31098 -1.16682 0 
1.35316 -0.78125 0 
2.16506 -1.25 0 
1.89443 -1.09375 0 
1.58161 -1.32307 0 
1.89443 -1.09375 0 
1.6238 -0.9375 0 
1.31098 -1.16682 0 
1.31098 -1.16682 0 
1.58161 -1.32307 0 
1.89443 -1.09375 0 
12.3728 -7.48838 0 
12.3728 -6.77498 0 
11.5135 -6.81815 0 
12.3728 -6.77498 0 
12.3728 -6.06157 0 
11.5135 -6.10474 0 
11.5135 -6.81815 0 
11.5135 -6.10474 0 
10.6542 -6.14791 0 
11.5135 -6.10474 0 
11.5135 -6.81815 0 
12.3728 -6.77498 0 
12.3728 -6.06157 0 
11.8962 -5.53078 0 
11.5135 -6.10474 0 
2.88656 -5.00086 0 
2.50424 -4.41269 0 
2.11203 -5.09291 0 
2.50424 -4.41269 0 
1.80367 -4.37648 0 
2.11203 -5.09291 0 
7.03646 -4.0625 0 
6.49519 -3.75 0 
6.48342 -4.39539 0 
6.48342 -4.39539 0 
7.02468 -4.70789 0 
7.03646 -4.0625 0 
5.41266 -3.125 0 
4.87139 -2.8125 0 
4.85962 -3.45789 0 
4.87139 -2.8125 0 
4.33013 -2.5 0 
4.31835 -3.14539 0 
4.31835 -3.14539 0 
4.85962 -3.45789 0 
4.87139 -2.8125 0 
3.2476 -1.875 0 
2.69705 -2.21085 0 
3.1523 -2.33795 0 
4.33013 -2.5 0 
3.78886 -2.1875 0 
3.69356 -2.65045 0 
3.78886 -2.1875 0 
3.2476 -1.875 0 
3.1523 -2.33795 0 
3.1523 -2.33795 0 
3.69356 -2.65045 0 
3.78886 -2.1875 0 
-0.628262 -1.71143 0 
-0.628262 -2.33818 0 
-0.208877 -2.01916 0 
-0.208877 -2.01916 0 
-0.208877 -1.39242 0 
-0.628262 -1.71143 0 
-0.628262 -2.33818 0 
-0.18567 -2.8105 0 
-0.208877 -2.01916 0 
-0.18567 -2.8105 0 
0.256922 -3.28283 0 
0.233715 -2.49149 0 
0.233715 -2.49149 0 
-0.208877 -2.01916 0 
-0.18567 -2.8105 0 
0.256922 -3.28283 0 
0.585352 -2.72505 0 
0.233715 -2.49149 0 
12.3728 -7.48838 0 
11.5135 -6.81815 0 
11.461 -7.45335 0 
11.5135 -6.81815 0 
10.6542 -6.14791 0 
10.6017 -6.78312 0 
11.461 -7.45335 0 
10.6017 -6.78312 0 
10.5491 -7.41832 0 
10.6017 -6.78312 0 
11.461 -7.45335 0 
11.5135 -6.81815 0 
10.6017 -6.78312 0 
9.91186 -6.78055 0 
10.5491 -7.41832 0 
9.27458 -6.7915 0 
9.27458 -7.44022 0 
9.91186 -7.42927 0 
9.91186 -6.78055 0 
9.91186 -7.42927 0 
10.5491 -7.41832 0 
9.91186 -7.42927 0 
9.91186 -6.78055 0 
9.27458 -6.7915 0 
2.88656 -5.00086 0 
2.11203 -5.09291 0 
2.56388 -5.59031 0 
3.33841 -5.49826 0 
2.56388 -5.59031 0 
3.01573 -6.08771 0 
2.56388 -5.59031 0 
3.33841 -5.49826 0 
2.88656 -5.00086 0 
4.75497 -6.22652 0 
4.20803 -5.56767 0 
3.88535 -6.15712 0 
3.88535 -6.15712 0 
3.33841 -5.49826 0 
3.01573 -6.08771 0 
3.33841 -5.49826 0 
3.88535 -6.15712 0 
4.20803 -5.56767 0 
8.46512 -7.11586 0 
9.27458 -7.44022 0 
8.7667 -6.69626 0 
9.27458 -7.44022 0 
9.27458 -6.7915 0 
8.7667 -6.69626 0 
5.41266 -3.125 0 
4.85962 -3.45789 0 
5.36643 -3.51757 0 
5.36643 -3.51757 0 
4.81339 -3.85046 0 
5.3202 -3.91014 0 
4.81339 -3.85046 0 
5.36643 -3.51757 0 
4.85962 -3.45789 0 
5.95392 -3.4375 0 
5.68329 -3.28125 0 
5.63706 -3.67382 0 
5.68329 -3.28125 0 
5.41266 -3.125 0 
5.36643 -3.51757 0 
5.63706 -3.67382 0 
5.36643 -3.51757 0 
5.3202 -3.91014 0 
5.36643 -3.51757 0 
5.63706 -3.67382 0 
5.68329 -3.28125 0 
4.33013 -2.5 0 
3.69356 -2.65045 0 
4.06923 -2.81804 0 
4.06923 -2.81804 0 
3.43267 -2.96849 0 
3.80834 -3.13609 0 
3.43267 -2.96849 0 
4.06923 -2.81804 0 
3.69356 -2.65045 0 
4.31835 -3.14539 0 
4.33013 -2.5 0 
4.06923 -2.81804 0 
4.05746 -3.46343 0 
4.06923 -2.81804 0 
3.80834 -3.13609 0 
4.06923 -2.81804 0 
4.05746 -3.46343 0 
4.31835 -3.14539 0 
5.97672 -7.26358 0 
6.28494 -6.74896 0 
5.80348 -6.46087 0 
4.75497 -6.22652 0 
5.36584 -6.74505 0 
5.1926 -5.94234 0 
5.36584 -6.74505 0 
5.97672 -7.26358 0 
5.80348 -6.46087 0 
9.27458 -7.44022 0 
8.46512 -7.11586 0 
8.71717 -7.65908 0 
8.46512 -7.11586 0 
7.65567 -6.7915 0 
7.90771 -7.33472 0 
8.71717 -7.65908 0 
7.90771 -7.33472 0 
8.15975 -7.87794 0 
7.90771 -7.33472 0 
8.71717 -7.65908 0 
8.46512 -7.11586 0 
6.48342 -4.39539 0 
6.49519 -3.75 0 
6.23935 -4.06814 0 
5.95392 -3.4375 0 
5.63706 -3.67382 0 
5.96871 -3.91189 0 
5.63706 -3.67382 0 
5.3202 -3.91014 0 
5.65185 -4.14821 0 
5.65185 -4.14821 0 
5.96871 -3.91189 0 
5.63706 -3.67382 0 
6.49519 -3.75 0 
6.22456 -3.59375 0 
6.23935 -4.06814 0 
6.22456 -3.59375 0 
5.95392 -3.4375 0 
5.96871 -3.91189 0 
5.96871 -3.91189 0 
6.23935 -4.06814 0 
6.22456 -3.59375 0 
8.15975 -7.87794 0 
7.90771 -7.33472 0 
7.58916 -7.8126 0 
7.90771 -7.33472 0 
7.65567 -6.7915 0 
7.33712 -7.26938 0 
7.58916 -7.8126 0 
7.33712 -7.26938 0 
7.01856 -7.74726 0 
7.33712 -7.26938 0 
7.58916 -7.8126 0 
7.90771 -7.33472 0 
7.33712 -7.26938 0 
6.80586 -6.9908 0 
7.01856 -7.74726 0 
6.28494 -6.74896 0 
5.97672 -7.26358 0 
6.49764 -7.50542 0 
6.80586 -6.9908 0 
6.49764 -7.50542 0 
7.01856 -7.74726 0 
6.49764 -7.50542 0 
6.80586 -6.9908 0 
6.28494 -6.74896 0 
0 0 0 
-0.314131 0 0 
-0.157066 -0.271171 0 
-0.314131 0 0 
-0.628262 0 0 
-0.471197 -0.271171 0 
-0.157066 -0.271171 0 
-0.471197 -0.271171 0 
-0.314131 -0.542343 0 
-0.471197 -0.271171 0 
-0.157066 -0.271171 0 
-0.314131 0 0 
-0.628262 0 0 
-0.942394 0 0 
-0.785328 -0.271171 0 
-0.942394 0 0 
-1.25652 0 0 
-1.09946 -0.271171 0 
-0.785328 -0.271171 0 
-1.09946 -0.271171 0 
-0.942394 -0.542343 0 
-1.09946 -0.271171 0 
-0.785328 -0.271171 0 
-0.942394 0 0 
-0.314131 -0.542343 0 
-0.628262 -0.542343 0 
-0.471197 -0.813514 0 
-0.628262 -0.542343 0 
-0.942394 -0.542343 0 
-0.785328 -0.813514 0 
-0.471197 -0.813514 0 
-0.785328 -0.813514 0 
-0.628262 -1.08469 0 
-0.785328 -0.813514 0 
-0.471197 -0.813514 0 
-0.628262 -0.542343 0 
-0.942394 -0.542343 0 
-0.628262 -0.542343 0 
-0.785328 -0.271171 0 
-0.628262 -0.542343 0 
-0.314131 -0.542343 0 
-0.471197 -0.271171 0 
-0.785328 -0.271171 0 
-0.471197 -0.271171 0 
-0.628262 0 0 
-0.471197 -0.271171 0 
-0.785328 -0.271171 0 
-0.628262 -0.542343 0 
12.3728 -5 0 
11.8962 -5 0 
12.1345 -5.26539 0 
11.8962 -5 0 
11.4195 -5 0 
11.6578 -5.26539 0 
12.1345 -5.26539 0 
11.6578 -5.26539 0 
11.8962 -5.53078 0 
11.6578 -5.26539 0 
12.1345 -5.26539 0 
11.8962 -5 0 
1.49531 -3.66005 0 
1.34993 -3.28685 0 
1.18571 -3.56574 0 
1.34993 -3.28685 0 
1.20455 -2.91366 0 
1.04033 -3.19255 0 
1.18571 -3.56574 0 
1.04033 -3.19255 0 
0.876117 -3.47144 0 
1.04033 -3.19255 0 
1.18571 -3.56574 0 
1.34993 -3.28685 0 
1.20455 -2.91366 0 
1.05916 -2.54047 0 
0.89495 -2.81936 0 
1.05916 -2.54047 0 
0.913783 -2.16728 0 
0.749568 -2.44617 0 
0.89495 -2.81936 0 
0.749568 -2.44617 0 
0.585352 -2.72505 0 
0.749568 -2.44617 0 
0.89495 -2.81936 0 
1.05916 -2.54047 0 
0.585352 -2.72505 0 
0.730735 -3.09824 0 
0.89495 -2.81936 0 
0.730735 -3.09824 0 
0.876117 -3.47144 0 
1.04033 -3.19255 0 
0.89495 -2.81936 0 
1.04033 -3.19255 0 
1.20455 -2.91366 0 
1.04033 -3.19255 0 
0.89495 -2.81936 0 
0.730735 -3.09824 0 
0.913783 -2.16728 0 
1.05916 -2.54047 0 
1.22196 -2.26214 0 
1.05916 -2.54047 0 
1.20455 -2.91366 0 
1.36735 -2.63533 0 
1.22196 -2.26214 0 
1.36735 -2.63533 0 
1.53015 -2.35699 0 
1.36735 -2.63533 0 
1.22196 -2.26214 0 
1.05916 -2.54047 0 
1.20455 -2.91366 0 
1.34993 -3.28685 0 
1.51273 -3.00852 0 
1.34993 -3.28685 0 
1.49531 -3.66005 0 
1.65811 -3.38171 0 
1.51273 -3.00852 0 
1.65811 -3.38171 0 
1.82091 -3.10338 0 
1.65811 -3.38171 0 
1.51273 -3.00852 0 
1.34993 -3.28685 0 
1.53015 -2.35699 0 
1.67553 -2.73019 0 
1.83833 -2.45185 0 
1.67553 -2.73019 0 
1.82091 -3.10338 0 
1.98371 -2.82504 0 
1.83833 -2.45185 0 
1.98371 -2.82504 0 
2.14651 -2.54671 0 
1.98371 -2.82504 0 
1.83833 -2.45185 0 
1.67553 -2.73019 0 
1.82091 -3.10338 0 
1.67553 -2.73019 0 
1.51273 -3.00852 0 
1.67553 -2.73019 0 
1.53015 -2.35699 0 
1.36735 -2.63533 0 
1.51273 -3.00852 0 
1.36735 -2.63533 0 
1.20455 -2.91366 0 
1.36735 -2.63533 0 
1.51273 -3.00852 0 
1.67553 -2.73019 0 
2.16506 -1.25 0 
1.85224 -1.47932 0 
2.16043 -1.57418 0 
1.85224 -1.47932 0 
1.53942 -1.70864 0 
1.8476 -1.8035 0 
2.16043 -1.57418 0 
1.8476 -1.8035 0 
2.15579 -1.89835 0 
1.8476 -1.8035 0 
2.16043 -1.57418 0 
1.85224 -1.47932 0 
1.53942 -1.70864 0 
1.2266 -1.93796 0 
1.53478 -2.03282 0 
1.2266 -1.93796 0 
0.913783 -2.16728 0 
1.22196 -2.26214 0 
1.53478 -2.03282 0 
1.22196 -2.26214 0 
1.53015 -2.35699 0 
1.22196 -2.26214 0 
1.53478 -2.03282 0 
1.2266 -1.93796 0 
2.15579 -1.89835 0 
1.84297 -2.12767 0 
2.15115 -2.22253 0 
1.84297 -2.12767 0 
1.53015 -2.35699 0 
1.83833 -2.45185 0 
2.15115 -2.22253 0 
1.83833 -2.45185 0 
2.14651 -2.54671 0 
1.83833 -2.45185 0 
2.15115 -2.22253 0 
1.84297 -2.12767 0 
1.53015 -2.35699 0 
1.84297 -2.12767 0 
1.53478 -2.03282 0 
1.84297 -2.12767 0 
2.15579 -1.89835 0 
1.8476 -1.8035 0 
1.53478 -2.03282 0 
1.8476 -1.8035 0 
1.53942 -1.70864 0 
1.8476 -1.8035 0 
1.53478 -2.03282 0 
1.84297 -2.12767 0 
2.69705 -2.21085 0 
2.42642 -2.0546 0 
2.42178 -2.37878 0 
2.42642 -2.0546 0 
2.15579 -1.89835 0 
2.15115 -2.22253 0 
2.42178 -2.37878 0 
2.15115 -2.22253 0 
2.14651 -2.54671 0 
2.15115 -2.22253 0 
2.42178 -2.37878 0 
2.42642 -2.0546 0 
0 0 0 
-0.157066 -0.271171 0 
0.0568638 -0.214009 0 
-0.157066 -0.271171 0 
-0.314131 -0.542343 0 
-0.100202 -0.48518 0 
0.0568638 -0.214009 0 
-0.100202 -0.48518 0 
0.113728 -0.428018 0 
-0.100202 -0.48518 0 
0.0568638 -0.214009 0 
-0.157066 -0.271171 0 
-0.314131 -0.542343 0 
-0.471197 -0.813514 0 
-0.257267 -0.756352 0 
-0.471197 -0.813514 0 
-0.628262 -1.08469 0 
-0.414333 -1.02752 0 
-0.257267 -0.756352 0 
-0.414333 -1.02752 0 
-0.200404 -0.970361 0 
-0.414333 -1.02752 0 
-0.257267 -0.756352 0 
-0.471197 -0.813514 0 
0.113728 -0.428018 0 
-0.043338 -0.699189 0 
0.170591 -0.642027 0 
-0.043338 -0.699189 0 
-0.200404 -0.970361 0 
0.0135258 -0.913198 0 
0.170591 -0.642027 0 
0.0135258 -0.913198 0 
0.227455 -0.856036 0 
0.0135258 -0.913198 0 
0.170591 -0.642027 0 
-0.043338 -0.699189 0 
-0.200404 -0.970361 0 
-0.043338 -0.699189 0 
-0.257267 -0.756352 0 
-0.043338 -0.699189 0 
0.113728 -0.428018 0 
-0.100202 -0.48518 0 
-0.257267 -0.756352 0 
-0.100202 -0.48518 0 
-0.314131 -0.542343 0 
-0.100202 -0.48518 0 
-0.257267 -0.756352 0 
-0.043338 -0.699189 0 
1.08253 -0.625 0 
0.811899 -0.46875 0 
0.868763 -0.682759 0 
0.811899 -0.46875 0 
0.541266 -0.3125 0 
0.59813 -0.526509 0 
0.868763 -0.682759 0 
0.59813 -0.526509 0 
0.654994 -0.740518 0 
0.59813 -0.526509 0 
0.868763 -0.682759 0 
0.811899 -0.46875 0 
0.541266 -0.3125 0 
0.270633 -0.15625 0 
0.327497 -0.370259 0 
0.270633 -0.15625 0 
0 0 0 
0.0568638 -0.214009 0 
0.327497 -0.370259 0 
0.0568638 -0.214009 0 
0.113728 -0.428018 0 
0.0568638 -0.214009 0 
0.327497 -0.370259 0 
0.270633 -0.15625 0 
0.654994 -0.740518 0 
0.384361 -0.584268 0 
0.441224 -0.798277 0 
0.384361 -0.584268 0 
0.113728 -0.428018 0 
0.170591 -0.642027 0 
0.441224 -0.798277 0 
0.170591 -0.642027 0 
0.227455 -0.856036 0 
0.170591 -0.642027 0 
0.441224 -0.798277 0 
0.384361 -0.584268 0 
0.113728 -0.428018 0 
0.384361 -0.584268 0 
0.327497 -0.370259 0 
0.384361 -0.584268 0 
0.654994 -0.740518 0 
0.59813 -0.526509 0 
0.327497 -0.370259 0 
0.59813 -0.526509 0 
0.541266 -0.3125 0 
0.59813 -0.526509 0 
0.327497 -0.370259 0 
0.384361 -0.584268 0 
9.88891 -5 0 
9.58175 -5 0 
9.73533 -5.28569 0 
9.58175 -5 0 
9.27458 -5 0 
9.42816 -5.28569 0 
9.73533 -5.28569 0 
9.42816 -5.28569 0 
9.58175 -5.57139 0 
9.42816 -5.28569 0 
9.73533 -5.28569 0 
9.58175 -5 0 
9.27458 -5 0 
8.96742 -5 0 
9.121 -5.28569 0 
8.96742 -5 0 
8.66025 -5 0 
8.81384 -5.28569 0 
9.121 -5.28569 0 
8.81384 -5.28569 0 
8.96742 -5.57139 0 
8.81384 -5.28569 0 
9.121 -5.28569 0 
8.96742 -5 0 
9.58175 -5.57139 0 
9.27458 -5.57139 0 
9.42816 -5.85708 0 
9.27458 -5.57139 0 
8.96742 -5.57139 0 
9.121 -5.85708 0 
9.42816 -5.85708 0 
9.121 -5.85708 0 
9.27458 -6.14278 0 
9.121 -5.85708 0 
9.42816 -5.85708 0 
9.27458 -5.57139 0 
8.96742 -5.57139 0 
9.27458 -5.57139 0 
9.121 -5.28569 0 
9.27458 -5.57139 0 
9.58175 -5.57139 0 
9.42816 -5.28569 0 
9.121 -5.28569 0 
9.42816 -5.28569 0 
9.27458 -5 0 
9.42816 -5.28569 0 
9.121 -5.28569 0 
9.27458 -5.57139 0 
2.14651 -2.54671 0 
1.98371 -2.82504 0 
2.334 -2.84315 0 
1.98371 -2.82504 0 
1.82091 -3.10338 0 
2.1712 -3.12148 0 
2.334 -2.84315 0 
2.1712 -3.12148 0 
2.52148 -3.13959 0 
2.1712 -3.12148 0 
2.334 -2.84315 0 
1.98371 -2.82504 0 
1.82091 -3.10338 0 
1.65811 -3.38171 0 
2.0084 -3.39982 0 
1.65811 -3.38171 0 
1.49531 -3.66005 0 
1.8456 -3.67815 0 
2.0084 -3.39982 0 
1.8456 -3.67815 0 
2.19588 -3.69626 0 
1.8456 -3.67815 0 
2.0084 -3.39982 0 
1.65811 -3.38171 0 
2.52148 -3.13959 0 
2.35868 -3.41792 0 
2.70897 -3.43603 0 
2.35868 -3.41792 0 
2.19588 -3.69626 0 
2.54617 -3.71436 0 
2.70897 -3.43603 0 
2.54617 -3.71436 0 
2.89645 -3.73247 0 
2.54617 -3.71436 0 
2.70897 -3.43603 0 
2.35868 -3.41792 0 
2.19588 -3.69626 0 
2.35868 -3.41792 0 
2.0084 -3.39982 0 
2.35868 -3.41792 0 
2.52148 -3.13959 0 
2.1712 -3.12148 0 
2.0084 -3.39982 0 
2.1712 -3.12148 0 
1.82091 -3.10338 0 
2.1712 -3.12148 0 
2.0084 -3.39982 0 
2.35868 -3.41792 0 
1.31098 -1.16682 0 
1.17566 -1.0887 0 
1.15457 -1.28148 0 
1.17566 -1.0887 0 
1.04034 -1.01057 0 
1.01925 -1.20336 0 
1.15457 -1.28148 0 
1.01925 -1.20336 0 
0.998157 -1.39614 0 
1.01925 -1.20336 0 
1.15457 -1.28148 0 
1.17566 -1.0887 0 
1.58161 -1.32307 0 
1.44629 -1.24495 0 
1.28988 -1.35961 0 
1.44629 -1.24495 0 
1.31098 -1.16682 0 
1.15457 -1.28148 0 
1.28988 -1.35961 0 
1.15457 -1.28148 0 
0.998157 -1.39614 0 
1.15457 -1.28148 0 
1.28988 -1.35961 0 
1.44629 -1.24495 0 
0.913783 -2.16728 0 
1.2266 -1.93796 0 
0.934876 -1.9745 0 
1.2266 -1.93796 0 
1.53942 -1.70864 0 
1.2477 -1.74518 0 
0.934876 -1.9745 0 
1.2477 -1.74518 0 
0.95597 -1.78171 0 
1.2477 -1.74518 0 
0.934876 -1.9745 0 
1.2266 -1.93796 0 
1.53942 -1.70864 0 
1.85224 -1.47932 0 
1.56052 -1.51586 0 
1.85224 -1.47932 0 
2.16506 -1.25 0 
1.87334 -1.28654 0 
1.56052 -1.51586 0 
1.87334 -1.28654 0 
1.58161 -1.32307 0 
1.87334 -1.28654 0 
1.56052 -1.51586 0 
1.85224 -1.47932 0 
0.95597 -1.78171 0 
1.26879 -1.55239 0 
0.977064 -1.58893 0 
1.26879 -1.55239 0 
1.58161 -1.32307 0 
1.28988 -1.35961 0 
0.977064 -1.58893 0 
1.28988 -1.35961 0 
0.998157 -1.39614 0 
1.28988 -1.35961 0 
0.977064 -1.58893 0 
1.26879 -1.55239 0 
1.58161 -1.32307 0 
1.26879 -1.55239 0 
1.56052 -1.51586 0 
1.26879 -1.55239 0 
0.95597 -1.78171 0 
1.2477 -1.74518 0 
1.56052 -1.51586 0 
1.2477 -1.74518 0 
1.53942 -1.70864 0 
1.2477 -1.74518 0 
1.56052 -1.51586 0 
1.26879 -1.55239 0 
1.08253 -0.625 0 
0.868763 -0.682759 0 
1.06144 -0.817785 0 
0.868763 -0.682759 0 
0.654994 -0.740518 0 
0.847669 -0.875544 0 
1.06144 -0.817785 0 
0.847669 -0.875544 0 
1.04034 -1.01057 0 
0.847669 -0.875544 0 
1.06144 -0.817785 0 
0.868763 -0.682759 0 
0.654994 -0.740518 0 
0.441224 -0.798277 0 
0.6339 -0.933303 0 
0.441224 -0.798277 0 
0.227455 -0.856036 0 
0.420131 -0.991062 0 
0.6339 -0.933303 0 
0.420131 -0.991062 0 
0.612806 -1.12609 0 
0.420131 -0.991062 0 
0.6339 -0.933303 0 
0.441224 -0.798277 0 
1.04034 -1.01057 0 
0.826575 -1.06833 0 
1.01925 -1.20336 0 
0.826575 -1.06833 0 
0.612806 -1.12609 0 
0.805482 -1.26111 0 
1.01925 -1.20336 0 
0.805482 -1.26111 0 
0.998157 -1.39614 0 
0.805482 -1.26111 0 
1.01925 -1.20336 0 
0.826575 -1.06833 0 
0.612806 -1.12609 0 
0.826575 -1.06833 0 
0.6339 -0.933303 0 
0.826575 -1.06833 0 
1.04034 -1.01057 0 
0.847669 -0.875544 0 
0.6339 -0.933303 0 
0.847669 -0.875544 0 
0.654994 -0.740518 0 
0.847669 -0.875544 0 
0.6339 -0.933303 0 
0.826575 -1.06833 0 
11.8962 -5.53078 0 
11.6578 -5.26539 0 
11.4665 -5.55237 0 
11.6578 -5.26539 0 
11.4195 -5 0 
11.2282 -5.28698 0 
11.4665 -5.55237 0 
11.2282 -5.28698 0 
11.0368 -5.57396 0 
11.2282 -5.28698 0 
11.4665 -5.55237 0 
11.6578 -5.26539 0 
11.5135 -6.10474 0 
11.2752 -5.83935 0 
11.0839 -6.12633 0 
11.2752 -5.83935 0 
11.0368 -5.57396 0 
10.8455 -5.86093 0 
11.0839 -6.12633 0 
10.8455 -5.86093 0 
10.6542 -6.14791 0 
10.8455 -5.86093 0 
11.0839 -6.12633 0 
11.2752 -5.83935 0 
11.0368 -5.57396 0 
11.2752 -5.83935 0 
11.4665 -5.55237 0 
11.2752 -5.83935 0 
11.5135 -6.10474 0 
11.7048 -5.81776 0 
11.4665 -5.55237 0 
11.7048 -5.81776 0 
11.8962 -5.53078 0 
11.7048 -5.81776 0 
11.4665 -5.55237 0 
11.2752 -5.83935 0 
9.88891 -5 0 
9.73533 -5.28569 0 
10.0802 -5.28698 0 
9.73533 -5.28569 0 
9.58175 -5.57139 0 
9.92665 -5.57267 0 
10.0802 -5.28698 0 
9.92665 -5.57267 0 
10.2716 -5.57396 0 
9.92665 -5.57267 0 
10.0802 -5.28698 0 
9.73533 -5.28569 0 
9.58175 -5.57139 0 
9.42816 -5.85708 0 
9.77307 -5.85837 0 
9.42816 -5.85708 0 
9.27458 -6.14278 0 
9.61949 -6.14406 0 
9.77307 -5.85837 0 
9.61949 -6.14406 0 
9.96439 -6.14534 0 
9.61949 -6.14406 0 
9.77307 -5.85837 0 
9.42816 -5.85708 0 
10.2716 -5.57396 0 
10.118 -5.85965 0 
10.4629 -5.86093 0 
10.118 -5.85965 0 
9.96439 -6.14534 0 
10.3093 -6.14663 0 
10.4629 -5.86093 0 
10.3093 -6.14663 0 
10.6542 -6.14791 0 
10.3093 -6.14663 0 
10.4629 -5.86093 0 
10.118 -5.85965 0 
9.96439 -6.14534 0 
10.118 -5.85965 0 
9.77307 -5.85837 0 
10.118 -5.85965 0 
10.2716 -5.57396 0 
9.92665 -5.57267 0 
9.77307 -5.85837 0 
9.92665 -5.57267 0 
9.58175 -5.57139 0 
9.92665 -5.57267 0 
9.77307 -5.85837 0 
10.118 -5.85965 0 
11.4195 -5 0 
11.0368 -5 0 
11.2282 -5.28698 0 
11.0368 -5 0 
10.6542 -5 0 
10.8455 -5.28698 0 
11.2282 -5.28698 0 
10.8455 -5.28698 0 
11.0368 -5.57396 0 
10.8455 -5.28698 0 
11.2282 -5.28698 0 
11.0368 -5 0 
10.6542 -5 0 
10.2716 -5 0 
10.4629 -5.28698 0 
10.2716 -5 0 
9.88891 -5 0 
10.0802 -5.28698 0 
10.4629 -5.28698 0 
10.0802 -5.28698 0 
10.2716 -5.57396 0 
10.0802 -5.28698 0 
10.4629 -5.28698 0 
10.2716 -5 0 
11.0368 -5.57396 0 
10.6542 -5.57396 0 
10.8455 -5.86093 0 
10.6542 -5.57396 0 
10.2716 -5.57396 0 
10.4629 -5.86093 0 
10.8455 -5.86093 0 
10.4629 -5.86093 0 
10.6542 -6.14791 0 
10.4629 -5.86093 0 
10.8455 -5.86093 0 
10.6542 -5.57396 0 
10.2716 -5.57396 0 
10.6542 -5.57396 0 
10.4629 -5.28698 0 
10.6542 -5.57396 0 
11.0368 -5.57396 0 
10.8455 -5.28698 0 
10.4629 -5.28698 0 
10.8455 -5.28698 0 
10.6542 -5 0 
10.8455 -5.28698 0 
10.4629 -5.28698 0 
10.6542 -5.57396 0 
3.66109 -4.90881 0 
3.46993 -4.61473 0 
3.27382 -4.95484 0 
3.46993 -4.61473 0 
3.27877 -4.32064 0 
3.08266 -4.66075 0 
3.27382 -4.95484 0 
3.08266 -4.66075 0 
2.88656 -5.00086 0 
3.08266 -4.66075 0 
3.27382 -4.95484 0 
3.46993 -4.61473 0 
3.27877 -4.32064 0 
3.08761 -4.02656 0 
2.89151 -4.36667 0 
3.08761 -4.02656 0 
2.89645 -3.73247 0 
2.70035 -4.07258 0 
2.89151 -4.36667 0 
2.70035 -4.07258 0 
2.50424 -4.41269 0 
2.70035 -4.07258 0 
2.89151 -4.36667 0 
3.08761 -4.02656 0 
2.50424 -4.41269 0 
2.6954 -4.70678 0 
2.89151 -4.36667 0 
2.6954 -4.70678 0 
2.88656 -5.00086 0 
3.08266 -4.66075 0 
2.89151 -4.36667 0 
3.08266 -4.66075 0 
3.27877 -4.32064 0 
3.08266 -4.66075 0 
2.89151 -4.36667 0 
2.6954 -4.70678 0 
2.89645 -3.73247 0 
2.54617 -3.71436 0 
2.70035 -4.07258 0 
2.54617 -3.71436 0 
2.19588 -3.69626 0 
2.35006 -4.05447 0 
2.70035 -4.07258 0 
2.35006 -4.05447 0 
2.50424 -4.41269 0 
2.35006 -4.05447 0 
2.70035 -4.07258 0 
2.54617 -3.71436 0 
2.19588 -3.69626 0 
1.8456 -3.67815 0 
1.99978 -4.03637 0 
1.8456 -3.67815 0 
1.49531 -3.66005 0 
1.64949 -4.01826 0 
1.99978 -4.03637 0 
1.64949 -4.01826 0 
1.80367 -4.37648 0 
1.64949 -4.01826 0 
1.99978 -4.03637 0 
1.8456 -3.67815 0 
1.80367 -4.37648 0 
2.15396 -4.39459 0 
1.99978 -4.03637 0 
2.15396 -4.39459 0 
2.50424 -4.41269 0 
2.35006 -4.05447 0 
1.99978 -4.03637 0 
2.35006 -4.05447 0 
2.19588 -3.69626 0 
2.35006 -4.05447 0 
1.99978 -4.03637 0 
2.15396 -4.39459 0 
7.57772 -4.375 0 
7.30709 -4.21875 0 
7.3012 -4.54144 0 
7.30709 -4.21875 0 
7.03646 -4.0625 0 
7.03057 -4.38519 0 
7.3012 -4.54144 0 
7.03057 -4.38519 0 
7.02468 -4.70789 0 
7.03057 -4.38519 0 
7.3012 -4.54144 0 
7.30709 -4.21875 0 
7.02468 -4.70789 0 
6.75405 -4.55164 0 
6.74817 -4.87433 0 
6.75405 -4.55164 0 
6.48342 -4.39539 0 
6.47753 -4.71808 0 
6.74817 -4.87433 0 
6.47753 -4.71808 0 
6.47165 -5.04078 0 
6.47753 -4.71808 0 
6.74817 -4.87433 0 
6.75405 -4.55164 0 
3.66109 -4.90881 0 
4.05275 -4.85543 0 
3.82246 -4.62931 0 
4.05275 -4.85543 0 
4.44441 -4.80205 0 
4.21412 -4.57592 0 
3.82246 -4.62931 0 
4.21412 -4.57592 0 
3.98383 -4.3498 0 
4.21412 -4.57592 0 
3.82246 -4.62931 0 
4.05275 -4.85543 0 
4.44441 -4.80205 0 
4.83608 -4.74867 0 
4.60579 -4.52254 0 
4.83608 -4.74867 0 
5.22774 -4.69529 0 
4.99745 -4.46916 0 
4.60579 -4.52254 0 
4.99745 -4.46916 0 
4.76716 -4.24303 0 
4.99745 -4.46916 0 
4.60579 -4.52254 0 
4.83608 -4.74867 0 
3.98383 -4.3498 0 
4.3755 -4.29642 0 
4.14521 -4.07029 0 
4.3755 -4.29642 0 
4.76716 -4.24303 0 
4.53687 -4.01691 0 
4.14521 -4.07029 0 
4.53687 -4.01691 0 
4.30658 -3.79078 0 
4.53687 -4.01691 0 
4.14521 -4.07029 0 
4.3755 -4.29642 0 
4.76716 -4.24303 0 
4.3755 -4.29642 0 
4.60579 -4.52254 0 
4.3755 -4.29642 0 
3.98383 -4.3498 0 
4.21412 -4.57592 0 
4.60579 -4.52254 0 
4.21412 -4.57592 0 
4.44441 -4.80205 0 
4.21412 -4.57592 0 
4.60579 -4.52254 0 
4.3755 -4.29642 0 
4.85962 -3.45789 0 
4.58899 -3.30164 0 
4.5831 -3.62433 0 
4.58899 -3.30164 0 
4.31835 -3.14539 0 
4.31247 -3.46808 0 
4.5831 -3.62433 0 
4.31247 -3.46808 0 
4.30658 -3.79078 0 
4.31247 -3.46808 0 
4.5831 -3.62433 0 
4.58899 -3.30164 0 
2.89645 -3.73247 0 
3.08761 -4.02656 0 
3.24899 -3.74705 0 
3.08761 -4.02656 0 
3.27877 -4.32064 0 
3.44014 -4.04113 0 
3.24899 -3.74705 0 
3.44014 -4.04113 0 
3.60152 -3.76162 0 
3.44014 -4.04113 0 
3.24899 -3.74705 0 
3.08761 -4.02656 0 
3.27877 -4.32064 0 
3.46993 -4.61473 0 
3.6313 -4.33522 0 
3.46993 -4.61473 0 
3.66109 -4.90881 0 
3.82246 -4.62931 0 
3.6313 -4.33522 0 
3.82246 -4.62931 0 
3.98383 -4.3498 0 
3.82246 -4.62931 0 
3.6313 -4.33522 0 
3.46993 -4.61473 0 
3.60152 -3.76162 0 
3.79268 -4.05571 0 
3.95405 -3.7762 0 
3.79268 -4.05571 0 
3.98383 -4.3498 0 
4.14521 -4.07029 0 
3.95405 -3.7762 0 
4.14521 -4.07029 0 
4.30658 -3.79078 0 
4.14521 -4.07029 0 
3.95405 -3.7762 0 
3.79268 -4.05571 0 
3.98383 -4.3498 0 
3.79268 -4.05571 0 
3.6313 -4.33522 0 
3.79268 -4.05571 0 
3.60152 -3.76162 0 
3.44014 -4.04113 0 
3.6313 -4.33522 0 
3.44014 -4.04113 0 
3.27877 -4.32064 0 
3.44014 -4.04113 0 
3.6313 -4.33522 0 
3.79268 -4.05571 0 
2.14651 -2.54671 0 
2.334 -2.84315 0 
2.37413 -2.61025 0 
2.334 -2.84315 0 
2.52148 -3.13959 0 
2.56162 -2.90669 0 
2.37413 -2.61025 0 
2.56162 -2.90669 0 
2.60176 -2.6738 0 
2.56162 -2.90669 0 
2.37413 -2.61025 0 
2.334 -2.84315 0 
2.52148 -3.13959 0 
2.70897 -3.43603 0 
2.74911 -3.20314 0 
2.70897 -3.43603 0 
2.89645 -3.73247 0 
2.93659 -3.49958 0 
2.74911 -3.20314 0 
2.93659 -3.49958 0 
2.97673 -3.26668 0 
2.93659 -3.49958 0 
2.74911 -3.20314 0 
2.70897 -3.43603 0 
2.60176 -2.6738 0 
2.78924 -2.97024 0 
2.82938 -2.73735 0 
2.78924 -2.97024 0 
2.97673 -3.26668 0 
3.01687 -3.03379 0 
2.82938 -2.73735 0 
3.01687 -3.03379 0 
3.057 -2.80089 0 
3.01687 -3.03379 0 
2.82938 -2.73735 0 
2.78924 -2.97024 0 
2.97673 -3.26668 0 
2.78924 -2.97024 0 
2.74911 -3.20314 0 
2.78924 -2.97024 0 
2.60176 -2.6738 0 
2.56162 -2.90669 0 
2.74911 -3.20314 0 
2.56162 -2.90669 0 
2.52148 -3.13959 0 
2.56162 -2.90669 0 
2.74911 -3.20314 0 
2.78924 -2.97024 0 
2.69705 -2.21085 0 
2.42178 -2.37878 0 
2.6494 -2.44233 0 
2.42178 -2.37878 0 
2.14651 -2.54671 0 
2.37413 -2.61025 0 
2.6494 -2.44233 0 
2.37413 -2.61025 0 
2.60176 -2.6738 0 
2.37413 -2.61025 0 
2.6494 -2.44233 0 
2.42178 -2.37878 0 
3.1523 -2.33795 0 
2.87703 -2.50587 0 
3.10465 -2.56942 0 
2.87703 -2.50587 0 
2.60176 -2.6738 0 
2.82938 -2.73735 0 
3.10465 -2.56942 0 
2.82938 -2.73735 0 
3.057 -2.80089 0 
2.82938 -2.73735 0 
3.10465 -2.56942 0 
2.87703 -2.50587 0 
2.60176 -2.6738 0 
2.87703 -2.50587 0 
2.6494 -2.44233 0 
2.87703 -2.50587 0 
3.1523 -2.33795 0 
2.92468 -2.2744 0 
2.6494 -2.44233 0 
2.92468 -2.2744 0 
2.69705 -2.21085 0 
2.92468 -2.2744 0 
2.6494 -2.44233 0 
2.87703 -2.50587 0 
3.69356 -2.65045 0 
3.42293 -2.4942 0 
3.37528 -2.72567 0 
3.42293 -2.4942 0 
3.1523 -2.33795 0 
3.10465 -2.56942 0 
3.37528 -2.72567 0 
3.10465 -2.56942 0 
3.057 -2.80089 0 
3.10465 -2.56942 0 
3.37528 -2.72567 0 
3.42293 -2.4942 0 
0.913783 -2.16728 0 
0.934876 -1.9745 0 
0.737964 -2.0505 0 
0.934876 -1.9745 0 
0.95597 -1.78171 0 
0.759058 -1.85771 0 
0.737964 -2.0505 0 
0.759058 -1.85771 0 
0.562145 -1.93371 0 
0.759058 -1.85771 0 
0.737964 -2.0505 0 
0.934876 -1.9745 0 
0.95597 -1.78171 0 
0.977064 -1.58893 0 
0.780151 -1.66493 0 
0.977064 -1.58893 0 
0.998157 -1.39614 0 
0.801245 -1.47214 0 
0.780151 -1.66493 0 
0.801245 -1.47214 0 
0.604333 -1.54814 0 
0.801245 -1.47214 0 
0.780151 -1.66493 0 
0.977064 -1.58893 0 
0.562145 -1.93371 0 
0.583239 -1.74093 0 
0.386327 -1.81693 0 
0.583239 -1.74093 0 
0.604333 -1.54814 0 
0.407421 -1.62415 0 
0.386327 -1.81693 0 
0.407421 -1.62415 0 
0.210508 -1.70015 0 
0.407421 -1.62415 0 
0.386327 -1.81693 0 
0.583239 -1.74093 0 
0.604333 -1.54814 0 
0.583239 -1.74093 0 
0.780151 -1.66493 0 
0.583239 -1.74093 0 
0.562145 -1.93371 0 
0.759058 -1.85771 0 
0.780151 -1.66493 0 
0.759058 -1.85771 0 
0.95597 -1.78171 0 
0.759058 -1.85771 0 
0.780151 -1.66493 0 
0.583239 -1.74093 0 
0.998157 -1.39614 0 
0.805482 -1.26111 0 
0.801245 -1.47214 0 
0.805482 -1.26111 0 
0.612806 -1.12609 0 
0.608569 -1.33712 0 
0.801245 -1.47214 0 
0.608569 -1.33712 0 
0.604333 -1.54814 0 
0.608569 -1.33712 0 
0.801245 -1.47214 0 
0.805482 -1.26111 0 
0.612806 -1.12609 0 
0.420131 -0.991062 0 
0.415894 -1.20209 0 
0.420131 -0.991062 0 
0.227455 -0.856036 0 
0.223219 -1.06706 0 
0.415894 -1.20209 0 
0.223219 -1.06706 0 
0.218982 -1.27809 0 
0.223219 -1.06706 0 
0.415894 -1.20209 0 
0.420131 -0.991062 0 
0.604333 -1.54814 0 
0.411657 -1.41312 0 
0.407421 -1.62415 0 
0.411657 -1.41312 0 
0.218982 -1.27809 0 
0.214745 -1.48912 0 
0.407421 -1.62415 0 
0.214745 -1.48912 0 
0.210508 -1.70015 0 
0.214745 -1.48912 0 
0.407421 -1.62415 0 
0.411657 -1.41312 0 
0.218982 -1.27809 0 
0.411657 -1.41312 0 
0.415894 -1.20209 0 
0.411657 -1.41312 0 
0.604333 -1.54814 0 
0.608569 -1.33712 0 
0.415894 -1.20209 0 
0.608569 -1.33712 0 
0.612806 -1.12609 0 
0.608569 -1.33712 0 
0.415894 -1.20209 0 
0.411657 -1.41312 0 
0.227455 -0.856036 0 
0.0135258 -0.913198 0 
0.223219 -1.06706 0 
0.0135258 -0.913198 0 
-0.200404 -0.970361 0 
0.0092891 -1.12423 0 
0.223219 -1.06706 0 
0.0092891 -1.12423 0 
0.218982 -1.27809 0 
0.0092891 -1.12423 0 
0.223219 -1.06706 0 
0.0135258 -0.913198 0 
-0.200404 -0.970361 0 
-0.414333 -1.02752 0 
-0.20464 -1.18139 0 
-0.414333 -1.02752 0 
-0.628262 -1.08469 0 
-0.41857 -1.23855 0 
-0.20464 -1.18139 0 
-0.41857 -1.23855 0 
-0.208877 -1.39242 0 
-0.41857 -1.23855 0 
-0.20464 -1.18139 0 
-0.414333 -1.02752 0 
0.218982 -1.27809 0 
0.00505236 -1.33525 0 
0.214745 -1.48912 0 
0.00505236 -1.33525 0 
-0.208877 -1.39242 0 
0.000815613 -1.54628 0 
0.214745 -1.48912 0 
0.000815613 -1.54628 0 
0.210508 -1.70015 0 
0.000815613 -1.54628 0 
0.214745 -1.48912 0 
0.00505236 -1.33525 0 
-0.208877 -1.39242 0 
0.00505236 -1.33525 0 
-0.20464 -1.18139 0 
0.00505236 -1.33525 0 
0.218982 -1.27809 0 
0.0092891 -1.12423 0 
-0.20464 -1.18139 0 
0.0092891 -1.12423 0 
-0.200404 -0.970361 0 
0.0092891 -1.12423 0 
-0.20464 -1.18139 0 
0.00505236 -1.33525 0 
-0.628262 -1.08469 0 
-0.628262 -1.39806 0 
-0.41857 -1.23855 0 
-0.628262 -1.39806 0 
-0.628262 -1.71143 0 
-0.41857 -1.55192 0 
-0.41857 -1.23855 0 
-0.41857 -1.55192 0 
-0.208877 -1.39242 0 
-0.41857 -1.55192 0 
-0.41857 -1.23855 0 
-0.628262 -1.39806 0 
-0.208877 -1.39242 0 
-0.208877 -1.70579 0 
0.000815613 -1.54628 0 
-0.208877 -1.70579 0 
-0.208877 -2.01916 0 
0.000815613 -1.85966 0 
0.000815613 -1.54628 0 
0.000815613 -1.85966 0 
0.210508 -1.70015 0 
0.000815613 -1.85966 0 
0.000815613 -1.54628 0 
-0.208877 -1.70579 0 
-0.208877 -2.01916 0 
0.0124191 -2.25533 0 
0.000815613 -1.85966 0 
0.0124191 -2.25533 0 
0.233715 -2.49149 0 
0.222112 -2.09582 0 
0.000815613 -1.85966 0 
0.222112 -2.09582 0 
0.210508 -1.70015 0 
0.222112 -2.09582 0 
0.000815613 -1.85966 0 
0.0124191 -2.25533 0 
0.585352 -2.72505 0 
0.749568 -2.44617 0 
0.573749 -2.32938 0 
0.749568 -2.44617 0 
0.913783 -2.16728 0 
0.737964 -2.0505 0 
0.573749 -2.32938 0 
0.737964 -2.0505 0 
0.562145 -1.93371 0 
0.737964 -2.0505 0 
0.573749 -2.32938 0 
0.749568 -2.44617 0 
0.233715 -2.49149 0 
0.39793 -2.2126 0 
0.222112 -2.09582 0 
0.39793 -2.2126 0 
0.562145 -1.93371 0 
0.386327 -1.81693 0 
0.222112 -2.09582 0 
0.386327 -1.81693 0 
0.210508 -1.70015 0 
0.386327 -1.81693 0 
0.222112 -2.09582 0 
0.39793 -2.2126 0 
0.562145 -1.93371 0 
0.39793 -2.2126 0 
0.573749 -2.32938 0 
0.39793 -2.2126 0 
0.233715 -2.49149 0 
0.409534 -2.60827 0 
0.573749 -2.32938 0 
0.409534 -2.60827 0 
0.585352 -2.72505 0 
0.409534 -2.60827 0 
0.573749 -2.32938 0 
0.39793 -2.2126 0 
10.6542 -6.14791 0 
10.3093 -6.14663 0 
10.6279 -6.46551 0 
10.3093 -6.14663 0 
9.96439 -6.14534 0 
10.283 -6.46423 0 
10.6279 -6.46551 0 
10.283 -6.46423 0 
10.6017 -6.78312 0 
10.283 -6.46423 0 
10.6279 -6.46551 0 
10.3093 -6.14663 0 
9.96439 -6.14534 0 
9.61949 -6.14406 0 
9.93812 -6.46295 0 
9.61949 -6.14406 0 
9.27458 -6.14278 0 
9.59322 -6.46166 0 
9.93812 -6.46295 0 
9.59322 -6.46166 0 
9.91186 -6.78055 0 
9.59322 -6.46166 0 
9.93812 -6.46295 0 
9.61949 -6.14406 0 
9.91186 -6.78055 0 
10.2568 -6.78183 0 
9.93812 -6.46295 0 
10.2568 -6.78183 0 
10.6017 -6.78312 0 
10.283 -6.46423 0 
9.93812 -6.46295 0 
10.283 -6.46423 0 
9.96439 -6.14534 0 
10.283 -6.46423 0 
9.93812 -6.46295 0 
10.2568 -6.78183 0 
9.27458 -6.14278 0 
9.27458 -6.46714 0 
9.59322 -6.46166 0 
9.27458 -6.46714 0 
9.27458 -6.7915 0 
9.59322 -6.78602 0 
9.59322 -6.46166 0 
9.59322 -6.78602 0 
9.91186 -6.78055 0 
9.59322 -6.78602 0 
9.59322 -6.46166 0 
9.27458 -6.46714 0 
5.22774 -4.69529 0 
4.83608 -4.74867 0 
5.10955 -5.0781 0 
4.83608 -4.74867 0 
4.44441 -4.80205 0 
4.71788 -5.13148 0 
5.10955 -5.0781 0 
4.71788 -5.13148 0 
4.99135 -5.4609 0 
4.71788 -5.13148 0 
5.10955 -5.0781 0 
4.83608 -4.74867 0 
4.44441 -4.80205 0 
4.05275 -4.85543 0 
4.32622 -5.18486 0 
4.05275 -4.85543 0 
3.66109 -4.90881 0 
3.93456 -5.23824 0 
4.32622 -5.18486 0 
3.93456 -5.23824 0 
4.20803 -5.56767 0 
3.93456 -5.23824 0 
4.32622 -5.18486 0 
4.05275 -4.85543 0 
4.99135 -5.4609 0 
4.59969 -5.51428 0 
4.87316 -5.84371 0 
4.59969 -5.51428 0 
4.20803 -5.56767 0 
4.4815 -5.89709 0 
4.87316 -5.84371 0 
4.4815 -5.89709 0 
4.75497 -6.22652 0 
4.4815 -5.89709 0 
4.87316 -5.84371 0 
4.59969 -5.51428 0 
4.20803 -5.56767 0 
4.59969 -5.51428 0 
4.32622 -5.18486 0 
4.59969 -5.51428 0 
4.99135 -5.4609 0 
4.71788 -5.13148 0 
4.32622 -5.18486 0 
4.71788 -5.13148 0 
4.44441 -4.80205 0 
4.71788 -5.13148 0 
4.32622 -5.18486 0 
4.59969 -5.51428 0 
3.66109 -4.90881 0 
3.27382 -4.95484 0 
3.49975 -5.20354 0 
3.27382 -4.95484 0 
2.88656 -5.00086 0 
3.11248 -5.24956 0 
3.49975 -5.20354 0 
3.11248 -5.24956 0 
3.33841 -5.49826 0 
3.11248 -5.24956 0 
3.49975 -5.20354 0 
3.27382 -4.95484 0 
4.20803 -5.56767 0 
3.93456 -5.23824 0 
3.77322 -5.53296 0 
3.93456 -5.23824 0 
3.66109 -4.90881 0 
3.49975 -5.20354 0 
3.77322 -5.53296 0 
3.49975 -5.20354 0 
3.33841 -5.49826 0 
3.49975 -5.20354 0 
3.77322 -5.53296 0 
3.93456 -5.23824 0 
9.27458 -6.14278 0 
9.121 -5.85708 0 
9.02064 -6.09516 0 
9.121 -5.85708 0 
8.96742 -5.57139 0 
8.86706 -5.80947 0 
9.02064 -6.09516 0 
8.86706 -5.80947 0 
8.7667 -6.04754 0 
8.86706 -5.80947 0 
9.02064 -6.09516 0 
9.121 -5.85708 0 
8.96742 -5.57139 0 
8.81384 -5.28569 0 
8.71348 -5.52377 0 
8.81384 -5.28569 0 
8.66025 -5 0 
8.5599 -5.23808 0 
8.71348 -5.52377 0 
8.5599 -5.23808 0 
8.45954 -5.47615 0 
8.5599 -5.23808 0 
8.71348 -5.52377 0 
8.81384 -5.28569 0 
8.7667 -6.04754 0 
8.61312 -5.76185 0 
8.51277 -5.99993 0 
8.61312 -5.76185 0 
8.45954 -5.47615 0 
8.35918 -5.71423 0 
8.51277 -5.99993 0 
8.35918 -5.71423 0 
8.25883 -5.95231 0 
8.35918 -5.71423 0 
8.51277 -5.99993 0 
8.61312 -5.76185 0 
8.45954 -5.47615 0 
8.61312 -5.76185 0 
8.71348 -5.52377 0 
8.61312 -5.76185 0 
8.7667 -6.04754 0 
8.86706 -5.80947 0 
8.71348 -5.52377 0 
8.86706 -5.80947 0 
8.96742 -5.57139 0 
8.86706 -5.80947 0 
8.71348 -5.52377 0 
8.61312 -5.76185 0 
7.65567 -6.7915 0 
8.0604 -6.95368 0 
7.80646 -6.5817 0 
8.0604 -6.95368 0 
8.46512 -7.11586 0 
8.21119 -6.74388 0 
7.80646 -6.5817 0 
8.21119 -6.74388 0 
7.95725 -6.3719 0 
8.21119 -6.74388 0 
7.80646 -6.5817 0 
8.0604 -6.95368 0 
7.95725 -6.3719 0 
8.36198 -6.53408 0 
8.10804 -6.16211 0 
8.36198 -6.53408 0 
8.7667 -6.69626 0 
8.51277 -6.32429 0 
8.10804 -6.16211 0 
8.51277 -6.32429 0 
8.25883 -5.95231 0 
8.51277 -6.32429 0 
8.10804 -6.16211 0 
8.36198 -6.53408 0 
8.7667 -6.69626 0 
8.36198 -6.53408 0 
8.61591 -6.90606 0 
8.36198 -6.53408 0 
7.95725 -6.3719 0 
8.21119 -6.74388 0 
8.61591 -6.90606 0 
8.21119 -6.74388 0 
8.46512 -7.11586 0 
8.21119 -6.74388 0 
8.61591 -6.90606 0 
8.36198 -6.53408 0 
9.27458 -6.7915 0 
9.27458 -6.46714 0 
9.02064 -6.41952 0 
9.27458 -6.46714 0 
9.27458 -6.14278 0 
9.02064 -6.09516 0 
9.02064 -6.41952 0 
9.02064 -6.09516 0 
8.7667 -6.04754 0 
9.02064 -6.09516 0 
9.02064 -6.41952 0 
9.27458 -6.46714 0 
8.7667 -6.69626 0 
8.7667 -6.3719 0 
8.51277 -6.32429 0 
8.7667 -6.3719 0 
8.7667 -6.04754 0 
8.51277 -5.99993 0 
8.51277 -6.32429 0 
8.51277 -5.99993 0 
8.25883 -5.95231 0 
8.51277 -5.99993 0 
8.51277 -6.32429 0 
8.7667 -6.3719 0 
8.7667 -6.04754 0 
8.7667 -6.3719 0 
9.02064 -6.41952 0 
8.7667 -6.3719 0 
8.7667 -6.69626 0 
9.02064 -6.74388 0 
9.02064 -6.41952 0 
9.02064 -6.74388 0 
9.27458 -6.7915 0 
9.02064 -6.74388 0 
9.02064 -6.41952 0 
8.7667 -6.3719 0 
4.85962 -3.45789 0 
4.5831 -3.62433 0 
4.83651 -3.65418 0 
4.5831 -3.62433 0 
4.30658 -3.79078 0 
4.55999 -3.82062 0 
4.83651 -3.65418 0 
4.55999 -3.82062 0 
4.81339 -3.85046 0 
4.55999 -3.82062 0 
4.83651 -3.65418 0 
4.5831 -3.62433 0 
4.30658 -3.79078 0 
4.53687 -4.01691 0 
4.55999 -3.82062 0 
4.53687 -4.01691 0 
4.76716 -4.24303 0 
4.79028 -4.04675 0 
4.55999 -3.82062 0 
4.79028 -4.04675 0 
4.81339 -3.85046 0 
4.79028 -4.04675 0 
4.55999 -3.82062 0 
4.53687 -4.01691 0 
4.76716 -4.24303 0 
4.99745 -4.46916 0 
5.02057 -4.27288 0 
4.99745 -4.46916 0 
5.22774 -4.69529 0 
5.25086 -4.499 0 
5.02057 -4.27288 0 
5.25086 -4.499 0 
5.27397 -4.30272 0 
5.25086 -4.499 0 
5.02057 -4.27288 0 
4.99745 -4.46916 0 
4.81339 -3.85046 0 
5.04368 -4.07659 0 
5.0668 -3.8803 0 
5.04368 -4.07659 0 
5.27397 -4.30272 0 
5.29708 -4.10643 0 
5.0668 -3.8803 0 
5.29708 -4.10643 0 
5.3202 -3.91014 0 
5.29708 -4.10643 0 
5.0668 -3.8803 0 
5.04368 -4.07659 0 
5.27397 -4.30272 0 
5.04368 -4.07659 0 
5.02057 -4.27288 0 
5.04368 -4.07659 0 
4.81339 -3.85046 0 
4.79028 -4.04675 0 
5.02057 -4.27288 0 
4.79028 -4.04675 0 
4.76716 -4.24303 0 
4.79028 -4.04675 0 
5.02057 -4.27288 0 
5.04368 -4.07659 0 
3.69356 -2.65045 0 
3.37528 -2.72567 0 
3.56312 -2.80947 0 
3.37528 -2.72567 0 
3.057 -2.80089 0 
3.24484 -2.88469 0 
3.56312 -2.80947 0 
3.24484 -2.88469 0 
3.43267 -2.96849 0 
3.24484 -2.88469 0 
3.56312 -2.80947 0 
3.37528 -2.72567 0 
4.30658 -3.79078 0 
4.31247 -3.46808 0 
4.18202 -3.62711 0 
4.31247 -3.46808 0 
4.31835 -3.14539 0 
4.18791 -3.30441 0 
4.18202 -3.62711 0 
4.18791 -3.30441 0 
4.05746 -3.46343 0 
4.18791 -3.30441 0 
4.18202 -3.62711 0 
4.31247 -3.46808 0 
3.057 -2.80089 0 
3.01687 -3.03379 0 
3.24484 -2.88469 0 
3.01687 -3.03379 0 
2.97673 -3.26668 0 
3.2047 -3.11759 0 
3.24484 -2.88469 0 
3.2047 -3.11759 0 
3.43267 -2.96849 0 
3.2047 -3.11759 0 
3.24484 -2.88469 0 
3.01687 -3.03379 0 
2.97673 -3.26668 0 
2.93659 -3.49958 0 
3.16456 -3.35048 0 
2.93659 -3.49958 0 
2.89645 -3.73247 0 
3.12443 -3.58337 0 
3.16456 -3.35048 0 
3.12443 -3.58337 0 
3.3524 -3.43428 0 
3.12443 -3.58337 0 
3.16456 -3.35048 0 
2.93659 -3.49958 0 
3.43267 -2.96849 0 
3.39254 -3.20138 0 
3.62051 -3.05229 0 
3.39254 -3.20138 0 
3.3524 -3.43428 0 
3.58037 -3.28518 0 
3.62051 -3.05229 0 
3.58037 -3.28518 0 
3.80834 -3.13609 0 
3.58037 -3.28518 0 
3.62051 -3.05229 0 
3.39254 -3.20138 0 
3.3524 -3.43428 0 
3.39254 -3.20138 0 
3.16456 -3.35048 0 
3.39254 -3.20138 0 
3.43267 -2.96849 0 
3.2047 -3.11759 0 
3.16456 -3.35048 0 
3.2047 -3.11759 0 
2.97673 -3.26668 0 
3.2047 -3.11759 0 
3.16456 -3.35048 0 
3.39254 -3.20138 0 
2.89645 -3.73247 0 
3.24899 -3.74705 0 
3.12443 -3.58337 0 
3.24899 -3.74705 0 
3.60152 -3.76162 0 
3.47696 -3.59795 0 
3.12443 -3.58337 0 
3.47696 -3.59795 0 
3.3524 -3.43428 0 
3.47696 -3.59795 0 
3.12443 -3.58337 0 
3.24899 -3.74705 0 
3.60152 -3.76162 0 
3.95405 -3.7762 0 
3.82949 -3.61253 0 
3.95405 -3.7762 0 
4.30658 -3.79078 0 
4.18202 -3.62711 0 
3.82949 -3.61253 0 
4.18202 -3.62711 0 
4.05746 -3.46343 0 
4.18202 -3.62711 0 
3.82949 -3.61253 0 
3.95405 -3.7762 0 
3.3524 -3.43428 0 
3.70493 -3.44886 0 
3.58037 -3.28518 0 
3.70493 -3.44886 0 
4.05746 -3.46343 0 
3.9329 -3.29976 0 
3.58037 -3.28518 0 
3.9329 -3.29976 0 
3.80834 -3.13609 0 
3.9329 -3.29976 0 
3.58037 -3.28518 0 
3.70493 -3.44886 0 
4.05746 -3.46343 0 
3.70493 -3.44886 0 
3.82949 -3.61253 0 
3.70493 -3.44886 0 
3.3524 -3.43428 0 
3.47696 -3.59795 0 
3.82949 -3.61253 0 
3.47696 -3.59795 0 
3.60152 -3.76162 0 
3.47696 -3.59795 0 
3.82949 -3.61253 0 
3.70493 -3.44886 0 
6.59317 -6.23434 0 
6.56279 -5.93595 0 
6.35243 -6.09029 0 
6.56279 -5.93595 0 
6.53241 -5.63756 0 
6.32205 -5.7919 0 
6.35243 -6.09029 0 
6.32205 -5.7919 0 
6.1117 -5.94625 0 
6.32205 -5.7919 0 
6.35243 -6.09029 0 
6.56279 -5.93595 0 
6.53241 -5.63756 0 
6.50203 -5.33917 0 
6.29167 -5.49351 0 
6.50203 -5.33917 0 
6.47165 -5.04078 0 
6.26129 -5.19513 0 
6.29167 -5.49351 0 
6.26129 -5.19513 0 
6.05094 -5.34947 0 
6.26129 -5.19513 0 
6.29167 -5.49351 0 
6.50203 -5.33917 0 
6.1117 -5.94625 0 
6.08132 -5.64786 0 
5.87097 -5.80221 0 
6.08132 -5.64786 0 
6.05094 -5.34947 0 
5.84059 -5.50382 0 
5.87097 -5.80221 0 
5.84059 -5.50382 0 
5.63024 -5.65816 0 
5.84059 -5.50382 0 
5.87097 -5.80221 0 
6.08132 -5.64786 0 
6.05094 -5.34947 0 
6.08132 -5.64786 0 
6.29167 -5.49351 0 
6.08132 -5.64786 0 
6.1117 -5.94625 0 
6.32205 -5.7919 0 
6.29167 -5.49351 0 
6.32205 -5.7919 0 
6.53241 -5.63756 0 
6.32205 -5.7919 0 
6.29167 -5.49351 0 
6.08132 -5.64786 0 
6.28494 -6.74896 0 
6.43905 -6.49165 0 
6.19832 -6.3476 0 
6.43905 -6.49165 0 
6.59317 -6.23434 0 
6.35243 -6.09029 0 
6.19832 -6.3476 0 
6.35243 -6.09029 0 
6.1117 -5.94625 0 
6.35243 -6.09029 0 
6.19832 -6.3476 0 
6.43905 -6.49165 0 
5.80348 -6.46087 0 
5.95759 -6.20356 0 
5.71686 -6.05952 0 
5.95759 -6.20356 0 
6.1117 -5.94625 0 
5.87097 -5.80221 0 
5.71686 -6.05952 0 
5.87097 -5.80221 0 
5.63024 -5.65816 0 
5.87097 -5.80221 0 
5.71686 -6.05952 0 
5.95759 -6.20356 0 
6.1117 -5.94625 0 
5.95759 -6.20356 0 
6.19832 -6.3476 0 
5.95759 -6.20356 0 
5.80348 -6.46087 0 
6.04421 -6.60491 0 
6.19832 -6.3476 0 
6.04421 -6.60491 0 
6.28494 -6.74896 0 
6.04421 -6.60491 0 
6.19832 -6.3476 0 
5.95759 -6.20356 0 
5.1926 -5.94234 0 
5.49804 -6.2016 0 
5.41142 -5.80025 0 
5.49804 -6.2016 0 
5.80348 -6.46087 0 
5.71686 -6.05952 0 
5.41142 -5.80025 0 
5.71686 -6.05952 0 
5.63024 -5.65816 0 
5.71686 -6.05952 0 
5.41142 -5.80025 0 
5.49804 -6.2016 0 
5.80348 -6.46087 0 
5.49804 -6.2016 0 
5.58466 -6.60296 0 
5.49804 -6.2016 0 
5.1926 -5.94234 0 
5.27922 -6.34369 0 
5.58466 -6.60296 0 
5.27922 -6.34369 0 
5.36584 -6.74505 0 
5.27922 -6.34369 0 
5.58466 -6.60296 0 
5.49804 -6.2016 0 
5.22774 -4.69529 0 
5.10955 -5.0781 0 
5.32836 -4.93601 0 
5.10955 -5.0781 0 
4.99135 -5.4609 0 
5.21017 -5.31881 0 
5.32836 -4.93601 0 
5.21017 -5.31881 0 
5.42899 -5.17673 0 
5.21017 -5.31881 0 
5.32836 -4.93601 0 
5.10955 -5.0781 0 
4.99135 -5.4609 0 
4.87316 -5.84371 0 
5.09198 -5.70162 0 
4.87316 -5.84371 0 
4.75497 -6.22652 0 
4.97378 -6.08443 0 
5.09198 -5.70162 0 
4.97378 -6.08443 0 
5.1926 -5.94234 0 
4.97378 -6.08443 0 
5.09198 -5.70162 0 
4.87316 -5.84371 0 
5.42899 -5.17673 0 
5.3108 -5.55953 0 
5.52961 -5.41744 0 
5.3108 -5.55953 0 
5.1926 -5.94234 0 
5.41142 -5.80025 0 
5.52961 -5.41744 0 
5.41142 -5.80025 0 
5.63024 -5.65816 0 
5.41142 -5.80025 0 
5.52961 -5.41744 0 
5.3108 -5.55953 0 
5.1926 -5.94234 0 
5.3108 -5.55953 0 
5.09198 -5.70162 0 
5.3108 -5.55953 0 
5.42899 -5.17673 0 
5.21017 -5.31881 0 
5.09198 -5.70162 0 
5.21017 -5.31881 0 
4.99135 -5.4609 0 
5.21017 -5.31881 0 
5.09198 -5.70162 0 
5.3108 -5.55953 0 
8.25883 -5.95231 0 
8.35918 -5.71423 0 
8.22387 -5.63611 0 
8.35918 -5.71423 0 
8.45954 -5.47615 0 
8.32422 -5.39803 0 
8.22387 -5.63611 0 
8.32422 -5.39803 0 
8.18891 -5.3199 0 
8.32422 -5.39803 0 
8.22387 -5.63611 0 
8.35918 -5.71423 0 
8.45954 -5.47615 0 
8.5599 -5.23808 0 
8.42458 -5.15995 0 
8.5599 -5.23808 0 
8.66025 -5 0 
8.52494 -4.92188 0 
8.42458 -5.15995 0 
8.52494 -4.92188 0 
8.38962 -4.84375 0 
8.52494 -4.92188 0 
8.42458 -5.15995 0 
8.5599 -5.23808 0 
8.18891 -5.3199 0 
8.28926 -5.08183 0 
8.15395 -5.0037 0 
8.28926 -5.08183 0 
8.38962 -4.84375 0 
8.2543 -4.76563 0 
8.15395 -5.0037 0 
8.2543 -4.76563 0 
8.11899 -4.6875 0 
8.2543 -4.76563 0 
8.15395 -5.0037 0 
8.28926 -5.08183 0 
8.38962 -4.84375 0 
8.28926 -5.08183 0 
8.42458 -5.15995 0 
8.28926 -5.08183 0 
8.18891 -5.3199 0 
8.32422 -5.39803 0 
8.42458 -5.15995 0 
8.32422 -5.39803 0 
8.45954 -5.47615 0 
8.32422 -5.39803 0 
8.42458 -5.15995 0 
8.28926 -5.08183 0 
6.47165 -5.04078 0 
6.50203 -5.33917 0 
6.68748 -5.16955 0 
6.50203 -5.33917 0 
6.53241 -5.63756 0 
6.71786 -5.46793 0 
6.68748 -5.16955 0 
6.71786 -5.46793 0 
6.90332 -5.29831 0 
6.71786 -5.46793 0 
6.68748 -5.16955 0 
6.50203 -5.33917 0 
6.53241 -5.63756 0 
6.56279 -5.93595 0 
6.74824 -5.76632 0 
6.56279 -5.93595 0 
6.59317 -6.23434 0 
6.77862 -6.06471 0 
6.74824 -5.76632 0 
6.77862 -6.06471 0 
6.96408 -5.89509 0 
6.77862 -6.06471 0 
6.74824 -5.76632 0 
6.56279 -5.93595 0 
6.90332 -5.29831 0 
6.9337 -5.5967 0 
7.11916 -5.42708 0 
6.9337 -5.5967 0 
6.96408 -5.89509 0 
7.14953 -5.72547 0 
7.11916 -5.42708 0 
7.14953 -5.72547 0 
7.33499 -5.55584 0 
7.14953 -5.72547 0 
7.11916 -5.42708 0 
6.9337 -5.5967 0 
6.96408 -5.89509 0 
6.9337 -5.5967 0 
6.74824 -5.76632 0 
6.9337 -5.5967 0 
6.90332 -5.29831 0 
6.71786 -5.46793 0 
6.74824 -5.76632 0 
6.71786 -5.46793 0 
6.53241 -5.63756 0 
6.71786 -5.46793 0 
6.74824 -5.76632 0 
6.9337 -5.5967 0 
6.59317 -6.23434 0 
6.85879 -6.37363 0 
6.77862 -6.06471 0 
6.85879 -6.37363 0 
7.12442 -6.51292 0 
7.04425 -6.204 0 
6.77862 -6.06471 0 
7.04425 -6.204 0 
6.96408 -5.89509 0 
7.04425 -6.204 0 
6.77862 -6.06471 0 
6.85879 -6.37363 0 
7.12442 -6.51292 0 
7.39004 -6.65221 0 
7.30987 -6.34329 0 
7.39004 -6.65221 0 
7.65567 -6.7915 0 
7.5755 -6.48258 0 
7.30987 -6.34329 0 
7.5755 -6.48258 0 
7.49533 -6.17367 0 
7.5755 -6.48258 0 
7.30987 -6.34329 0 
7.39004 -6.65221 0 
6.96408 -5.89509 0 
7.2297 -6.03438 0 
7.14953 -5.72547 0 
7.2297 -6.03438 0 
7.49533 -6.17367 0 
7.41516 -5.86476 0 
7.14953 -5.72547 0 
7.41516 -5.86476 0 
7.33499 -5.55584 0 
7.41516 -5.86476 0 
7.14953 -5.72547 0 
7.2297 -6.03438 0 
7.49533 -6.17367 0 
7.2297 -6.03438 0 
7.30987 -6.34329 0 
7.2297 -6.03438 0 
6.96408 -5.89509 0 
7.04425 -6.204 0 
7.30987 -6.34329 0 
7.04425 -6.204 0 
7.12442 -6.51292 0 
7.04425 -6.204 0 
7.30987 -6.34329 0 
7.2297 -6.03438 0 
7.65567 -6.7915 0 
7.80646 -6.5817 0 
7.5755 -6.48258 0 
7.80646 -6.5817 0 
7.95725 -6.3719 0 
7.72629 -6.27279 0 
7.5755 -6.48258 0 
7.72629 -6.27279 0 
7.49533 -6.17367 0 
7.72629 -6.27279 0 
7.5755 -6.48258 0 
7.80646 -6.5817 0 
7.95725 -6.3719 0 
8.10804 -6.16211 0 
7.87708 -6.06299 0 
8.10804 -6.16211 0 
8.25883 -5.95231 0 
8.02787 -5.85319 0 
7.87708 -6.06299 0 
8.02787 -5.85319 0 
7.79691 -5.75408 0 
8.02787 -5.85319 0 
7.87708 -6.06299 0 
8.10804 -6.16211 0 
7.49533 -6.17367 0 
7.64612 -5.96387 0 
7.41516 -5.86476 0 
7.64612 -5.96387 0 
7.79691 -5.75408 0 
7.56595 -5.65496 0 
7.41516 -5.86476 0 
7.56595 -5.65496 0 
7.33499 -5.55584 0 
7.56595 -5.65496 0 
7.41516 -5.86476 0 
7.64612 -5.96387 0 
7.79691 -5.75408 0 
7.64612 -5.96387 0 
7.87708 -6.06299 0 
7.64612 -5.96387 0 
7.49533 -6.17367 0 
7.72629 -6.27279 0 
7.87708 -6.06299 0 
7.72629 -6.27279 0 
7.95725 -6.3719 0 
7.72629 -6.27279 0 
7.87708 -6.06299 0 
7.64612 -5.96387 0 
8.25883 -5.95231 0 
8.22387 -5.63611 0 
8.02787 -5.85319 0 
8.22387 -5.63611 0 
8.18891 -5.3199 0 
7.99291 -5.53699 0 
8.02787 -5.85319 0 
7.99291 -5.53699 0 
7.79691 -5.75408 0 
7.99291 -5.53699 0 
8.02787 -5.85319 0 
8.22387 -5.63611 0 
8.18891 -5.3199 0 
8.15395 -5.0037 0 
7.95795 -5.22079 0 
8.15395 -5.0037 0 
8.11899 -4.6875 0 
7.92299 -4.90459 0 
7.95795 -5.22079 0 
7.92299 -4.90459 0 
7.72699 -5.12167 0 
7.92299 -4.90459 0 
7.95795 -5.22079 0 
8.15395 -5.0037 0 
7.79691 -5.75408 0 
7.76195 -5.43787 0 
7.56595 -5.65496 0 
7.76195 -5.43787 0 
7.72699 -5.12167 0 
7.53099 -5.33876 0 
7.56595 -5.65496 0 
7.53099 -5.33876 0 
7.33499 -5.55584 0 
7.53099 -5.33876 0 
7.56595 -5.65496 0 
7.76195 -5.43787 0 
7.72699 -5.12167 0 
7.76195 -5.43787 0 
7.95795 -5.22079 0 
7.76195 -5.43787 0 
7.79691 -5.75408 0 
7.99291 -5.53699 0 
7.95795 -5.22079 0 
7.99291 -5.53699 0 
8.18891 -5.3199 0 
7.99291 -5.53699 0 
7.95795 -5.22079 0 
7.76195 -5.43787 0 
8.11899 -4.6875 0 
7.98367 -4.60938 0 
7.92299 -4.90459 0 
7.98367 -4.60938 0 
7.84836 -4.53125 0 
7.78767 -4.82646 0 
7.92299 -4.90459 0 
7.78767 -4.82646 0 
7.72699 -5.12167 0 
7.78767 -4.82646 0 
7.92299 -4.90459 0 
7.98367 -4.60938 0 
7.84836 -4.53125 0 
7.71304 -4.45313 0 
7.65236 -4.74834 0 
7.71304 -4.45313 0 
7.57772 -4.375 0 
7.51704 -4.67021 0 
7.65236 -4.74834 0 
7.51704 -4.67021 0 
7.45636 -4.96542 0 
7.51704 -4.67021 0 
7.65236 -4.74834 0 
7.71304 -4.45313 0 
7.72699 -5.12167 0 
7.59167 -5.04355 0 
7.53099 -5.33876 0 
7.59167 -5.04355 0 
7.45636 -4.96542 0 
7.39567 -5.26063 0 
7.53099 -5.33876 0 
7.39567 -5.26063 0 
7.33499 -5.55584 0 
7.39567 -5.26063 0 
7.53099 -5.33876 0 
7.59167 -5.04355 0 
7.45636 -4.96542 0 
7.59167 -5.04355 0 
7.65236 -4.74834 0 
7.59167 -5.04355 0 
7.72699 -5.12167 0 
7.78767 -4.82646 0 
7.65236 -4.74834 0 
7.78767 -4.82646 0 
7.84836 -4.53125 0 
7.78767 -4.82646 0 
7.65236 -4.74834 0 
7.59167 -5.04355 0 
7.57772 -4.375 0 
7.3012 -4.54144 0 
7.51704 -4.67021 0 
7.3012 -4.54144 0 
7.02468 -4.70789 0 
7.24052 -4.83666 0 
7.51704 -4.67021 0 
7.24052 -4.83666 0 
7.45636 -4.96542 0 
7.24052 -4.83666 0 
7.51704 -4.67021 0 
7.3012 -4.54144 0 
7.02468 -4.70789 0 
6.74817 -4.87433 0 
6.964 -5.0031 0 
6.74817 -4.87433 0 
6.47165 -5.04078 0 
6.68748 -5.16955 0 
6.964 -5.0031 0 
6.68748 -5.16955 0 
6.90332 -5.29831 0 
6.68748 -5.16955 0 
6.964 -5.0031 0 
6.74817 -4.87433 0 
7.45636 -4.96542 0 
7.17984 -5.13187 0 
7.39567 -5.26063 0 
7.17984 -5.13187 0 
6.90332 -5.29831 0 
7.11916 -5.42708 0 
7.39567 -5.26063 0 
7.11916 -5.42708 0 
7.33499 -5.55584 0 
7.11916 -5.42708 0 
7.39567 -5.26063 0 
7.17984 -5.13187 0 
6.90332 -5.29831 0 
7.17984 -5.13187 0 
6.964 -5.0031 0 
7.17984 -5.13187 0 
7.45636 -4.96542 0 
7.24052 -4.83666 0 
6.964 -5.0031 0 
7.24052 -4.83666 0 
7.02468 -4.70789 0 
7.24052 -4.83666 0 
6.964 -5.0031 0 
7.17984 -5.13187 0 
6.47165 -5.04078 0 
6.47753 -4.71808 0 
6.34961 -4.87715 0 
6.47753 -4.71808 0 
6.48342 -4.39539 0 
6.3555 -4.55446 0 
6.34961 -4.87715 0 
6.3555 -4.55446 0 
6.22757 -4.71353 0 
6.3555 -4.55446 0 
6.34961 -4.87715 0 
6.47753 -4.71808 0 
6.22757 -4.71353 0 
6.23346 -4.39083 0 
6.10554 -4.5499 0 
6.23346 -4.39083 0 
6.23935 -4.06814 0 
6.11142 -4.2272 0 
6.10554 -4.5499 0 
6.11142 -4.2272 0 
5.9835 -4.38627 0 
6.11142 -4.2272 0 
6.10554 -4.5499 0 
6.23346 -4.39083 0 
6.23935 -4.06814 0 
6.23346 -4.39083 0 
6.36138 -4.23176 0 
6.23346 -4.39083 0 
6.22757 -4.71353 0 
6.3555 -4.55446 0 
6.36138 -4.23176 0 
6.3555 -4.55446 0 
6.48342 -4.39539 0 
6.3555 -4.55446 0 
6.36138 -4.23176 0 
6.23346 -4.39083 0 
5.96871 -3.91189 0 
5.81028 -4.03005 0 
5.97611 -4.14908 0 
5.81028 -4.03005 0 
5.65185 -4.14821 0 
5.81768 -4.26724 0 
5.97611 -4.14908 0 
5.81768 -4.26724 0 
5.9835 -4.38627 0 
5.81768 -4.26724 0 
5.97611 -4.14908 0 
5.81028 -4.03005 0 
6.23935 -4.06814 0 
6.10403 -3.99001 0 
6.11142 -4.2272 0 
6.10403 -3.99001 0 
5.96871 -3.91189 0 
5.97611 -4.14908 0 
6.11142 -4.2272 0 
5.97611 -4.14908 0 
5.9835 -4.38627 0 
5.97611 -4.14908 0 
6.11142 -4.2272 0 
6.10403 -3.99001 0 
5.3202 -3.91014 0 
5.29708 -4.10643 0 
5.48603 -4.02918 0 
5.29708 -4.10643 0 
5.27397 -4.30272 0 
5.46291 -4.22546 0 
5.48603 -4.02918 0 
5.46291 -4.22546 0 
5.65185 -4.14821 0 
5.46291 -4.22546 0 
5.48603 -4.02918 0 
5.29708 -4.10643 0 
5.27397 -4.30272 0 
5.25086 -4.499 0 
5.4398 -4.42175 0 
5.25086 -4.499 0 
5.22774 -4.69529 0 
5.41668 -4.61803 0 
5.4398 -4.42175 0 
5.41668 -4.61803 0 
5.60562 -4.54078 0 
5.41668 -4.61803 0 
5.4398 -4.42175 0 
5.25086 -4.499 0 
5.65185 -4.14821 0 
5.62874 -4.34449 0 
5.81768 -4.26724 0 
5.62874 -4.34449 0 
5.60562 -4.54078 0 
5.79456 -4.46353 0 
5.81768 -4.26724 0 
5.79456 -4.46353 0 
5.9835 -4.38627 0 
5.79456 -4.46353 0 
5.81768 -4.26724 0 
5.62874 -4.34449 0 
5.60562 -4.54078 0 
5.62874 -4.34449 0 
5.4398 -4.42175 0 
5.62874 -4.34449 0 
5.65185 -4.14821 0 
5.46291 -4.22546 0 
5.4398 -4.42175 0 
5.46291 -4.22546 0 
5.27397 -4.30272 0 
5.46291 -4.22546 0 
5.4398 -4.42175 0 
5.62874 -4.34449 0 
5.22774 -4.69529 0 
5.32836 -4.93601 0 
5.41668 -4.61803 0 
5.32836 -4.93601 0 
5.42899 -5.17673 0 
5.5173 -4.85875 0 
5.41668 -4.61803 0 
5.5173 -4.85875 0 
5.60562 -4.54078 0 
5.5173 -4.85875 0 
5.41668 -4.61803 0 
5.32836 -4.93601 0 
5.42899 -5.17673 0 
5.52961 -5.41744 0 
5.61793 -5.09947 0 
5.52961 -5.41744 0 
5.63024 -5.65816 0 
5.71855 -5.34019 0 
5.61793 -5.09947 0 
5.71855 -5.34019 0 
5.80687 -5.02222 0 
5.71855 -5.34019 0 
5.61793 -5.09947 0 
5.52961 -5.41744 0 
5.60562 -4.54078 0 
5.70625 -4.7815 0 
5.79456 -4.46353 0 
5.70625 -4.7815 0 
5.80687 -5.02222 0 
5.89519 -4.70424 0 
5.79456 -4.46353 0 
5.89519 -4.70424 0 
5.9835 -4.38627 0 
5.89519 -4.70424 0 
5.79456 -4.46353 0 
5.70625 -4.7815 0 
5.80687 -5.02222 0 
5.70625 -4.7815 0 
5.61793 -5.09947 0 
5.70625 -4.7815 0 
5.60562 -4.54078 0 
5.5173 -4.85875 0 
5.61793 -5.09947 0 
5.5173 -4.85875 0 
5.42899 -5.17673 0 
5.5173 -4.85875 0 
5.61793 -5.09947 0 
5.70625 -4.7815 0 
5.63024 -5.65816 0 
5.84059 -5.50382 0 
5.71855 -5.34019 0 
5.84059 -5.50382 0 
6.05094 -5.34947 0 
5.92891 -5.18584 0 
5.71855 -5.34019 0 
5.92891 -5.18584 0 
5.80687 -5.02222 0 
5.92891 -5.18584 0 
5.71855 -5.34019 0 
5.84059 -5.50382 0 
6.05094 -5.34947 0 
6.26129 -5.19513 0 
6.13926 -5.0315 0 
6.26129 -5.19513 0 
6.47165 -5.04078 0 
6.34961 -4.87715 0 
6.13926 -5.0315 0 
6.34961 -4.87715 0 
6.22757 -4.71353 0 
6.34961 -4.87715 0 
6.13926 -5.0315 0 
6.26129 -5.19513 0 
5.80687 -5.02222 0 
6.01722 -4.86787 0 
5.89519 -4.70424 0 
6.01722 -4.86787 0 
6.22757 -4.71353 0 
6.10554 -4.5499 0 
5.89519 -4.70424 0 
6.10554 -4.5499 0 
5.9835 -4.38627 0 
6.10554 -4.5499 0 
5.89519 -4.70424 0 
6.01722 -4.86787 0 
6.22757 -4.71353 0 
6.01722 -4.86787 0 
6.13926 -5.0315 0 
6.01722 -4.86787 0 
5.80687 -5.02222 0 
5.92891 -5.18584 0 
6.13926 -5.0315 0 
5.92891 -5.18584 0 
6.05094 -5.34947 0 
5.92891 -5.18584 0 
6.13926 -5.0315 0 
6.01722 -4.86787 0 
7.65567 -6.7915 0 
7.39004 -6.65221 0 
7.49639 -7.03044 0 
7.39004 -6.65221 0 
7.12442 -6.51292 0 
7.23077 -6.89115 0 
7.49639 -7.03044 0 
7.23077 -6.89115 0 
7.33712 -7.26938 0 
7.23077 -6.89115 0 
7.49639 -7.03044 0 
7.39004 -6.65221 0 
7.12442 -6.51292 0 
6.85879 -6.37363 0 
6.96514 -6.75186 0 
6.85879 -6.37363 0 
6.59317 -6.23434 0 
6.69951 -6.61257 0 
6.96514 -6.75186 0 
6.69951 -6.61257 0 
6.80586 -6.9908 0 
6.69951 -6.61257 0 
6.96514 -6.75186 0 
6.85879 -6.37363 0 
6.80586 -6.9908 0 
7.07149 -7.13009 0 
6.96514 -6.75186 0 
7.07149 -7.13009 0 
7.33712 -7.26938 0 
7.23077 -6.89115 0 
6.96514 -6.75186 0 
7.23077 -6.89115 0 
7.12442 -6.51292 0 
7.23077 -6.89115 0 
6.96514 -6.75186 0 
7.07149 -7.13009 0 
6.59317 -6.23434 0 
6.43905 -6.49165 0 
6.69951 -6.61257 0 
6.43905 -6.49165 0 
6.28494 -6.74896 0 
6.5454 -6.86988 0 
6.69951 -6.61257 0 
6.5454 -6.86988 0 
6.80586 -6.9908 0 
6.5454 -6.86988 0 
6.69951 -6.61257 0 
6.43905 -6.49165 0 
-1.25652 0 0 
-1.6496 -0.732366 0 
-0.942394 -0.542343 0 
-1.6496 -0.732366 0 
-2.04267 -1.46473 0 
-1.33547 -1.27471 0 
-0.942394 -0.542343 0 
-1.33547 -1.27471 0 
-0.628262 -1.08469 0 
-1.33547 -1.27471 0 
-0.942394 -0.542343 0 
-1.6496 -0.732366 0 
-2.04267 -1.46473 0 
-1.33547 -1.90146 0 
-1.33547 -1.27471 0 
-1.33547 -1.90146 0 
-0.628262 -2.33818 0 
-0.628262 -1.71143 0 
-1.33547 -1.27471 0 
-0.628262 -1.71143 0 
-0.628262 -1.08469 0 
-0.628262 -1.71143 0 
-1.33547 -1.27471 0 
-1.33547 -1.90146 0 
2.11203 -5.09291 0 
1.80367 -4.37648 0 
1.13252 -5.08746 0 
1.80367 -4.37648 0 
1.49531 -3.66005 0 
0.824158 -4.37103 0 
1.13252 -5.08746 0 
0.824158 -4.37103 0 
0.153004 -5.08201 0 
0.824158 -4.37103 0 
1.13252 -5.08746 0 
1.80367 -4.37648 0 
1.49531 -3.66005 0 
0.876117 -3.47144 0 
0.824158 -4.37103 0 
0.876117 -3.47144 0 
0.256922 -3.28283 0 
0.204963 -4.18242 0 
0.824158 -4.37103 0 
0.204963 -4.18242 0 
0.153004 -5.08201 0 
0.204963 -4.18242 0 
0.824158 -4.37103 0 
0.876117 -3.47144 0 

CELLS 1138 4503
3 0 1 2
3 3 4 5
3 6 7 8
3 9 10 11
3 12 13 14
3 15 16 17
3 18 19 20
3 21 22 23
3 24 25 26
3 27 28 29
3 30 31 32
3 33 34 35
3 36 37 38
3 39 40 41
3 42 43 44
3 45 46 47
3 48 49 50
3 51 52 53
3 54 55 56
3 57 58 59
3 60 61 62
3 63 64 65
3 66 67 68
3 69 70 71
3 72 73 74
3 75 76 77
3 78 79 80
3 81 82 83
3 84 85 86
3 87 88 89
3 90 91 92
3 93 94 95
3 96 97 98
3 99 100 101
3 102 103 104
3 105 106 107
3 108 109 110
3 111 112 113
3 114 115 116
3 117 118 119
3 120 121 122
3 123 124 125
3 126 127 128
3 129 130 131
3 132 133 134
3 135 136 137
3 138 139 140
3 141 142 143
3 144 145 146
3 147 148 149
3 150 151 152
3 153 154 155
3 156 157 158
3 159 160 161
3 162 163 164
3 165 166 167
3 168 169 170
3 171 172 173
3 174 175 176
3 177 178 179
3 180 181 182
3 183 184 185
3 186 187 188
3 189 190 191
3 192 193 194
3 195 196 197
3 198 199 200
3 201 202 203
3 204 205 206
3 207 208 209
3 210 211 212
3 213 214 215
3 216 217 218
3 219 220 221
3 222 223 224
3 225 226 227
3 228 229 230
3 231 232 233
3 234 235 236
3 237 238 239
3 240 241 242
3 243 244 245
3 246 247 248
3 249 250 251
3 252 253 254
3 255 256 257
3 258 259 260
3 261 262 263
3 264 265 266
3 267 268 269
3 270 271 272
3 273 274 275
3 276 277 278
3 279 280 281
3 282 283 284
3 285 286 287
3 288 289 290
3 291 292 293
3 294 295 296
3 297 298 299
3 300 301 302
3 303 304 305
3 306 307 308
3 309 310 311
3 312 313 314
3 315 316 317
3 318 319 320
3 321 322 323
3 324 325 326
3 327 328 329
3 330 331 332
3 333 334 335
3 336 337 338
3 339 340 341
3 342 343 344
3 345 346 347
3 348 349 350
3 351 352 353
3 354 355 356
3 357 358 359
3 360 361 362
3 363 364 365
3 366 367 368
3 369 370 371
3 372 373 374
3 375 376 377
3 378 379 380
3 381 382 383
3 384 385 386
3 387 388 389
3 390 391 392
3 393 394 395
3 396 397 398
3 399 400 401
3 402 403 404
3 405 406 407
3 408 409 410
3 411 412 413
3 414 415 416
3 417 418 419
3 420 421 422
3 423 424 425
3 426 427 428
3 429 430 431
3 432 433 434
3 435 436 437
3 438 439 440
3 441 442 443
3 444 445 446
3 447 448 449
3 450 451 452
3 453 454 455
3 456 457 458
3 459 460 461
3 462 463 464
3 465 466 467
3 468 469 470
3 471 472 473
3 474 475 476
3 477 478 479
3 480 481 482
3 483 484 485
3 486 487 488
3 489 490 491
3 492 493 494
3 495 496 497
3 498 499 500
3 501 502 503
3 504 505 506
3 507 508 509
3 510 511 512
3 513 514 515
3 516 517 518
3 519 520 521
3 522 523 524
3 525 526 527
3 528 529 530
3 531 532 533
3 534 535 536
3 537 538 539
3 540 541 542
3 543 544 545
3 546 547 548
3 549 550 551
3 552 553 554
3 555 556 557
3 558 559 560
3 561 562 563
3 564 565 566
3 567 568 569
3 570 571 572
3 573 574 575
3 576 577 578
3 579 580 581
3 582 583 584
3 585 586 587
3 588 589 590
3 591 592 593
3 594 595 596
3 597 598 599
3 600 601 602
3 603 604 605
3 606 607 608
3 609 610 611
3 612 613 614
3 615 616 617
3 618 619 620
3 621 622 623
3 624 625 626
3 627 628 629
3 630 631 632
2 633 634
2 635 636
2 637 638
2 639 640
2 641 642
2 643 644
2 645 646
2 647 648
2 649 650
2 651 652
2 653 654
2 655 656
2 657 658
2 659 660
2 661 662
2 663 664
2 665 666
2 667 668
2 669 670
2 671 672
2 673 674
2 675 676
2 677 678
2 679 680
2 681 682
2 683 684
2 685 686
2 687 688
2 689 690
2 691 692
2 693 694
2 695 696
2 697 698
2 699 700
2 701 702
2 703 704
2 705 706
2 707 708
2 709 710
2 711 712
2 713 714
2 715 716
2 717 718
2 719 720
2 721 722
2 723 724
2 725 726
2 727 728
2 729 730
3 731 732 733
3 734 735 736
3 737 738 739
3 740 741 742
3 743 744 745
3 746 747 748
3 749 750 751
3 752 753 754
3 755 756 757
3 758 759 760
3 761 762 763
3 764 765 766
3 767 768 769
3 770 771 772
3 773 774 775
3 776 777 778
3 779 780 781
3 782 783 784
3 785 786 787
3 788 789 790
3 791 792 793
3 794 795 796
3 797 798 799
3 800 801 802
3 803 804 805
3 806 807 808
3 809 810 811
3 812 813 814
3 815 816 817
3 818 819 820
3 821 822 823
3 824 825 826
3 827 828 829
3 830 831 832
3 833 834 835
3 836 837 838
3 839 840 841
3 842 843 844
3 845 846 847
3 848 849 850
3 851 852 853
3 854 855 856
3 857 858 859
3 860 861 862
3 863 864 865
3 866 867 868
3 869 870 871
3 872 873 874
3 875 876 877
3 878 879 880
3 881 882 883
3 884 885 886
3 887 888 889
3 890 891 892
3 893 894 895
3 896 897 898
3 899 900 901
3 902 903 904
3 905 906 907
3 908 909 910
3 911 912 913
3 914 915 916
3 917 918 919
3 920 921 922
3 923 924 925
3 926 927 928
3 929 930 931
3 932 933 934
3 935 936 937
3 938 939 940
3 941 942 943
3 944 945 946
3 947 948 949
3 950 951 952
3 953 954 955
3 956 957 958
3 959 960 961
3 962 963 964
3 965 966 967
3 968 969 970
3 971 972 973
3 974 975 976
3 977 978 979
3 980 981 982
3 983 984 985
3 986 987 988
3 989 990 991
3 992 993 994
3 995 996 997
3 998 999 1000
3 1001 1002 1003
3 1004 1005 1006
3 1007 1008 1009
3 1010 1011 1012
3 1013 1014 1015
3 1016 1017 1018
3 1019 1020 1021
3 1022 1023 1024
3 1025 1026 1027
3 1028 1029 1030
3 1031 1032 1033
3 1034 1035 1036
3 1037 1038 1039
3 1040 1041 1042
3 1043 1044 1045
3 1046 1047 1048
3 1049 1050 1051
3 1052 1053 1054
3 1055 1056 1057
3 1058 1059 1060
3 1061 1062 1063
3 1064 1065 1066
3 1067 1068 1069
3 1070 1071 1072
3 1073 1074 1075
3 1076 1077 1078
3 1079 1080 1081
3 1082 1083 1084
3 1085 1086 1087
3 1088 1089 1090
3 1091 1092 1093
3 1094 1095 1096
3 1097 1098 1099
3 1100 1101 1102
3 1103 1104 1105
3 1106 1107 1108
3 1109 1110 1111
3 1112 1113 1114
3 1115 1116 1117
3 1118 1119 1120
3 1121 1122 1123
3 1124 1125 1126
3 1127 1128 1129
3 1130 1131 1132
3 1133 1134 1135
3 1136 1137 1138
3 1139 1140 1141
3 1142 1143 1144
3 1145 1146 1147
3 1148 1149 1150
3 1151 1152 1153
3 1154 1155 1156
3 1157 1158 1159
3 1160 1161 1162
3 1163 1164 1165
3 1166 1167 1168
3 1169 1170 1171
3 1172 1173 1174
3 1175 1176 1177
3 1178 1179 1180
3 1181 1182 1183
3 1184 1185 1186
3 1187 1188 1189
3 1190 1191 1192
3 1193 1194 1195
3 1196 1197 1198
3 1199 1200 1201
3 1202 1203 1204
3 1205 1206 1207
3 1208 1209 1210
3 1211 1212 1213
3 1214 1215 1216
3 1217 1218 1219
3 1220 1221 1222
3 1223 1224 1225
3 1226 1227 1228
3 1229 1230 1231
3 1232 1233 1234
3 1235 1236 1237
3 1238 1239 1240
3 1241 1242 1243
3 1244 1245 1246
3 1247 1248 1249
3 1250 1251 1252
3 1253 1254 1255
3 1256 1257 1258
3 1259 1260 1261
3 1262 1263 1264
3 1265 1266 1267
3 1268 1269 1270
3 1271 1272 1273
3 1274 1275 1276
3 1277 1278 1279
3 1280 1281 1282
3 1283 1284 1285
3 1286 1287 1288
3 1289 1290 1291
3 1292 1293 1294
3 1295 1296 1297
3 1298 1299 1300
3 1301 1302 1303
3 1304 1305 1306
3 1307 1308 1309
3 1310 1311 1312
3 1313 1314 1315
3 1316 1317 1318
3 1319 1320 1321
3 1322 1323 1324
3 1325 1326 1327
3 1328 1329 1330
3 1331 1332 1333
3 1334 1335 1336
3 1337 1338 1339
3 1340 1341 1342
3 1343 1344 1345
3 1346 1347 1348
3 1349 1350 1351
3 1352 1353 1354
3 1355 1356 1357
3 1358 1359 1360
3 1361 1362 1363
3 1364 1365 1366
3 1367 1368 1369
3 1370 1371 1372
3 1373 1374 1375
3 1376 1377 1378
3 1379 1380 1381
3 1382 1383 1384
3 1385 1386 1387
3 1388 1389 1390
3 1391 1392 1393
3 1394 1395 1396
3 1397 1398 1399
3 1400 1401 1402
3 1403 1404 1405
3 1406 1407 1408
3 1409 1410 1411
3 1412 1413 1414
3 1415 1416 1417
3 1418 1419 1420
3 1421 1422 1423
3 1424 1425 1426
3 1427 1428 1429
3 1430 1431 1432
3 1433 1434 1435
3 1436 1437 1438
3 1439 1440 1441
3 1442 1443 1444
3 1445 1446 1447
3 1448 1449 1450
3 1451 1452 1453
3 1454 1455 1456
3 1457 1458 1459
3 1460 1461 1462
3 1463 1464 1465
3 1466 1467 1468
3 1469 1470 1471
3 1472 1473 1474
3 1475 1476 1477
3 1478 1479 1480
3 1481 1482 1483
3 1484 1485 1486
3 1487 1488 1489
3 1490 1491 1492
3 1493 1494 1495
3 1496 1497 1498
3 1499 1500 1501
3 1502 1503 1504
3 1505 1506 1507
3 1508 1509 1510
3 1511 1512 1513
3 1514 1515 1516
3 1517 1518 1519
3 1520 1521 1522
3 1523 1524 1525
3 1526 1527 1528
3 1529 1530 1531
3 1532 1533 1534
3 1535 1536 1537
3 1538 1539 1540
3 1541 1542 1543
3 1544 1545 1546
3 1547 1548 1549
3 1550 1551 1552
3 1553 1554 1555
3 1556 1557 1558
3 1559 1560 1561
3 1562 1563 1564
3 1565 1566 1567
3 1568 1569 1570
3 1571 1572 1573
3 1574 1575 1576
3 1577 1578 1579
3 1580 1581 1582
3 1583 1584 1585
3 1586 1587 1588
3 1589 1590 1591
3 1592 1593 1594
3 1595 1596 1597
3 1598 1599 1600
3 1601 1602 1603
3 1604 1605 1606
3 1607 1608 1609
3 1610 1611 1612
3 1613 1614 1615
3 1616 1617 1618
3 1619 1620 1621
3 1622 1623 1624
3 1625 1626 1627
3 1628 1629 1630
3 1631 1632 1633
3 1634 1635 1636
3 1637 1638 1639
3 1640 1641 1642
3 1643 1644 1645
3 1646 1647 1648
3 1649 1650 1651
3 1652 1653 1654
3 1655 1656 1657
3 1658 1659 1660
3 1661 1662 1663
3 1664 1665 1666
3 1667 1668 1669
3 1670 1671 1672
3 1673 1674 1675
3 1676 1677 1678
3 1679 1680 1681
3 1682 1683 1684
3 1685 1686 1687
3 1688 1689 1690
3 1691 1692 1693
3 1694 1695 1696
3 1697 1698 1699
3 1700 1701 1702
3 1703 1704 1705
3 1706 1707 1708
3 1709 1710 1711
3 1712 1713 1714
3 1715 1716 1717
3 1718 1719 1720
3 1721 1722 1723
3 1724 1725 1726
3 1727 1728 1729
3 1730 1731 1732
3 1733 1734 1735
3 1736 1737 1738
3 1739 1740 1741
3 1742 1743 1744
3 1745 1746 1747
3 1748 1749 1750
3 1751 1752 1753
3 1754 1755 1756
3 1757 1758 1759
3 1760 1761 1762
3 1763 1764 1765
3 1766 1767 1768
3 1769 1770 1771
3 1772 1773 1774
3 1775 1776 1777
3 1778 1779 1780
3 1781 1782 1783
3 1784 1785 1786
3 1787 1788 1789
3 1790 1791 1792
3 1793 1794 1795
3 1796 1797 1798
3 1799 1800 1801
3 1802 1803 1804
3 1805 1806 1807
3 1808 1809 1810
3 1811 1812 1813
3 1814 1815 1816
3 1817 1818 1819
3 1820 1821 1822
3 1823 1824 1825
3 1826 1827 1828
3 1829 1830 1831
3 1832 1833 1834
3 1835 1836 1837
3 1838 1839 1840
3 1841 1842 1843
3 1844 1845 1846
3 1847 1848 1849
3 1850 1851 1852
3 1853 1854 1855
3 1856 1857 1858
3 1859 1860 1861
3 1862 1863 1864
3 1865 1866 1867
3 1868 1869 1870
3 1871 1872 1873
3 1874 1875 1876
3 1877 1878 1879
3 1880 1881 1882
3 1883 1884 1885
3 1886 1887 1888
3 1889 1890 1891
3 1892 1893 1894
3 1895 1896 1897
3 1898 1899 1900
3 1901 1902 1903
3 1904 1905 1906
3 1907 1908 1909
3 1910 1911 1912
3 1913 1914 1915
3 1916 1917 1918
3 1919 1920 1921
3 1922 1923 1924
3 1925 1926 1927
3 1928 1929 1930
3 1931 1932 1933
3 1934 1935 1936
3 1937 1938 1939
3 1940 1941 1942
3 1943 1944 1945
3 1946 1947 1948
3 1949 1950 1951
3 1952 1953 1954
3 1955 1956 1957
3 1958 1959 1960
3 1961 1962 1963
3 1964 1965 1966
3 1967 1968 1969
3 1970 1971 1972
3 1973 1974 1975
3 1976 1977 1978
3 1979 1980 1981
3 1982 1983 1984
3 1985 1986 1987
3 1988 1989 1990
3 1991 1992 1993
3 1994 1995 1996
3 1997 1998 1999
3 2000 2001 2002
3 2003 2004 2005
3 2006 2007 2008
3 2009 2010 2011
3 2012 2013 2014
3 2015 2016 2017
3 2018 2019 2020
3 2021 2022 2023
3 2024 2025 2026
3 2027 2028 2029
3 2030 2031 2032
3 2033 2034 2035
3 2036 2037 2038
3 2039 2040 2041
3 2042 2043 2044
3 2045 2046 2047
3 2048 2049 2050
3 2051 2052 2053
3 2054 2055 2056
3 2057 2058 2059
3 2060 2061 2062
3 2063 2064 2065
3 2066 2067 2068
3 2069 2070 2071
3 2072 2073 2074
3 2075 2076 2077
3 2078 2079 2080
3 2081 2082 2083
3 2084 2085 2086
3 2087 2088 2089
3 2090 2091 2092
3 2093 2094 2095
3 2096 2097 2098
3 2099 2100 2101
3 2102 2103 2104
3 2105 2106 2107
3 2108 2109 2110
3 2111 2112 2113
3 2114 2115 2116
3 2117 2118 2119
3 2120 2121 2122
3 2123 2124 2125
3 2126 2127 2128
3 2129 2130 2131
3 2132 2133 2134
3 2135 2136 2137
3 2138 2139 2140
3 2141 2142 2143
3 2144 2145 2146
3 2147 2148 2149
3 2150 2151 2152
3 2153 2154 2155
3 2156 2157 2158
3 2159 2160 2161
3 2162 2163 2164
3 2165 2166 2167
3 2168 2169 2170
3 2171 2172 2173
3 2174 2175 2176
3 2177 2178 2179
3 2180 2181 2182
3 2183 2184 2185
3 2186 2187 2188
3 2189 2190 2191
3 2192 2193 2194
3 2195 2196 2197
3 2198 2199 2200
3 2201 2202 2203
3 2204 2205 2206
3 2207 2208 2209
3 2210 2211 2212
3 2213 2214 2215
3 2216 2217 2218
3 2219 2220 2221
3 2222 2223 2224
3 2225 2226 2227
3 2228 2229 2230
3 2231 2232 2233
3 2234 2235 2236
3 2237 2238 2239
3 2240 2241 2242
3 2243 2244 2245
3 2246 2247 2248
3 2249 2250 2251
3 2252 2253 2254
3 2255 2256 2257
3 2258 2259 2260
3 2261 2262 2263
3 2264 2265 2266
3 2267 2268 2269
3 2270 2271 2272
3 2273 2274 2275
3 2276 2277 2278
3 2279 2280 2281
3 2282 2283 2284
3 2285 2286 2287
3 2288 2289 2290
3 2291 2292 2293
3 2294 2295 2296
3 2297 2298 2299
3 2300 2301 2302
3 2303 2304 2305
3 2306 2307 2308
3 2309 2310 2311
3 2312 2313 2314
3 2315 2316 2317
3 2318 2319 2320
3 2321 2322 2323
3 2324 2325 2326
3 2327 2328 2329
3 2330 2331 2332
3 2333 2334 2335
3 2336 2337 2338
3 2339 2340 2341
3 2342 2343 2344
3 2345 2346 2347
3 2348 2349 2350
3 2351 2352 2353
3 2354 2355 2356
3 2357 2358 2359
3 2360 2361 2362
3 2363 2364 2365
3 2366 2367 2368
3 2369 2370 2371
3 2372 2373 2374
3 2375 2376 2377
3 2378 2379 2380
3 2381 2382 2383
3 2384 2385 2386
3 2387 2388 2389
3 2390 2391 2392
3 2393 2394 2395
3 2396 2397 2398
3 2399 2400 2401
3 2402 2403 2404
3 2405 2406 2407
3 2408 2409 2410
3 2411 2412 2413
3 2414 2415 2416
3 2417 2418 2419
3 2420 2421 2422
3 2423 2424 2425
3 2426 2427 2428
3 2429 2430 2431
3 2432 2433 2434
3 2435 2436 2437
3 2438 2439 2440
3 2441 2442 2443
3 2444 2445 2446
3 2447 2448 2449
3 2450 2451 2452
3 2453 2454 2455
3 2456 2457 2458
3 2459 2460 2461
3 2462 2463 2464
3 2465 2466 2467
3 2468 2469 2470
3 2471 2472 2473
3 2474 2475 2476
3 2477 2478 2479
3 2480 2481 2482
3 2483 2484 2485
3 2486 2487 2488
3 2489 2490 2491
3 2492 2493 2494
3 2495 2496 2497
3 2498 2499 2500
3 2501 2502 2503
3 2504 2505 2506
3 2507 2508 2509
3 2510 2511 2512
3 2513 2514 2515
3 2516 2517 2518
3 2519 2520 2521
3 2522 2523 2524
3 2525 2526 2527
3 2528 2529 2530
3 2531 2532 2533
3 2534 2535 2536
3 2537 2538 2539
3 2540 2541 2542
3 2543 2544 2545
3 2546 2547 2548
3 2549 2550 2551
3 2552 2553 2554
3 2555 2556 2557
3 2558 2559 2560
3 2561 2562 2563
3 2564 2565 2566
3 2567 2568 2569
3 2570 2571 2572
3 2573 2574 2575
3 2576 2577 2578
3 2579 2580 2581
3 2582 2583 2584
3 2585 2586 2587
3 2588 2589 2590
3 2591 2592 2593
3 2594 2595 2596
3 2597 2598 2599
3 2600 2601 2602
3 2603 2604 2605
3 2606 2607 2608
3 2609 2610 2611
3 2612 2613 2614
3 2615 2616 2617
3 2618 2619 2620
3 2621 2622 2623
3 2624 2625 2626
3 2627 2628 2629
3 2630 2631 2632
3 2633 2634 2635
3 2636 2637 2638
3 2639 2640 2641
3 2642 2643 2644
3 2645 2646 2647
3 2648 2649 2650
3 2651 2652 2653
3 2654 2655 2656
3 2657 2658 2659
3 2660 2661 2662
3 2663 2664 2665
3 2666 2667 2668
3 2669 2670 2671
3 2672 2673 2674
3 2675 2676 2677
3 2678 2679 2680
3 2681 2682 2683
3 2684 2685 2686
3 2687 2688 2689
3 2690 2691 2692
3 2693 2694 2695
3 2696 2697 2698
3 2699 2700 2701
3 2702 2703 2704
3 2705 2706 2707
3 2708 2709 2710
3 2711 2712 2713
3 2714 2715 2716
3 2717 2718 2719
3 2720 2721 2722
3 2723 2724 2725
3 2726 2727 2728
3 2729 2730 2731
3 2732 2733 2734
3 2735 2736 2737
3 2738 2739 2740
3 2741 2742 2743
3 2744 2745 2746
3 2747 2748 2749
3 2750 2751 2752
3 2753 2754 2755
3 2756 2757 2758
3 2759 2760 2761
3 2762 2763 2764
3 2765 2766 2767
3 2768 2769 2770
3 2771 2772 2773
3 2774 2775 2776
3 2777 2778 2779
3 2780 2781 2782
3 2783 2784 2785
3 2786 2787 2788
3 2789 2790 2791
3 2792 2793 2794
3 2795 2796 2797
3 2798 2799 2800
3 2801 2802 2803
3 2804 2805 2806
3 2807 2808 2809
3 2810 2811 2812
3 2813 2814 2815
3 2816 2817 2818
3 2819 2820 2821
3 2822 2823 2824
3 2825 2826 2827
3 2828 2829 2830
3 2831 2832 2833
3 2834 2835 2836
3 2837 2838 2839
3 2840 2841 2842
3 2843 2844 2845
3 2846 2847 2848
3 2849 2850 2851
3 2852 2853 2854
3 2855 2856 2857
3 2858 2859 2860
3 2861 2862 2863
3 2864 2865 2866
3 2867 2868 2869
3 2870 2871 2872
3 2873 2874 2875
3 2876 2877 2878
3 2879 2880 2881
3 2882 2883 2884
3 2885 2886 2887
3 2888 2889 2890
3 2891 2892 2893
3 2894 2895 2896
3 2897 2898 2899
3 2900 2901 2902
3 2903 2904 2905
3 2906 2907 2908
3 2909 2910 2911
3 2912 2913 2914
3 2915 2916 2917
3 2918 2919 2920
3 2921 2922 2923
3 2924 2925 2926
3 2927 2928 2929
3 2930 2931 2932
3 2933 2934 2935
3 2936 2937 2938
3 2939 2940 2941
3 2942 2943 2944
3 2945 2946 2947
3 2948 2949 2950
3 2951 2952 2953
3 2954 2955 2956
3 2957 2958 2959
3 2960 2961 2962
3 2963 2964 2965
3 2966 2967 2968
3 2969 2970 2971
3 2972 2973 2974
3 2975 2976 2977
3 2978 2979 2980
3 2981 2982 2983
3 2984 2985 2986
3 2987 2988 2989
3 2990 2991 2992
3 2993 2994 2995
3 2996 2997 2998
3 2999 3000 3001
3 3002 3003 3004
3 3005 3006 3007
3 3008 3009 3010
3 3011 3012 3013
3 3014 3015 3016
3 3017 3018 3019
3 3020 3021 3022
3 3023 3024 3025
3 3026 3027 3028
3 3029 3030 3031
3 3032 3033 3034
3 3035 3036 3037
3 3038 3039 3040
3 3041 3042 3043
3 3044 3045 3046
3 3047 3048 3049
3 3050 3051 3052
3 3053 3054 3055
3 3056 3057 3058
3 3059 3060 3061
3 3062 3063 3064
3 3065 3066 3067
3 3068 3069 3070
3 3071 3072 3073
3 3074 3075 3076
3 3077 3078 3079
3 3080 3081 3082
3 3083 3084 3085
3 3086 3087 3088
3 3089 3090 3091
3 3092 3093 3094
3 3095 3096 3097
3 3098 3099 3100
3 3101 3102 3103
3 3104 3105 3106
3 3107 3108 3109
3 3110 3111 3112
3 3113 3114 3115
3 3116 3117 3118
3 3119 3120 3121
3 3122 3123 3124
3 3125 3126 3127
3 3128 3129 3130
3 3131 3132 3133
3 3134 3135 3136
3 3137 3138 3139
3 3140 3141 3142
3 3143 3144 3145
3 3146 3147 3148
3 3149 3150 3151
3 3152 3153 3154
3 3155 3156 3157
3 3158 3159 3160
3 3161 3162 3163
3 3164 3165 3166
3 3167 3168 3169
3 3170 3171 3172
3 3173 3174 3175
3 3176 3177 3178
3 3179 3180 3181
3 3182 3183 3184
3 3185 3186 3187
3 3188 3189 3190
3 3191 3192 3193
3 3194 3195 3196
3 3197 3198 3199
3 3200 3201 3202
3 3203 3204 3205
3 3206 3207 3208
3 3209 3210 3211
3 3212 3213 3214
3 3215 3216 3217
3 3218 3219 3220
3 3221 3222 3223
3 3224 3225 3226
3 3227 3228 3229
3 3230 3231 3232
3 3233 3234 3235
3 3236 3237 3238
3 3239 3240 3241
3 3242 3243 3244
3 3245 3246 3247
3 3248 3249 3250
3 3251 3252 3253
3 3254 3255 3256
3 3257 3258 3259
3 3260 3261 3262
3 3263 3264 3265
3 3266 3267 3268
3 3269 3270 3271
3 3272 3273 3274
3 3275 3276 3277
3 3278 3279 3280
3 3281 3282 3283
3 3284 3285 3286
3 3287 3288 3289
3 3290 3291 3292
3 3293 3294 3295
3 3296 3297 3298
3 3299 3300 3301
3 3302 3303 3304
3 3305 3306 3307
3 3308 3309 3310
3 3311 3312 3313
3 3314 3315 3316
3 3317 3318 3319
3 3320 3321 3322
3 3323 3324 3325
3 3326 3327 3328
3 3329 3330 3331
3 3332 3333 3334
3 3335 3336 3337
3 3338 3339 3340
3 3341 3342 3343
3 3344 3345 3346
3 3347 3348 3349
3 3350 3351 3352
3 3353 3354 3355
3 3356 3357 3358
3 3359 3360 3361
3 3362 3363 3364

CELL_TYPES 1138
5
5
5
5
5
5
5
5
5
5
5
5
5
5
5
5
5
5
5
5
5
5
5
5
5
5
5
5
5
5
5
5
5
5
5
5
5
5
5
5
5
5
5
5
5
5
5
5
5
5
5
5
5
5
5
5
5
5
5
5
5
5
5
5
5
5
5
5
5
5
5
5
5
5
5
5
5
5
5
5
5
5
5
5
5
5
5
5
5
5
5
5
5
5
5
5
5
5
5
5
5
5
5
5
5
5
5
5
5
5
5
5
5
5
5
5
5
5
5
5
5
5
5
5
5
5
5
5
5
5
5
5
5
5
5
5
5
5
5
5
5
5
5
5
5
5
5
5
5
5
5
5
5
5
5
5
5
5
5
5
5
5
5
5
5
5
5
5
5
5
5
5
5
5
5
5
5
5
5
5
5
5
5
5
5
5
5
5
5
5
5
5
5
5
5
5
5
5
5
5
5
5
5
5
5
5
5
5
5
5
5
3
3
3
3
3
3
3
3
3
3
3
3
3
3
3
3
3
3
3
3
3
3
3
3
3
3
3
3
3
3
3
3
3
3
3
3
3
3
3
3
3
3
3
3
3
3
3
3
3
5
5
5
5
5
5
5
5
5
5
5
5
5
5
5
5
5
5
5
5
5
5
5
5
5
5
5
5
5
5
5
5
5
5
5
5
5
5
5
5
5
5
5
5
5
5
5
5
5
5
5
5
5
5
5
5
5
5
5
5
5
5
5
5
5
5
5
5
5
5
5
5
5
5
5
5
5
5
5
5
5
5
5
5
5
5
5
5
5
5
5
5
5
5
5
5
5
5
5
5
5
5
5
5
5
5
5
5
5
5
5
5
5
5
5
5
5
5
5
5
5
5
5
5
5
5
5
5
5
5
5
5
5
5
5
5
5
5
5
5
5
5
5
5
5
5
5
5
5
5
5
5
5
5
5
5
5
5
5
5
5
5
5
5
5
5
5
5
5
5
5
5
5
5
5
5
5
5
5
5
5
5
5
5
5
5
5
5
5
5
5
5
5
5
5
5
5
5
5
5
5
5
5
5
5
5
5
5
5
5
5
5
5
5
5
5
5
5
5
5
5
5
5
5
5
5
5
5
5
5
5
5
5
5
5
5
5
5
5
5
5
5
5
5
5
5
5
5
5
5
5
5
5
5
5
5
5
5
5
5
5
5
5
5
5
5
5
5
5
5
5
5
5
5
5
5
5
5
5
5
5
5
5
5
5
5
5
5
5
5
5
5
5
5
5
5
5
5
5
5
5
5
5
5
5
5
5
5
5
5
5
5
5
5
5
5
5
5
5
5
5
5
5
5
5
5
5
5
5
5
5
5
5
5
5
5
5
5
5
5
5
5
5
5
5
5
5
5
5
5
5
5
5
5
5
5
5
5
5
5
5
5
5
5
5
5
5
5
5
5
5
5
5
5
5
5
5
5
5
5
5
5
5
5
5
5
5
5
5
5
5
5
5
5
5
5
5
5
5
5
5
5
5
5
5
5
5
5
5
5
5
5
5
5
5
5
5
5
5
5
5
5
5
5
5
5
5
5
5
5
5
5
5
5
5
5
5
5
5
5
5
5
5
5
5
5
5
5
5
5
5
5
5
5
5
5
5
5
5
5
5
5
5
5
5
5
5
5
5
5
5
5
5
5
5
5
5
5
5
5
5
5
5
5
5
5
5
5
5
5
5
5
5
5
5
5
5
5
5
5
5
5
5
5
5
5
5
5
5
5
5
5
5
5
5
5
5
5
5
5
5
5
5
5
5
5
5
5
5
5
5
5
5
5
5
5
5
5
5
5
5
5
5
5
5
5
5
5
5
5
5
5
5
5
5
5
5
5
5
5
5
5
5
5
5
5
5
5
5
5
5
5
5
5
5
5
5
5
5
5
5
5
5
5
5
5
5
5
5
5
5
5
5
5
5
5
5
5
5
5
5
5
5
5
5
5
5
5
5
5
5
5
5
5
5
5
5
5
5
5
5
5
5
5
5
5
5
5
5
5
5
5
5
5
5
5
5
5
5
5
5
5
5
5
5
5
5
5
5
5
5
5
5
5
5
5
5
5
5
5
5
5
5
5
5
5
5
5
5
5
5
5
5
5
5
5
5
5
5
5
5
5
5
5
5
5
5
5
5
5
5
5
5
5
5
5
5
5
5
5
5
5
5
5
5
5
5
5
5
5
5
5
5
5
5
5
5
5
5
5
5
5
5
5
5
5
5
5
5
5
5
5
5
5
5
5
5
5
5
5
5
5
5
5
5
5
5
5
5
5
5
5
5
5
5
5
5
5
5
5
5
5
5
5
5
5
5
5
5
5
5
5
5
5
5
5
5
5
5
5
5
5
5
5
5
5
5
5
5
5
5
5
5
5
5
5
5
5
5
5
5
5
5
5
5
5
5
5
5
5
5
5
5
5
5
5
5
5
5
5
5
5
5
5
5
5
5
5
5
5
5
5
5
5
5
5
5
5
5
5
5
5
5
5
5
5
5
5
5
5
5
5
5
5
5
5
5
5
5
5
5
5
5
5
5
5
5
5
5
5
5
5
5
5
5
5
5
5

CELL_DATA 1138
FIELD FieldData 2
material 1 1138 int
1
1
1
1
1
1
1
1
1
1
1
1
1
1
1
1
1
1
1
1
1
1
1
1
1
1
1
1
1
1
1
1
1
1
1
1
1
1
1
1
1
1
1
1
1
1
1
1
1
1
1
1
1
1
1
1
1
1
1
1
1
1
1
1
1
1
1
1
1
1
1
1
1
1
1
1
1
1
1
1
1
1
1
1
1
1
1
1
1
1
1
1
1
1
1
1
1
1
1
1
1
1
1
1
1
1
1
1
1
1
1
1
1
1
1
1
1
1
1
1
1
1
1
1
1
1
1
1
1
1
1
1
1
1
1
1
1
1
1
1
1
1
1
1
1
1
1
1
1
1
1
1
1
1
1
1
1
1
1
1
1
1
1
1
1
1
1
1
1
1
1
1
1
1
1
1
1
1
1
1
1
1
1
1
1
1
1
1
1
1
1
1
1
1
1
1
1
1
1
1
1
1
1
1
1
1
1
1
1
1
1
-2
-2
-1
-3
-3
-2
-1
-1
-1
-2
-2
-4
-4
-4
-5
-5
-5
-4
-4
-5
-5
-1
-1
-1
-1
-2
-3
-3
-4
-4
-6
-6
-6
-5
-4
-1
-5
-1
-3
-6
-6
-5
-1
-6
-6
-6
-6
-6
-6
1
1
1
1
1
1
1
1
1
1
1
1
1
1
1
1
1
1
1
1
1
1
1
1
1
1
1
1
1
1
1
1
1
1
1
1
1
1
1
1
1
1
1
1
1
1
1
1
1
1
1
1
1
1
1
1
1
1
1
1
1
1
1
1
1
1
1
1
1
1
1
1
1
1
1
1
1
1
1
1
1
1
1
1
1
1
1
1
1
1
1
1
1
1
1
1
1
1
1
1
1
1
1
1
1
1
1
1
1
1
1
1
1
1
1
1
1
1
1
1
1
1
1
1
1
1
1
1
1
1
1
1
1
1
1
1
1
1
1
1
1
1
1
1
1
1
1
1
1
1
1
1
1
1
1
1
1
1
1
1
1
1
1
1
1
1
1
1
1
1
1
1
1
1
1
1
1
1
1
1
1
1
1
1
1
1
1
1
1
1
1
1
1
1
1
1
1
1
1
1
1
1
1
1
1
1
1
1
1
1
1
1
1
1
1
1
1
1
1
1
1
1
1
1
1
1
1
1
1
1
1
1
1
1
1
1
1
1
1
1
1
1
1
1
1
1
1
1
1
1
1
1
1
1
1
1
1
1
1
1
1
1
1
1
1
1
1
1
1
1
1
1
1
1
1
1
1
1
1
1
1
1
1
1
1
1
1
1
1
1
1
1
1
1
1
1
1
1
1
1
1
1
1
1
1
1
1
1
1
1
1
1
1
1
1
1
1
1
1
1
1
1
1
1
1
1
1
1
1
1
1
1
1
1
1
1
1
1
1
1
1
1
1
1
1
1
1
1
1
1
1
1
1
1
1
1
1
1
1
1
1
1
1
1
1
1
1
1
1
1
1
1
1
1
1
1
1
1
1
1
1
1
1
1
1
1
1
1
1
1
1
1
1
1
1
1
1
1
1
1
1
1
1
1
1
1
1
1
1
1
1
1
1
1
1
1
1
1
1
1
1
1
1
1
1
1
1
1
1
1
1
1
1
1
1
1
1
1
1
1
1
1
1
1
1
1
1
1
1
1
1
1
1
1
1
1
1
1
1
1
1
1
1
1
1
1
1
1
1
1
1
1
1
1
1
1
1
1
1
1
1
1
1
1
1
1
1
1
1
1
1
1
1
1
1
1
1
1
1
1
1
1
1
1
1
1
1
1
1
1
1
1
1
1
1
1
1
1
1
1
1
1
1
1
1
1
1
1
1
1
1
1
1
1
1
1
1
1
1
1
1
1
1
1
1
1
1
1
1
1
1
1
1
1
1
1
1
1
1
1
1
1
1
1
1
1
1
1
1
1
1
1
1
1
1
1
1
1
1
1
1
1
1
1
1
1
1
1
1
1
1
1
1
1
1
1
1
1
1
1
1
1
1
1
1
1
1
1
1
1
1
1
1
1
1
1
1
1
1
1
1
1
1
1
1
1
1
1
1
1
1
1
1
1
1
1
1
1
1
1
1
1
1
1
1
1
1
1
1
1
1
1
1
1
1
1
1
1
1
1
1
1
1
1
1
1
1
1
1
1
1
1
1
1
1
1
1
1
1
1
1
1
1
1
1
1
1
1
1
1
1
1
1
1
1
1
1
1
1
1
1
1
1
1
1
1
1
1
1
1
1
1
1
1
1
1
1
1
1
1
1
1
1
1
1
1
1
1
1
1
1
1
1
1
1
1
1
1
1
1
1
1
1
1
1
1
1
1
1
1
1
1
1
1
1
1
1
1
1
1
1
1
1
1
1
1
1
1
1
1
1
1
1
1
1
1
1
1
1
1
1
1
1
1
1
1
1
1
1
1
1
1
1
1
1
1
1
1
1
1
1
1
1
1
1
1
1
1
1
1
1
1
1
1
1
1
1
1
1
1
1
1
1
1
1
1
1
1
1
1
1
1
1
1
1
1
1
1
1
1
1
1
1
1
1
1
1
1
1
1
1
1
1
1
1
1
1
1
1
1
1
1
1
1
1
1
1
1
1
1
1
1
1
1
1
1
1
1
elIndex 1 1138 int
0
1
2
3
4
5
6
7
8
9
10
14
15
16
17
18
19
20
21
22
23
24
25
26
27
28
29
30
31
33
34
35
36
37
38
39
40
41
42
43
44
45
52
53
54
55
56
57
58
59
60
61
62
63
64
65
66
67
68
69
70
71
72
73
75
76
77
78
79
80
81
82
83
84
85
86
87
88
89
90
91
92
93
94
95
96
97
98
99
100
101
102
103
104
105
106
107
108
109
115
116
117
118
119
120
121
122
123
124
125
126
127
128
129
130
131
132
133
134
135
136
137
138
139
144
145
146
147
150
151
152
153
169
170
171
172
173
174
175
176
177
178
179
180
181
182
183
184
185
186
187
188
189
190
191
192
194
197
198
199
202
203
204
206
207
208
209
210
221
222
223
224
225
226
227
228
229
235
236
237
238
239
240
241
242
256
257
258
259
260
261
262
263
264
265
266
267
271
272
273
274
275
276
277
278
279
280
281
282
283
284
285
286
287
288
289
290
291
292
293
294
295
296
297
298
299
300
301
302
303
304
305
306
307
308
309
310
311
312
313
314
315
316
317
318
319
320
321
322
323
324
325
326
327
328
329
330
331
332
333
338
340
341
344
354
355
357
374
375
377
378
379
381
390
391
392
393
394
408
412
415
417
422
423
425
434
438
439
441
455
457
458
459
461
462
466
467
468
469
472
475
476
477
483
484
485
486
488
489
495
498
502
504
505
510
511
512
513
514
516
517
519
520
521
534
538
539
546
547
548
549
579
582
583
585
586
587
589
602
603
604
605
608
611
612
613
614
615
616
617
618
619
620
621
622
623
624
625
626
627
628
629
630
631
632
633
634
635
636
637
638
639
640
641
642
643
644
645
646
647
648
649
650
651
652
653
654
655
656
657
658
659
660
661
662
663
664
665
666
667
668
669
670
671
672
673
674
675
676
677
678
679
680
681
682
683
684
685
686
687
688
689
690
691
692
693
694
695
696
697
698
699
700
701
702
703
704
705
706
707
708
709
710
711
712
713
714
715
716
717
718
719
720
721
722
723
724
725
726
727
728
729
730
731
732
733
734
735
736
737
738
739
740
741
742
743
744
745
746
747
748
749
750
751
752
753
754
755
756
757
758
759
760
761
762
763
764
765
766
767
768
769
770
771
772
773
774
775
776
777
778
779
780
781
782
783
784
785
786
787
788
789
790
791
792
793
794
795
796
797
798
799
800
801
802
803
804
805
806
807
808
809
810
811
812
813
814
815
816
817
818
819
820
821
822
823
824
825
826
827
828
829
830
831
832
833
834
835
836
837
838
839
840
841
842
843
844
845
846
847
848
849
850
851
852
853
854
855
856
857
858
859
860
861
862
863
864
865
866
867
868
869
870
871
872
873
874
875
876
877
878
879
880
881
882
883
884
885
886
887
888
889
890
891
892
893
894
895
896
897
898
899
900
901
902
903
904
905
906
907
908
909
910
911
912
913
914
915
916
917
918
919
920
921
922
923
924
925
926
927
928
929
930
931
932
933
934
935
936
937
938
939
940
941
942
943
944
945
946
947
948
949
950
951
952
953
954
955
956
957
958
959
960
961
962
963
964
965
966
967
968
969
970
971
972
973
974
975
976
977
978
979
980
981
982
983
984
985
986
987
988
989
990
991
992
993
994
995
996
997
998
999
1000
1001
1002
1003
1004
1005
1006
1007
1008
1009
1010
1011
1012
1013
1014
1015
1016
1017
1018
1019
1020
1021
1022
1023
1024
1025
1026
1027
1028
1029
1030
1031
1032
1033
1034
1035
1036
1037
1038
1039
1040
1041
1042
1043
1044
1045
1046
1047
1048
1049
1050
1051
1052
1053
1054
1055
1056
1057
1058
1059
1060
1061
1062
1063
1064
1065
1066
1067
1068
1069
1070
1071
1072
1073
1074
1075
1076
1077
1078
1079
1080
1081
1082
1083
1084
1085
1086
1087
1088
1089
1090
1091
1092
1093
1094
1095
1096
1097
1098
1099
1100
1101
1102
1103
1104
1105
1106
1107
1108
1109
1110
1111
1112
1113
1114
1115
1116
1117
1118
1119
1120
1121
1122
1123
1124
1125
1126
1127
1128
1129
1130
1131
1132
1133
1134
1135
1136
1137
1138
1139
1140
1141
1142
1143
1144
1145
1146
1147
1148
1149
1150
1151
1152
1153
1154
1155
1156
1157
1158
1159
1160
1161
1162
1163
1164
1165
1166
1167
1168
1169
1170
1171
1172
1173
1174
1175
1176
1177
1178
1179
1180
1181
1182
1183
1184
1185
1186
1187
1188
1189
1190
1191
1192
1193
1194
1195
1196
1197
1198
1199
1200
1201
1202
1203
1204
1205
1206
1207
1208
1209
1210
1211
1212
1213
1214
1215
1216
1217
1218
1219
1220
1221
1222
1223
1224
1225
1226
1227
1228
1229
1230
1231
1232
1233
1234
1235
1236
1237
1238
1239
1240
1241
1242
1243
1244
1245
1246
1247
1248
1249
1250
1251
1252
1253
1254
1255
1256
1257
1258
1259
1260
1261
1262
1263
1264
1265
1266
1267
1268
1269
1270
1271
1272
1273
1274
1275
1276
1277
1278
1279
1280
1281
1282
1283
1284
1285
1286
1287
1288
1289
1290
1291
1292
1293
1294
1295
1296
1297
1298
1299
1300
1301
1302
1303
1304
1305
1306
1307
1308
1309
1310
1311
1312
1313
1314
1315
1316
1317
1318
1319
1320
1321
1322
1323
1324
1325
1326
1327
1328
1329
1330
1331
1332
1333
1334
1335
1336
1337
1338
1339
1340
1341
1342
1343
1344
1345
1346
1347
1348
1349
1350
1351
1352
1353
1354
1355
1356
1357
1358
1359
1360
1361
1362
1363
1364
1365
1366
1367
1368
1369
1370
1371
1372
1373
1374
1375
1376
1377
1378
1379
1380
1381
1382
1383
1384
1385
1386
1387
1388
1389
1390
1391
1392
1393
1394
1395
1396
1397
1398
1399
1400
1401
1402
1403
1404
1405
