# vtk DataFile Version 3.0
Arquivo gerado por PZ
ASCII

DATASET UNSTRUCTURED_GRID
POINTS 1140 float
18.6603 -23.6603 0
16.3277 -23.6603 0
18.6603 -19.4817 0
16.3277 -23.6603 0
18.6603 -5 0
18.6603 -6.58405 0
15.7014 -5 0
18.6603 -6.58405 0
4.66506 -23.6603 0
6.9976 -19.3249 0
9.33013 -23.6603 0
6.9976 -19.3249 0
13.9952 -23.6603 0
15.1615 -20.2689 0
16.3277 -23.6603 0
15.1615 -20.2689 0
16.3277 -23.6603 0
15.1615 -20.2689 0
18.6603 -19.4817 0
15.1615 -20.2689 0
18.6603 -8.1681 0
16.3328 -7.37607 0
18.6603 -6.58405 0
16.3328 -7.37607 0
18.6603 -6.58405 0
16.3328 -7.37607 0
15.7014 -5 0
16.3328 -7.37607 0
18.6603 -11.5401 0
16.8566 -9.85408 0
18.6603 -8.1681 0
16.8566 -9.85408 0
18.6603 -8.1681 0
16.8566 -9.85408 0
16.3328 -7.37607 0
16.8566 -9.85408 0
16.3328 -7.37607 0
16.8566 -9.85408 0
14.5138 -9.07496 0
16.8566 -9.85408 0
-1.25652 0 0
-2.04267 -1.46473 0
-2.82882 0 0
-2.04267 -1.46473 0
0 0 0
-0.628262 -1.08469 0
-1.25652 0 0
-0.628262 -1.08469 0
-1.25652 0 0
-0.628262 -1.08469 0
-2.04267 -1.46473 0
-0.628262 -1.08469 0
-2.04267 -1.46473 0
-0.628262 -1.08469 0
-0.628262 -2.33818 0
-0.628262 -1.08469 0
-18.6603 -2.36603 0
-15.1735 -3.54904 0
-18.6603 -4.73205 0
-15.1735 -3.54904 0
-18.6603 0 0
-16.4267 0 0
-18.6603 -2.36603 0
-16.4267 0 0
-18.6603 -2.36603 0
-16.4267 0 0
-15.1735 -3.54904 0
-16.4267 0 0
-15.1735 -3.54904 0
-16.4267 0 0
-14.1932 0 0
-16.4267 0 0
-18.6603 -18.9282 0
-15.1277 -20.1112 0
-18.6603 -21.2942 0
-15.1277 -20.1112 0
-18.6603 -21.2942 0
-16.3277 -23.6603 0
-18.6603 -23.6603 0
-16.3277 -23.6603 0
-13.9952 -23.6603 0
-16.3277 -23.6603 0
-15.1277 -20.1112 0
-16.3277 -23.6603 0
-15.1277 -20.1112 0
-16.3277 -23.6603 0
-18.6603 -21.2942 0
-16.3277 -23.6603 0
4.66506 -23.6603 0
2.33253 -19.6101 0
6.9976 -19.3249 0
2.33253 -19.6101 0
7.31859e-13 -23.6603 0
2.33253 -19.6101 0
4.66506 -23.6603 0
2.33253 -19.6101 0
15.1615 -20.2689 0
16.3538 -17.3994 0
18.6603 -19.4817 0
16.3538 -17.3994 0
18.6603 -19.4817 0
16.3538 -17.3994 0
18.6603 -15.3171 0
16.3538 -17.3994 0
6.9976 -19.3249 0
11.0639 -19.9323 0
9.33013 -23.6603 0
11.0639 -19.9323 0
13.9952 -23.6603 0
11.0639 -19.9323 0
15.1615 -20.2689 0
11.0639 -19.9323 0
9.33013 -23.6603 0
11.0639 -19.9323 0
13.9952 -23.6603 0
11.0639 -19.9323 0
14.5138 -9.07496 0
14.5138 -6.58752 0
16.3328 -7.37607 0
14.5138 -6.58752 0
16.3328 -7.37607 0
14.5138 -6.58752 0
15.7014 -5 0
14.5138 -6.58752 0
15.7014 -5 0
14.5138 -6.58752 0
13.3262 -5 0
14.5138 -6.58752 0
13.3262 -5 0
12.3728 -6.06157 0
11.4195 -5 0
12.3728 -6.06157 0
12.3728 -7.48838 0
12.3728 -6.06157 0
14.5138 -6.58752 0
12.3728 -6.06157 0
14.5138 -6.58752 0
12.3728 -6.06157 0
13.3262 -5 0
12.3728 -6.06157 0
18.6603 -15.3171 0
15.9227 -13.4286 0
18.6603 -11.5401 0
15.9227 -13.4286 0
12.8428 -14.6832 0
15.9227 -13.4286 0
16.3538 -17.3994 0
15.9227 -13.4286 0
16.3538 -17.3994 0
15.9227 -13.4286 0
18.6603 -15.3171 0
15.9227 -13.4286 0
-4.79624 0 0
-6.02715 -2.10658 0
-7.25807 0 0
-6.02715 -2.10658 0
-2.82882 0 0
-3.81253 -1.41064 0
-4.79624 0 0
-3.81253 -1.41064 0
-4.79624 0 0
-3.81253 -1.41064 0
-6.02715 -2.10658 0
-3.81253 -1.41064 0
-6.02715 -2.10658 0
-3.81253 -1.41064 0
-3.81253 -3.13041 0
-3.81253 -1.41064 0
-3.81253 -3.13041 0
-3.81253 -1.41064 0
-2.04267 -1.46473 0
-3.81253 -1.41064 0
-2.04267 -1.46473 0
-3.81253 -1.41064 0
-2.82882 0 0
-3.81253 -1.41064 0
-0.628262 -2.33818 0
-2.11396 -3.1621 0
-2.04267 -1.46473 0
-2.11396 -3.1621 0
-2.04267 -1.46473 0
-2.11396 -3.1621 0
-3.81253 -3.13041 0
-2.11396 -3.1621 0
1.49531 -3.66005 0
0.256922 -3.28283 0
0.913783 -2.16728 0
0.256922 -3.28283 0
0.913783 -2.16728 0
2.14651 -2.54671 0
1.49531 -3.66005 0
2.14651 -2.54671 0
2.16506 -1.25 0
2.14651 -2.54671 0
0.913783 -2.16728 0
2.14651 -2.54671 0
3.2476 -1.875 0
2.14651 -2.54671 0
2.16506 -1.25 0
2.14651 -2.54671 0
0 0 0
0.227455 -0.856036 0
-0.628262 -1.08469 0
0.227455 -0.856036 0
1.08253 -0.625 0
0.227455 -0.856036 0
0 0 0
0.227455 -0.856036 0
-12.2659 -6.29381 0
-15.8241 -7.15071 0
-15.1735 -3.54904 0
-15.8241 -7.15071 0
-15.1735 -3.54904 0
-15.8241 -7.15071 0
-18.6603 -4.73205 0
-15.8241 -7.15071 0
-18.6603 -4.73205 0
-15.8241 -7.15071 0
-18.6603 -9.4641 0
-15.8241 -7.15071 0
-12.2659 -6.29381 0
-12.2659 -2.44227 0
-8.79833 -3.91367 0
-12.2659 -2.44227 0
-15.1735 -3.54904 0
-12.2659 -2.44227 0
-12.2659 -6.29381 0
-12.2659 -2.44227 0
-14.1932 0 0
-12.2659 -2.44227 0
-15.1735 -3.54904 0
-12.2659 -2.44227 0
-10.3386 0 0
-12.2659 -2.44227 0
-14.1932 0 0
-12.2659 -2.44227 0
-7.25807 0 0
-8.79833 -1.65375 0
-10.3386 0 0
-8.79833 -1.65375 0
-10.3386 0 0
-8.79833 -1.65375 0
-12.2659 -2.44227 0
-8.79833 -1.65375 0
-12.2659 -2.44227 0
-8.79833 -1.65375 0
-8.79833 -3.91367 0
-8.79833 -1.65375 0
-8.79833 -3.91367 0
-8.79833 -1.65375 0
-6.02715 -2.10658 0
-8.79833 -1.65375 0
-6.02715 -2.10658 0
-8.79833 -1.65375 0
-7.25807 0 0
-8.79833 -1.65375 0
-11.5952 -16.5622 0
-11.3077 -20.3809 0
-15.1277 -20.1112 0
-11.3077 -20.3809 0
-15.1277 -20.1112 0
-11.3077 -20.3809 0
-13.9952 -23.6603 0
-11.3077 -20.3809 0
-13.9952 -23.6603 0
-11.3077 -20.3809 0
-9.33013 -23.6603 0
-11.3077 -20.3809 0
-9.33013 -23.6603 0
-11.3077 -20.3809 0
-6.9976 -19.0055 0
-11.3077 -20.3809 0
-6.9976 -19.0055 0
-11.3077 -20.3809 0
-11.5952 -16.5622 0
-11.3077 -20.3809 0
-15.1277 -20.1112 0
-15.429 -16.2788 0
-11.5952 -16.5622 0
-15.429 -16.2788 0
-18.6603 -18.9282 0
-15.429 -16.2788 0
-15.1277 -20.1112 0
-15.429 -16.2788 0
-18.6603 -14.1962 0
-15.429 -16.2788 0
-18.6603 -18.9282 0
-15.429 -16.2788 0
7.31859e-13 -23.6603 0
-2.33193 -19.2985 0
2.33253 -19.6101 0
-2.33193 -19.2985 0
-4.66506 -23.6603 0
-2.33193 -19.2985 0
7.31859e-13 -23.6603 0
-2.33193 -19.2985 0
9.88891 -5 0
9.27458 -6.14278 0
8.66025 -5 0
9.27458 -6.14278 0
16.3538 -17.3994 0
13.3006 -17.8132 0
12.8428 -14.6832 0
13.3006 -17.8132 0
11.0639 -19.9323 0
13.3006 -17.8132 0
15.1615 -20.2689 0
13.3006 -17.8132 0
15.1615 -20.2689 0
13.3006 -17.8132 0
16.3538 -17.3994 0
13.3006 -17.8132 0
9.98828 -13.1279 0
9.4438 -16.8634 0
6.9976 -14.4018 0
9.4438 -16.8634 0
12.8428 -14.6832 0
9.4438 -16.8634 0
9.98828 -13.1279 0
9.4438 -16.8634 0
6.9976 -19.3249 0
9.4438 -16.8634 0
11.0639 -19.9323 0
9.4438 -16.8634 0
11.0639 -19.9323 0
9.4438 -16.8634 0
13.3006 -17.8132 0
9.4438 -16.8634 0
13.3006 -17.8132 0
9.4438 -16.8634 0
12.8428 -14.6832 0
9.4438 -16.8634 0
12.0116 -10.2136 0
12.9472 -8.95107 0
14.5138 -9.07496 0
12.9472 -8.95107 0
14.5138 -9.07496 0
12.9472 -8.95107 0
14.5138 -6.58752 0
12.9472 -8.95107 0
14.5138 -6.58752 0
12.9472 -8.95107 0
12.3728 -7.48838 0
12.9472 -8.95107 0
12.0116 -10.2136 0
10.805 -8.66713 0
12.9472 -8.95107 0
10.805 -8.66713 0
12.9472 -8.95107 0
10.805 -8.66713 0
12.3728 -7.48838 0
10.805 -8.66713 0
14.5138 -9.07496 0
15.0754 -11.298 0
12.0116 -10.2136 0
15.0754 -11.298 0
16.8566 -9.85408 0
15.0754 -11.298 0
14.5138 -9.07496 0
15.0754 -11.298 0
15.9227 -13.4286 0
15.0754 -11.298 0
18.6603 -11.5401 0
15.0754 -11.298 0
18.6603 -11.5401 0
15.0754 -11.298 0
16.8566 -9.85408 0
15.0754 -11.298 0
6.9976 -14.4018 0
7.7286 -11.9705 0
9.98828 -13.1279 0
7.7286 -11.9705 0
9.98828 -13.1279 0
12.1849 -12.4935 0
12.8428 -14.6832 0
12.1849 -12.4935 0
15.0754 -11.298 0
12.1849 -12.4935 0
12.0116 -10.2136 0
12.1849 -12.4935 0
15.9227 -13.4286 0
12.1849 -12.4935 0
15.0754 -11.298 0
12.1849 -12.4935 0
12.8428 -14.6832 0
12.1849 -12.4935 0
15.9227 -13.4286 0
12.1849 -12.4935 0
7.7286 -11.9705 0
10.5251 -11.3411 0
9.98828 -13.1279 0
10.5251 -11.3411 0
9.98828 -13.1279 0
10.5251 -11.3411 0
12.1849 -12.4935 0
10.5251 -11.3411 0
12.1849 -12.4935 0
10.5251 -11.3411 0
12.0116 -10.2136 0
10.5251 -11.3411 0
12.0116 -10.2136 0
10.5251 -11.3411 0
10.805 -8.66713 0
10.5251 -11.3411 0
10.805 -8.66713 0
10.5251 -11.3411 0
9.27458 -9.95657 0
10.5251 -11.3411 0
-3.81253 -3.13041 0
-6.05995 -5.08463 0
-6.02715 -2.10658 0
-6.05995 -5.08463 0
-6.02715 -2.10658 0
-6.05995 -5.08463 0
-8.79833 -3.91367 0
-6.05995 -5.08463 0
-3.81253 -3.13041 0
-2.99544 -4.87202 0
-6.05995 -5.08463 0
-2.99544 -4.87202 0
-2.11396 -3.1621 0
-2.99544 -4.87202 0
-3.81253 -3.13041 0
-2.99544 -4.87202 0
0.256922 -3.28283 0
-0.943712 -3.52083 0
-0.628262 -2.33818 0
-0.943712 -3.52083 0
-0.628262 -2.33818 0
-0.943712 -3.52083 0
-2.11396 -3.1621 0
-0.943712 -3.52083 0
-2.11396 -3.1621 0
-0.943712 -3.52083 0
-2.99544 -4.87202 0
-0.943712 -3.52083 0
-2.99544 -4.87202 0
-0.943712 -3.52083 0
-1.41548 -5.96954 0
-0.943712 -3.52083 0
2.14651 -2.54671 0
2.89645 -3.73247 0
1.49531 -3.66005 0
2.89645 -3.73247 0
1.6238 -0.9375 0
0.998157 -1.39614 0
1.08253 -0.625 0
0.998157 -1.39614 0
2.16506 -1.25 0
0.998157 -1.39614 0
1.6238 -0.9375 0
0.998157 -1.39614 0
0.913783 -2.16728 0
0.998157 -1.39614 0
2.16506 -1.25 0
0.998157 -1.39614 0
1.08253 -0.625 0
0.998157 -1.39614 0
0.227455 -0.856036 0
0.998157 -1.39614 0
-8.79833 -3.91367 0
-8.99764 -7.33931 0
-12.2659 -6.29381 0
-8.99764 -7.33931 0
-6.05995 -5.08463 0
-8.99764 -7.33931 0
-8.79833 -3.91367 0
-8.99764 -7.33931 0
-13.6479 -11.5402 0
-9.91663 -12.9456 0
-11.5952 -16.5622 0
-9.91663 -12.9456 0
-18.6603 -14.1962 0
-15.8669 -13.4101 0
-15.429 -16.2788 0
-15.8669 -13.4101 0
-15.429 -16.2788 0
-15.8669 -13.4101 0
-11.5952 -16.5622 0
-15.8669 -13.4101 0
-11.5952 -16.5622 0
-15.8669 -13.4101 0
-13.6479 -11.5402 0
-15.8669 -13.4101 0
-18.6603 -11.8301 0
-15.8669 -13.4101 0
-18.6603 -14.1962 0
-15.8669 -13.4101 0
-6.9976 -23.6603 0
-5.83133 -21.3329 0
-4.66506 -23.6603 0
-5.83133 -21.3329 0
-9.33013 -23.6603 0
-5.83133 -21.3329 0
-6.9976 -23.6603 0
-5.83133 -21.3329 0
-6.9976 -19.0055 0
-5.83133 -21.3329 0
-9.33013 -23.6603 0
-5.83133 -21.3329 0
-4.66506 -23.6603 0
-5.83133 -21.3329 0
-2.33193 -19.2985 0
-5.83133 -21.3329 0
-18.6603 -9.4641 0
-16.2141 -10.6471 0
-18.6603 -11.8301 0
-16.2141 -10.6471 0
-18.6603 -11.8301 0
-16.2141 -10.6471 0
-15.8669 -13.4101 0
-16.2141 -10.6471 0
-15.8669 -13.4101 0
-16.2141 -10.6471 0
-13.6479 -11.5402 0
-16.2141 -10.6471 0
-13.6479 -11.5402 0
-16.2141 -10.6471 0
-15.8241 -7.15071 0
-16.2141 -10.6471 0
-15.8241 -7.15071 0
-16.2141 -10.6471 0
-18.6603 -9.4641 0
-16.2141 -10.6471 0
2.33253 -19.6101 0
4.53084 -17.2724 0
6.9976 -19.3249 0
4.53084 -17.2724 0
-2.33193 -19.2985 0
-4.52717 -16.9614 0
-2.33253 -14.6237 0
-4.52717 -16.9614 0
-6.9976 -19.0055 0
-4.52717 -16.9614 0
-5.83133 -21.3329 0
-4.52717 -16.9614 0
-5.83133 -21.3329 0
-4.52717 -16.9614 0
-2.33193 -19.2985 0
-4.52717 -16.9614 0
-2.33193 -19.2985 0
0.146672 -17.2632 0
2.33253 -19.6101 0
0.146672 -17.2632 0
-2.33253 -14.6237 0
0.146672 -17.2632 0
-2.33193 -19.2985 0
0.146672 -17.2632 0
2.34235 -14.9255 0
0.146672 -17.2632 0
-2.33253 -14.6237 0
0.146672 -17.2632 0
2.33253 -19.6101 0
0.146672 -17.2632 0
4.53084 -17.2724 0
0.146672 -17.2632 0
4.53084 -17.2724 0
0.146672 -17.2632 0
2.34235 -14.9255 0
0.146672 -17.2632 0
12.3728 -7.48838 0
10.6542 -6.14791 0
12.3728 -6.06157 0
10.6542 -6.14791 0
12.3728 -6.06157 0
10.6542 -6.14791 0
11.4195 -5 0
10.6542 -6.14791 0
9.88891 -5 0
10.6542 -6.14791 0
9.27458 -6.14278 0
10.6542 -6.14791 0
11.4195 -5 0
10.6542 -6.14791 0
9.88891 -5 0
10.6542 -6.14791 0
4.53084 -17.2724 0
6.98224 -16.8634 0
6.9976 -19.3249 0
6.98224 -16.8634 0
6.9976 -19.3249 0
6.98224 -16.8634 0
9.4438 -16.8634 0
6.98224 -16.8634 0
9.4438 -16.8634 0
6.98224 -16.8634 0
6.9976 -14.4018 0
6.98224 -16.8634 0
9.27458 -9.95657 0
9.52293 -8.6984 0
10.805 -8.66713 0
9.52293 -8.6984 0
3.66109 -4.90881 0
2.11203 -5.09291 0
2.89645 -3.73247 0
2.11203 -5.09291 0
2.89645 -3.73247 0
2.11203 -5.09291 0
1.49531 -3.66005 0
2.11203 -5.09291 0
-1.41548 -5.96954 0
0.153004 -5.08201 0
1.33282 -6.44432 0
0.153004 -5.08201 0
1.33282 -6.44432 0
0.153004 -5.08201 0
2.11203 -5.09291 0
0.153004 -5.08201 0
0.256922 -3.28283 0
0.153004 -5.08201 0
-0.943712 -3.52083 0
0.153004 -5.08201 0
-0.943712 -3.52083 0
0.153004 -5.08201 0
-1.41548 -5.96954 0
0.153004 -5.08201 0
2.11203 -5.09291 0
0.153004 -5.08201 0
1.49531 -3.66005 0
0.153004 -5.08201 0
1.49531 -3.66005 0
0.153004 -5.08201 0
0.256922 -3.28283 0
0.153004 -5.08201 0
7.57772 -4.375 0
6.47165 -5.04078 0
6.49519 -3.75 0
6.47165 -5.04078 0
3.66109 -4.90881 0
4.30658 -3.79078 0
5.22774 -4.69529 0
4.30658 -3.79078 0
5.41266 -3.125 0
4.30658 -3.79078 0
4.33013 -2.5 0
4.30658 -3.79078 0
2.89645 -3.73247 0
4.30658 -3.79078 0
3.66109 -4.90881 0
4.30658 -3.79078 0
2.14651 -2.54671 0
3.057 -2.80089 0
2.89645 -3.73247 0
3.057 -2.80089 0
3.2476 -1.875 0
3.057 -2.80089 0
2.14651 -2.54671 0
3.057 -2.80089 0
4.33013 -2.5 0
3.057 -2.80089 0
3.2476 -1.875 0
3.057 -2.80089 0
0.913783 -2.16728 0
0.210508 -1.70015 0
0.998157 -1.39614 0
0.210508 -1.70015 0
0.998157 -1.39614 0
0.210508 -1.70015 0
0.227455 -0.856036 0
0.210508 -1.70015 0
0.227455 -0.856036 0
0.210508 -1.70015 0
-0.628262 -1.08469 0
0.210508 -1.70015 0
-0.628262 -1.08469 0
0.210508 -1.70015 0
-0.628262 -2.33818 0
0.210508 -1.70015 0
-0.628262 -2.33818 0
0.210508 -1.70015 0
0.256922 -3.28283 0
0.210508 -1.70015 0
0.256922 -3.28283 0
0.210508 -1.70015 0
0.913783 -2.16728 0
0.210508 -1.70015 0
-8.99764 -7.33931 0
-11.4322 -9.31862 0
-12.2659 -6.29381 0
-11.4322 -9.31862 0
-13.6479 -11.5402 0
-11.4322 -9.31862 0
-9.91663 -12.9456 0
-11.4322 -9.31862 0
-12.2659 -6.29381 0
-11.4322 -9.31862 0
-15.8241 -7.15071 0
-11.4322 -9.31862 0
-15.8241 -7.15071 0
-11.4322 -9.31862 0
-13.6479 -11.5402 0
-11.4322 -9.31862 0
-9.91663 -12.9456 0
-11.4322 -9.31862 0
-7.05575 -10.1684 0
-11.4322 -9.31862 0
-7.05575 -10.1684 0
-11.4322 -9.31862 0
-8.99764 -7.33931 0
-11.4322 -9.31862 0
-6.05995 -5.08463 0
-6.42282 -7.65296 0
-8.99764 -7.33931 0
-6.42282 -7.65296 0
-8.99764 -7.33931 0
-6.42282 -7.65296 0
-7.05575 -10.1684 0
-6.42282 -7.65296 0
-4.52717 -16.9614 0
-4.87224 -12.5848 0
-2.33253 -14.6237 0
-4.87224 -12.5848 0
-7.05575 -10.1684 0
-4.87224 -12.5848 0
-9.91663 -12.9456 0
-4.87224 -12.5848 0
-2.33253 -14.6237 0
-4.87224 -12.5848 0
-2.6375 -10.2157 0
-4.87224 -12.5848 0
1.33282 -6.44432 0
-0.44568 -8.54757 0
-1.41548 -5.96954 0
-0.44568 -8.54757 0
-2.6375 -10.2157 0
0.168818 -12.2361 0
-2.33253 -14.6237 0
0.168818 -12.2361 0
-2.33253 -14.6237 0
0.168818 -12.2361 0
2.34235 -14.9255 0
0.168818 -12.2361 0
-6.9976 -19.0055 0
-8.29353 -15.8967 0
-4.52717 -16.9614 0
-8.29353 -15.8967 0
-4.52717 -16.9614 0
-8.29353 -15.8967 0
-4.87224 -12.5848 0
-8.29353 -15.8967 0
-4.87224 -12.5848 0
-8.29353 -15.8967 0
-9.91663 -12.9456 0
-8.29353 -15.8967 0
-9.91663 -12.9456 0
-8.29353 -15.8967 0
-11.5952 -16.5622 0
-8.29353 -15.8967 0
-11.5952 -16.5622 0
-8.29353 -15.8967 0
-6.9976 -19.0055 0
-8.29353 -15.8967 0
2.34235 -14.9255 0
4.699 -14.9218 0
4.53084 -17.2724 0
4.699 -14.9218 0
4.53084 -17.2724 0
4.699 -14.9218 0
6.98224 -16.8634 0
4.699 -14.9218 0
6.98224 -16.8634 0
4.699 -14.9218 0
6.9976 -14.4018 0
4.699 -14.9218 0
6.9976 -14.4018 0
4.699 -14.9218 0
4.40366 -12.2964 0
4.699 -14.9218 0
4.40366 -12.2964 0
4.699 -14.9218 0
2.34235 -14.9255 0
4.699 -14.9218 0
12.3728 -7.48838 0
10.5491 -7.41832 0
10.6542 -6.14791 0
10.5491 -7.41832 0
10.805 -8.66713 0
10.5491 -7.41832 0
12.3728 -7.48838 0
10.5491 -7.41832 0
10.6542 -6.14791 0
10.5491 -7.41832 0
9.27458 -6.14278 0
10.5491 -7.41832 0
9.27458 -6.14278 0
10.5491 -7.41832 0
9.27458 -7.44022 0
10.5491 -7.41832 0
9.27458 -7.44022 0
10.5491 -7.41832 0
9.52293 -8.6984 0
10.5491 -7.41832 0
9.52293 -8.6984 0
10.5491 -7.41832 0
10.805 -8.66713 0
10.5491 -7.41832 0
3.5743 -7.31012 0
4.75497 -6.22652 0
5.97672 -7.26358 0
4.75497 -6.22652 0
5.22774 -4.69529 0
4.75497 -6.22652 0
3.66109 -4.90881 0
4.75497 -6.22652 0
3.66109 -4.90881 0
3.01573 -6.08771 0
2.11203 -5.09291 0
3.01573 -6.08771 0
1.33282 -6.44432 0
3.01573 -6.08771 0
3.5743 -7.31012 0
3.01573 -6.08771 0
2.11203 -5.09291 0
3.01573 -6.08771 0
1.33282 -6.44432 0
3.01573 -6.08771 0
3.5743 -7.31012 0
3.01573 -6.08771 0
4.75497 -6.22652 0
3.01573 -6.08771 0
4.75497 -6.22652 0
3.01573 -6.08771 0
3.66109 -4.90881 0
3.01573 -6.08771 0
4.40366 -12.2964 0
5.98669 -11.323 0
6.9976 -14.4018 0
5.98669 -11.323 0
6.9976 -14.4018 0
5.98669 -11.323 0
7.7286 -11.9705 0
5.98669 -11.323 0
5.98669 -11.323 0
4.80841 -8.98495 0
6.78187 -9.64338 0
4.80841 -8.98495 0
5.97672 -7.26358 0
4.80841 -8.98495 0
3.5743 -7.31012 0
4.80841 -8.98495 0
9.27458 -9.95657 0
8.11932 -9.07494 0
9.52293 -8.6984 0
8.11932 -9.07494 0
9.27458 -6.14278 0
8.25883 -5.95231 0
8.66025 -5 0
8.25883 -5.95231 0
7.65567 -6.7915 0
8.25883 -5.95231 0
9.27458 -7.44022 0
8.25883 -5.95231 0
9.27458 -7.44022 0
8.25883 -5.95231 0
9.27458 -6.14278 0
8.25883 -5.95231 0
5.41266 -3.125 0
5.3202 -3.91014 0
4.30658 -3.79078 0
5.3202 -3.91014 0
4.30658 -3.79078 0
5.3202 -3.91014 0
5.22774 -4.69529 0
5.3202 -3.91014 0
5.95392 -3.4375 0
5.3202 -3.91014 0
5.41266 -3.125 0
5.3202 -3.91014 0
4.33013 -2.5 0
3.80834 -3.13609 0
3.057 -2.80089 0
3.80834 -3.13609 0
4.30658 -3.79078 0
3.80834 -3.13609 0
4.33013 -2.5 0
3.80834 -3.13609 0
3.057 -2.80089 0
3.80834 -3.13609 0
2.89645 -3.73247 0
3.80834 -3.13609 0
2.89645 -3.73247 0
3.80834 -3.13609 0
4.30658 -3.79078 0
3.80834 -3.13609 0
-6.42282 -7.65296 0
-4.83803 -9.38907 0
-7.05575 -10.1684 0
-4.83803 -9.38907 0
-7.05575 -10.1684 0
-4.83803 -9.38907 0
-4.87224 -12.5848 0
-4.83803 -9.38907 0
-4.87224 -12.5848 0
-4.83803 -9.38907 0
-2.6375 -10.2157 0
-4.83803 -9.38907 0
-6.42282 -7.65296 0
-4.41331 -6.62708 0
-4.83803 -9.38907 0
-4.41331 -6.62708 0
-1.41548 -5.96954 0
-4.41331 -6.62708 0
-2.99544 -4.87202 0
-4.41331 -6.62708 0
-6.05995 -5.08463 0
-4.41331 -6.62708 0
-6.42282 -7.65296 0
-4.41331 -6.62708 0
-2.99544 -4.87202 0
-4.41331 -6.62708 0
-6.05995 -5.08463 0
-4.41331 -6.62708 0
1.33282 -6.44432 0
1.77853 -8.62479 0
-0.44568 -8.54757 0
1.77853 -8.62479 0
3.5743 -7.31012 0
1.77853 -8.62479 0
1.33282 -6.44432 0
1.77853 -8.62479 0
6.59317 -6.23434 0
5.63024 -5.65816 0
6.47165 -5.04078 0
5.63024 -5.65816 0
5.97672 -7.26358 0
5.63024 -5.65816 0
6.59317 -6.23434 0
5.63024 -5.65816 0
4.75497 -6.22652 0
5.63024 -5.65816 0
5.97672 -7.26358 0
5.63024 -5.65816 0
5.22774 -4.69529 0
5.63024 -5.65816 0
4.75497 -6.22652 0
5.63024 -5.65816 0
9.27458 -7.44022 0
8.15975 -7.87794 0
7.65567 -6.7915 0
8.15975 -7.87794 0
8.11932 -9.07494 0
8.15975 -7.87794 0
9.52293 -8.6984 0
8.15975 -7.87794 0
9.52293 -8.6984 0
8.15975 -7.87794 0
9.27458 -7.44022 0
8.15975 -7.87794 0
9.27458 -9.95657 0
7.93917 -10.5087 0
8.11932 -9.07494 0
7.93917 -10.5087 0
8.11932 -9.07494 0
7.93917 -10.5087 0
6.78187 -9.64338 0
7.93917 -10.5087 0
6.78187 -9.64338 0
7.93917 -10.5087 0
5.98669 -11.323 0
7.93917 -10.5087 0
5.98669 -11.323 0
7.93917 -10.5087 0
7.7286 -11.9705 0
7.93917 -10.5087 0
7.7286 -11.9705 0
7.93917 -10.5087 0
10.5251 -11.3411 0
7.93917 -10.5087 0
10.5251 -11.3411 0
7.93917 -10.5087 0
9.27458 -9.95657 0
7.93917 -10.5087 0
8.25883 -5.95231 0
8.11899 -4.6875 0
8.66025 -5 0
8.11899 -4.6875 0
6.47165 -5.04078 0
7.33499 -5.55584 0
6.59317 -6.23434 0
7.33499 -5.55584 0
6.59317 -6.23434 0
7.33499 -5.55584 0
7.65567 -6.7915 0
7.33499 -5.55584 0
7.65567 -6.7915 0
7.33499 -5.55584 0
8.25883 -5.95231 0
7.33499 -5.55584 0
8.25883 -5.95231 0
7.33499 -5.55584 0
8.11899 -4.6875 0
7.33499 -5.55584 0
8.11899 -4.6875 0
7.33499 -5.55584 0
7.57772 -4.375 0
7.33499 -5.55584 0
7.57772 -4.375 0
7.33499 -5.55584 0
6.47165 -5.04078 0
7.33499 -5.55584 0
6.47165 -5.04078 0
5.9835 -4.38627 0
6.49519 -3.75 0
5.9835 -4.38627 0
5.95392 -3.4375 0
5.9835 -4.38627 0
5.3202 -3.91014 0
5.9835 -4.38627 0
6.49519 -3.75 0
5.9835 -4.38627 0
5.95392 -3.4375 0
5.9835 -4.38627 0
5.3202 -3.91014 0
5.9835 -4.38627 0
5.22774 -4.69529 0
5.9835 -4.38627 0
5.22774 -4.69529 0
5.9835 -4.38627 0
5.63024 -5.65816 0
5.9835 -4.38627 0
5.63024 -5.65816 0
5.9835 -4.38627 0
6.47165 -5.04078 0
5.9835 -4.38627 0
-2.6375 -10.2157 0
-2.6152 -7.97098 0
-0.44568 -8.54757 0
-2.6152 -7.97098 0
-1.41548 -5.96954 0
-2.6152 -7.97098 0
-4.41331 -6.62708 0
-2.6152 -7.97098 0
-0.44568 -8.54757 0
-2.6152 -7.97098 0
-1.41548 -5.96954 0
-2.6152 -7.97098 0
-4.41331 -6.62708 0
-2.6152 -7.97098 0
-4.83803 -9.38907 0
-2.6152 -7.97098 0
-4.83803 -9.38907 0
-2.6152 -7.97098 0
-2.6375 -10.2157 0
-2.6152 -7.97098 0
3.5743 -7.31012 0
3.29291 -8.80956 0
1.77853 -8.62479 0
3.29291 -8.80956 0
4.80841 -8.98495 0
3.29291 -8.80956 0
3.5743 -7.31012 0
3.29291 -8.80956 0
1.77853 -8.62479 0
0.608059 -10.2675 0
-0.44568 -8.54757 0
0.608059 -10.2675 0
-2.6375 -10.2157 0
0.608059 -10.2675 0
0.168818 -12.2361 0
0.608059 -10.2675 0
-0.44568 -8.54757 0
0.608059 -10.2675 0
-2.6375 -10.2157 0
0.608059 -10.2675 0
8.11932 -9.07494 0
7.01856 -7.74726 0
8.15975 -7.87794 0
7.01856 -7.74726 0
6.78187 -9.64338 0
7.01856 -7.74726 0
8.11932 -9.07494 0
7.01856 -7.74726 0
8.15975 -7.87794 0
7.01856 -7.74726 0
7.65567 -6.7915 0
7.01856 -7.74726 0
7.65567 -6.7915 0
7.01856 -7.74726 0
6.59317 -6.23434 0
7.01856 -7.74726 0
6.59317 -6.23434 0
7.01856 -7.74726 0
5.97672 -7.26358 0
7.01856 -7.74726 0
4.80841 -8.98495 0
3.85946 -10.5494 0
3.29291 -8.80956 0
3.85946 -10.5494 0
5.98669 -11.323 0
3.85946 -10.5494 0
4.80841 -8.98495 0
3.85946 -10.5494 0
4.40366 -12.2964 0
3.85946 -10.5494 0
5.98669 -11.323 0
3.85946 -10.5494 0
3.29291 -8.80956 0
3.85946 -10.5494 0
1.77853 -8.62479 0
3.85946 -10.5494 0
6.78187 -9.64338 0
6.0144 -8.54631 0
7.01856 -7.74726 0
6.0144 -8.54631 0
4.80841 -8.98495 0
6.0144 -8.54631 0
6.78187 -9.64338 0
6.0144 -8.54631 0
7.01856 -7.74726 0
6.0144 -8.54631 0
5.97672 -7.26358 0
6.0144 -8.54631 0
5.97672 -7.26358 0
6.0144 -8.54631 0
4.80841 -8.98495 0
6.0144 -8.54631 0
4.40366 -12.2964 0
2.12699 -11.6397 0
3.85946 -10.5494 0
2.12699 -11.6397 0
0.608059 -10.2675 0
2.12699 -11.6397 0
0.168818 -12.2361 0
2.12699 -11.6397 0
0.168818 -12.2361 0
2.12699 -11.6397 0
2.34235 -14.9255 0
2.12699 -11.6397 0
2.34235 -14.9255 0
2.12699 -11.6397 0
4.40366 -12.2964 0
2.12699 -11.6397 0
3.85946 -10.5494 0
2.12699 -11.6397 0
1.77853 -8.62479 0
2.12699 -11.6397 0
1.77853 -8.62479 0
2.12699 -11.6397 0
0.608059 -10.2675 0
2.12699 -11.6397 0

CELLS 285 1425
4 0 2 3 1
4 4 6 7 5
4 8 10 11 9
4 12 14 15 13
4 16 18 19 17
4 20 22 23 21
4 24 26 27 25
4 28 30 31 29
4 32 34 35 33
4 36 38 39 37
4 40 42 43 41
4 44 46 47 45
4 48 50 51 49
4 52 54 55 53
4 56 58 59 57
4 60 62 63 61
4 64 66 67 65
4 68 70 71 69
4 72 74 75 73
4 76 78 79 77
4 80 82 83 81
4 84 86 87 85
4 88 90 91 89
4 92 94 95 93
4 96 98 99 97
4 100 102 103 101
4 104 106 107 105
4 108 110 111 109
4 112 114 115 113
4 116 118 119 117
4 120 122 123 121
4 124 126 127 125
4 128 130 131 129
4 132 134 135 133
4 136 138 139 137
4 140 142 143 141
4 144 146 147 145
4 148 150 151 149
4 152 154 155 153
4 156 158 159 157
4 160 162 163 161
4 164 166 167 165
4 168 170 171 169
4 172 174 175 173
4 176 178 179 177
4 180 182 183 181
4 184 186 187 185
4 188 190 191 189
4 192 194 195 193
4 196 198 199 197
4 200 202 203 201
4 204 206 207 205
4 208 210 211 209
4 212 214 215 213
4 216 218 219 217
4 220 222 223 221
4 224 226 227 225
4 228 230 231 229
4 232 234 235 233
4 236 238 239 237
4 240 242 243 241
4 244 246 247 245
4 248 250 251 249
4 252 254 255 253
4 256 258 259 257
4 260 262 263 261
4 264 266 267 265
4 268 270 271 269
4 272 274 275 273
4 276 278 279 277
4 280 282 283 281
4 284 286 287 285
4 288 290 291 289
4 292 294 295 293
4 296 298 299 297
4 300 302 303 301
4 304 306 307 305
4 308 310 311 309
4 312 314 315 313
4 316 318 319 317
4 320 322 323 321
4 324 326 327 325
4 328 330 331 329
4 332 334 335 333
4 336 338 339 337
4 340 342 343 341
4 344 346 347 345
4 348 350 351 349
4 352 354 355 353
4 356 358 359 357
4 360 362 363 361
4 364 366 367 365
4 368 370 371 369
4 372 374 375 373
4 376 378 379 377
4 380 382 383 381
4 384 386 387 385
4 388 390 391 389
4 392 394 395 393
4 396 398 399 397
4 400 402 403 401
4 404 406 407 405
4 408 410 411 409
4 412 414 415 413
4 416 418 419 417
4 420 422 423 421
4 424 426 427 425
4 428 430 431 429
4 432 434 435 433
4 436 438 439 437
4 440 442 443 441
4 444 446 447 445
4 448 450 451 449
4 452 454 455 453
4 456 458 459 457
4 460 462 463 461
4 464 466 467 465
4 468 470 471 469
4 472 474 475 473
4 476 478 479 477
4 480 482 483 481
4 484 486 487 485
4 488 490 491 489
4 492 494 495 493
4 496 498 499 497
4 500 502 503 501
4 504 506 507 505
4 508 510 511 509
4 512 514 515 513
4 516 518 519 517
4 520 522 523 521
4 524 526 527 525
4 528 530 531 529
4 532 534 535 533
4 536 538 539 537
4 540 542 543 541
4 544 546 547 545
4 548 550 551 549
4 552 554 555 553
4 556 558 559 557
4 560 562 563 561
4 564 566 567 565
4 568 570 571 569
4 572 574 575 573
4 576 578 579 577
4 580 582 583 581
4 584 586 587 585
4 588 590 591 589
4 592 594 595 593
4 596 598 599 597
4 600 602 603 601
4 604 606 607 605
4 608 610 611 609
4 612 614 615 613
4 616 618 619 617
4 620 622 623 621
4 624 626 627 625
4 628 630 631 629
4 632 634 635 633
4 636 638 639 637
4 640 642 643 641
4 644 646 647 645
4 648 650 651 649
4 652 654 655 653
4 656 658 659 657
4 660 662 663 661
4 664 666 667 665
4 668 670 671 669
4 672 674 675 673
4 676 678 679 677
4 680 682 683 681
4 684 686 687 685
4 688 690 691 689
4 692 694 695 693
4 696 698 699 697
4 700 702 703 701
4 704 706 707 705
4 708 710 711 709
4 712 714 715 713
4 716 718 719 717
4 720 722 723 721
4 724 726 727 725
4 728 730 731 729
4 732 734 735 733
4 736 738 739 737
4 740 742 743 741
4 744 746 747 745
4 748 750 751 749
4 752 754 755 753
4 756 758 759 757
4 760 762 763 761
4 764 766 767 765
4 768 770 771 769
4 772 774 775 773
4 776 778 779 777
4 780 782 783 781
4 784 786 787 785
4 788 790 791 789
4 792 794 795 793
4 796 798 799 797
4 800 802 803 801
4 804 806 807 805
4 808 810 811 809
4 812 814 815 813
4 816 818 819 817
4 820 822 823 821
4 824 826 827 825
4 828 830 831 829
4 832 834 835 833
4 836 838 839 837
4 840 842 843 841
4 844 846 847 845
4 848 850 851 849
4 852 854 855 853
4 856 858 859 857
4 860 862 863 861
4 864 866 867 865
4 868 870 871 869
4 872 874 875 873
4 876 878 879 877
4 880 882 883 881
4 884 886 887 885
4 888 890 891 889
4 892 894 895 893
4 896 898 899 897
4 900 902 903 901
4 904 906 907 905
4 908 910 911 909
4 912 914 915 913
4 916 918 919 917
4 920 922 923 921
4 924 926 927 925
4 928 930 931 929
4 932 934 935 933
4 936 938 939 937
4 940 942 943 941
4 944 946 947 945
4 948 950 951 949
4 952 954 955 953
4 956 958 959 957
4 960 962 963 961
4 964 966 967 965
4 968 970 971 969
4 972 974 975 973
4 976 978 979 977
4 980 982 983 981
4 984 986 987 985
4 988 990 991 989
4 992 994 995 993
4 996 998 999 997
4 1000 1002 1003 1001
4 1004 1006 1007 1005
4 1008 1010 1011 1009
4 1012 1014 1015 1013
4 1016 1018 1019 1017
4 1020 1022 1023 1021
4 1024 1026 1027 1025
4 1028 1030 1031 1029
4 1032 1034 1035 1033
4 1036 1038 1039 1037
4 1040 1042 1043 1041
4 1044 1046 1047 1045
4 1048 1050 1051 1049
4 1052 1054 1055 1053
4 1056 1058 1059 1057
4 1060 1062 1063 1061
4 1064 1066 1067 1065
4 1068 1070 1071 1069
4 1072 1074 1075 1073
4 1076 1078 1079 1077
4 1080 1082 1083 1081
4 1084 1086 1087 1085
4 1088 1090 1091 1089
4 1092 1094 1095 1093
4 1096 1098 1099 1097
4 1100 1102 1103 1101
4 1104 1106 1107 1105
4 1108 1110 1111 1109
4 1112 1114 1115 1113
4 1116 1118 1119 1117
4 1120 1122 1123 1121
4 1124 1126 1127 1125
4 1128 1130 1131 1129
4 1132 1134 1135 1133
4 1136 1138 1139 1137

CELL_TYPES 285
9
9
9
9
9
9
9
9
9
9
9
9
9
9
9
9
9
9
9
9
9
9
9
9
9
9
9
9
9
9
9
9
9
9
9
9
9
9
9
9
9
9
9
9
9
9
9
9
9
9
9
9
9
9
9
9
9
9
9
9
9
9
9
9
9
9
9
9
9
9
9
9
9
9
9
9
9
9
9
9
9
9
9
9
9
9
9
9
9
9
9
9
9
9
9
9
9
9
9
9
9
9
9
9
9
9
9
9
9
9
9
9
9
9
9
9
9
9
9
9
9
9
9
9
9
9
9
9
9
9
9
9
9
9
9
9
9
9
9
9
9
9
9
9
9
9
9
9
9
9
9
9
9
9
9
9
9
9
9
9
9
9
9
9
9
9
9
9
9
9
9
9
9
9
9
9
9
9
9
9
9
9
9
9
9
9
9
9
9
9
9
9
9
9
9
9
9
9
9
9
9
9
9
9
9
9
9
9
9
9
9
9
9
9
9
9
9
9
9
9
9
9
9
9
9
9
9
9
9
9
9
9
9
9
9
9
9
9
9
9
9
9
9
9
9
9
9
9
9
9
9
9
9
9
9
9
9
9
9
9
9
9
9
9
9
9
9
9
9
9
9
9
9
9
9
9
9
9
9
9
9
9
9
9
9

POINT_DATA 1140
SCALARS POrder float
LOOKUP_TABLE default
2 
2 
2 
2 
2 
2 
2 
2 
2 
2 
2 
2 
2 
2 
2 
2 
2 
2 
2 
2 
2 
2 
2 
2 
2 
2 
2 
2 
2 
2 
2 
2 
2 
2 
2 
2 
2 
2 
2 
2 
2 
2 
2 
2 
2 
2 
2 
2 
2 
2 
2 
2 
2 
2 
2 
2 
2 
2 
2 
2 
2 
2 
2 
2 
2 
2 
2 
2 
2 
2 
2 
2 
2 
2 
2 
2 
2 
2 
2 
2 
2 
2 
2 
2 
2 
2 
2 
2 
2 
2 
2 
2 
2 
2 
2 
2 
2 
2 
2 
2 
2 
2 
2 
2 
2 
2 
2 
2 
2 
2 
2 
2 
2 
2 
2 
2 
2 
2 
2 
2 
2 
2 
2 
2 
2 
2 
2 
2 
2 
2 
2 
2 
2 
2 
2 
2 
2 
2 
2 
2 
2 
2 
2 
2 
2 
2 
2 
2 
2 
2 
2 
2 
2 
2 
2 
2 
2 
2 
2 
2 
2 
2 
2 
2 
2 
2 
2 
2 
2 
2 
2 
2 
2 
2 
2 
2 
2 
2 
2 
2 
2 
2 
2 
2 
2 
2 
2 
2 
2 
2 
2 
2 
2 
2 
2 
2 
2 
2 
2 
2 
2 
2 
2 
2 
2 
2 
2 
2 
2 
2 
2 
2 
2 
2 
2 
2 
2 
2 
2 
2 
2 
2 
2 
2 
2 
2 
2 
2 
2 
2 
2 
2 
2 
2 
2 
2 
2 
2 
2 
2 
2 
2 
2 
2 
2 
2 
2 
2 
2 
2 
2 
2 
2 
2 
2 
2 
2 
2 
2 
2 
2 
2 
2 
2 
2 
2 
2 
2 
2 
2 
2 
2 
2 
2 
2 
2 
2 
2 
2 
2 
2 
2 
2 
2 
2 
2 
2 
2 
2 
2 
2 
2 
2 
2 
2 
2 
2 
2 
2 
2 
2 
2 
2 
2 
2 
2 
2 
2 
2 
2 
2 
2 
2 
2 
2 
2 
2 
2 
2 
2 
2 
2 
2 
2 
2 
2 
2 
2 
2 
2 
2 
2 
2 
2 
2 
2 
2 
2 
2 
2 
2 
2 
2 
2 
2 
2 
2 
2 
2 
2 
2 
2 
2 
2 
2 
2 
2 
2 
2 
2 
2 
2 
2 
2 
2 
2 
2 
2 
2 
2 
2 
2 
2 
2 
2 
2 
2 
2 
2 
2 
2 
2 
2 
2 
2 
2 
2 
2 
2 
2 
2 
2 
2 
2 
2 
2 
2 
2 
2 
2 
2 
2 
2 
2 
2 
2 
2 
2 
2 
2 
2 
2 
2 
2 
2 
2 
2 
2 
2 
2 
2 
2 
2 
2 
2 
2 
2 
2 
2 
2 
2 
2 
2 
2 
2 
2 
2 
2 
2 
2 
2 
2 
2 
2 
2 
2 
2 
2 
2 
2 
2 
2 
2 
2 
2 
2 
2 
2 
2 
2 
2 
2 
2 
2 
2 
2 
2 
2 
2 
2 
2 
2 
2 
2 
2 
2 
2 
2 
2 
2 
2 
2 
2 
2 
2 
2 
2 
2 
2 
2 
2 
2 
2 
2 
2 
2 
2 
2 
2 
2 
2 
2 
2 
2 
2 
2 
2 
2 
2 
2 
2 
2 
2 
2 
2 
2 
2 
2 
2 
2 
2 
2 
2 
2 
2 
2 
2 
2 
2 
2 
2 
2 
2 
2 
2 
2 
2 
2 
2 
2 
2 
2 
2 
2 
2 
2 
2 
2 
2 
2 
2 
2 
2 
2 
2 
2 
2 
2 
2 
2 
2 
2 
2 
2 
2 
2 
2 
2 
2 
2 
2 
2 
2 
2 
2 
2 
2 
2 
2 
2 
2 
2 
2 
2 
2 
2 
2 
2 
2 
2 
2 
2 
2 
2 
2 
2 
2 
2 
2 
2 
2 
2 
2 
2 
2 
2 
2 
2 
2 
2 
2 
2 
2 
2 
2 
2 
2 
2 
2 
2 
2 
2 
2 
2 
2 
2 
2 
2 
2 
2 
2 
2 
2 
2 
2 
2 
2 
2 
2 
2 
2 
2 
2 
2 
2 
2 
2 
2 
2 
2 
2 
2 
2 
2 
2 
2 
2 
2 
2 
2 
2 
2 
2 
2 
2 
2 
2 
2 
2 
2 
2 
2 
2 
2 
2 
2 
2 
2 
2 
2 
2 
2 
2 
2 
2 
2 
2 
2 
2 
2 
2 
2 
2 
2 
2 
2 
2 
2 
2 
2 
2 
2 
2 
2 
2 
2 
2 
2 
2 
2 
2 
2 
2 
2 
2 
2 
2 
2 
2 
2 
2 
2 
2 
2 
2 
2 
2 
2 
2 
2 
2 
2 
2 
2 
2 
2 
2 
2 
2 
2 
2 
2 
2 
2 
2 
2 
2 
2 
2 
2 
2 
2 
2 
2 
2 
2 
2 
2 
2 
2 
2 
2 
2 
2 
2 
2 
2 
2 
2 
2 
2 
2 
2 
2 
2 
2 
2 
2 
2 
2 
2 
2 
2 
2 
2 
2 
2 
2 
2 
2 
2 
2 
2 
2 
2 
2 
2 
2 
2 
2 
2 
2 
2 
2 
2 
2 
2 
2 
2 
2 
2 
2 
2 
2 
2 
2 
2 
2 
2 
2 
2 
2 
2 
2 
2 
2 
2 
2 
2 
2 
2 
2 
2 
2 
2 
2 
2 
2 
2 
2 
2 
2 
2 
2 
2 
2 
2 
2 
2 
2 
2 
2 
2 
2 
2 
2 
2 
2 
2 
2 
2 
2 
2 
2 
2 
2 
2 
2 
2 
2 
2 
2 
2 
2 
2 
2 
2 
2 
2 
2 
2 
2 
2 
2 
2 
2 
2 
2 
2 
2 
2 
2 
2 
2 
2 
2 
2 
2 
2 
2 
2 
2 
2 
2 
2 
2 
2 
2 
2 
2 
2 
2 
2 
2 
2 
2 
2 
2 
2 
2 
2 
2 
2 
2 
2 
2 
2 
2 
2 
2 
2 
2 
2 
2 
2 
2 
2 
2 
2 
2 
2 
2 
2 
2 
2 
2 
2 
2 
2 
2 
2 
2 
2 
2 
2 
2 
2 
2 
2 
2 
2 
2 
2 
2 
2 
2 
2 
2 
2 
2 
2 
2 
2 
2 
2 
2 
2 
2 
2 
2 
2 
2 
2 
2 
2 
2 
2 
2 
2 
2 
2 
2 
2 
2 
2 
2 
2 
2 
2 
2 
2 
2 
2 
2 
2 
2 
2 
2 
2 
2 
2 
2 
2 
2 
2 
2 
2 
2 
2 
2 
2 
2 
2 
2 
2 
2 
2 
2 
2 
2 
2 
2 
2 
2 
2 
2 
2 
2 
2 
2 
2 
2 
2 
2 
2 
2 
2 
2 
2 
2 
2 
2 
2 
2 
2 
2 
2 
2 
2 
2 
2 
2 
2 
2 
2 
2 
2 
2 
2 
2 
2 
2 
2 
2 
2 
2 
2 
2 
2 
2 
2 
2 
2 
2 
2 
2 
2 
2 
2 
2 
2 
2 
2 
2 
2 
2 
2 
2 
2 
2 
2 
2 
2 
2 
2 
2 
2 
2 
2 
2 
2 
2 
2 
2 
2 
2 
2 
2 
2 
2 
2 
2 
2 
2 
2 
2 
2 
2 
2 
2 
2 
2 
2 
2 
2 
2 
2 
2 
2 
2 

SCALARS Atrito float
LOOKUP_TABLE default
0.523599 
0.523599 
0.523599 
0.523599 
0.523599 
0.523599 
0.523599 
0.523599 
0.523599 
0.523599 
0.523599 
0.523599 
0.523599 
0.523599 
0.523599 
0.523599 
0.523599 
0.523599 
0.523599 
0.523599 
0.523599 
0.523599 
0.523599 
0.523599 
0.523599 
0.523599 
0.523599 
0.523599 
0.523599 
0.523599 
0.523599 
0.523599 
0.523599 
0.523599 
0.523599 
0.523599 
0.523599 
0.523599 
0.523599 
0.523599 
0.523599 
0.523599 
0.523599 
0.523599 
0.523599 
0.523599 
0.523599 
0.523599 
0.523599 
0.523599 
0.523599 
0.523599 
0.523599 
0.523599 
0.523599 
0.523599 
0.523599 
0.523599 
0.523599 
0.523599 
0.523599 
0.523599 
0.523599 
0.523599 
0.523599 
0.523599 
0.523599 
0.523599 
0.523599 
0.523599 
0.523599 
0.523599 
0.523599 
0.523599 
0.523599 
0.523599 
0.523599 
0.523599 
0.523599 
0.523599 
0.523599 
0.523599 
0.523599 
0.523599 
0.523599 
0.523599 
0.523599 
0.523599 
0.523599 
0.523599 
0.523599 
0.523599 
0.523599 
0.523599 
0.523599 
0.523599 
0.523599 
0.523599 
0.523599 
0.523599 
0.523599 
0.523599 
0.523599 
0.523599 
0.523599 
0.523599 
0.523599 
0.523599 
0.523599 
0.523599 
0.523599 
0.523599 
0.523599 
0.523599 
0.523599 
0.523599 
0.523599 
0.523599 
0.523599 
0.523599 
0.523599 
0.523599 
0.523599 
0.523599 
0.523599 
0.523599 
0.523599 
0.523599 
0.523599 
0.523599 
0.523599 
0.523599 
0.523599 
0.523599 
0.523599 
0.523599 
0.523599 
0.523599 
0.523599 
0.523599 
0.523599 
0.523599 
0.523599 
0.523599 
0.523599 
0.523599 
0.523599 
0.523599 
0.523599 
0.523599 
0.523599 
0.523599 
0.523599 
0.523599 
0.523599 
0.523599 
0.523599 
0.523599 
0.523599 
0.523599 
0.523599 
0.523599 
0.523599 
0.523599 
0.523599 
0.523599 
0.523599 
0.523599 
0.523599 
0.523599 
0.523599 
0.523599 
0.523599 
0.523599 
0.523599 
0.523599 
0.523599 
0.523599 
0.523599 
0.523599 
0.523599 
0.523599 
0.523599 
0.523599 
0.523599 
0.523599 
0.523599 
0.523599 
0.523599 
0.523599 
0.523599 
0.523599 
0.523599 
0.523599 
0.523599 
0.523599 
0.523599 
0.523599 
0.523599 
0.523599 
0.523599 
0.523599 
0.523599 
0.523599 
0.523599 
0.523599 
0.523599 
0.523599 
0.523599 
0.523599 
0.523599 
0.523599 
0.523599 
0.523599 
0.523599 
0.523599 
0.523599 
0.523599 
0.523599 
0.523599 
0.523599 
0.523599 
0.523599 
0.523599 
0.523599 
0.523599 
0.523599 
0.523599 
0.523599 
0.523599 
0.523599 
0.523599 
0.523599 
0.523599 
0.523599 
0.523599 
0.523599 
0.523599 
0.523599 
0.523599 
0.523599 
0.523599 
0.523599 
0.523599 
0.523599 
0.523599 
0.523599 
0.523599 
0.523599 
0.523599 
0.523599 
0.523599 
0.523599 
0.523599 
0.523599 
0.523599 
0.523599 
0.523599 
0.523599 
0.523599 
0.523599 
0.523599 
0.523599 
0.523599 
0.523599 
0.523599 
0.523599 
0.523599 
0.523599 
0.523599 
0.523599 
0.523599 
0.523599 
0.523599 
0.523599 
0.523599 
0.523599 
0.523599 
0.523599 
0.523599 
0.523599 
0.523599 
0.523599 
0.523599 
0.523599 
0.523599 
0.523599 
0.523599 
0.523599 
0.523599 
0.523599 
0.523599 
0.523599 
0.523599 
0.523599 
0.523599 
0.523599 
0.523599 
0.523599 
0.523599 
0.523599 
0.523599 
0.523599 
0.523599 
0.523599 
0.523599 
0.523599 
0.523599 
0.523599 
0.523599 
0.523599 
0.523599 
0.523599 
0.523599 
0.523599 
0.523599 
0.523599 
0.523599 
0.523599 
0.523599 
0.523599 
0.523599 
0.523599 
0.523599 
0.523599 
0.523599 
0.523599 
0.523599 
0.523599 
0.523599 
0.523599 
0.523599 
0.523599 
0.523599 
0.523599 
0.523599 
0.523599 
0.523599 
0.523599 
0.523599 
0.523599 
0.523599 
0.523599 
0.523599 
0.523599 
0.523599 
0.523599 
0.523599 
0.523599 
0.523599 
0.523599 
0.523599 
0.523599 
0.523599 
0.523599 
0.523599 
0.523599 
0.523599 
0.523599 
0.523599 
0.523599 
0.523599 
0.523599 
0.523599 
0.523599 
0.523599 
0.523599 
0.523599 
0.523599 
0.523599 
0.523599 
0.523599 
0.523599 
0.523599 
0.523599 
0.523599 
0.523599 
0.523599 
0.523599 
0.523599 
0.523599 
0.523599 
0.523599 
0.523599 
0.523599 
0.523599 
0.523599 
0.523599 
0.523599 
0.523599 
0.523599 
0.523599 
0.523599 
0.523599 
0.523599 
0.523599 
0.523599 
0.523599 
0.523599 
0.523599 
0.523599 
0.523599 
0.523599 
0.523599 
0.523599 
0.523599 
0.523599 
0.523599 
0.523599 
0.523599 
0.523599 
0.523599 
0.523599 
0.523599 
0.523599 
0.523599 
0.523599 
0.523599 
0.523599 
0.523599 
0.523599 
0.523599 
0.523599 
0.523599 
0.523599 
0.523599 
0.523599 
0.523599 
0.523599 
0.523599 
0.523599 
0.523599 
0.523599 
0.523599 
0.523599 
0.523599 
0.523599 
0.523599 
0.523599 
0.523599 
0.523599 
0.523599 
0.523599 
0.523599 
0.523599 
0.523599 
0.523599 
0.523599 
0.523599 
0.523599 
0.523599 
0.523599 
0.523599 
0.523599 
0.523599 
0.523599 
0.523599 
0.523599 
0.523599 
0.523599 
0.523599 
0.523599 
0.523599 
0.523599 
0.523599 
0.523599 
0.523599 
0.523599 
0.523599 
0.523599 
0.523599 
0.523599 
0.523599 
0.523599 
0.523599 
0.523599 
0.523599 
0.523599 
0.523599 
0.523599 
0.523599 
0.523599 
0.523599 
0.523599 
0.523599 
0.523599 
0.523599 
0.523599 
0.523599 
0.523599 
0.523599 
0.523599 
0.523599 
0.523599 
0.523599 
0.523599 
0.523599 
0.523599 
0.523599 
0.523599 
0.523599 
0.523599 
0.523599 
0.523599 
0.523599 
0.523599 
0.523599 
0.523599 
0.523599 
0.523599 
0.523599 
0.523599 
0.523599 
0.523599 
0.523599 
0.523599 
0.523599 
0.523599 
0.523599 
0.523599 
0.523599 
0.523599 
0.523599 
0.523599 
0.523599 
0.523599 
0.523599 
0.523599 
0.523599 
0.523599 
0.523599 
0.523599 
0.523599 
0.523599 
0.523599 
0.523599 
0.523599 
0.523599 
0.523599 
0.523599 
0.523599 
0.523599 
0.523599 
0.523599 
0.523599 
0.523599 
0.523599 
0.523599 
0.523599 
0.523599 
0.523599 
0.523599 
0.523599 
0.523599 
0.523599 
0.523599 
0.523599 
0.523599 
0.523599 
0.523599 
0.523599 
0.523599 
0.523599 
0.523599 
0.523599 
0.523599 
0.523599 
0.523599 
0.523599 
0.523599 
0.523599 
0.523599 
0.523599 
0.523599 
0.523599 
0.523599 
0.523599 
0.523599 
0.523599 
0.523599 
0.523599 
0.523599 
0.523599 
0.523599 
0.523599 
0.523599 
0.523599 
0.523599 
0.523599 
0.523599 
0.523599 
0.523599 
0.523599 
0.523599 
0.523599 
0.523599 
0.523599 
0.523599 
0.523599 
0.523599 
0.523599 
0.523599 
0.523599 
0.523599 
0.523599 
0.523599 
0.523599 
0.523599 
0.523599 
0.523599 
0.523599 
0.523599 
0.523599 
0.523599 
0.523599 
0.523599 
0.523599 
0.523599 
0.523599 
0.523599 
0.523599 
0.523599 
0.523599 
0.523599 
0.523599 
0.523599 
0.523599 
0.523599 
0.523599 
0.523599 
0.523599 
0.523599 
0.523599 
0.523599 
0.523599 
0.523599 
0.523599 
0.523599 
0.523599 
0.523599 
0.523599 
0.523599 
0.523599 
0.523599 
0.523599 
0.523599 
0.523599 
0.523599 
0.523599 
0.523599 
0.523599 
0.523599 
0.523599 
0.523599 
0.523599 
0.523599 
0.523599 
0.523599 
0.523599 
0.523599 
0.523599 
0.523599 
0.523599 
0.523599 
0.523599 
0.523599 
0.523599 
0.523599 
0.523599 
0.523599 
0.523599 
0.523599 
0.523599 
0.523599 
0.523599 
0.523599 
0.523599 
0.523599 
0.523599 
0.523599 
0.523599 
0.523599 
0.523599 
0.523599 
0.523599 
0.523599 
0.523599 
0.523599 
0.523599 
0.523599 
0.523599 
0.523599 
0.523599 
0.523599 
0.523599 
0.523599 
0.523599 
0.523599 
0.523599 
0.523599 
0.523599 
0.523599 
0.523599 
0.523599 
0.523599 
0.523599 
0.523599 
0.523599 
0.523599 
0.523599 
0.523599 
0.523599 
0.523599 
0.523599 
0.523599 
0.523599 
0.523599 
0.523599 
0.523599 
0.523599 
0.523599 
0.523599 
0.523599 
0.523599 
0.523599 
0.523599 
0.523599 
0.523599 
0.523599 
0.523599 
0.523599 
0.523599 
0.523599 
0.523599 
0.523599 
0.523599 
0.523599 
0.523599 
0.523599 
0.523599 
0.523599 
0.523599 
0.523599 
0.523599 
0.523599 
0.523599 
0.523599 
0.523599 
0.523599 
0.523599 
0.523599 
0.523599 
0.523599 
0.523599 
0.523599 
0.523599 
0.523599 
0.523599 
0.523599 
0.523599 
0.523599 
0.523599 
0.523599 
0.523599 
0.523599 
0.523599 
0.523599 
0.523599 
0.523599 
0.523599 
0.523599 
0.523599 
0.523599 
0.523599 
0.523599 
0.523599 
0.523599 
0.523599 
0.523599 
0.523599 
0.523599 
0.523599 
0.523599 
0.523599 
0.523599 
0.523599 
0.523599 
0.523599 
0.523599 
0.523599 
0.523599 
0.523599 
0.523599 
0.523599 
0.523599 
0.523599 
0.523599 
0.523599 
0.523599 
0.523599 
0.523599 
0.523599 
0.523599 
0.523599 
0.523599 
0.523599 
0.523599 
0.523599 
0.523599 
0.523599 
0.523599 
0.523599 
0.523599 
0.523599 
0.523599 
0.523599 
0.523599 
0.523599 
0.523599 
0.523599 
0.523599 
0.523599 
0.523599 
0.523599 
0.523599 
0.523599 
0.523599 
0.523599 
0.523599 
0.523599 
0.523599 
0.523599 
0.523599 
0.523599 
0.523599 
0.523599 
0.523599 
0.523599 
0.523599 
0.523599 
0.523599 
0.523599 
0.523599 
0.523599 
0.523599 
0.523599 
0.523599 
0.523599 
0.523599 
0.523599 
0.523599 
0.523599 
0.523599 
0.523599 
0.523599 
0.523599 
0.523599 
0.523599 
0.523599 
0.523599 
0.523599 
0.523599 
0.523599 
0.523599 
0.523599 
0.523599 
0.523599 
0.523599 
0.523599 
0.523599 
0.523599 
0.523599 
0.523599 
0.523599 
0.523599 
0.523599 
0.523599 
0.523599 
0.523599 
0.523599 
0.523599 
0.523599 
0.523599 
0.523599 
0.523599 
0.523599 
0.523599 
0.523599 
0.523599 
0.523599 
0.523599 
0.523599 
0.523599 
0.523599 
0.523599 
0.523599 
0.523599 
0.523599 
0.523599 
0.523599 
0.523599 
0.523599 
0.523599 
0.523599 
0.523599 
0.523599 
0.523599 
0.523599 
0.523599 
0.523599 
0.523599 
0.523599 
0.523599 
0.523599 
0.523599 
0.523599 
0.523599 
0.523599 
0.523599 
0.523599 
0.523599 
0.523599 
0.523599 
0.523599 
0.523599 
0.523599 
0.523599 
0.523599 
0.523599 
0.523599 
0.523599 
0.523599 
0.523599 
0.523599 
0.523599 
0.523599 
0.523599 
0.523599 
0.523599 
0.523599 
0.523599 
0.523599 
0.523599 
0.523599 
0.523599 
0.523599 
0.523599 
0.523599 
0.523599 
0.523599 
0.523599 
0.523599 
0.523599 
0.523599 
0.523599 
0.523599 
0.523599 
0.523599 
0.523599 
0.523599 
0.523599 
0.523599 
0.523599 
0.523599 
0.523599 
0.523599 
0.523599 
0.523599 
0.523599 
0.523599 
0.523599 
0.523599 
0.523599 
0.523599 
0.523599 
0.523599 
0.523599 
0.523599 
0.523599 
0.523599 
0.523599 
0.523599 
0.523599 
0.523599 
0.523599 
0.523599 
0.523599 
0.523599 
0.523599 
0.523599 
0.523599 
0.523599 
0.523599 
0.523599 
0.523599 
0.523599 
0.523599 
0.523599 
0.523599 
0.523599 
0.523599 
0.523599 
0.523599 
0.523599 
0.523599 
0.523599 
0.523599 
0.523599 
0.523599 
0.523599 
0.523599 
0.523599 
0.523599 
0.523599 
0.523599 
0.523599 
0.523599 
0.523599 
0.523599 
0.523599 
0.523599 
0.523599 
0.523599 
0.523599 
0.523599 
0.523599 
0.523599 
0.523599 
0.523599 
0.523599 
0.523599 
0.523599 
0.523599 
0.523599 
0.523599 
0.523599 
0.523599 
0.523599 
0.523599 
0.523599 
0.523599 
0.523599 
0.523599 
0.523599 
0.523599 
0.523599 
0.523599 
0.523599 
0.523599 
0.523599 
0.523599 
0.523599 
0.523599 
0.523599 
0.523599 
0.523599 
0.523599 
0.523599 
0.523599 
0.523599 
0.523599 
0.523599 
0.523599 
0.523599 
0.523599 
0.523599 
0.523599 
0.523599 
0.523599 
0.523599 
0.523599 
0.523599 
0.523599 
0.523599 
0.523599 
0.523599 
0.523599 
0.523599 
0.523599 
0.523599 
0.523599 
0.523599 
0.523599 
0.523599 
0.523599 
0.523599 
0.523599 
0.523599 
0.523599 
0.523599 
0.523599 
0.523599 
0.523599 
0.523599 
0.523599 
0.523599 
0.523599 
0.523599 
0.523599 
0.523599 
0.523599 
0.523599 
0.523599 
0.523599 
0.523599 
0.523599 
0.523599 
0.523599 
0.523599 
0.523599 
0.523599 
0.523599 
0.523599 
0.523599 
0.523599 
0.523599 
0.523599 
0.523599 
0.523599 
0.523599 
0.523599 
0.523599 
0.523599 
0.523599 
0.523599 
0.523599 
0.523599 
0.523599 
0.523599 
0.523599 
0.523599 
0.523599 
0.523599 
0.523599 
0.523599 
0.523599 
0.523599 
0.523599 
0.523599 
0.523599 

SCALARS Coesion float
LOOKUP_TABLE default
10 
10 
10 
10 
10 
10 
10 
10 
10 
10 
10 
10 
10 
10 
10 
10 
10 
10 
10 
10 
10 
10 
10 
10 
10 
10 
10 
10 
10 
10 
10 
10 
10 
10 
10 
10 
10 
10 
10 
10 
10 
10 
10 
10 
10 
10 
10 
10 
10 
10 
10 
10 
10 
10 
10 
10 
10 
10 
10 
10 
10 
10 
10 
10 
10 
10 
10 
10 
10 
10 
10 
10 
10 
10 
10 
10 
10 
10 
10 
10 
10 
10 
10 
10 
10 
10 
10 
10 
10 
10 
10 
10 
10 
10 
10 
10 
10 
10 
10 
10 
10 
10 
10 
10 
10 
10 
10 
10 
10 
10 
10 
10 
10 
10 
10 
10 
10 
10 
10 
10 
10 
10 
10 
10 
10 
10 
10 
10 
10 
10 
10 
10 
10 
10 
10 
10 
10 
10 
10 
10 
10 
10 
10 
10 
10 
10 
10 
10 
10 
10 
10 
10 
10 
10 
10 
10 
10 
10 
10 
10 
10 
10 
10 
10 
10 
10 
10 
10 
10 
10 
10 
10 
10 
10 
10 
10 
10 
10 
10 
10 
10 
10 
10 
10 
10 
10 
10 
10 
10 
10 
10 
10 
10 
10 
10 
10 
10 
10 
10 
10 
10 
10 
10 
10 
10 
10 
10 
10 
10 
10 
10 
10 
10 
10 
10 
10 
10 
10 
10 
10 
10 
10 
10 
10 
10 
10 
10 
10 
10 
10 
10 
10 
10 
10 
10 
10 
10 
10 
10 
10 
10 
10 
10 
10 
10 
10 
10 
10 
10 
10 
10 
10 
10 
10 
10 
10 
10 
10 
10 
10 
10 
10 
10 
10 
10 
10 
10 
10 
10 
10 
10 
10 
10 
10 
10 
10 
10 
10 
10 
10 
10 
10 
10 
10 
10 
10 
10 
10 
10 
10 
10 
10 
10 
10 
10 
10 
10 
10 
10 
10 
10 
10 
10 
10 
10 
10 
10 
10 
10 
10 
10 
10 
10 
10 
10 
10 
10 
10 
10 
10 
10 
10 
10 
10 
10 
10 
10 
10 
10 
10 
10 
10 
10 
10 
10 
10 
10 
10 
10 
10 
10 
10 
10 
10 
10 
10 
10 
10 
10 
10 
10 
10 
10 
10 
10 
10 
10 
10 
10 
10 
10 
10 
10 
10 
10 
10 
10 
10 
10 
10 
10 
10 
10 
10 
10 
10 
10 
10 
10 
10 
10 
10 
10 
10 
10 
10 
10 
10 
10 
10 
10 
10 
10 
10 
10 
10 
10 
10 
10 
10 
10 
10 
10 
10 
10 
10 
10 
10 
10 
10 
10 
10 
10 
10 
10 
10 
10 
10 
10 
10 
10 
10 
10 
10 
10 
10 
10 
10 
10 
10 
10 
10 
10 
10 
10 
10 
10 
10 
10 
10 
10 
10 
10 
10 
10 
10 
10 
10 
10 
10 
10 
10 
10 
10 
10 
10 
10 
10 
10 
10 
10 
10 
10 
10 
10 
10 
10 
10 
10 
10 
10 
10 
10 
10 
10 
10 
10 
10 
10 
10 
10 
10 
10 
10 
10 
10 
10 
10 
10 
10 
10 
10 
10 
10 
10 
10 
10 
10 
10 
10 
10 
10 
10 
10 
10 
10 
10 
10 
10 
10 
10 
10 
10 
10 
10 
10 
10 
10 
10 
10 
10 
10 
10 
10 
10 
10 
10 
10 
10 
10 
10 
10 
10 
10 
10 
10 
10 
10 
10 
10 
10 
10 
10 
10 
10 
10 
10 
10 
10 
10 
10 
10 
10 
10 
10 
10 
10 
10 
10 
10 
10 
10 
10 
10 
10 
10 
10 
10 
10 
10 
10 
10 
10 
10 
10 
10 
10 
10 
10 
10 
10 
10 
10 
10 
10 
10 
10 
10 
10 
10 
10 
10 
10 
10 
10 
10 
10 
10 
10 
10 
10 
10 
10 
10 
10 
10 
10 
10 
10 
10 
10 
10 
10 
10 
10 
10 
10 
10 
10 
10 
10 
10 
10 
10 
10 
10 
10 
10 
10 
10 
10 
10 
10 
10 
10 
10 
10 
10 
10 
10 
10 
10 
10 
10 
10 
10 
10 
10 
10 
10 
10 
10 
10 
10 
10 
10 
10 
10 
10 
10 
10 
10 
10 
10 
10 
10 
10 
10 
10 
10 
10 
10 
10 
10 
10 
10 
10 
10 
10 
10 
10 
10 
10 
10 
10 
10 
10 
10 
10 
10 
10 
10 
10 
10 
10 
10 
10 
10 
10 
10 
10 
10 
10 
10 
10 
10 
10 
10 
10 
10 
10 
10 
10 
10 
10 
10 
10 
10 
10 
10 
10 
10 
10 
10 
10 
10 
10 
10 
10 
10 
10 
10 
10 
10 
10 
10 
10 
10 
10 
10 
10 
10 
10 
10 
10 
10 
10 
10 
10 
10 
10 
10 
10 
10 
10 
10 
10 
10 
10 
10 
10 
10 
10 
10 
10 
10 
10 
10 
10 
10 
10 
10 
10 
10 
10 
10 
10 
10 
10 
10 
10 
10 
10 
10 
10 
10 
10 
10 
10 
10 
10 
10 
10 
10 
10 
10 
10 
10 
10 
10 
10 
10 
10 
10 
10 
10 
10 
10 
10 
10 
10 
10 
10 
10 
10 
10 
10 
10 
10 
10 
10 
10 
10 
10 
10 
10 
10 
10 
10 
10 
10 
10 
10 
10 
10 
10 
10 
10 
10 
10 
10 
10 
10 
10 
10 
10 
10 
10 
10 
10 
10 
10 
10 
10 
10 
10 
10 
10 
10 
10 
10 
10 
10 
10 
10 
10 
10 
10 
10 
10 
10 
10 
10 
10 
10 
10 
10 
10 
10 
10 
10 
10 
10 
10 
10 
10 
10 
10 
10 
10 
10 
10 
10 
10 
10 
10 
10 
10 
10 
10 
10 
10 
10 
10 
10 
10 
10 
10 
10 
10 
10 
10 
10 
10 
10 
10 
10 
10 
10 
10 
10 
10 
10 
10 
10 
10 
10 
10 
10 
10 
10 
10 
10 
10 
10 
10 
10 
10 
10 
10 
10 
10 
10 
10 
10 
10 
10 
10 
10 
10 
10 
10 
10 
10 
10 
10 
10 
10 
10 
10 
10 
10 
10 
10 
10 
10 
10 
10 
10 
10 
10 
10 
10 
10 
10 
10 
10 
10 
10 
10 
10 
10 
10 
10 
10 
10 
10 
10 
10 
10 
10 
10 
10 
10 
10 
10 
10 
10 
10 
10 
10 
10 
10 
10 
10 
10 
10 
10 
10 
10 
10 
10 
10 
10 
10 
10 
10 
10 
10 
10 
10 
10 
10 
10 
10 
10 
10 
10 
10 
10 
10 
10 
10 
10 
10 
10 
10 
10 
10 
10 
10 
10 
10 
10 
10 
10 
10 
10 
10 
10 
10 
10 
10 
10 
10 
10 
10 
10 
10 
10 
10 
10 
10 
10 
10 
10 
10 
10 
10 
10 
10 
10 
10 
10 
10 
10 
10 
10 
10 
10 
10 
10 
10 
10 
10 
10 
10 
10 
10 
10 
10 
10 
10 
10 
10 
10 
10 
10 
10 
10 
10 
10 
10 
10 
10 
10 
10 
10 
10 
10 
10 
10 
10 
10 
10 
10 
10 
10 
10 
10 
10 
10 
10 
10 
10 
10 
10 
10 
10 
10 
10 
10 
10 
10 
10 
10 
10 
10 
10 
10 

SCALARS StrainPlasticJ2 float
LOOKUP_TABLE default
0 
0 
0 
0 
0.000305711 
4.24641e-05 
0.000837918 
4.24641e-05 
0 
0 
0 
0 
0 
0 
0 
0 
0 
0 
0 
0 
0 
0 
0 
0 
1.73841e-05 
1.01043e-05 
0.00066152 
1.01043e-05 
0 
0 
0 
0 
0 
0 
0 
0 
0 
0 
0 
0 
25.0245 
0.0208586 
0.00325556 
0.0208586 
370.468 
370.948 
241.778 
370.948 
23.9048 
45.0725 
0.396996 
45.0725 
0.600343 
40.0567 
3.38949 
40.0567 
1.73733e-05 
2.30313e-07 
1.83584e-05 
2.30313e-07 
1.58155e-06 
4.26891e-06 
1.18003e-05 
4.26891e-06 
1.58384e-05 
1.3224e-06 
2.29294e-07 
1.3224e-06 
9.56668e-08 
3.93653e-06 
2.06371e-08 
3.93653e-06 
0 
0 
0 
0 
0 
0 
0 
0 
0 
0 
0 
0 
0 
0 
0 
0 
0 
0 
0 
0 
0 
0 
0 
0 
0 
0 
0 
0 
0 
0 
0 
0 
0 
0 
0 
0 
0 
0 
0 
0 
0 
0 
0 
0 
0 
0 
0 
0 
2.57786e-05 
2.40331e-05 
0.00177363 
2.40331e-05 
11.7695 
0.649654 
96.6409 
0.649654 
255.351 
101.142 
716.932 
101.142 
0.583473 
55.8285 
0.569705 
55.8285 
1.28898 
81.1767 
64.1032 
81.1767 
0 
0 
0 
0 
0 
0 
0 
0 
0 
0 
0 
0 
0 
0 
0 
0 
5.45067e-05 
5.41131e-07 
1.09621e-06 
5.41131e-07 
0 
0 
0 
0 
0 
0 
0 
0 
5.09902e-06 
-2.52678e-07 
7.41211e-05 
-2.52678e-07 
7.41149e-05 
1.1961e-07 
6.15157e-05 
1.1961e-07 
0.639628 
0.00574586 
0.0423906 
0.00574586 
3.79649e-05 
9.86949e-07 
1.40481e-06 
9.86949e-07 
153.552 
1.2355 
480.103 
1.2355 
566.68 
548.612 
156.603 
548.612 
2.18176 
371.33 
835.926 
371.33 
44.8089 
441.188 
2.9228 
441.188 
323.622 
565.744 
242.571 
565.744 
50.0615 
536.009 
149.904 
536.009 
4.61649e-09 
7.92907e-08 
4.02861e-09 
7.92907e-08 
2.48493e-07 
5.79486e-07 
1.73272e-05 
5.79486e-07 
1.47568e-05 
1.75422e-06 
4.35843e-06 
1.75422e-06 
0 
0 
0 
0 
0 
0 
0 
0 
0 
0 
0 
0 
0 
0 
0 
0 
0 
0 
0 
0 
0 
0 
0 
0 
0 
0 
0 
0 
0 
0 
0 
0 
0 
0 
0 
0 
0 
0 
0 
0 
0 
0 
0 
0 
0 
0 
0 
0 
0 
0 
0 
0 
0 
0 
0 
0 
0 
0 
0 
0 
0 
0 
0 
0 
0 
0 
0 
0 
0 
0 
0 
0 
0 
0 
0 
0 
11441.9 
2229.77 
24186.3 
2229.77 
0 
0 
0 
0 
0 
0 
0 
0 
0 
0 
0 
0 
0 
0 
0 
0 
0 
0 
0 
0 
0 
0 
0 
0 
0 
0 
0 
0 
0 
0 
0 
0 
0 
0 
0 
0 
0 
0 
0 
0 
2.7248e-07 
2.02652e-08 
1.97588e-08 
2.02652e-08 
0 
0 
0 
0 
4.33513e-08 
4.33513e-08 
5.86213e-07 
4.33513e-08 
0 
0 
0 
0 
0 
0 
0 
0 
0 
0 
0 
0 
0 
0 
0 
0 
0 
0 
0 
0 
0 
0 
0 
0 
0 
0 
0 
0 
0 
0 
0 
0 
0 
0 
0 
0 
0 
0 
0 
0 
0 
0 
0 
0 
0 
0 
0 
0 
0 
0 
0 
0 
2.88642e-07 
2.13455e-08 
2.13455e-08 
2.13455e-08 
0 
0 
0 
0 
0 
0 
0 
0 
0 
0 
0 
0 
0 
0 
0 
0 
3.29321 
0.0581548 
0.145684 
0.0581548 
0.485487 
0.0843925 
-0.00108564 
0.0843925 
5.30107e-05 
0.00159492 
2.59975e-05 
0.00159492 
8.72478e-07 
8.56861e-05 
5.172e-06 
8.56861e-05 
649.896 
653.114 
126.762 
653.114 
76.7864 
332.241 
42.7281 
332.241 
2.17978 
443.912 
80.2468 
443.912 
865.758 
444.841 
0.335209 
444.841 
35.9427 
380.041 
499.282 
380.041 
0 
0 
0 
0 
0 
0 
0 
0 
3.38549e-15 
2.50362e-16 
2.50362e-16 
2.50362e-16 
7.40404e-09 
2.60466e-08 
3.92362e-09 
2.60466e-08 
5.53878e-11 
7.48977e-10 
5.53878e-11 
7.48977e-10 
2.31484e-08 
2.21019e-08 
1.6931e-07 
2.21019e-08 
9.60548e-07 
3.20787e-08 
2.29141e-08 
3.20787e-08 
0 
0 
0 
0 
0 
0 
0 
0 
0 
0 
0 
0 
0 
0 
0 
0 
3.7593e-06 
6.71756e-07 
1.23221e-06 
6.71756e-07 
1.11261e-06 
7.62884e-07 
1.14379e-08 
7.62884e-07 
4.66013e-08 
6.38489e-07 
1.83249e-07 
6.38489e-07 
1.71374e-07 
6.64585e-07 
2.1422e-06 
6.64585e-07 
2.30687e-06 
5.99155e-07 
3.98948e-06 
5.99155e-07 
0 
0 
0 
0 
0 
0 
0 
0 
0 
0 
0 
0 
0 
0 
0 
0 
0 
0 
0 
0 
0 
0 
0 
0 
0 
0 
0 
0 
0 
0 
0 
0 
0 
0 
0 
0 
0.739386 
269.739 
54.7451 
269.739 
56.4981 
275.626 
507.13 
275.626 
6847.93 
419.72 
2330.71 
419.72 
1922.92 
573.167 
5673.6 
573.167 
0 
0 
0 
0 
0 
0 
0 
0 
0 
0 
0 
0 
0 
0 
0 
0 
217.09 
17.6854 
480.255 
17.6854 
524.01 
3.57871 
99.9242 
3.57871 
3.6306e-08 
4.84362e-07 
4.2889e-08 
4.84362e-07 
0.011467 
-0.002273 
1.06825 
-0.002273 
2.87832 
0.0295392 
0.0200688 
0.0295392 
0.000138451 
2.01073e-06 
5.10762e-06 
2.01073e-06 
3.87623 
0.156941 
15.9508 
0.156941 
29.6105 
0.263987 
1.17706 
0.263987 
11.2765 
2311.36 
17.1385 
2311.36 
324.742 
952.135 
731.912 
952.135 
9.58397 
520.259 
29.0473 
520.259 
601.324 
818.009 
253.317 
818.009 
602.882 
453.887 
806.482 
453.887 
32.1154 
306.548 
452.202 
306.548 
4.54199 
336.895 
43.0549 
336.895 
1098.52 
509.703 
449.814 
509.703 
425.48 
603.274 
530.969 
603.274 
520.092 
711.713 
214.59 
711.713 
39.5127 
377.848 
1.63518 
377.848 
1.90492 
225.624 
4.1731 
225.624 
3.90016 
174.623 
583.15 
174.623 
0 
0 
0 
0 
7.08323e-09 
2.00694e-10 
6.25158e-10 
2.00694e-10 
6.08778e-09 
4.54913e-09 
1.05839e-07 
4.54913e-09 
7.54213e-08 
4.27475e-09 
1.51546e-08 
4.27475e-09 
3.70831e-12 
3.70831e-12 
5.01452e-11 
3.70831e-12 
1.03751e-13 
1.40296e-12 
1.03751e-13 
1.40296e-12 
0 
0 
0 
0 
1.63653e-10 
1.63653e-10 
2.21299e-09 
1.63653e-10 
0 
0 
0 
0 
2.99671e-09 
2.21611e-10 
2.21611e-10 
2.21611e-10 
3.1096e-09 
1.77053e-09 
3.79406e-08 
1.77053e-09 
2.81672e-06 
1.97888e-06 
5.48517e-07 
1.97888e-06 
1.69291e-07 
9.80622e-09 
1.33156e-08 
9.80622e-09 
0 
0 
0 
0 
0 
0 
0 
0 
0 
0 
0 
0 
0 
0 
0 
0 
0 
0 
0 
0 
0 
0 
0 
0 
0 
0 
0 
0 
0 
0 
0 
0 
0 
0 
0 
0 
0 
0 
0 
0 
0 
0 
0 
0 
2.55396 
0.408704 
341.502 
0.408704 
0.00110029 
0.0624271 
0.000669485 
0.0624271 
403.165 
0.451616 
1784.89 
0.451616 
1217.19 
-0.193258 
55.5131 
-0.193258 
0.0058029 
0.0518747 
9.30387e-05 
0.0518747 
7.36389e-05 
0.0842283 
0.00149552 
0.0842283 
0.0414253 
10.3549 
4.46689 
10.3549 
740.729 
95.3293 
323.877 
95.3293 
175.49 
1.11605 
17.3081 
1.11605 
0.0140319 
1.02534 
0.0114426 
1.02534 
0.946019 
0.685048 
0.007237 
0.685048 
0.0256019 
0.579853 
11.09 
0.579853 
96.8053 
0.454757 
189.599 
0.454757 
0 
0 
0 
0 
0 
0 
0 
0 
0 
0 
0 
0 
0.00513437 
0.000126276 
7.13988e-07 
0.000126276 
2.15126e-08 
2.15126e-08 
2.90902e-07 
2.15126e-08 
1452.49 
7198.24 
28746.3 
7198.24 
427.791 
1156.35 
47.4492 
1156.35 
30.4811 
2418.55 
1296.16 
2418.55 
9.35686 
139.208 
512.741 
139.208 
643.072 
437.477 
697.936 
437.477 
7.93087 
324.404 
51.8033 
324.404 
3.55651 
130.143 
346.94 
130.143 
417.249 
163.876 
17.6893 
163.876 
485.553 
246.417 
952.059 
246.417 
882.514 
268.191 
554.99 
268.191 
1.47311e-10 
1.18385e-09 
1.86417e-09 
1.18385e-09 
2.4295e-09 
5.57744e-10 
3.59502e-10 
5.57744e-10 
9.34919e-10 
1.69026e-09 
8.45534e-09 
1.69026e-09 
2.28338e-10 
2.31697e-10 
3.1228e-09 
2.31697e-10 
0 
0 
0 
0 
0 
0 
0 
0 
0 
0 
0 
0 
6.86274e-07 
1.05228e-07 
1.47701e-06 
1.05228e-07 
5.85043e-08 
6.03756e-08 
7.88431e-07 
6.03756e-08 
600.637 
1022.26 
1164.96 
1022.26 
2.3685 
723.745 
383.525 
723.745 
89.8057 
556.992 
2.9302 
556.992 
1084.24 
568.52 
84.8506 
568.52 
57.3325 
1.7728 
350.015 
1.7728 
6.7266e-06 
0.00247286 
3.53191e-05 
0.00247286 
0.000493375 
0.000247847 
0.0314051 
0.000247847 
4.29314e-08 
4.29314e-08 
5.80536e-07 
4.29314e-08 
7.85793e-06 
5.0786e-07 
3.77934e-07 
5.0786e-07 
0 
0 
0 
0 
0 
0 
0 
0 
0 
0 
0 
0 
0 
0 
0 
0 
10027.2 
39836 
26750.6 
39836 
2074.64 
1854.53 
766.031 
1854.53 
769.406 
1976.45 
273.135 
1976.45 
435.083 
2516.91 
1211.03 
2516.91 
2714.35 
4507.81 
1052.15 
4507.81 
520.359 
4804.03 
468.97 
4804.03 
24.8048 
2989.3 
2437.39 
2989.3 
1156.14 
1756.51 
70.0391 
1756.51 
47.1832 
178.896 
241.6 
178.896 
49.2297 
2095.85 
349.458 
2095.85 
603.524 
452.754 
1161.18 
452.754 
1160.11 
557.002 
425.76 
557.002 
1072.25 
2250.69 
1142.94 
2250.69 
5.8624e-08 
2.11773e-08 
3.85178e-07 
2.11773e-08 
4.99774e-13 
6.75814e-12 
4.99774e-13 
6.75814e-12 
3.16584e-07 
8.84461e-09 
1.5e-08 
8.84461e-09 
2.70015e-10 
6.0999e-10 
1.77829e-09 
6.0999e-10 
1.84369e-09 
6.42287e-10 
6.58702e-09 
6.42287e-10 
1.10966e-11 
1.10966e-11 
1.50053e-10 
1.10966e-11 
3.4547e-06 
2.84339e-07 
3.36847e-06 
2.84339e-07 
1.21192e-07 
2.3898e-09 
1.84524e-06 
2.3898e-09 
2.14801e-07 
3.39779e-08 
1.4133e-08 
3.39779e-08 
3.35773e-07 
5.62202e-08 
1.89941e-07 
5.62202e-08 
9.94248e-05 
0.000204271 
0.0104928 
0.000204271 
1.29447e-05 
0.000423471 
9.3431e-06 
0.000423471 
2.53149 
1.77381 
241.021 
1.77381 
242.536 
2.32994 
481.08 
2.32994 
395.115 
0.933567 
3.93593 
0.933567 
6.76926e-06 
3.53012e-08 
2.07358e-07 
3.53012e-08 
1.25328e-07 
3.58063e-08 
1.42005e-06 
3.58063e-08 
0 
0 
0 
0 
0 
0 
0 
0 
4.27031e-05 
7.86682e-05 
0.00174764 
7.86682e-05 
2.83392e-06 
3.94622e-05 
1.927e-06 
3.94622e-05 
0.00223734 
0.000204419 
0.00478247 
0.000204419 
0.00212004 
6.71543e-05 
4.19288e-05 
6.71543e-05 
0 
0 
0 
0 
0 
0 
0 
0 
0 
0 
0 
0 
0 
0 
0 
0 
8.92057e-11 
8.92057e-11 
1.20628e-09 
8.92057e-11 
1.38662e-13 
1.38662e-13 
1.87504e-12 
1.38662e-13 

SCALARS FailureType float
LOOKUP_TABLE default
0 
0 
0 
0 
0.86144 
-0.873659 
0.86144 
-0.873659 
0 
0 
0 
0 
0 
0 
0 
0 
0 
0 
0 
0 
0 
0 
0 
0 
-0.373659 
-0.373659 
0.59654 
-0.373659 
0 
0 
0 
0 
0 
0 
0 
0 
0 
0 
0 
0 
1 
1 
1 
1 
3.55424 
2.02444 
2.02444 
2.02444 
1 
1 
1 
1 
3.55424 
2.02444 
2.02444 
2.02444 
0 
0 
0 
0 
0 
0 
0 
0 
0 
0 
0 
0 
0 
0 
0 
0 
0 
0 
0 
0 
0 
0 
0 
0 
0 
0 
0 
0 
0 
0 
0 
0 
0 
0 
0 
0 
0 
0 
0 
0 
0 
0 
0 
0 
0 
0 
0 
0 
0 
0 
0 
0 
0 
0 
0 
0 
0 
0 
0 
0 
0 
0 
0 
0 
-0.650778 
-0.650778 
-3.15078 
-0.650778 
3.30156 
3.30156 
3.30156 
3.30156 
3.30156 
3.30156 
3.30156 
3.30156 
0.86144 
0.86144 
-0.873659 
0.86144 
0.747319 
2.27712 
2.27712 
2.27712 
0 
0 
0 
0 
0 
0 
0 
0 
0 
0 
0 
0 
0 
0 
0 
0 
0.59654 
-0.373659 
-0.373659 
-0.373659 
0 
0 
0 
0 
0 
0 
0 
0 
-0.2351 
1.5 
0.7351 
1.5 
1 
1 
1 
1 
-1.4702 
0.470199 
2 
0.470199 
0.59654 
-0.373659 
-0.373659 
-0.373659 
3.55424 
2.02444 
2.02444 
2.02444 
2.02444 
3.55424 
2.02444 
3.55424 
3.55424 
2.02444 
2.02444 
2.02444 
3.30156 
3.30156 
3.30156 
3.30156 
3.55424 
2.02444 
2.02444 
2.02444 
3.30156 
3.30156 
3.30156 
3.30156 
0 
0 
0 
0 
0 
0 
0 
0 
0 
0 
0 
0 
0 
0 
0 
0 
0 
0 
0 
0 
0 
0 
0 
0 
0 
0 
0 
0 
0 
0 
0 
0 
0 
0 
0 
0 
0 
0 
0 
0 
0 
0 
0 
0 
0 
0 
0 
0 
0 
0 
0 
0 
0 
0 
0 
0 
0 
0 
0 
0 
0 
0 
0 
0 
0 
0 
0 
0 
0 
0 
0 
0 
0 
0 
0 
0 
0 
0 
0 
0 
0 
0 
0 
0 
0 
0 
0 
0 
3.30156 
3.30156 
3.30156 
3.30156 
0 
0 
0 
0 
0 
0 
0 
0 
0 
0 
0 
0 
0 
0 
0 
0 
0 
0 
0 
0 
0 
0 
0 
0 
0 
0 
0 
0 
0 
0 
0 
0 
0 
0 
0 
0 
0 
0 
0 
0 
1.2351 
0.2649 
-0.5 
0.2649 
0 
0 
0 
0 
0.13856 
0.13856 
1.87366 
0.13856 
0 
0 
0 
0 
0 
0 
0 
0 
0 
0 
0 
0 
0 
0 
0 
0 
0 
0 
0 
0 
0 
0 
0 
0 
0 
0 
0 
0 
0 
0 
0 
0 
0 
0 
0 
0 
0 
0 
0 
0 
0 
0 
0 
0 
0 
0 
0 
0 
0 
0 
0 
0 
1.87366 
0.13856 
0.13856 
0.13856 
0 
0 
0 
0 
0 
0 
0 
0 
0 
0 
0 
0 
0 
0 
0 
0 
2.02444 
3.55424 
2.02444 
3.55424 
2 
0.470199 
-1.4702 
0.470199 
-0.512219 
-3.01222 
1.22288 
-3.01222 
-0.373659 
0.59654 
-0.373659 
0.59654 
1.38588 
3.68058 
1.38588 
3.68058 
3.30156 
3.30156 
3.30156 
3.30156 
3.30156 
3.30156 
3.30156 
3.30156 
3.55424 
2.02444 
2.02444 
2.02444 
3.30156 
3.30156 
3.30156 
3.30156 
0 
0 
0 
0 
0 
0 
0 
0 
0 
0 
0 
0 
0 
0 
0 
0 
0 
0 
0 
0 
0 
0 
0 
0 
0 
0 
0 
0 
0 
0 
0 
0 
0 
0 
0 
0 
0 
0 
0 
0 
0 
0 
0 
0 
0 
0 
0 
0 
0 
0 
0 
0 
0 
0 
0 
0 
0 
0 
0 
0 
0 
0 
0 
0 
0 
0 
0 
0 
0 
0 
0 
0 
0 
0 
0 
0 
0 
0 
0 
0 
0 
0 
0 
0 
0 
0 
0 
0 
0 
0 
0 
0 
0 
0 
0 
0 
0 
0 
0 
0 
-0.445762 
3.02444 
3.02444 
3.02444 
3.30156 
3.30156 
3.30156 
3.30156 
3.30156 
3.30156 
3.30156 
3.30156 
3.30156 
3.30156 
3.30156 
3.30156 
0 
0 
0 
0 
0 
0 
0 
0 
0 
0 
0 
0 
0 
0 
0 
0 
3.30156 
3.30156 
3.30156 
3.30156 
3.30156 
3.30156 
3.30156 
3.30156 
0.13856 
1.87366 
0.13856 
1.87366 
1.74732 
1.74732 
-0.19308 
1.74732 
1 
1 
1 
1 
1 
1 
1 
1 
2.27712 
2.27712 
0.747319 
2.27712 
2.27712 
0.747319 
2.27712 
0.747319 
3.55424 
2.02444 
2.02444 
2.02444 
2.02444 
2.02444 
3.55424 
2.02444 
1.4279 
3.163 
3.163 
3.163 
3.55424 
2.02444 
2.02444 
2.02444 
1 
1 
1 
1 
3.55424 
2.02444 
2.02444 
2.02444 
3.30156 
3.30156 
3.30156 
3.30156 
2.02444 
2.02444 
3.55424 
2.02444 
3.55424 
2.02444 
2.02444 
2.02444 
3.55424 
2.02444 
2.02444 
2.02444 
3.55424 
2.02444 
2.02444 
2.02444 
0.747319 
2.27712 
2.27712 
2.27712 
2.02444 
2.02444 
3.55424 
2.02444 
0 
0 
0 
0 
0 
0 
0 
0 
0 
0 
0 
0 
0 
0 
0 
0 
0 
0 
0 
0 
0 
0 
0 
0 
0 
0 
0 
0 
0 
0 
0 
0 
0 
0 
0 
0 
0 
0 
0 
0 
0 
0 
0 
0 
1.37366 
1.37366 
0.40346 
1.37366 
0 
0 
0 
0 
0 
0 
0 
0 
0 
0 
0 
0 
0 
0 
0 
0 
0 
0 
0 
0 
0 
0 
0 
0 
0 
0 
0 
0 
0 
0 
0 
0 
0 
0 
0 
0 
0 
0 
0 
0 
0 
0 
0 
0 
0 
0 
0 
0 
3.02444 
3.02444 
-0.445762 
3.02444 
2.87366 
1.13856 
1.13856 
1.13856 
3.30156 
3.30156 
3.30156 
3.30156 
1.38588 
1.38588 
3.68058 
1.38588 
1 
1 
1 
1 
0.584321 
-2.88588 
-1.15078 
-2.88588 
-2.74732 
0.722881 
0.722881 
0.722881 
2.02444 
2.02444 
3.55424 
2.02444 
2.27712 
0.747319 
2.27712 
0.747319 
1 
1 
1 
1 
0.722881 
0.722881 
-2.74732 
0.722881 
0.470199 
2 
-1.4702 
2 
3.55424 
2.02444 
2.02444 
2.02444 
0 
0 
0 
0 
0 
0 
0 
0 
0 
0 
0 
0 
0.86144 
-0.873659 
0.86144 
-0.873659 
0.13856 
0.13856 
1.87366 
0.13856 
3.30156 
3.30156 
3.30156 
3.30156 
3.30156 
3.30156 
3.30156 
3.30156 
3.30156 
3.30156 
3.30156 
3.30156 
3.30156 
3.30156 
3.30156 
3.30156 
2.27712 
0.747319 
2.27712 
0.747319 
0.150778 
1.88588 
3.41568 
1.88588 
3.02444 
-0.445762 
3.02444 
-0.445762 
3.30156 
3.30156 
3.30156 
3.30156 
1 
1 
1 
1 
3.30156 
3.30156 
3.30156 
3.30156 
0 
0 
0 
0 
0 
0 
0 
0 
0 
0 
0 
0 
0 
0 
0 
0 
0 
0 
0 
0 
0 
0 
0 
0 
0 
0 
0 
0 
0.86144 
-0.873659 
0.86144 
-0.873659 
0.13856 
0.13856 
1.87366 
0.13856 
2.02444 
3.55424 
2.02444 
3.55424 
2.02444 
3.55424 
2.02444 
3.55424 
3.55424 
2.02444 
2.02444 
2.02444 
3.55424 
2.02444 
2.02444 
2.02444 
3.02444 
-0.445762 
3.02444 
-0.445762 
1 
1 
1 
1 
1.86144 
-1.40346 
-1.60876 
-1.40346 
0.13856 
0.13856 
1.87366 
0.13856 
0.59654 
-0.373659 
-0.373659 
-0.373659 
0 
0 
0 
0 
0 
0 
0 
0 
0 
0 
0 
0 
0 
0 
0 
0 
3.30156 
3.30156 
3.30156 
3.30156 
3.30156 
3.30156 
3.30156 
3.30156 
3.30156 
3.30156 
3.30156 
3.30156 
3.30156 
3.30156 
3.30156 
3.30156 
3.30156 
3.30156 
3.30156 
3.30156 
3.30156 
3.30156 
3.30156 
3.30156 
3.30156 
3.30156 
3.30156 
3.30156 
3.30156 
3.30156 
3.30156 
3.30156 
-0.445762 
3.02444 
3.02444 
3.02444 
1.4279 
3.163 
3.163 
3.163 
-0.445762 
3.02444 
3.02444 
3.02444 
3.55424 
2.02444 
2.02444 
2.02444 
3.30156 
3.30156 
3.30156 
3.30156 
0 
0 
0 
0 
0 
0 
0 
0 
0 
0 
0 
0 
0 
0 
0 
0 
0 
0 
0 
0 
0 
0 
0 
0 
1.2351 
-0.5 
0.2649 
-0.5 
-0.2351 
1.5 
0.7351 
1.5 
0.2649 
1.2351 
-0.5 
1.2351 
0.13856 
1.87366 
0.13856 
1.87366 
0.86144 
-0.873659 
0.86144 
-0.873659 
1 
1 
1 
1 
-1.15078 
0.584321 
-2.88588 
0.584321 
2.02444 
2.02444 
3.55424 
2.02444 
1 
1 
1 
1 
0.86144 
0.86144 
-0.873659 
0.86144 
0.2649 
-0.5 
1.2351 
-0.5 
0 
0 
0 
0 
0 
0 
0 
0 
-0.873659 
0.86144 
0.86144 
0.86144 
-0.373659 
0.59654 
-0.373659 
0.59654 
1 
1 
1 
1 
0.86144 
0.86144 
-0.873659 
0.86144 
0 
0 
0 
0 
0 
0 
0 
0 
0 
0 
0 
0 
0 
0 
0 
0 
0 
0 
0 
0 
0 
0 
0 
0 

VECTORS Displacement float
2.15643e-10 -7.9708e-10 0 
5.91866e-11 -8.04374e-10 0 
3.05178e-10 -0.102514 0 
5.91866e-11 -8.04374e-10 0 
8.67373e-11 -0.195002 0 
9.74176e-11 -0.208074 0 
0.0399589 -0.168186 0 
9.74176e-11 -0.208074 0 
7.87144e-11 -9.31005e-10 0 
0.0355834 -0.125692 0 
6.40295e-11 -8.62634e-10 0 
0.0355834 -0.125692 0 
3.86384e-11 -8.15028e-10 0 
0.0108887 -0.0876566 0 
5.91866e-11 -8.04374e-10 0 
0.0108887 -0.0876566 0 
5.91866e-11 -8.04374e-10 0 
0.0108887 -0.0876566 0 
3.05178e-10 -0.102514 0 
0.0108887 -0.0876566 0 
1.31257e-10 -0.207568 0 
0.00927681 -0.210828 0 
9.74176e-11 -0.208074 0 
0.00927681 -0.210828 0 
9.74176e-11 -0.208074 0 
0.00927681 -0.210828 0 
0.0399589 -0.168186 0 
0.00927681 -0.210828 0 
2.09951e-10 -0.19807 0 
0.00932231 -0.206068 0 
1.31257e-10 -0.207568 0 
0.00932231 -0.206068 0 
1.31257e-10 -0.207568 0 
0.00932231 -0.206068 0 
0.00927681 -0.210828 0 
0.00932231 -0.206068 0 
0.00927681 -0.210828 0 
0.00932231 -0.206068 0 
0.0202882 -0.214059 0 
0.00932231 -0.206068 0 
5.75228 -3.78599 0 
0.027202 -0.510856 0 
0.0191306 -0.519078 0 
0.027202 -0.510856 0 
37.1509 -21.3161 0 
6.8874 -2.7507 0 
5.75228 -3.78599 0 
6.8874 -2.7507 0 
5.75228 -3.78599 0 
6.8874 -2.7507 0 
0.027202 -0.510856 0 
6.8874 -2.7507 0 
0.027202 -0.510856 0 
6.8874 -2.7507 0 
0.878031 -0.761056 0 
6.8874 -2.7507 0 
-3.73832e-11 -0.54379 0 
0.0138786 -0.531465 0 
-7.5986e-11 -0.520933 0 
0.0138786 -0.531465 0 
8.16213e-12 -0.552884 0 
0.00626528 -0.549387 0 
-3.73832e-11 -0.54379 0 
0.00626528 -0.549387 0 
-3.73832e-11 -0.54379 0 
0.00626528 -0.549387 0 
0.0138786 -0.531465 0 
0.00626528 -0.549387 0 
0.0138786 -0.531465 0 
0.00626528 -0.549387 0 
0.0105852 -0.545693 0 
0.00626528 -0.549387 0 
-3.3658e-10 -0.181223 0 
0.00653099 -0.138612 0 
-3.66519e-10 -0.094413 0 
0.00653099 -0.138612 0 
-3.66519e-10 -0.094413 0 
-3.04864e-11 -1.11317e-09 0 
-2.4127e-10 -1.11443e-09 0 
-3.04864e-11 -1.11317e-09 0 
1.71911e-11 -1.10992e-09 0 
-3.04864e-11 -1.11317e-09 0 
0.00653099 -0.138612 0 
-3.04864e-11 -1.11317e-09 0 
0.00653099 -0.138612 0 
-3.04864e-11 -1.11317e-09 0 
-3.66519e-10 -0.094413 0 
-3.04864e-11 -1.11317e-09 0 
7.87144e-11 -9.31005e-10 0 
0.0366507 -0.132356 0 
0.0355834 -0.125692 0 
0.0366507 -0.132356 0 
7.76372e-11 -1.00149e-09 0 
0.0366507 -0.132356 0 
7.87144e-11 -9.31005e-10 0 
0.0366507 -0.132356 0 
0.0108887 -0.0876566 0 
0.011018 -0.14061 0 
3.05178e-10 -0.102514 0 
0.011018 -0.14061 0 
3.05178e-10 -0.102514 0 
0.011018 -0.14061 0 
2.76611e-10 -0.167331 0 
0.011018 -0.14061 0 
0.0355834 -0.125692 0 
0.0237393 -0.10082 0 
6.40295e-11 -8.62634e-10 0 
0.0237393 -0.10082 0 
3.86384e-11 -8.15028e-10 0 
0.0237393 -0.10082 0 
0.0108887 -0.0876566 0 
0.0237393 -0.10082 0 
6.40294e-11 -8.62634e-10 0 
0.0237393 -0.10082 0 
3.86385e-11 -8.15028e-10 0 
0.0237393 -0.10082 0 
0.0202882 -0.214059 0 
0.0141466 -0.214407 0 
0.00927681 -0.210828 0 
0.0141466 -0.214407 0 
0.00927681 -0.210828 0 
0.0141466 -0.214407 0 
0.0399589 -0.168186 0 
0.0141466 -0.214407 0 
0.0399589 -0.168186 0 
0.0141466 -0.214407 0 
6.75018 13.0212 0 
0.0141466 -0.214407 0 
6.75018 13.0212 0 
5.15569 6.52345 0 
25.0838 40.9115 0 
5.15569 6.52345 0 
0.02887 -0.22738 0 
5.15569 6.52345 0 
0.0141466 -0.214407 0 
5.15569 6.52345 0 
0.0141466 -0.214407 0 
5.15569 6.52345 0 
6.75018 13.0212 0 
5.15569 6.52345 0 
2.76611e-10 -0.167331 0 
0.0157827 -0.188634 0 
2.09951e-10 -0.19807 0 
0.0157827 -0.188634 0 
0.0319344 -0.186153 0 
0.0157827 -0.188634 0 
0.011018 -0.14061 0 
0.0157827 -0.188634 0 
0.011018 -0.14061 0 
0.0157827 -0.188634 0 
2.76611e-10 -0.167331 0 
0.0157827 -0.188634 0 
0.00925063 -0.522545 0 
0.0170321 -0.522398 0 
0.00982094 -0.532357 0 
0.0170321 -0.522398 0 
0.0191306 -0.519078 0 
0.014705 -0.514839 0 
0.00925063 -0.522545 0 
0.014705 -0.514839 0 
0.00925063 -0.522545 0 
0.014705 -0.514839 0 
0.0170321 -0.522398 0 
0.014705 -0.514839 0 
0.0170321 -0.522398 0 
0.014705 -0.514839 0 
0.0213793 -0.505113 0 
0.014705 -0.514839 0 
0.0213793 -0.505113 0 
0.014705 -0.514839 0 
0.027202 -0.510856 0 
0.014705 -0.514839 0 
0.027202 -0.510856 0 
0.014705 -0.514839 0 
0.0191306 -0.519078 0 
0.014705 -0.514839 0 
0.878031 -0.761056 0 
0.0198066 -0.496146 0 
0.027202 -0.510856 0 
0.0198066 -0.496146 0 
0.027202 -0.510856 0 
0.0198066 -0.496146 0 
0.0213793 -0.505113 0 
0.0198066 -0.496146 0 
6.31083 -0.594131 0 
1.80179 -0.979129 0 
25.3098 -6.79751 0 
1.80179 -0.979129 0 
25.3098 -6.79751 0 
51.0384 -10.3499 0 
6.31083 -0.594131 0 
51.0384 -10.3499 0 
66.2157 -14.9058 0 
51.0384 -10.3499 0 
25.3098 -6.79751 0 
51.0384 -10.3499 0 
75.7183 -10.1704 0 
51.0384 -10.3499 0 
66.2157 -14.9058 0 
51.0384 -10.3499 0 
37.1509 -21.3161 0 
34.3726 -15.6813 0 
6.8874 -2.7507 0 
34.3726 -15.6813 0 
52.7138 -18.0096 0 
34.3726 -15.6813 0 
37.1509 -21.3161 0 
34.3726 -15.6813 0 
0.0217295 -0.497746 0 
0.0146785 -0.487903 0 
0.0138786 -0.531465 0 
0.0146785 -0.487903 0 
0.0138786 -0.531465 0 
0.0146785 -0.487903 0 
-7.5986e-11 -0.520933 0 
0.0146785 -0.487903 0 
-7.5986e-11 -0.520933 0 
0.0146785 -0.487903 0 
-1.532e-10 -0.444566 0 
0.0146785 -0.487903 0 
0.0217295 -0.497746 0 
0.0152085 -0.536308 0 
0.0215084 -0.518816 0 
0.0152085 -0.536308 0 
0.0138786 -0.531465 0 
0.0152085 -0.536308 0 
0.0217295 -0.497746 0 
0.0152085 -0.536308 0 
0.0105852 -0.545693 0 
0.0152085 -0.536308 0 
0.0138786 -0.531465 0 
0.0152085 -0.536308 0 
0.0111068 -0.54039 0 
0.0152085 -0.536308 0 
0.0105852 -0.545693 0 
0.0152085 -0.536308 0 
0.00982094 -0.532357 0 
0.0151266 -0.533757 0 
0.0111068 -0.54039 0 
0.0151266 -0.533757 0 
0.0111068 -0.54039 0 
0.0151266 -0.533757 0 
0.0152085 -0.536308 0 
0.0151266 -0.533757 0 
0.0152085 -0.536308 0 
0.0151266 -0.533757 0 
0.0215084 -0.518816 0 
0.0151266 -0.533757 0 
0.0215084 -0.518816 0 
0.0151266 -0.533757 0 
0.0170321 -0.522398 0 
0.0151266 -0.533757 0 
0.0170321 -0.522398 0 
0.0151266 -0.533757 0 
0.00982094 -0.532357 0 
0.0151266 -0.533757 0 
0.0214557 -0.258487 0 
0.0128744 -0.127712 0 
0.00653099 -0.138612 0 
0.0128744 -0.127712 0 
0.00653099 -0.138612 0 
0.0128744 -0.127712 0 
1.71911e-11 -1.10992e-09 0 
0.0128744 -0.127712 0 
1.71911e-11 -1.10992e-09 0 
0.0128744 -0.127712 0 
4.21418e-11 -1.09232e-09 0 
0.0128744 -0.127712 0 
4.21418e-11 -1.09232e-09 0 
0.0128744 -0.127712 0 
0.026785 -0.172824 0 
0.0128744 -0.127712 0 
0.026785 -0.172824 0 
0.0128744 -0.127712 0 
0.0214557 -0.258487 0 
0.0128744 -0.127712 0 
0.00653099 -0.138612 0 
0.0100145 -0.268923 0 
0.0214557 -0.258487 0 
0.0100145 -0.268923 0 
-3.3658e-10 -0.181223 0 
0.0100145 -0.268923 0 
0.00653099 -0.138612 0 
0.0100145 -0.268923 0 
-2.23246e-10 -0.330378 0 
0.0100145 -0.268923 0 
-3.3658e-10 -0.181223 0 
0.0100145 -0.268923 0 
7.76371e-11 -1.00149e-09 0 
0.034206 -0.154393 0 
0.0366507 -0.132356 0 
0.034206 -0.154393 0 
6.24635e-11 -1.05814e-09 0 
0.034206 -0.154393 0 
7.76372e-11 -1.00149e-09 0 
0.034206 -0.154393 0 
66.5489 126.43 0 
31.7882 35.0481 0 
138.631 184.224 0 
31.7882 35.0481 0 
0.011018 -0.14061 0 
0.0239412 -0.139075 0 
0.0319344 -0.186153 0 
0.0239412 -0.139075 0 
0.0237393 -0.10082 0 
0.0239412 -0.139075 0 
0.0108887 -0.0876566 0 
0.0239412 -0.139075 0 
0.0108887 -0.0876566 0 
0.0239412 -0.139075 0 
0.011018 -0.14061 0 
0.0239412 -0.139075 0 
0.0472576 -0.220137 0 
0.0412697 -0.169309 0 
0.0554731 -0.226585 0 
0.0412697 -0.169309 0 
0.0319344 -0.186153 0 
0.0412697 -0.169309 0 
0.0472576 -0.220137 0 
0.0412697 -0.169309 0 
0.0355834 -0.125692 0 
0.0412697 -0.169309 0 
0.0237393 -0.10082 0 
0.0412697 -0.169309 0 
0.0237393 -0.10082 0 
0.0412697 -0.169309 0 
0.0239412 -0.139075 0 
0.0412697 -0.169309 0 
0.0239412 -0.139075 0 
0.0412697 -0.169309 0 
0.0319344 -0.186153 0 
0.0412697 -0.169309 0 
0.0363419 -0.225259 0 
0.0282544 -0.222213 0 
0.0202882 -0.214059 0 
0.0282544 -0.222213 0 
0.0202882 -0.214059 0 
0.0282544 -0.222213 0 
0.0141466 -0.214407 0 
0.0282544 -0.222213 0 
0.0141466 -0.214407 0 
0.0282544 -0.222213 0 
0.02887 -0.22738 0 
0.0282544 -0.222213 0 
0.0363419 -0.225259 0 
0.0400252 -0.239819 0 
0.0282544 -0.222213 0 
0.0400252 -0.239819 0 
0.0282544 -0.222213 0 
0.0400252 -0.239819 0 
0.02887 -0.22738 0 
0.0400252 -0.239819 0 
0.0202882 -0.214059 0 
0.0201491 -0.204813 0 
0.0363419 -0.225259 0 
0.0201491 -0.204813 0 
0.00932231 -0.206068 0 
0.0201491 -0.204813 0 
0.0202882 -0.214059 0 
0.0201491 -0.204813 0 
0.0157827 -0.188634 0 
0.0201491 -0.204813 0 
2.09951e-10 -0.19807 0 
0.0201491 -0.204813 0 
2.09951e-10 -0.19807 0 
0.0201491 -0.204813 0 
0.00932231 -0.206068 0 
0.0201491 -0.204813 0 
0.0554731 -0.226585 0 
0.0563119 -0.25311 0 
0.0472576 -0.220137 0 
0.0563119 -0.25311 0 
0.0472576 -0.220137 0 
0.0368896 -0.210899 0 
0.0319344 -0.186153 0 
0.0368896 -0.210899 0 
0.0201491 -0.204813 0 
0.0368896 -0.210899 0 
0.0363419 -0.225259 0 
0.0368896 -0.210899 0 
0.0157827 -0.188634 0 
0.0368896 -0.210899 0 
0.0201491 -0.204813 0 
0.0368896 -0.210899 0 
0.0319344 -0.186153 0 
0.0368896 -0.210899 0 
0.0157827 -0.188634 0 
0.0368896 -0.210899 0 
0.0563119 -0.25311 0 
0.0453278 -0.231854 0 
0.0472576 -0.220137 0 
0.0453278 -0.231854 0 
0.0472576 -0.220137 0 
0.0453278 -0.231854 0 
0.0368896 -0.210899 0 
0.0453278 -0.231854 0 
0.0368896 -0.210899 0 
0.0453278 -0.231854 0 
0.0363419 -0.225259 0 
0.0453278 -0.231854 0 
0.0363419 -0.225259 0 
0.0453278 -0.231854 0 
0.0400252 -0.239819 0 
0.0453278 -0.231854 0 
0.0400252 -0.239819 0 
0.0453278 -0.231854 0 
0.0497812 -0.253723 0 
0.0453278 -0.231854 0 
0.0213793 -0.505113 0 
0.0278741 -0.497293 0 
0.0170321 -0.522398 0 
0.0278741 -0.497293 0 
0.0170321 -0.522398 0 
0.0278741 -0.497293 0 
0.0215084 -0.518816 0 
0.0278741 -0.497293 0 
0.0213793 -0.505113 0 
0.0300308 -0.482903 0 
0.0278741 -0.497293 0 
0.0300308 -0.482903 0 
0.0198066 -0.496146 0 
0.0300308 -0.482903 0 
0.0213793 -0.505113 0 
0.0300308 -0.482903 0 
1.80179 -0.979129 0 
0.0513229 -0.489557 0 
0.878031 -0.761056 0 
0.0513229 -0.489557 0 
0.878031 -0.761056 0 
0.0513229 -0.489557 0 
0.0198066 -0.496146 0 
0.0513229 -0.489557 0 
0.0198066 -0.496146 0 
0.0513229 -0.489557 0 
0.0300308 -0.482903 0 
0.0513229 -0.489557 0 
0.0300308 -0.482903 0 
0.0513229 -0.489557 0 
0.0369659 -0.454941 0 
0.0513229 -0.489557 0 
51.0384 -10.3499 0 
33.227 -3.33755 0 
6.31083 -0.594131 0 
33.227 -3.33755 0 
60.64 -16.4226 0 
47.6553 -14.2284 0 
52.7138 -18.0096 0 
47.6553 -14.2284 0 
66.2157 -14.9058 0 
47.6553 -14.2284 0 
60.64 -16.4226 0 
47.6553 -14.2284 0 
25.3098 -6.79751 0 
47.6553 -14.2284 0 
66.2157 -14.9058 0 
47.6553 -14.2284 0 
52.7138 -18.0096 0 
47.6553 -14.2284 0 
34.3726 -15.6813 0 
47.6553 -14.2284 0 
0.0215084 -0.518816 0 
0.0295925 -0.475799 0 
0.0217295 -0.497746 0 
0.0295925 -0.475799 0 
0.0278741 -0.497293 0 
0.0295925 -0.475799 0 
0.0215084 -0.518816 0 
0.0295925 -0.475799 0 
0.0203042 -0.399384 0 
0.0311757 -0.360133 0 
0.0214557 -0.258487 0 
0.0311757 -0.360133 0 
-2.23246e-10 -0.330378 0 
0.0106896 -0.352186 0 
0.0100145 -0.268923 0 
0.0106896 -0.352186 0 
0.0100145 -0.268923 0 
0.0106896 -0.352186 0 
0.0214557 -0.258487 0 
0.0106896 -0.352186 0 
0.0214557 -0.258487 0 
0.0106896 -0.352186 0 
0.0203042 -0.399384 0 
0.0106896 -0.352186 0 
-1.89276e-10 -0.391985 0 
0.0106896 -0.352186 0 
-2.23246e-10 -0.330378 0 
0.0106896 -0.352186 0 
5.59013e-11 -1.07844e-09 0 
0.0167716 -0.089091 0 
6.24635e-11 -1.05814e-09 0 
0.0167716 -0.089091 0 
4.21418e-11 -1.09232e-09 0 
0.0167716 -0.089091 0 
5.59013e-11 -1.07844e-09 0 
0.0167716 -0.089091 0 
0.026785 -0.172824 0 
0.0167716 -0.089091 0 
4.21419e-11 -1.09232e-09 0 
0.0167716 -0.089091 0 
6.24635e-11 -1.05814e-09 0 
0.0167716 -0.089091 0 
0.034206 -0.154393 0 
0.0167716 -0.089091 0 
-1.532e-10 -0.444566 0 
0.0110693 -0.42004 0 
-1.89276e-10 -0.391985 0 
0.0110693 -0.42004 0 
-1.89276e-10 -0.391985 0 
0.0110693 -0.42004 0 
0.0106896 -0.352186 0 
0.0110693 -0.42004 0 
0.0106896 -0.352186 0 
0.0110693 -0.42004 0 
0.0203042 -0.399384 0 
0.0110693 -0.42004 0 
0.0203042 -0.399384 0 
0.0110693 -0.42004 0 
0.0146785 -0.487903 0 
0.0110693 -0.42004 0 
0.0146785 -0.487903 0 
0.0110693 -0.42004 0 
-1.532e-10 -0.444566 0 
0.0110693 -0.42004 0 
0.0366507 -0.132356 0 
0.049514 -0.185649 0 
0.0355834 -0.125692 0 
0.049514 -0.185649 0 
0.034206 -0.154393 0 
0.040249 -0.233391 0 
0.0516793 -0.290426 0 
0.040249 -0.233391 0 
0.026785 -0.172824 0 
0.040249 -0.233391 0 
0.0167716 -0.089091 0 
0.040249 -0.233391 0 
0.0167716 -0.089091 0 
0.040249 -0.233391 0 
0.034206 -0.154393 0 
0.040249 -0.233391 0 
0.034206 -0.154393 0 
0.0481399 -0.207477 0 
0.0366507 -0.132356 0 
0.0481399 -0.207477 0 
0.0516793 -0.290426 0 
0.0481399 -0.207477 0 
0.034206 -0.154393 0 
0.0481399 -0.207477 0 
0.0585054 -0.253411 0 
0.0481399 -0.207477 0 
0.0516793 -0.290426 0 
0.0481399 -0.207477 0 
0.0366507 -0.132356 0 
0.0481399 -0.207477 0 
0.049514 -0.185649 0 
0.0481399 -0.207477 0 
0.049514 -0.185649 0 
0.0481399 -0.207477 0 
0.0585054 -0.253411 0 
0.0481399 -0.207477 0 
0.02887 -0.22738 0 
13.4826 15.7017 0 
5.15569 6.52345 0 
13.4826 15.7017 0 
5.15569 6.52345 0 
13.4826 15.7017 0 
25.0838 40.9115 0 
13.4826 15.7017 0 
66.5489 126.43 0 
13.4826 15.7017 0 
31.7882 35.0481 0 
13.4826 15.7017 0 
25.0838 40.9115 0 
13.4826 15.7017 0 
66.5489 126.43 0 
13.4826 15.7017 0 
0.049514 -0.185649 0 
0.0478422 -0.181641 0 
0.0355834 -0.125692 0 
0.0478422 -0.181641 0 
0.0355834 -0.125692 0 
0.0478422 -0.181641 0 
0.0412697 -0.169309 0 
0.0478422 -0.181641 0 
0.0412697 -0.169309 0 
0.0478422 -0.181641 0 
0.0554731 -0.226585 0 
0.0478422 -0.181641 0 
0.0497812 -0.253723 0 
0.0467328 -0.255491 0 
0.0400252 -0.239819 0 
0.0467328 -0.255491 0 
17.5137 0.54698 0 
1.2927 -0.487964 0 
33.227 -3.33755 0 
1.2927 -0.487964 0 
33.227 -3.33755 0 
1.2927 -0.487964 0 
6.31083 -0.594131 0 
1.2927 -0.487964 0 
0.0369659 -0.454941 0 
0.0374577 -0.4531 0 
0.0436428 -0.412446 0 
0.0374577 -0.4531 0 
0.0436428 -0.412446 0 
0.0374577 -0.4531 0 
1.2927 -0.487964 0 
0.0374577 -0.4531 0 
1.80179 -0.979129 0 
0.0374577 -0.4531 0 
0.0513229 -0.489557 0 
0.0374577 -0.4531 0 
0.0513229 -0.489557 0 
0.0374577 -0.4531 0 
0.0369659 -0.454941 0 
0.0374577 -0.4531 0 
1.2927 -0.487964 0 
0.0374577 -0.4531 0 
6.31083 -0.594131 0 
0.0374577 -0.4531 0 
6.31083 -0.594131 0 
0.0374577 -0.4531 0 
1.80179 -0.979129 0 
0.0374577 -0.4531 0 
115.831 52.9694 0 
80.4147 19.6972 0 
100.65 26.0007 0 
80.4147 19.6972 0 
17.5137 0.54698 0 
72.1056 -1.3943 0 
60.001 3.48405 0 
72.1056 -1.3943 0 
89.9811 3.9297 0 
72.1056 -1.3943 0 
82.9718 -4.88775 0 
72.1056 -1.3943 0 
33.227 -3.33755 0 
72.1056 -1.3943 0 
17.5137 0.54698 0 
72.1056 -1.3943 0 
51.0384 -10.3499 0 
67.9683 -7.41913 0 
33.227 -3.33755 0 
67.9683 -7.41913 0 
75.7183 -10.1704 0 
67.9683 -7.41913 0 
51.0384 -10.3499 0 
67.9683 -7.41913 0 
82.9718 -4.88775 0 
67.9683 -7.41913 0 
75.7183 -10.1704 0 
67.9683 -7.41913 0 
25.3098 -6.79751 0 
16.93 -6.22573 0 
47.6553 -14.2284 0 
16.93 -6.22573 0 
47.6553 -14.2284 0 
16.93 -6.22573 0 
34.3726 -15.6813 0 
16.93 -6.22573 0 
34.3726 -15.6813 0 
16.93 -6.22573 0 
6.8874 -2.7507 0 
16.93 -6.22573 0 
6.8874 -2.7507 0 
16.93 -6.22573 0 
0.878031 -0.761056 0 
16.93 -6.22573 0 
0.878031 -0.761056 0 
16.93 -6.22573 0 
1.80179 -0.979129 0 
16.93 -6.22573 0 
1.80179 -0.979129 0 
16.93 -6.22573 0 
25.3098 -6.79751 0 
16.93 -6.22573 0 
0.0295925 -0.475799 0 
0.026635 -0.445389 0 
0.0217295 -0.497746 0 
0.026635 -0.445389 0 
0.0203042 -0.399384 0 
0.026635 -0.445389 0 
0.0311757 -0.360133 0 
0.026635 -0.445389 0 
0.0217295 -0.497746 0 
0.026635 -0.445389 0 
0.0146785 -0.487903 0 
0.026635 -0.445389 0 
0.0146785 -0.487903 0 
0.026635 -0.445389 0 
0.0203042 -0.399384 0 
0.026635 -0.445389 0 
0.0311757 -0.360133 0 
0.026635 -0.445389 0 
0.0386971 -0.417408 0 
0.026635 -0.445389 0 
0.0386971 -0.417408 0 
0.026635 -0.445389 0 
0.0295925 -0.475799 0 
0.026635 -0.445389 0 
0.0278741 -0.497293 0 
0.0354038 -0.462219 0 
0.0295925 -0.475799 0 
0.0354038 -0.462219 0 
0.0295925 -0.475799 0 
0.0354038 -0.462219 0 
0.0386971 -0.417408 0 
0.0354038 -0.462219 0 
0.040249 -0.233391 0 
0.046515 -0.354089 0 
0.0516793 -0.290426 0 
0.046515 -0.354089 0 
0.0386971 -0.417408 0 
0.046515 -0.354089 0 
0.0311757 -0.360133 0 
0.046515 -0.354089 0 
0.0516793 -0.290426 0 
0.046515 -0.354089 0 
0.0500808 -0.394105 0 
0.046515 -0.354089 0 
0.0436428 -0.412446 0 
0.050639 -0.40612 0 
0.0369659 -0.454941 0 
0.050639 -0.40612 0 
0.0500808 -0.394105 0 
0.0593841 -0.329476 0 
0.0516793 -0.290426 0 
0.0593841 -0.329476 0 
0.0516793 -0.290426 0 
0.0593841 -0.329476 0 
0.0585054 -0.253411 0 
0.0593841 -0.329476 0 
0.026785 -0.172824 0 
0.0326638 -0.274599 0 
0.040249 -0.233391 0 
0.0326638 -0.274599 0 
0.040249 -0.233391 0 
0.0326638 -0.274599 0 
0.046515 -0.354089 0 
0.0326638 -0.274599 0 
0.046515 -0.354089 0 
0.0326638 -0.274599 0 
0.0311757 -0.360133 0 
0.0326638 -0.274599 0 
0.0311757 -0.360133 0 
0.0326638 -0.274599 0 
0.0214557 -0.258487 0 
0.0326638 -0.274599 0 
0.0214557 -0.258487 0 
0.0326638 -0.274599 0 
0.026785 -0.172824 0 
0.0326638 -0.274599 0 
0.0585054 -0.253411 0 
0.0581066 -0.235531 0 
0.049514 -0.185649 0 
0.0581066 -0.235531 0 
0.049514 -0.185649 0 
0.0581066 -0.235531 0 
0.0478422 -0.181641 0 
0.0581066 -0.235531 0 
0.0478422 -0.181641 0 
0.0581066 -0.235531 0 
0.0554731 -0.226585 0 
0.0581066 -0.235531 0 
0.0554731 -0.226585 0 
0.0581066 -0.235531 0 
0.0627218 -0.285278 0 
0.0581066 -0.235531 0 
0.0627218 -0.285278 0 
0.0581066 -0.235531 0 
0.0585054 -0.253411 0 
0.0581066 -0.235531 0 
0.02887 -0.22738 0 
0.189644 -0.0285835 0 
13.4826 15.7017 0 
0.189644 -0.0285835 0 
0.0400252 -0.239819 0 
0.189644 -0.0285835 0 
0.02887 -0.22738 0 
0.189644 -0.0285835 0 
13.4826 15.7017 0 
0.189644 -0.0285835 0 
31.7882 35.0481 0 
0.189644 -0.0285835 0 
31.7882 35.0481 0 
0.189644 -0.0285835 0 
0.172862 -0.168824 0 
0.189644 -0.0285835 0 
0.172862 -0.168824 0 
0.189644 -0.0285835 0 
0.0467328 -0.255491 0 
0.189644 -0.0285835 0 
0.0467328 -0.255491 0 
0.189644 -0.0285835 0 
0.0400252 -0.239819 0 
0.189644 -0.0285835 0 
0.0491732 -0.37182 0 
3.72345 0.804023 0 
0.139561 -0.305216 0 
3.72345 0.804023 0 
60.001 3.48405 0 
3.72345 0.804023 0 
17.5137 0.54698 0 
3.72345 0.804023 0 
17.5137 0.54698 0 
0.862423 -0.284673 0 
1.2927 -0.487964 0 
0.862423 -0.284673 0 
0.0436428 -0.412446 0 
0.862423 -0.284673 0 
0.0491732 -0.37182 0 
0.862423 -0.284673 0 
1.2927 -0.487964 0 
0.862423 -0.284673 0 
0.0436428 -0.412446 0 
0.862423 -0.284673 0 
0.0491732 -0.37182 0 
0.862423 -0.284673 0 
3.72345 0.804023 0 
0.862423 -0.284673 0 
3.72345 0.804023 0 
0.862423 -0.284673 0 
17.5137 0.54698 0 
0.862423 -0.284673 0 
0.0627218 -0.285278 0 
0.0605377 -0.28016 0 
0.0554731 -0.226585 0 
0.0605377 -0.28016 0 
0.0554731 -0.226585 0 
0.0605377 -0.28016 0 
0.0563119 -0.25311 0 
0.0605377 -0.28016 0 
0.0605377 -0.28016 0 
0.0581642 -0.324214 0 
0.0560587 -0.28814 0 
0.0581642 -0.324214 0 
0.139561 -0.305216 0 
0.0581642 -0.324214 0 
0.0491732 -0.37182 0 
0.0581642 -0.324214 0 
0.0497812 -0.253723 0 
0.0547173 -0.274142 0 
0.0467328 -0.255491 0 
0.0547173 -0.274142 0 
31.7882 35.0481 0 
47.8362 29.791 0 
138.631 184.224 0 
47.8362 29.791 0 
12.6229 5.47119 0 
47.8362 29.791 0 
0.172862 -0.168824 0 
47.8362 29.791 0 
0.172862 -0.168824 0 
47.8362 29.791 0 
31.7882 35.0481 0 
47.8362 29.791 0 
89.9811 3.9297 0 
90.4133 5.23077 0 
72.1056 -1.3943 0 
90.4133 5.23077 0 
72.1056 -1.3943 0 
90.4133 5.23077 0 
60.001 3.48405 0 
90.4133 5.23077 0 
94.6027 11.6624 0 
90.4133 5.23077 0 
89.9811 3.9297 0 
90.4133 5.23077 0 
82.9718 -4.88775 0 
75.9334 -5.03178 0 
67.9683 -7.41913 0 
75.9334 -5.03178 0 
72.1056 -1.3943 0 
75.9334 -5.03178 0 
82.9718 -4.88775 0 
75.9334 -5.03178 0 
67.9683 -7.41913 0 
75.9334 -5.03178 0 
33.227 -3.33755 0 
75.9334 -5.03178 0 
33.227 -3.33755 0 
75.9334 -5.03178 0 
72.1056 -1.3943 0 
75.9334 -5.03178 0 
0.0354038 -0.462219 0 
0.0430344 -0.423579 0 
0.0386971 -0.417408 0 
0.0430344 -0.423579 0 
0.0386971 -0.417408 0 
0.0430344 -0.423579 0 
0.046515 -0.354089 0 
0.0430344 -0.423579 0 
0.046515 -0.354089 0 
0.0430344 -0.423579 0 
0.0500808 -0.394105 0 
0.0430344 -0.423579 0 
0.0354038 -0.462219 0 
0.0358212 -0.468579 0 
0.0430344 -0.423579 0 
0.0358212 -0.468579 0 
0.0369659 -0.454941 0 
0.0358212 -0.468579 0 
0.0300308 -0.482903 0 
0.0358212 -0.468579 0 
0.0278741 -0.497293 0 
0.0358212 -0.468579 0 
0.0354038 -0.462219 0 
0.0358212 -0.468579 0 
0.0300308 -0.482903 0 
0.0358212 -0.468579 0 
0.0278741 -0.497293 0 
0.0358212 -0.468579 0 
0.0436428 -0.412446 0 
0.0549681 -0.375983 0 
0.050639 -0.40612 0 
0.0549681 -0.375983 0 
0.0491732 -0.37182 0 
0.0549681 -0.375983 0 
0.0436428 -0.412446 0 
0.0549681 -0.375983 0 
22.6229 6.40025 0 
30.7453 4.14437 0 
80.4147 19.6972 0 
30.7453 4.14437 0 
0.139561 -0.305216 0 
30.7453 4.14437 0 
22.6229 6.40025 0 
30.7453 4.14437 0 
3.72345 0.804023 0 
30.7453 4.14437 0 
0.139561 -0.305216 0 
30.7453 4.14437 0 
60.001 3.48405 0 
30.7453 4.14437 0 
3.72345 0.804023 0 
30.7453 4.14437 0 
0.172862 -0.168824 0 
0.103582 -0.240545 0 
12.6229 5.47119 0 
0.103582 -0.240545 0 
0.0547173 -0.274142 0 
0.103582 -0.240545 0 
0.0467328 -0.255491 0 
0.103582 -0.240545 0 
0.0467328 -0.255491 0 
0.103582 -0.240545 0 
0.172862 -0.168824 0 
0.103582 -0.240545 0 
0.0497812 -0.253723 0 
0.0551878 -0.265443 0 
0.0547173 -0.274142 0 
0.0551878 -0.265443 0 
0.0547173 -0.274142 0 
0.0551878 -0.265443 0 
0.0560587 -0.28814 0 
0.0551878 -0.265443 0 
0.0560587 -0.28814 0 
0.0551878 -0.265443 0 
0.0605377 -0.28016 0 
0.0551878 -0.265443 0 
0.0605377 -0.28016 0 
0.0551878 -0.265443 0 
0.0563119 -0.25311 0 
0.0551878 -0.265443 0 
0.0563119 -0.25311 0 
0.0551878 -0.265443 0 
0.0453278 -0.231854 0 
0.0551878 -0.265443 0 
0.0453278 -0.231854 0 
0.0551878 -0.265443 0 
0.0497812 -0.253723 0 
0.0551878 -0.265443 0 
47.8362 29.791 0 
128.736 76.8921 0 
138.631 184.224 0 
128.736 76.8921 0 
80.4147 19.6972 0 
68.09 31.2027 0 
22.6229 6.40025 0 
68.09 31.2027 0 
22.6229 6.40025 0 
68.09 31.2027 0 
12.6229 5.47119 0 
68.09 31.2027 0 
12.6229 5.47119 0 
68.09 31.2027 0 
47.8362 29.791 0 
68.09 31.2027 0 
47.8362 29.791 0 
68.09 31.2027 0 
128.736 76.8921 0 
68.09 31.2027 0 
128.736 76.8921 0 
68.09 31.2027 0 
115.831 52.9694 0 
68.09 31.2027 0 
115.831 52.9694 0 
68.09 31.2027 0 
80.4147 19.6972 0 
68.09 31.2027 0 
80.4147 19.6972 0 
91.945 9.68687 0 
100.65 26.0007 0 
91.945 9.68687 0 
94.6027 11.6624 0 
91.945 9.68687 0 
90.4133 5.23077 0 
91.945 9.68687 0 
100.65 26.0007 0 
91.945 9.68687 0 
94.6027 11.6624 0 
91.945 9.68687 0 
90.4133 5.23077 0 
91.945 9.68687 0 
60.001 3.48405 0 
91.945 9.68687 0 
60.001 3.48405 0 
91.945 9.68687 0 
30.7453 4.14437 0 
91.945 9.68687 0 
30.7453 4.14437 0 
91.945 9.68687 0 
80.4147 19.6972 0 
91.945 9.68687 0 
0.0500808 -0.394105 0 
0.0437281 -0.435288 0 
0.050639 -0.40612 0 
0.0437281 -0.435288 0 
0.0369659 -0.454941 0 
0.0437281 -0.435288 0 
0.0358212 -0.468579 0 
0.0437281 -0.435288 0 
0.050639 -0.40612 0 
0.0437281 -0.435288 0 
0.0369659 -0.454941 0 
0.0437281 -0.435288 0 
0.0358212 -0.468579 0 
0.0437281 -0.435288 0 
0.0430344 -0.423579 0 
0.0437281 -0.435288 0 
0.0430344 -0.423579 0 
0.0437281 -0.435288 0 
0.0500808 -0.394105 0 
0.0437281 -0.435288 0 
0.0491732 -0.37182 0 
0.0552599 -0.352799 0 
0.0549681 -0.375983 0 
0.0552599 -0.352799 0 
0.0581642 -0.324214 0 
0.0552599 -0.352799 0 
0.0491732 -0.37182 0 
0.0552599 -0.352799 0 
0.0549681 -0.375983 0 
0.0582967 -0.363748 0 
0.050639 -0.40612 0 
0.0582967 -0.363748 0 
0.0500808 -0.394105 0 
0.0582967 -0.363748 0 
0.0593841 -0.329476 0 
0.0582967 -0.363748 0 
0.050639 -0.40612 0 
0.0582967 -0.363748 0 
0.0500808 -0.394105 0 
0.0582967 -0.363748 0 
0.0547173 -0.274142 0 
0.0949674 -0.282469 0 
0.103582 -0.240545 0 
0.0949674 -0.282469 0 
0.0560587 -0.28814 0 
0.0949674 -0.282469 0 
0.0547173 -0.274142 0 
0.0949674 -0.282469 0 
0.103582 -0.240545 0 
0.0949674 -0.282469 0 
12.6229 5.47119 0 
0.0949674 -0.282469 0 
12.6229 5.47119 0 
0.0949674 -0.282469 0 
22.6229 6.40025 0 
0.0949674 -0.282469 0 
22.6229 6.40025 0 
0.0949674 -0.282469 0 
0.139561 -0.305216 0 
0.0949674 -0.282469 0 
0.0581642 -0.324214 0 
0.0616353 -0.319276 0 
0.0552599 -0.352799 0 
0.0616353 -0.319276 0 
0.0605377 -0.28016 0 
0.0616353 -0.319276 0 
0.0581642 -0.324214 0 
0.0616353 -0.319276 0 
0.0627218 -0.285278 0 
0.0616353 -0.319276 0 
0.0605377 -0.28016 0 
0.0616353 -0.319276 0 
0.0552599 -0.352799 0 
0.0616353 -0.319276 0 
0.0549681 -0.375983 0 
0.0616353 -0.319276 0 
0.0560587 -0.28814 0 
0.0564085 -0.308187 0 
0.0949674 -0.282469 0 
0.0564085 -0.308187 0 
0.0581642 -0.324214 0 
0.0564085 -0.308187 0 
0.0560587 -0.28814 0 
0.0564085 -0.308187 0 
0.0949674 -0.282469 0 
0.0564085 -0.308187 0 
0.139561 -0.305216 0 
0.0564085 -0.308187 0 
0.139561 -0.305216 0 
0.0564085 -0.308187 0 
0.0581642 -0.324214 0 
0.0564085 -0.308187 0 
0.0627218 -0.285278 0 
0.0620871 -0.32233 0 
0.0616353 -0.319276 0 
0.0620871 -0.32233 0 
0.0582967 -0.363748 0 
0.0620871 -0.32233 0 
0.0593841 -0.329476 0 
0.0620871 -0.32233 0 
0.0593841 -0.329476 0 
0.0620871 -0.32233 0 
0.0585054 -0.253411 0 
0.0620871 -0.32233 0 
0.0585054 -0.253411 0 
0.0620871 -0.32233 0 
0.0627218 -0.285278 0 
0.0620871 -0.32233 0 
0.0616353 -0.319276 0 
0.0620871 -0.32233 0 
0.0549681 -0.375983 0 
0.0620871 -0.32233 0 
0.0549681 -0.375983 0 
0.0620871 -0.32233 0 
0.0582967 -0.363748 0 
0.0620871 -0.32233 0 

