# vtk DataFile Version 3.0
Arquivo gerado por PZ
ASCII

DATASET UNSTRUCTURED_GRID
POINTS 744 float
0 0 0
-0.591721 -1.0083 0
-1.18344 0 0
-0.591721 -1.0083 0
0.57735 -1 0
-0.591721 -1.0083 0
0 0 0
-0.591721 -1.0083 0
-3.91743 -17.8868 0
-1.81242 -14.6334 0
0.292581 -17.8868 0
-1.81242 -14.6334 0
4.32224 -17.8868 0
6.38715 -15.434 0
8.45206 -17.8868 0
6.38715 -15.434 0
12.8868 -14.1828 0
10.5795 -12.5271 0
12.8868 -10.8714 0
10.5795 -12.5271 0
11.4073 -5 0
10.6676 -7.19534 0
9.92788 -5 0
10.6676 -7.19534 0
12.8868 -5 0
12.8868 -6.43009 0
11.4073 -5 0
12.8868 -6.43009 0
11.4073 -5 0
12.8868 -6.43009 0
10.6676 -7.19534 0
12.8868 -6.43009 0
10.6676 -7.19534 0
12.8868 -6.43009 0
12.8868 -7.86019 0
12.8868 -6.43009 0
-0.591721 -1.0083 0
-1.91522 -1.10722 0
-1.18344 0 0
-1.91522 -1.10722 0
-1.18344 0 0
-1.91522 -1.10722 0
-2.64699 0 0
-1.91522 -1.10722 0
0.57735 -1 0
-0.000117289 -2.00007 0
-0.591721 -1.0083 0
-0.000117289 -2.00007 0
1.1547 -2 0
-0.000117289 -2.00007 0
0.57735 -1 0
-0.000117289 -2.00007 0
-6.69529 0 0
-8.07936 -2.10558 0
-9.46343 0 0
-8.07936 -2.10558 0
-8.07936 -4.62532 0
-8.07936 -2.10558 0
-5.57612 -2.85464 0
-8.07936 -2.10558 0
-12.8868 -13.2697 0
-9.45493 -14.4239 0
-12.8868 -15.5782 0
-9.45493 -14.4239 0
-12.8868 -15.5782 0
-10.642 -17.8868 0
-12.8868 -17.8868 0
-10.642 -17.8868 0
-8.39729 -17.8868 0
-10.642 -17.8868 0
-9.45493 -14.4239 0
-10.642 -17.8868 0
-9.45493 -14.4239 0
-10.642 -17.8868 0
-12.8868 -15.5782 0
-10.642 -17.8868 0
-12.8868 -6.41634 0
-9.41354 -7.91563 0
-12.8868 -8.65256 0
-9.41354 -7.91563 0
-1.81242 -14.6334 0
-4.63599 -12.696 0
-1.81242 -10.7585 0
-4.63599 -12.696 0
7.7397 -12.5271 0
9.15961 -10.0511 0
10.5795 -12.5271 0
9.15961 -10.0511 0
8.45206 -17.8868 0
10.4015 -15.2107 0
10.6694 -17.8868 0
10.4015 -15.2107 0
12.8868 -14.1828 0
10.4015 -15.2107 0
10.5795 -12.5271 0
10.4015 -15.2107 0
6.38715 -15.434 0
10.4015 -15.2107 0
8.45206 -17.8868 0
10.4015 -15.2107 0
10.6694 -17.8868 0
10.4015 -15.2107 0
12.8868 -17.8868 0
10.4015 -15.2107 0
12.8868 -17.8868 0
10.4015 -15.2107 0
12.8868 -14.1828 0
10.4015 -15.2107 0
10.5795 -12.5271 0
10.4015 -15.2107 0
7.7397 -12.5271 0
10.4015 -15.2107 0
7.7397 -12.5271 0
10.4015 -15.2107 0
6.38715 -15.434 0
10.4015 -15.2107 0
6.59932 -8.78956 0
8.32661 -7.2094 0
9.15961 -10.0511 0
8.32661 -7.2094 0
9.15961 -10.0511 0
8.32661 -7.2094 0
10.6676 -7.19534 0
8.32661 -7.2094 0
10.6676 -7.19534 0
8.32661 -7.2094 0
9.92788 -5 0
8.32661 -7.2094 0
9.92788 -5 0
8.32661 -7.2094 0
7.55266 -5 0
8.32661 -7.2094 0
-1.91522 -1.10722 0
-3.55197 -1.39354 0
-2.64699 0 0
-3.55197 -1.39354 0
-2.64699 0 0
-3.55197 -1.39354 0
-4.45694 0 0
-3.55197 -1.39354 0
-0.000117289 -2.00007 0
-1.18066 -2.03194 0
-0.591721 -1.0083 0
-1.18066 -2.03194 0
-0.591721 -1.0083 0
-1.18066 -2.03194 0
-1.91522 -1.10722 0
-1.18066 -2.03194 0
1.1547 -2 0
0.57735 -3 0
-0.000117289 -2.00007 0
0.57735 -3 0
1.73205 -3 0
0.57735 -3 0
1.1547 -2 0
0.57735 -3 0
-4.45694 0 0
-5.57612 -1.20793 0
-6.69529 0 0
-5.57612 -1.20793 0
-6.69529 0 0
-5.57612 -1.20793 0
-8.07936 -2.10558 0
-5.57612 -1.20793 0
-8.07936 -2.10558 0
-5.57612 -1.20793 0
-5.57612 -2.85464 0
-5.57612 -1.20793 0
-5.57612 -2.85464 0
-5.57612 -1.20793 0
-3.55197 -1.39354 0
-5.57612 -1.20793 0
-3.55197 -1.39354 0
-5.57612 -1.20793 0
-4.45694 0 0
-5.57612 -1.20793 0
-12.8868 -4.18012 0
-10.566 -5.29823 0
-12.8868 -6.41634 0
-10.566 -5.29823 0
-12.8868 -6.41634 0
-10.566 -5.29823 0
-9.41354 -7.91563 0
-10.566 -5.29823 0
-9.41354 -7.91563 0
-10.566 -5.29823 0
-8.07936 -4.62532 0
-10.566 -5.29823 0
-12.8868 -4.18012 0
-10.4833 -2.17809 0
-10.566 -5.29823 0
-10.4833 -2.17809 0
-12.8868 -2.09006 0
-10.4833 -2.17809 0
-12.8868 -4.18012 0
-10.4833 -2.17809 0
-10.566 -5.29823 0
-10.4833 -2.17809 0
-8.07936 -4.62532 0
-10.4833 -2.17809 0
-8.07936 -4.62532 0
-10.4833 -2.17809 0
-8.07936 -2.10558 0
-10.4833 -2.17809 0
-8.07936 -2.10558 0
-10.4833 -2.17809 0
-9.46343 0 0
-10.4833 -2.17809 0
-12.8868 0 0
-10.4833 -2.17809 0
-12.8868 -2.09006 0
-10.4833 -2.17809 0
-9.46343 0 0
-10.4833 -2.17809 0
-12.8868 0 0
-10.4833 -2.17809 0
-7.58835 -10.9611 0
-10.5885 -12.1154 0
-9.41354 -7.91563 0
-10.5885 -12.1154 0
-12.8868 -10.9611 0
-10.5885 -12.1154 0
-12.8868 -13.2697 0
-10.5885 -12.1154 0
-12.8868 -13.2697 0
-10.5885 -12.1154 0
-9.45493 -14.4239 0
-10.5885 -12.1154 0
-9.41354 -7.91563 0
-10.5885 -12.1154 0
-12.8868 -8.65256 0
-10.5885 -12.1154 0
-12.8868 -8.65256 0
-10.5885 -12.1154 0
-12.8868 -10.9611 0
-10.5885 -12.1154 0
-8.07936 -4.62532 0
-7.07701 -6.94741 0
-9.41354 -7.91563 0
-7.07701 -6.94741 0
-7.58835 -10.9611 0
-7.07701 -6.94741 0
-4.79907 -8.04641 0
-7.07701 -6.94741 0
-9.41354 -7.91563 0
-7.07701 -6.94741 0
-7.58835 -10.9611 0
-7.07701 -6.94741 0
-1.81242 -10.7585 0
0.0946823 -12.696 0
-1.81242 -14.6334 0
0.0946823 -12.696 0
6.38715 -15.434 0
4.88357 -12.9663 0
7.7397 -12.5271 0
4.88357 -12.9663 0
-1.81242 -14.6334 0
0.342426 -15.5468 0
0.292581 -17.8868 0
0.342426 -15.5468 0
2.30741 -14.2754 0
0.342426 -15.5468 0
0.0946823 -12.696 0
0.342426 -15.5468 0
0.0946823 -12.696 0
0.342426 -15.5468 0
-1.81242 -14.6334 0
0.342426 -15.5468 0
-4.63599 -12.696 0
-7.07734 -13.471 0
-7.58835 -10.9611 0
-7.07734 -13.471 0
-9.45493 -14.4239 0
-7.07734 -13.471 0
-8.39729 -17.8868 0
-7.07734 -13.471 0
-7.58835 -10.9611 0
-7.07734 -13.471 0
-10.5885 -12.1154 0
-7.07734 -13.471 0
-10.5885 -12.1154 0
-7.07734 -13.471 0
-9.45493 -14.4239 0
-7.07734 -13.471 0
-4.63599 -12.696 0
-4.16793 -10.3519 0
-1.81242 -10.7585 0
-4.16793 -10.3519 0
-7.58835 -10.9611 0
-4.16793 -10.3519 0
-4.63599 -12.696 0
-4.16793 -10.3519 0
-4.79907 -8.04641 0
-4.16793 -10.3519 0
-7.58835 -10.9611 0
-4.16793 -10.3519 0
-1.81242 -10.7585 0
-4.16793 -10.3519 0
-2.46992 -8.48202 0
-4.16793 -10.3519 0
-2.46992 -8.48202 0
-4.16793 -10.3519 0
-4.79907 -8.04641 0
-4.16793 -10.3519 0
-4.63599 -12.696 0
-4.34706 -15.3011 0
-7.07734 -13.471 0
-4.34706 -15.3011 0
-7.07734 -13.471 0
-4.34706 -15.3011 0
-8.39729 -17.8868 0
-4.34706 -15.3011 0
-8.39729 -17.8868 0
-4.34706 -15.3011 0
-3.91743 -17.8868 0
-4.34706 -15.3011 0
-1.81242 -14.6334 0
-4.34706 -15.3011 0
-4.63599 -12.696 0
-4.34706 -15.3011 0
-3.91743 -17.8868 0
-4.34706 -15.3011 0
-1.81242 -14.6334 0
-4.34706 -15.3011 0
5.64598 -5 0
4.88069 -5.97094 0
4.11541 -5 0
4.88069 -5.97094 0
4.11541 -5 0
4.88069 -5.97094 0
3.50108 -6.44928 0
4.88069 -5.97094 0
3.50108 -6.44928 0
4.88069 -5.97094 0
4.88069 -7.20722 0
4.88069 -5.97094 0
7.7397 -12.5271 0
7.28714 -10.6224 0
9.15961 -10.0511 0
7.28714 -10.6224 0
9.15961 -10.0511 0
7.28714 -10.6224 0
6.59932 -8.78956 0
7.28714 -10.6224 0
12.8868 -10.8714 0
11.2393 -9.32323 0
12.8868 -7.86019 0
11.2393 -9.32323 0
10.6676 -7.19534 0
11.2393 -9.32323 0
9.15961 -10.0511 0
11.2393 -9.32323 0
12.8868 -7.86019 0
11.2393 -9.32323 0
10.6676 -7.19534 0
11.2393 -9.32323 0
9.15961 -10.0511 0
11.2393 -9.32323 0
10.5795 -12.5271 0
11.2393 -9.32323 0
10.5795 -12.5271 0
11.2393 -9.32323 0
12.8868 -10.8714 0
11.2393 -9.32323 0
4.88069 -5.97094 0
6.60374 -7.06026 0
4.88069 -7.20722 0
6.60374 -7.06026 0
8.32661 -7.2094 0
6.60374 -7.06026 0
7.55266 -5 0
6.60374 -7.06026 0
6.59932 -8.78956 0
6.60374 -7.06026 0
8.32661 -7.2094 0
6.60374 -7.06026 0
4.88069 -7.20722 0
6.60374 -7.06026 0
6.59932 -8.78956 0
6.60374 -7.06026 0
5.64598 -5 0
6.60374 -7.06026 0
4.88069 -5.97094 0
6.60374 -7.06026 0
7.55266 -5 0
6.60374 -7.06026 0
5.64598 -5 0
6.60374 -7.06026 0
-1.18066 -2.03194 0
-2.53991 -2.35756 0
-1.91522 -1.10722 0
-2.53991 -2.35756 0
-1.91522 -1.10722 0
-2.53991 -2.35756 0
-3.55197 -1.39354 0
-2.53991 -2.35756 0
0.101391 -4.60813 0
-0.564025 -2.99244 0
0.57735 -3 0
-0.564025 -2.99244 0
0.57735 -3 0
-0.564025 -2.99244 0
-0.000117289 -2.00007 0
-0.564025 -2.99244 0
-0.000117289 -2.00007 0
-0.564025 -2.99244 0
-1.18066 -2.03194 0
-0.564025 -2.99244 0
0.57735 -3 0
1.13233 -4.03876 0
0.101391 -4.60813 0
1.13233 -4.03876 0
1.73205 -3 0
1.13233 -4.03876 0
0.57735 -3 0
1.13233 -4.03876 0
2.3094 -4 0
1.13233 -4.03876 0
1.73205 -3 0
1.13233 -4.03876 0
-2.46992 -8.48202 0
0.1237 -8.96711 0
-1.81242 -10.7585 0
0.1237 -8.96711 0
-7.07701 -6.94741 0
-5.32701 -6.2304 0
-4.79907 -8.04641 0
-5.32701 -6.2304 0
-8.07936 -4.62532 0
-5.32701 -6.2304 0
-7.07701 -6.94741 0
-5.32701 -6.2304 0
-4.79907 -8.04641 0
-3.3926 -6.97086 0
-2.46992 -8.48202 0
-3.3926 -6.97086 0
-2.46992 -8.48202 0
-3.3926 -6.97086 0
-1.03411 -6.59704 0
-3.3926 -6.97086 0
-3.7214 -5.23108 0
-3.3926 -6.97086 0
-5.32701 -6.2304 0
-3.3926 -6.97086 0
-5.32701 -6.2304 0
-3.3926 -6.97086 0
-4.79907 -8.04641 0
-3.3926 -6.97086 0
-3.7214 -5.23108 0
-1.82512 -4.82685 0
-3.3926 -6.97086 0
-1.82512 -4.82685 0
-3.3926 -6.97086 0
-1.82512 -4.82685 0
-1.03411 -6.59704 0
-1.82512 -4.82685 0
-1.03411 -6.59704 0
-1.82512 -4.82685 0
0.099933 -5.92589 0
-1.82512 -4.82685 0
0.099933 -5.92589 0
-1.82512 -4.82685 0
0.101391 -4.60813 0
-1.82512 -4.82685 0
4.32224 -17.8868 0
4.30254 -15.0123 0
6.38715 -15.434 0
4.30254 -15.0123 0
6.38715 -15.434 0
4.30254 -15.0123 0
4.88357 -12.9663 0
4.30254 -15.0123 0
4.88357 -12.9663 0
4.30254 -15.0123 0
2.30741 -14.2754 0
4.30254 -15.0123 0
0.342426 -15.5468 0
2.30741 -17.8868 0
0.292581 -17.8868 0
2.30741 -17.8868 0
2.30741 -14.2754 0
2.30741 -17.8868 0
0.342426 -15.5468 0
2.30741 -17.8868 0
4.32224 -17.8868 0
2.30741 -17.8868 0
4.30254 -15.0123 0
2.30741 -17.8868 0
4.30254 -15.0123 0
2.30741 -17.8868 0
2.30741 -14.2754 0
2.30741 -17.8868 0
-2.53991 -2.35756 0
-3.91637 -3.47126 0
-3.55197 -1.39354 0
-3.91637 -3.47126 0
-3.55197 -1.39354 0
-3.91637 -3.47126 0
-5.57612 -2.85464 0
-3.91637 -3.47126 0
-0.564025 -2.99244 0
-1.66269 -3.01958 0
-1.18066 -2.03194 0
-1.66269 -3.01958 0
-1.18066 -2.03194 0
-1.66269 -3.01958 0
-2.53991 -2.35756 0
-1.66269 -3.01958 0
2.34788 -6.08326 0
1.75276 -4.98805 0
2.88675 -5 0
1.75276 -4.98805 0
1.24432 -6.57924 0
1.75276 -4.98805 0
2.34788 -6.08326 0
1.75276 -4.98805 0
2.3094 -4 0
1.75276 -4.98805 0
1.13233 -4.03876 0
1.75276 -4.98805 0
2.88675 -5 0
1.75276 -4.98805 0
2.3094 -4 0
1.75276 -4.98805 0
0.099933 -5.92589 0
1.75276 -4.98805 0
1.24432 -6.57924 0
1.75276 -4.98805 0
0.101391 -4.60813 0
1.75276 -4.98805 0
0.099933 -5.92589 0
1.75276 -4.98805 0
1.13233 -4.03876 0
1.75276 -4.98805 0
0.101391 -4.60813 0
1.75276 -4.98805 0
0.1237 -8.96711 0
0.0515479 -10.8311 0
-1.81242 -10.7585 0
0.0515479 -10.8311 0
-1.81242 -10.7585 0
0.0515479 -10.8311 0
0.0946823 -12.696 0
0.0515479 -10.8311 0
-2.46992 -8.48202 0
0.112273 -7.50486 0
0.1237 -8.96711 0
0.112273 -7.50486 0
-1.03411 -6.59704 0
0.112273 -7.50486 0
-2.46992 -8.48202 0
0.112273 -7.50486 0
1.24432 -6.57924 0
0.112273 -7.50486 0
0.099933 -5.92589 0
0.112273 -7.50486 0
0.099933 -5.92589 0
0.112273 -7.50486 0
-1.03411 -6.59704 0
0.112273 -7.50486 0
-5.32701 -6.2304 0
-5.27199 -4.52927 0
-3.7214 -5.23108 0
-5.27199 -4.52927 0
-8.07936 -4.62532 0
-5.27199 -4.52927 0
-5.32701 -6.2304 0
-5.27199 -4.52927 0
-5.57612 -2.85464 0
-5.27199 -4.52927 0
-8.07936 -4.62532 0
-5.27199 -4.52927 0
-3.7214 -5.23108 0
-5.27199 -4.52927 0
-3.91637 -3.47126 0
-5.27199 -4.52927 0
-3.91637 -3.47126 0
-5.27199 -4.52927 0
-5.57612 -2.85464 0
-5.27199 -4.52927 0
-1.82512 -4.82685 0
-0.933179 -4.08934 0
0.101391 -4.60813 0
-0.933179 -4.08934 0
0.101391 -4.60813 0
-0.933179 -4.08934 0
-0.564025 -2.99244 0
-0.933179 -4.08934 0
-0.564025 -2.99244 0
-0.933179 -4.08934 0
-1.66269 -3.01958 0
-0.933179 -4.08934 0
-1.66269 -3.01958 0
-0.933179 -4.08934 0
-1.82512 -4.82685 0
-0.933179 -4.08934 0
4.88069 -7.20722 0
3.38678 -8.2919 0
3.50108 -6.44928 0
3.38678 -8.2919 0
0.0946823 -12.696 0
2.81958 -12.094 0
2.30741 -14.2754 0
2.81958 -12.094 0
2.30741 -14.2754 0
2.81958 -12.094 0
4.88357 -12.9663 0
2.81958 -12.094 0
0.0515479 -10.8311 0
2.81958 -12.094 0
0.0946823 -12.696 0
2.81958 -12.094 0
7.28714 -10.6224 0
5.43311 -11.1255 0
6.59932 -8.78956 0
5.43311 -11.1255 0
3.81675 -10.0873 0
5.43311 -11.1255 0
2.81958 -12.094 0
5.43311 -11.1255 0
2.81958 -12.094 0
5.43311 -11.1255 0
4.88357 -12.9663 0
5.43311 -11.1255 0
7.7397 -12.5271 0
5.43311 -11.1255 0
7.28714 -10.6224 0
5.43311 -11.1255 0
4.88357 -12.9663 0
5.43311 -11.1255 0
7.7397 -12.5271 0
5.43311 -11.1255 0
2.88675 -5 0
3.19392 -5.72464 0
2.34788 -6.08326 0
3.19392 -5.72464 0
2.34788 -6.08326 0
3.19392 -5.72464 0
3.50108 -6.44928 0
3.19392 -5.72464 0
3.50108 -5 0
3.19392 -5.72464 0
2.88675 -5 0
3.19392 -5.72464 0
4.11541 -5 0
3.19392 -5.72464 0
3.50108 -5 0
3.19392 -5.72464 0
3.50108 -6.44928 0
3.19392 -5.72464 0
4.11541 -5 0
3.19392 -5.72464 0
-1.82512 -4.82685 0
-2.73329 -3.52601 0
-1.66269 -3.01958 0
-2.73329 -3.52601 0
-1.66269 -3.01958 0
-2.73329 -3.52601 0
-2.53991 -2.35756 0
-2.73329 -3.52601 0
-2.53991 -2.35756 0
-2.73329 -3.52601 0
-3.91637 -3.47126 0
-2.73329 -3.52601 0
-3.91637 -3.47126 0
-2.73329 -3.52601 0
-3.7214 -5.23108 0
-2.73329 -3.52601 0
-3.7214 -5.23108 0
-2.73329 -3.52601 0
-1.82512 -4.82685 0
-2.73329 -3.52601 0
0.1237 -8.96711 0
1.83688 -9.96681 0
0.0515479 -10.8311 0
1.83688 -9.96681 0
0.0515479 -10.8311 0
1.83688 -9.96681 0
2.81958 -12.094 0
1.83688 -9.96681 0
2.81958 -12.094 0
1.83688 -9.96681 0
3.81675 -10.0873 0
1.83688 -9.96681 0
3.81675 -10.0873 0
1.83688 -9.96681 0
3.38678 -8.2919 0
1.83688 -9.96681 0
0.1237 -8.96711 0
1.64476 -8.22405 0
1.83688 -9.96681 0
1.64476 -8.22405 0
1.83688 -9.96681 0
1.64476 -8.22405 0
3.38678 -8.2919 0
1.64476 -8.22405 0
1.24432 -6.57924 0
1.64476 -8.22405 0
0.112273 -7.50486 0
1.64476 -8.22405 0
0.112273 -7.50486 0
1.64476 -8.22405 0
0.1237 -8.96711 0
1.64476 -8.22405 0
1.64476 -8.22405 0
2.59077 -7.31767 0
3.38678 -8.2919 0
2.59077 -7.31767 0
1.24432 -6.57924 0
2.59077 -7.31767 0
1.64476 -8.22405 0
2.59077 -7.31767 0
2.34788 -6.08326 0
2.59077 -7.31767 0
1.24432 -6.57924 0
2.59077 -7.31767 0
3.38678 -8.2919 0
2.59077 -7.31767 0
3.50108 -6.44928 0
2.59077 -7.31767 0
3.50108 -6.44928 0
2.59077 -7.31767 0
2.34788 -6.08326 0
2.59077 -7.31767 0
3.38678 -8.2919 0
4.94226 -8.86857 0
3.81675 -10.0873 0
4.94226 -8.86857 0
4.88069 -7.20722 0
4.94226 -8.86857 0
3.38678 -8.2919 0
4.94226 -8.86857 0
6.59932 -8.78956 0
4.94226 -8.86857 0
4.88069 -7.20722 0
4.94226 -8.86857 0
3.81675 -10.0873 0
4.94226 -8.86857 0
5.43311 -11.1255 0
4.94226 -8.86857 0
5.43311 -11.1255 0
4.94226 -8.86857 0
6.59932 -8.78956 0
4.94226 -8.86857 0

CELLS 186 930
4 0 2 3 1
4 4 6 7 5
4 8 10 11 9
4 12 14 15 13
4 16 18 19 17
4 20 22 23 21
4 24 26 27 25
4 28 30 31 29
4 32 34 35 33
4 36 38 39 37
4 40 42 43 41
4 44 46 47 45
4 48 50 51 49
4 52 54 55 53
4 56 58 59 57
4 60 62 63 61
4 64 66 67 65
4 68 70 71 69
4 72 74 75 73
4 76 78 79 77
4 80 82 83 81
4 84 86 87 85
4 88 90 91 89
4 92 94 95 93
4 96 98 99 97
4 100 102 103 101
4 104 106 107 105
4 108 110 111 109
4 112 114 115 113
4 116 118 119 117
4 120 122 123 121
4 124 126 127 125
4 128 130 131 129
4 132 134 135 133
4 136 138 139 137
4 140 142 143 141
4 144 146 147 145
4 148 150 151 149
4 152 154 155 153
4 156 158 159 157
4 160 162 163 161
4 164 166 167 165
4 168 170 171 169
4 172 174 175 173
4 176 178 179 177
4 180 182 183 181
4 184 186 187 185
4 188 190 191 189
4 192 194 195 193
4 196 198 199 197
4 200 202 203 201
4 204 206 207 205
4 208 210 211 209
4 212 214 215 213
4 216 218 219 217
4 220 222 223 221
4 224 226 227 225
4 228 230 231 229
4 232 234 235 233
4 236 238 239 237
4 240 242 243 241
4 244 246 247 245
4 248 250 251 249
4 252 254 255 253
4 256 258 259 257
4 260 262 263 261
4 264 266 267 265
4 268 270 271 269
4 272 274 275 273
4 276 278 279 277
4 280 282 283 281
4 284 286 287 285
4 288 290 291 289
4 292 294 295 293
4 296 298 299 297
4 300 302 303 301
4 304 306 307 305
4 308 310 311 309
4 312 314 315 313
4 316 318 319 317
4 320 322 323 321
4 324 326 327 325
4 328 330 331 329
4 332 334 335 333
4 336 338 339 337
4 340 342 343 341
4 344 346 347 345
4 348 350 351 349
4 352 354 355 353
4 356 358 359 357
4 360 362 363 361
4 364 366 367 365
4 368 370 371 369
4 372 374 375 373
4 376 378 379 377
4 380 382 383 381
4 384 386 387 385
4 388 390 391 389
4 392 394 395 393
4 396 398 399 397
4 400 402 403 401
4 404 406 407 405
4 408 410 411 409
4 412 414 415 413
4 416 418 419 417
4 420 422 423 421
4 424 426 427 425
4 428 430 431 429
4 432 434 435 433
4 436 438 439 437
4 440 442 443 441
4 444 446 447 445
4 448 450 451 449
4 452 454 455 453
4 456 458 459 457
4 460 462 463 461
4 464 466 467 465
4 468 470 471 469
4 472 474 475 473
4 476 478 479 477
4 480 482 483 481
4 484 486 487 485
4 488 490 491 489
4 492 494 495 493
4 496 498 499 497
4 500 502 503 501
4 504 506 507 505
4 508 510 511 509
4 512 514 515 513
4 516 518 519 517
4 520 522 523 521
4 524 526 527 525
4 528 530 531 529
4 532 534 535 533
4 536 538 539 537
4 540 542 543 541
4 544 546 547 545
4 548 550 551 549
4 552 554 555 553
4 556 558 559 557
4 560 562 563 561
4 564 566 567 565
4 568 570 571 569
4 572 574 575 573
4 576 578 579 577
4 580 582 583 581
4 584 586 587 585
4 588 590 591 589
4 592 594 595 593
4 596 598 599 597
4 600 602 603 601
4 604 606 607 605
4 608 610 611 609
4 612 614 615 613
4 616 618 619 617
4 620 622 623 621
4 624 626 627 625
4 628 630 631 629
4 632 634 635 633
4 636 638 639 637
4 640 642 643 641
4 644 646 647 645
4 648 650 651 649
4 652 654 655 653
4 656 658 659 657
4 660 662 663 661
4 664 666 667 665
4 668 670 671 669
4 672 674 675 673
4 676 678 679 677
4 680 682 683 681
4 684 686 687 685
4 688 690 691 689
4 692 694 695 693
4 696 698 699 697
4 700 702 703 701
4 704 706 707 705
4 708 710 711 709
4 712 714 715 713
4 716 718 719 717
4 720 722 723 721
4 724 726 727 725
4 728 730 731 729
4 732 734 735 733
4 736 738 739 737
4 740 742 743 741

CELL_TYPES 186
9
9
9
9
9
9
9
9
9
9
9
9
9
9
9
9
9
9
9
9
9
9
9
9
9
9
9
9
9
9
9
9
9
9
9
9
9
9
9
9
9
9
9
9
9
9
9
9
9
9
9
9
9
9
9
9
9
9
9
9
9
9
9
9
9
9
9
9
9
9
9
9
9
9
9
9
9
9
9
9
9
9
9
9
9
9
9
9
9
9
9
9
9
9
9
9
9
9
9
9
9
9
9
9
9
9
9
9
9
9
9
9
9
9
9
9
9
9
9
9
9
9
9
9
9
9
9
9
9
9
9
9
9
9
9
9
9
9
9
9
9
9
9
9
9
9
9
9
9
9
9
9
9
9
9
9
9
9
9
9
9
9
9
9
9
9
9
9
9
9
9
9
9
9
9
9
9
9
9
9
9
9
9
9
9
9

POINT_DATA 744
SCALARS POrder float
LOOKUP_TABLE default
2 
2 
2 
2 
2 
2 
2 
2 
2 
2 
2 
2 
2 
2 
2 
2 
2 
2 
2 
2 
2 
2 
2 
2 
2 
2 
2 
2 
2 
2 
2 
2 
2 
2 
2 
2 
2 
2 
2 
2 
2 
2 
2 
2 
2 
2 
2 
2 
2 
2 
2 
2 
2 
2 
2 
2 
2 
2 
2 
2 
2 
2 
2 
2 
2 
2 
2 
2 
2 
2 
2 
2 
2 
2 
2 
2 
2 
2 
2 
2 
2 
2 
2 
2 
2 
2 
2 
2 
2 
2 
2 
2 
2 
2 
2 
2 
2 
2 
2 
2 
2 
2 
2 
2 
2 
2 
2 
2 
2 
2 
2 
2 
2 
2 
2 
2 
2 
2 
2 
2 
2 
2 
2 
2 
2 
2 
2 
2 
2 
2 
2 
2 
2 
2 
2 
2 
2 
2 
2 
2 
2 
2 
2 
2 
2 
2 
2 
2 
2 
2 
2 
2 
2 
2 
2 
2 
2 
2 
2 
2 
2 
2 
2 
2 
2 
2 
2 
2 
2 
2 
2 
2 
2 
2 
2 
2 
2 
2 
2 
2 
2 
2 
2 
2 
2 
2 
2 
2 
2 
2 
2 
2 
2 
2 
2 
2 
2 
2 
2 
2 
2 
2 
2 
2 
2 
2 
2 
2 
2 
2 
2 
2 
2 
2 
2 
2 
2 
2 
2 
2 
2 
2 
2 
2 
2 
2 
2 
2 
2 
2 
2 
2 
2 
2 
2 
2 
2 
2 
2 
2 
2 
2 
2 
2 
2 
2 
2 
2 
2 
2 
2 
2 
2 
2 
2 
2 
2 
2 
2 
2 
2 
2 
2 
2 
2 
2 
2 
2 
2 
2 
2 
2 
2 
2 
2 
2 
2 
2 
2 
2 
2 
2 
2 
2 
2 
2 
2 
2 
2 
2 
2 
2 
2 
2 
2 
2 
2 
2 
2 
2 
2 
2 
2 
2 
2 
2 
2 
2 
2 
2 
2 
2 
2 
2 
2 
2 
2 
2 
2 
2 
2 
2 
2 
2 
2 
2 
2 
2 
2 
2 
2 
2 
2 
2 
2 
2 
2 
2 
2 
2 
2 
2 
2 
2 
2 
2 
2 
2 
2 
2 
2 
2 
2 
2 
2 
2 
2 
2 
2 
2 
2 
2 
2 
2 
2 
2 
2 
2 
2 
2 
2 
2 
2 
2 
2 
2 
2 
2 
2 
2 
2 
2 
2 
2 
2 
2 
2 
2 
2 
2 
2 
2 
2 
2 
2 
2 
2 
2 
2 
2 
2 
2 
2 
2 
2 
2 
2 
2 
2 
2 
2 
2 
2 
2 
2 
2 
2 
2 
2 
2 
2 
2 
2 
2 
2 
2 
2 
2 
2 
2 
2 
2 
2 
2 
2 
2 
2 
2 
2 
2 
2 
2 
2 
2 
2 
2 
2 
2 
2 
2 
2 
2 
2 
2 
2 
2 
2 
2 
2 
2 
2 
2 
2 
2 
2 
2 
2 
2 
2 
2 
2 
2 
2 
2 
2 
2 
2 
2 
2 
2 
2 
2 
2 
2 
2 
2 
2 
2 
2 
2 
2 
2 
2 
2 
2 
2 
2 
2 
2 
2 
2 
2 
2 
2 
2 
2 
2 
2 
2 
2 
2 
2 
2 
2 
2 
2 
2 
2 
2 
2 
2 
2 
2 
2 
2 
2 
2 
2 
2 
2 
2 
2 
2 
2 
2 
2 
2 
2 
2 
2 
2 
2 
2 
2 
2 
2 
2 
2 
2 
2 
2 
2 
2 
2 
2 
2 
2 
2 
2 
2 
2 
2 
2 
2 
2 
2 
2 
2 
2 
2 
2 
2 
2 
2 
2 
2 
2 
2 
2 
2 
2 
2 
2 
2 
2 
2 
2 
2 
2 
2 
2 
2 
2 
2 
2 
2 
2 
2 
2 
2 
2 
2 
2 
2 
2 
2 
2 
2 
2 
2 
2 
2 
2 
2 
2 
2 
2 
2 
2 
2 
2 
2 
2 
2 
2 
2 
2 
2 
2 
2 
2 
2 
2 
2 
2 
2 
2 
2 
2 
2 
2 
2 
2 
2 
2 
2 
2 
2 
2 
2 
2 
2 
2 
2 
2 
2 
2 
2 
2 
2 
2 
2 
2 
2 
2 
2 
2 
2 
2 
2 
2 
2 
2 
2 
2 
2 
2 
2 
2 
2 
2 
2 
2 
2 
2 
2 
2 
2 
2 
2 
2 
2 
2 
2 
2 
2 
2 
2 
2 
2 
2 
2 
2 
2 
2 
2 
2 
2 
2 
2 
2 
2 
2 
2 
2 
2 
2 
2 
2 
2 
2 
2 
2 
2 
2 
2 
2 
2 
2 
2 
2 
2 
2 
2 
2 
2 
2 
2 
2 
2 
2 
2 
2 
2 

SCALARS Atrito float
LOOKUP_TABLE default
0.523599 
0.523599 
0.523599 
0.523599 
0.523599 
0.523599 
0.523599 
0.523599 
0.523599 
0.523599 
0.523599 
0.523599 
0.523599 
0.523599 
0.523599 
0.523599 
0.523599 
0.523599 
0.523599 
0.523599 
0.523599 
0.523599 
0.523599 
0.523599 
0.523599 
0.523599 
0.523599 
0.523599 
0.523599 
0.523599 
0.523599 
0.523599 
0.523599 
0.523599 
0.523599 
0.523599 
0.523599 
0.523599 
0.523599 
0.523599 
0.523599 
0.523599 
0.523599 
0.523599 
0.523599 
0.523599 
0.523599 
0.523599 
0.523599 
0.523599 
0.523599 
0.523599 
0.523599 
0.523599 
0.523599 
0.523599 
0.523599 
0.523599 
0.523599 
0.523599 
0.523599 
0.523599 
0.523599 
0.523599 
0.523599 
0.523599 
0.523599 
0.523599 
0.523599 
0.523599 
0.523599 
0.523599 
0.523599 
0.523599 
0.523599 
0.523599 
0.523599 
0.523599 
0.523599 
0.523599 
0.523599 
0.523599 
0.523599 
0.523599 
0.523599 
0.523599 
0.523599 
0.523599 
0.523599 
0.523599 
0.523599 
0.523599 
0.523599 
0.523599 
0.523599 
0.523599 
0.523599 
0.523599 
0.523599 
0.523599 
0.523599 
0.523599 
0.523599 
0.523599 
0.523599 
0.523599 
0.523599 
0.523599 
0.523599 
0.523599 
0.523599 
0.523599 
0.523599 
0.523599 
0.523599 
0.523599 
0.523599 
0.523599 
0.523599 
0.523599 
0.523599 
0.523599 
0.523599 
0.523599 
0.523599 
0.523599 
0.523599 
0.523599 
0.523599 
0.523599 
0.523599 
0.523599 
0.523599 
0.523599 
0.523599 
0.523599 
0.523599 
0.523599 
0.523599 
0.523599 
0.523599 
0.523599 
0.523599 
0.523599 
0.523599 
0.523599 
0.523599 
0.523599 
0.523599 
0.523599 
0.523599 
0.523599 
0.523599 
0.523599 
0.523599 
0.523599 
0.523599 
0.523599 
0.523599 
0.523599 
0.523599 
0.523599 
0.523599 
0.523599 
0.523599 
0.523599 
0.523599 
0.523599 
0.523599 
0.523599 
0.523599 
0.523599 
0.523599 
0.523599 
0.523599 
0.523599 
0.523599 
0.523599 
0.523599 
0.523599 
0.523599 
0.523599 
0.523599 
0.523599 
0.523599 
0.523599 
0.523599 
0.523599 
0.523599 
0.523599 
0.523599 
0.523599 
0.523599 
0.523599 
0.523599 
0.523599 
0.523599 
0.523599 
0.523599 
0.523599 
0.523599 
0.523599 
0.523599 
0.523599 
0.523599 
0.523599 
0.523599 
0.523599 
0.523599 
0.523599 
0.523599 
0.523599 
0.523599 
0.523599 
0.523599 
0.523599 
0.523599 
0.523599 
0.523599 
0.523599 
0.523599 
0.523599 
0.523599 
0.523599 
0.523599 
0.523599 
0.523599 
0.523599 
0.523599 
0.523599 
0.523599 
0.523599 
0.523599 
0.523599 
0.523599 
0.523599 
0.523599 
0.523599 
0.523599 
0.523599 
0.523599 
0.523599 
0.523599 
0.523599 
0.523599 
0.523599 
0.523599 
0.523599 
0.523599 
0.523599 
0.523599 
0.523599 
0.523599 
0.523599 
0.523599 
0.523599 
0.523599 
0.523599 
0.523599 
0.523599 
0.523599 
0.523599 
0.523599 
0.523599 
0.523599 
0.523599 
0.523599 
0.523599 
0.523599 
0.523599 
0.523599 
0.523599 
0.523599 
0.523599 
0.523599 
0.523599 
0.523599 
0.523599 
0.523599 
0.523599 
0.523599 
0.523599 
0.523599 
0.523599 
0.523599 
0.523599 
0.523599 
0.523599 
0.523599 
0.523599 
0.523599 
0.523599 
0.523599 
0.523599 
0.523599 
0.523599 
0.523599 
0.523599 
0.523599 
0.523599 
0.523599 
0.523599 
0.523599 
0.523599 
0.523599 
0.523599 
0.523599 
0.523599 
0.523599 
0.523599 
0.523599 
0.523599 
0.523599 
0.523599 
0.523599 
0.523599 
0.523599 
0.523599 
0.523599 
0.523599 
0.523599 
0.523599 
0.523599 
0.523599 
0.523599 
0.523599 
0.523599 
0.523599 
0.523599 
0.523599 
0.523599 
0.523599 
0.523599 
0.523599 
0.523599 
0.523599 
0.523599 
0.523599 
0.523599 
0.523599 
0.523599 
0.523599 
0.523599 
0.523599 
0.523599 
0.523599 
0.523599 
0.523599 
0.523599 
0.523599 
0.523599 
0.523599 
0.523599 
0.523599 
0.523599 
0.523599 
0.523599 
0.523599 
0.523599 
0.523599 
0.523599 
0.523599 
0.523599 
0.523599 
0.523599 
0.523599 
0.523599 
0.523599 
0.523599 
0.523599 
0.523599 
0.523599 
0.523599 
0.523599 
0.523599 
0.523599 
0.523599 
0.523599 
0.523599 
0.523599 
0.523599 
0.523599 
0.523599 
0.523599 
0.523599 
0.523599 
0.523599 
0.523599 
0.523599 
0.523599 
0.523599 
0.523599 
0.523599 
0.523599 
0.523599 
0.523599 
0.523599 
0.523599 
0.523599 
0.523599 
0.523599 
0.523599 
0.523599 
0.523599 
0.523599 
0.523599 
0.523599 
0.523599 
0.523599 
0.523599 
0.523599 
0.523599 
0.523599 
0.523599 
0.523599 
0.523599 
0.523599 
0.523599 
0.523599 
0.523599 
0.523599 
0.523599 
0.523599 
0.523599 
0.523599 
0.523599 
0.523599 
0.523599 
0.523599 
0.523599 
0.523599 
0.523599 
0.523599 
0.523599 
0.523599 
0.523599 
0.523599 
0.523599 
0.523599 
0.523599 
0.523599 
0.523599 
0.523599 
0.523599 
0.523599 
0.523599 
0.523599 
0.523599 
0.523599 
0.523599 
0.523599 
0.523599 
0.523599 
0.523599 
0.523599 
0.523599 
0.523599 
0.523599 
0.523599 
0.523599 
0.523599 
0.523599 
0.523599 
0.523599 
0.523599 
0.523599 
0.523599 
0.523599 
0.523599 
0.523599 
0.523599 
0.523599 
0.523599 
0.523599 
0.523599 
0.523599 
0.523599 
0.523599 
0.523599 
0.523599 
0.523599 
0.523599 
0.523599 
0.523599 
0.523599 
0.523599 
0.523599 
0.523599 
0.523599 
0.523599 
0.523599 
0.523599 
0.523599 
0.523599 
0.523599 
0.523599 
0.523599 
0.523599 
0.523599 
0.523599 
0.523599 
0.523599 
0.523599 
0.523599 
0.523599 
0.523599 
0.523599 
0.523599 
0.523599 
0.523599 
0.523599 
0.523599 
0.523599 
0.523599 
0.523599 
0.523599 
0.523599 
0.523599 
0.523599 
0.523599 
0.523599 
0.523599 
0.523599 
0.523599 
0.523599 
0.523599 
0.523599 
0.523599 
0.523599 
0.523599 
0.523599 
0.523599 
0.523599 
0.523599 
0.523599 
0.523599 
0.523599 
0.523599 
0.523599 
0.523599 
0.523599 
0.523599 
0.523599 
0.523599 
0.523599 
0.523599 
0.523599 
0.523599 
0.523599 
0.523599 
0.523599 
0.523599 
0.523599 
0.523599 
0.523599 
0.523599 
0.523599 
0.523599 
0.523599 
0.523599 
0.523599 
0.523599 
0.523599 
0.523599 
0.523599 
0.523599 
0.523599 
0.523599 
0.523599 
0.523599 
0.523599 
0.523599 
0.523599 
0.523599 
0.523599 
0.523599 
0.523599 
0.523599 
0.523599 
0.523599 
0.523599 
0.523599 
0.523599 
0.523599 
0.523599 
0.523599 
0.523599 
0.523599 
0.523599 
0.523599 
0.523599 
0.523599 
0.523599 
0.523599 
0.523599 
0.523599 
0.523599 
0.523599 
0.523599 
0.523599 
0.523599 
0.523599 
0.523599 
0.523599 
0.523599 
0.523599 
0.523599 
0.523599 
0.523599 
0.523599 
0.523599 
0.523599 
0.523599 
0.523599 
0.523599 
0.523599 
0.523599 
0.523599 
0.523599 
0.523599 
0.523599 
0.523599 
0.523599 
0.523599 
0.523599 
0.523599 
0.523599 
0.523599 
0.523599 
0.523599 
0.523599 
0.523599 
0.523599 
0.523599 
0.523599 
0.523599 
0.523599 
0.523599 
0.523599 
0.523599 
0.523599 
0.523599 
0.523599 
0.523599 
0.523599 
0.523599 
0.523599 
0.523599 
0.523599 
0.523599 
0.523599 
0.523599 
0.523599 
0.523599 
0.523599 
0.523599 
0.523599 
0.523599 
0.523599 
0.523599 
0.523599 
0.523599 
0.523599 
0.523599 
0.523599 
0.523599 
0.523599 
0.523599 
0.523599 
0.523599 
0.523599 
0.523599 
0.523599 
0.523599 
0.523599 
0.523599 
0.523599 
0.523599 
0.523599 
0.523599 
0.523599 
0.523599 
0.523599 
0.523599 
0.523599 
0.523599 
0.523599 
0.523599 
0.523599 
0.523599 
0.523599 
0.523599 
0.523599 
0.523599 
0.523599 
0.523599 
0.523599 
0.523599 
0.523599 
0.523599 
0.523599 
0.523599 
0.523599 
0.523599 
0.523599 
0.523599 
0.523599 
0.523599 
0.523599 
0.523599 
0.523599 
0.523599 
0.523599 
0.523599 
0.523599 
0.523599 
0.523599 
0.523599 
0.523599 
0.523599 
0.523599 
0.523599 
0.523599 
0.523599 
0.523599 
0.523599 
0.523599 
0.523599 
0.523599 
0.523599 
0.523599 
0.523599 
0.523599 
0.523599 
0.523599 
0.523599 
0.523599 
0.523599 
0.523599 
0.523599 
0.523599 
0.523599 
0.523599 
0.523599 

SCALARS Coesion float
LOOKUP_TABLE default
10 
10 
10 
10 
10 
10 
10 
10 
10 
10 
10 
10 
10 
10 
10 
10 
10 
10 
10 
10 
10 
10 
10 
10 
10 
10 
10 
10 
10 
10 
10 
10 
10 
10 
10 
10 
10 
10 
10 
10 
10 
10 
10 
10 
10 
10 
10 
10 
10 
10 
10 
10 
10 
10 
10 
10 
10 
10 
10 
10 
10 
10 
10 
10 
10 
10 
10 
10 
10 
10 
10 
10 
10 
10 
10 
10 
10 
10 
10 
10 
10 
10 
10 
10 
10 
10 
10 
10 
10 
10 
10 
10 
10 
10 
10 
10 
10 
10 
10 
10 
10 
10 
10 
10 
10 
10 
10 
10 
10 
10 
10 
10 
10 
10 
10 
10 
10 
10 
10 
10 
10 
10 
10 
10 
10 
10 
10 
10 
10 
10 
10 
10 
10 
10 
10 
10 
10 
10 
10 
10 
10 
10 
10 
10 
10 
10 
10 
10 
10 
10 
10 
10 
10 
10 
10 
10 
10 
10 
10 
10 
10 
10 
10 
10 
10 
10 
10 
10 
10 
10 
10 
10 
10 
10 
10 
10 
10 
10 
10 
10 
10 
10 
10 
10 
10 
10 
10 
10 
10 
10 
10 
10 
10 
10 
10 
10 
10 
10 
10 
10 
10 
10 
10 
10 
10 
10 
10 
10 
10 
10 
10 
10 
10 
10 
10 
10 
10 
10 
10 
10 
10 
10 
10 
10 
10 
10 
10 
10 
10 
10 
10 
10 
10 
10 
10 
10 
10 
10 
10 
10 
10 
10 
10 
10 
10 
10 
10 
10 
10 
10 
10 
10 
10 
10 
10 
10 
10 
10 
10 
10 
10 
10 
10 
10 
10 
10 
10 
10 
10 
10 
10 
10 
10 
10 
10 
10 
10 
10 
10 
10 
10 
10 
10 
10 
10 
10 
10 
10 
10 
10 
10 
10 
10 
10 
10 
10 
10 
10 
10 
10 
10 
10 
10 
10 
10 
10 
10 
10 
10 
10 
10 
10 
10 
10 
10 
10 
10 
10 
10 
10 
10 
10 
10 
10 
10 
10 
10 
10 
10 
10 
10 
10 
10 
10 
10 
10 
10 
10 
10 
10 
10 
10 
10 
10 
10 
10 
10 
10 
10 
10 
10 
10 
10 
10 
10 
10 
10 
10 
10 
10 
10 
10 
10 
10 
10 
10 
10 
10 
10 
10 
10 
10 
10 
10 
10 
10 
10 
10 
10 
10 
10 
10 
10 
10 
10 
10 
10 
10 
10 
10 
10 
10 
10 
10 
10 
10 
10 
10 
10 
10 
10 
10 
10 
10 
10 
10 
10 
10 
10 
10 
10 
10 
10 
10 
10 
10 
10 
10 
10 
10 
10 
10 
10 
10 
10 
10 
10 
10 
10 
10 
10 
10 
10 
10 
10 
10 
10 
10 
10 
10 
10 
10 
10 
10 
10 
10 
10 
10 
10 
10 
10 
10 
10 
10 
10 
10 
10 
10 
10 
10 
10 
10 
10 
10 
10 
10 
10 
10 
10 
10 
10 
10 
10 
10 
10 
10 
10 
10 
10 
10 
10 
10 
10 
10 
10 
10 
10 
10 
10 
10 
10 
10 
10 
10 
10 
10 
10 
10 
10 
10 
10 
10 
10 
10 
10 
10 
10 
10 
10 
10 
10 
10 
10 
10 
10 
10 
10 
10 
10 
10 
10 
10 
10 
10 
10 
10 
10 
10 
10 
10 
10 
10 
10 
10 
10 
10 
10 
10 
10 
10 
10 
10 
10 
10 
10 
10 
10 
10 
10 
10 
10 
10 
10 
10 
10 
10 
10 
10 
10 
10 
10 
10 
10 
10 
10 
10 
10 
10 
10 
10 
10 
10 
10 
10 
10 
10 
10 
10 
10 
10 
10 
10 
10 
10 
10 
10 
10 
10 
10 
10 
10 
10 
10 
10 
10 
10 
10 
10 
10 
10 
10 
10 
10 
10 
10 
10 
10 
10 
10 
10 
10 
10 
10 
10 
10 
10 
10 
10 
10 
10 
10 
10 
10 
10 
10 
10 
10 
10 
10 
10 
10 
10 
10 
10 
10 
10 
10 
10 
10 
10 
10 
10 
10 
10 
10 
10 
10 
10 
10 
10 
10 
10 
10 
10 
10 
10 
10 
10 
10 
10 
10 
10 
10 
10 
10 
10 
10 
10 
10 
10 
10 
10 
10 
10 
10 
10 
10 
10 
10 
10 
10 
10 
10 
10 
10 
10 
10 
10 
10 
10 
10 
10 
10 
10 
10 
10 
10 
10 
10 
10 
10 
10 
10 
10 
10 
10 
10 
10 
10 
10 
10 
10 
10 
10 
10 
10 
10 
10 
10 
10 
10 
10 
10 
10 
10 
10 
10 
10 
10 
10 
10 
10 
10 
10 
10 
10 
10 
10 
10 
10 
10 
10 
10 
10 

SCALARS StrainPlasticJ2 float
LOOKUP_TABLE default
0.00784606 
0.416484 
0.0180133 
0.416484 
0.00427329 
0.393769 
0.00475354 
0.393769 
0 
0 
0 
0 
0 
0 
0 
0 
0 
0 
0 
0 
0 
0 
0 
0 
0 
0 
0 
0 
0 
0 
0 
0 
0 
0 
0 
0 
4.64481 
0.414663 
1.73632 
0.414663 
2.94879 
0.641823 
0.292602 
0.641823 
0.00235474 
0.504908 
0.232557 
0.504908 
0.00337447 
0.470628 
0.00518504 
0.470628 
0 
0 
0 
0 
0 
0 
0 
0 
0 
0 
0 
0 
0 
0 
0 
0 
0 
0 
0 
0 
0 
0 
0 
0 
6.78226e-07 
5.24184e-08 
5.08575e-07 
5.24184e-08 
0 
0 
0 
0 
0 
0 
0 
0 
0 
0 
0 
0 
0 
0 
0 
0 
0 
0 
0 
0 
0 
0 
0 
0 
0 
0 
0 
0 
0 
0 
0 
0 
0 
0 
0 
0 
0 
0 
0 
0 
0 
0 
0 
0 
0 
0 
0 
0 
0 
0 
0 
0 
0.106987 
0.00132325 
0.056695 
0.00132325 
0.0758016 
0.000782294 
0.000792014 
0.000782294 
7.75814 
1.4669 
4.22527 
1.4669 
4.36758 
1.79052 
0.414091 
1.79052 
0.0084637 
3.52206 
0.53464 
3.52206 
0.0957726 
6.44084 
0.0901408 
6.44084 
0 
0 
0 
0 
0 
0 
0 
0 
0 
0 
0 
0 
0 
0 
0 
0 
0 
0 
0 
0 
7.07948e-07 
1.44521e-07 
7.24677e-07 
1.44521e-07 
6.95558e-07 
1.69377e-07 
4.52483e-08 
1.69377e-07 
4.26641e-09 
2.42623e-08 
2.22496e-09 
2.42623e-08 
7.27589e-07 
9.31397e-10 
1.05644e-07 
9.31397e-10 
3.38474e-07 
3.36365e-09 
7.78017e-07 
3.36365e-09 
2.01838e-08 
-5.43623e-11 
1.14751e-09 
-5.43623e-11 
0 
0 
0 
0 
0 
0 
0 
0 
6.27362e-08 
3.96792e-09 
3.37136e-07 
3.96792e-09 
3.92607e-09 
1.07961e-08 
2.8165e-09 
1.07961e-08 
2.33109e-10 
1.77346e-10 
6.69249e-08 
1.77346e-10 
1.57982e-07 
5.50874e-10 
2.8964e-09 
5.50874e-10 
4.82155e-12 
6.51989e-11 
4.82155e-12 
6.51989e-11 
4.8443e-08 
8.68086e-10 
5.20192e-07 
8.68086e-10 
6.46675e-07 
5.25094e-10 
1.59124e-07 
5.25094e-10 
3.79319e-11 
3.36154e-11 
4.99686e-10 
3.36154e-11 
0 
0 
0 
0 
7.53112e-10 
4.79395e-11 
3.1283e-11 
4.79395e-11 
0 
0 
0 
0 
0 
0 
0 
0 
0 
0 
0 
0 
0 
0 
0 
0 
0 
0 
0 
0 
0 
0 
0 
0 
0 
0 
0 
0 
1.85821e-15 
1.85821e-15 
2.51275e-14 
1.85821e-15 
0 
0 
0 
0 
0 
0 
0 
0 
0 
0 
0 
0 
0 
0 
0 
0 
0 
0 
0 
0 
0 
0 
0 
0 
0 
0 
0 
0 
0 
0 
0 
0 
0 
0 
0 
0 
0 
0 
0 
0 
0 
0 
0 
0 
0.00171973 
6.86863e-05 
0.0137392 
6.86863e-05 
0.0114953 
0.000155584 
2.83564e-05 
0.000155584 
2.73827e-06 
1.67267e-07 
1.26258e-07 
1.67267e-07 
0 
0 
0 
0 
0 
0 
0 
0 
0 
0 
0 
0 
0 
0 
0 
0 
0 
0 
0 
0 
0 
0 
0 
0 
0 
0 
0 
0 
1.09716e-07 
8.11364e-09 
8.11364e-09 
8.11364e-09 
0 
0 
0 
0 
0 
0 
0 
0 
0 
0 
0 
0 
1.3247e-06 
9.89823e-08 
3.68814e-08 
9.89823e-08 
3.03459e-09 
3.03459e-09 
4.10349e-08 
3.03459e-09 
0.360118 
0.000899554 
0.0250094 
0.000899554 
0.0995689 
0.00204213 
0.00121798 
0.00204213 
0.0371513 
1.12018 
10.6489 
1.12018 
9.69073 
1.1508 
7.1246 
1.1508 
7.69191 
1.96059 
1.46636 
1.96059 
13.5733 
10.6276 
0.15409 
10.6276 
0.114926 
12.9662 
8.60086 
12.9662 
22.7098 
9.48501 
0.342723 
9.48501 
0 
0 
0 
0 
0 
0 
0 
0 
0 
0 
0 
0 
0 
0 
0 
0 
0 
0 
0 
0 
0 
0 
0 
0 
0 
0 
0 
0 
0 
0 
0 
0 
0 
0 
0 
0 
2.42747e-09 
3.28252e-08 
2.42747e-09 
3.28252e-08 
2.72316e-08 
3.83503e-06 
0.000192001 
3.83503e-06 
0 
0 
0 
0 
0 
0 
0 
0 
0 
0 
0 
0 
0 
0 
0 
0 
0 
0 
0 
0 
0 
0 
0 
0 
0 
0 
0 
0 
0 
0 
0 
0 
0 
0 
0 
0 
0.531841 
0.0458066 
0.234772 
0.0458066 
0.287502 
0.0702811 
0.000515489 
0.0702811 
0.00270856 
0.0356133 
0.549855 
0.0356133 
3.41291e-05 
0.00346641 
0.000415593 
0.00346641 
62.1279 
2.39248 
11.2246 
2.39248 
49.1324 
2.15222 
75.6815 
2.15222 
4.40015e-05 
0.00332892 
5.79566e-05 
0.00332892 
8.04689e-05 
0.00315563 
4.00037e-05 
0.00315563 
10.5091 
2.4579 
0.0751081 
2.4579 
0 
0 
0 
0 
0 
0 
0 
0 
0 
0 
0 
0 
0 
0 
0 
0 
2.99481e-06 
5.01434e-08 
2.26656e-07 
5.01434e-08 
0 
0 
0 
0 
0 
0 
0 
0 
0 
0 
0 
0 
0 
0 
0 
0 
0 
0 
0 
0 
0 
0 
0 
0 
3.09389e-06 
7.66405e-05 
0.000143061 
7.66405e-05 
0.0158322 
0.00137137 
0.551963 
0.00137137 
0.648017 
0.00333004 
0.0293434 
0.00333004 
6.03138e-06 
0.000313599 
2.7696e-06 
0.000313599 
2.96473e-10 
2.96473e-10 
4.00903e-09 
2.96473e-10 
0 
0 
0 
0 
0 
0 
0 
0 
0 
0 
0 
0 
0 
0 
0 
0 
0 
0 
0 
0 
0 
0 
0 
0 
0 
0 
0 
0 
0 
0 
0 
0 
0.406509 
0.00828431 
0.00367047 
0.00828431 
0.000604849 
0.00249908 
1.07403e-05 
0.00249908 
0.665639 
0.0118974 
1.10161 
0.0118974 
0.290107 
0.0142541 
0.654813 
0.0142541 
3.75824e-05 
0.00580008 
0.0117709 
0.00580008 
1.66664e-06 
7.89416e-07 
5.12283e-05 
7.89416e-07 
0.000110851 
2.32394e-06 
1.82339e-06 
2.32394e-06 
0 
0 
0 
0 
0 
0 
0 
0 
0 
0 
0 
0 
0 
0 
0 
0 
0 
0 
0 
0 
0 
0 
0 
0 
0 
0 
0 
0 
0 
0 
0 
0 
0 
0 
0 
0 
1.499e-06 
2.1195e-08 
4.70157e-08 
2.1195e-08 
4.68771e-09 
3.46662e-10 
3.46662e-10 
3.46662e-10 
0 
0 
0 
0 
2.31386e-08 
1.71113e-09 
1.71113e-09 
1.71113e-09 
5.79228e-06 
3.55253e-07 
3.83735e-07 
3.55253e-07 
8.17304e-11 
8.17304e-11 
1.10519e-09 
8.17304e-11 
1.37927e-07 
6.09193e-08 
1.90304e-06 
6.09193e-08 
0 
0 
0 
0 
0 
0 
0 
0 
0 
0 
0 
0 
0 
0 
0 
0 
0 
0 
0 
0 

SCALARS FailureType float
LOOKUP_TABLE default
0.36144 
0.36144 
1.12634 
0.36144 
0.150778 
1.88588 
3.41568 
1.88588 
0 
0 
0 
0 
0 
0 
0 
0 
0 
0 
0 
0 
0 
0 
0 
0 
0 
0 
0 
0 
0 
0 
0 
0 
0 
0 
0 
0 
1.63856 
2.40346 
0.108759 
2.40346 
0.36144 
1.12634 
0.36144 
1.12634 
3 
0.5 
0.5 
0.5 
2.27712 
2.27712 
0.747319 
2.27712 
0 
0 
0 
0 
0 
0 
0 
0 
0 
0 
0 
0 
0 
0 
0 
0 
0 
0 
0 
0 
0 
0 
0 
0 
0 
0 
0 
0 
0 
0 
0 
0 
0 
0 
0 
0 
0 
0 
0 
0 
0 
0 
0 
0 
0 
0 
0 
0 
0 
0 
0 
0 
0 
0 
0 
0 
0 
0 
0 
0 
0 
0 
0 
0 
0 
0 
0 
0 
0 
0 
0 
0 
0 
0 
0 
0 
0 
0 
0 
0 
1 
1 
1 
1 
0.722881 
-1.01222 
-1.01222 
-1.01222 
1 
1 
1 
1 
2.27712 
0.747319 
2.27712 
0.747319 
1.63856 
2.40346 
0.108759 
2.40346 
-1.12634 
2.13856 
2.13856 
2.13856 
0 
0 
0 
0 
0 
0 
0 
0 
0 
0 
0 
0 
0 
0 
0 
0 
0 
0 
0 
0 
0 
0 
0 
0 
0 
0 
0 
0 
0 
0 
0 
0 
0 
0 
0 
0 
0 
0 
0 
0 
0 
0 
0 
0 
0 
0 
0 
0 
0 
0 
0 
0 
0 
0 
0 
0 
0 
0 
0 
0 
0 
0 
0 
0 
0.2649 
1.2351 
-0.5 
1.2351 
0.13856 
1.87366 
0.13856 
1.87366 
0.13856 
1.87366 
0.13856 
1.87366 
0 
0 
0 
0 
0 
0 
0 
0 
0 
0 
0 
0 
0 
0 
0 
0 
0 
0 
0 
0 
0 
0 
0 
0 
0 
0 
0 
0 
0 
0 
0 
0 
0 
0 
0 
0 
0 
0 
0 
0 
0 
0 
0 
0 
0.13856 
0.13856 
1.87366 
0.13856 
0 
0 
0 
0 
0 
0 
0 
0 
0 
0 
0 
0 
0 
0 
0 
0 
0 
0 
0 
0 
0 
0 
0 
0 
0 
0 
0 
0 
0 
0 
0 
0 
0 
0 
0 
0 
0 
0 
0 
0 
0 
0 
0 
0 
1.13856 
2.87366 
1.13856 
2.87366 
0.86144 
-0.873659 
0.86144 
-0.873659 
0.86144 
0.86144 
-0.873659 
0.86144 
0 
0 
0 
0 
0 
0 
0 
0 
0 
0 
0 
0 
0 
0 
0 
0 
0 
0 
0 
0 
0 
0 
0 
0 
0 
0 
0 
0 
1.87366 
0.13856 
0.13856 
0.13856 
0 
0 
0 
0 
0 
0 
0 
0 
0 
0 
0 
0 
0.59654 
-0.373659 
-0.373659 
-0.373659 
0.13856 
0.13856 
1.87366 
0.13856 
0.0843212 
0.849222 
-3.38588 
0.849222 
0.747319 
2.27712 
2.27712 
2.27712 
3.55424 
2.02444 
2.02444 
2.02444 
2.27712 
0.747319 
2.27712 
0.747319 
1 
1 
1 
1 
3.68058 
1.38588 
1.38588 
1.38588 
1.12634 
0.36144 
0.36144 
0.36144 
3.30156 
3.30156 
3.30156 
3.30156 
0 
0 
0 
0 
0 
0 
0 
0 
0 
0 
0 
0 
0 
0 
0 
0 
0 
0 
0 
0 
0 
0 
0 
0 
0 
0 
0 
0 
0 
0 
0 
0 
0 
0 
0 
0 
0.13856 
1.87366 
0.13856 
1.87366 
0.86144 
-0.873659 
0.86144 
-0.873659 
0 
0 
0 
0 
0 
0 
0 
0 
0 
0 
0 
0 
0 
0 
0 
0 
0 
0 
0 
0 
0 
0 
0 
0 
0 
0 
0 
0 
0 
0 
0 
0 
0 
0 
0 
0 
0.747319 
2.27712 
2.27712 
2.27712 
2.27712 
2.27712 
0.747319 
2.27712 
2.02444 
3.55424 
2.02444 
3.55424 
1 
1 
1 
1 
3.30156 
3.30156 
3.30156 
3.30156 
3.30156 
3.30156 
3.30156 
3.30156 
-0.373659 
0.59654 
-0.373659 
0.59654 
1 
1 
1 
1 
2.02444 
3.55424 
2.02444 
3.55424 
0 
0 
0 
0 
0 
0 
0 
0 
0 
0 
0 
0 
0 
0 
0 
0 
0.59654 
-0.373659 
-0.373659 
-0.373659 
0 
0 
0 
0 
0 
0 
0 
0 
0 
0 
0 
0 
0 
0 
0 
0 
0 
0 
0 
0 
0 
0 
0 
0 
1 
1 
1 
1 
2.12634 
-2.10876 
-0.16836 
-2.10876 
-1.4702 
0.470199 
2 
0.470199 
-0.873659 
0.86144 
0.86144 
0.86144 
0.13856 
0.13856 
1.87366 
0.13856 
0 
0 
0 
0 
0 
0 
0 
0 
0 
0 
0 
0 
0 
0 
0 
0 
0 
0 
0 
0 
0 
0 
0 
0 
0 
0 
0 
0 
0 
0 
0 
0 
1 
1 
1 
1 
1 
1 
1 
1 
1.63856 
0.108759 
2.40346 
0.108759 
1 
1 
1 
1 
1 
1 
1 
1 
-0.373659 
-0.373659 
0.59654 
-0.373659 
0.86144 
-0.873659 
0.86144 
-0.873659 
0 
0 
0 
0 
0 
0 
0 
0 
0 
0 
0 
0 
0 
0 
0 
0 
0 
0 
0 
0 
0 
0 
0 
0 
0 
0 
0 
0 
0 
0 
0 
0 
0 
0 
0 
0 
0.59654 
-0.373659 
-0.373659 
-0.373659 
1.87366 
0.13856 
0.13856 
0.13856 
0 
0 
0 
0 
1.87366 
0.13856 
0.13856 
0.13856 
0.7351 
-0.2351 
1.5 
-0.2351 
0.13856 
0.13856 
1.87366 
0.13856 
1 
1 
1 
1 
0 
0 
0 
0 
0 
0 
0 
0 
0 
0 
0 
0 
0 
0 
0 
0 
0 
0 
0 
0 

VECTORS Displacement float
2.73281 -1.89736 0 
3.05418 -1.90854 0 
2.70077 -1.66484 0 
3.05418 -1.90854 0 
3.34994 -1.4499 0 
3.05418 -1.90854 0 
2.73281 -1.89736 0 
3.05418 -1.90854 0 
1.87553e-11 -2.01219e-10 0 
0.00800453 -0.0218024 0 
2.39596e-11 -1.84036e-10 0 
0.00800453 -0.0218024 0 
2.23668e-11 -1.64113e-10 0 
0.00503743 -0.0123574 0 
1.38191e-11 -1.48851e-10 0 
0.00503743 -0.0123574 0 
6.07695e-11 -0.0153029 0 
0.00317186 -0.0199981 0 
5.66758e-11 -0.0226969 0 
0.00317186 -0.0199981 0 
0.00135256 -0.0255627 0 
0.00286446 -0.0260727 0 
0.00270811 -0.0261952 0 
0.00286446 -0.0260727 0 
2.00749e-11 -0.0253651 0 
3.11926e-11 -0.0256707 0 
0.00135256 -0.0255627 0 
3.11926e-11 -0.0256707 0 
0.00135256 -0.0255627 0 
3.11926e-11 -0.0256707 0 
0.00286446 -0.0260727 0 
3.11926e-11 -0.0256707 0 
0.00286446 -0.0260727 0 
3.11926e-11 -0.0256707 0 
4.12244e-11 -0.0254144 0 
3.11926e-11 -0.0256707 0 
3.05418 -1.90854 0 
0.370483 -0.247613 0 
2.70077 -1.66484 0 
0.370483 -0.247613 0 
2.70077 -1.66484 0 
0.370483 -0.247613 0 
0.326213 -0.239514 0 
0.370483 -0.247613 0 
3.34994 -1.4499 0 
4.03052 -1.72555 0 
3.05418 -1.90854 0 
4.03052 -1.72555 0 
4.5473 -0.708755 0 
4.03052 -1.72555 0 
3.34994 -1.4499 0 
4.03052 -1.72555 0 
0.00320746 -0.0802252 0 
0.00404545 -0.0795484 0 
0.00197393 -0.0819358 0 
0.00404545 -0.0795484 0 
0.00577038 -0.0745232 0 
0.00404545 -0.0795484 0 
0.00598771 -0.0766295 0 
0.00404545 -0.0795484 0 
-4.37135e-11 -0.0335252 0 
0.00299856 -0.0257853 0 
-5.90004e-11 -0.0175381 0 
0.00299856 -0.0257853 0 
-5.90004e-11 -0.0175381 0 
-3.13947e-12 -2.11142e-10 0 
-4.64704e-11 -2.11468e-10 0 
-3.13947e-12 -2.11142e-10 0 
8.66766e-12 -2.09831e-10 0 
-3.13947e-12 -2.11142e-10 0 
0.00299856 -0.0257853 0 
-3.13947e-12 -2.11142e-10 0 
0.00299856 -0.0257853 0 
-3.13947e-12 -2.11142e-10 0 
-5.90004e-11 -0.0175381 0 
-3.13947e-12 -2.11142e-10 0 
-1.6614e-11 -0.0699213 0 
0.00582061 -0.0634623 0 
-2.55917e-11 -0.060198 0 
0.00582061 -0.0634623 0 
0.00800453 -0.0218024 0 
0.00886277 -0.0356495 0 
0.012617 -0.0432555 0 
0.00886277 -0.0356495 0 
0.00693807 -0.0214957 0 
0.00563222 -0.025029 0 
0.00317186 -0.0199981 0 
0.00563222 -0.025029 0 
1.38191e-11 -1.48851e-10 0 
0.00219152 -0.0120573 0 
1.31495e-11 -1.44893e-10 0 
0.00219152 -0.0120573 0 
6.07695e-11 -0.0153029 0 
0.00219152 -0.0120573 0 
0.00317186 -0.0199981 0 
0.00219152 -0.0120573 0 
0.00503743 -0.0123574 0 
0.00219152 -0.0120573 0 
1.38191e-11 -1.48851e-10 0 
0.00219152 -0.0120573 0 
1.31495e-11 -1.44893e-10 0 
0.00219152 -0.0120573 0 
3.72662e-11 -1.4448e-10 0 
0.00219152 -0.0120573 0 
3.72662e-11 -1.4448e-10 0 
0.00219152 -0.0120573 0 
6.07695e-11 -0.0153029 0 
0.00219152 -0.0120573 0 
0.00317186 -0.0199981 0 
0.00219152 -0.0120573 0 
0.00693807 -0.0214957 0 
0.00219152 -0.0120573 0 
0.00693807 -0.0214957 0 
0.00219152 -0.0120573 0 
0.00503743 -0.0123574 0 
0.00219152 -0.0120573 0 
0.00931733 -0.029224 0 
0.00601422 -0.0277469 0 
0.00563222 -0.025029 0 
0.00601422 -0.0277469 0 
0.00563222 -0.025029 0 
0.00601422 -0.0277469 0 
0.00286446 -0.0260727 0 
0.00601422 -0.0277469 0 
0.00286446 -0.0260727 0 
0.00601422 -0.0277469 0 
0.00270811 -0.0261952 0 
0.00601422 -0.0277469 0 
0.00270811 -0.0261952 0 
0.00601422 -0.0277469 0 
0.00503419 -0.028374 0 
0.00601422 -0.0277469 0 
0.370483 -0.247613 0 
0.0058024 -0.0766475 0 
0.326213 -0.239514 0 
0.0058024 -0.0766475 0 
0.326213 -0.239514 0 
0.0058024 -0.0766475 0 
0.00403519 -0.0783686 0 
0.0058024 -0.0766475 0 
4.03052 -1.72555 0 
0.603783 -0.329782 0 
3.05418 -1.90854 0 
0.603783 -0.329782 0 
3.05418 -1.90854 0 
0.603783 -0.329782 0 
0.370483 -0.247613 0 
0.603783 -0.329782 0 
4.5473 -0.708755 0 
4.0292 -1.04662 0 
4.03052 -1.72555 0 
4.0292 -1.04662 0 
5.74729 -0.122089 0 
4.0292 -1.04662 0 
4.5473 -0.708755 0 
4.0292 -1.04662 0 
0.00403519 -0.0783686 0 
0.0046365 -0.0787214 0 
0.00320746 -0.0802252 0 
0.0046365 -0.0787214 0 
0.00320746 -0.0802252 0 
0.0046365 -0.0787214 0 
0.00404545 -0.0795484 0 
0.0046365 -0.0787214 0 
0.00404545 -0.0795484 0 
0.0046365 -0.0787214 0 
0.00598771 -0.0766295 0 
0.0046365 -0.0787214 0 
0.00598771 -0.0766295 0 
0.0046365 -0.0787214 0 
0.0058024 -0.0766475 0 
0.0046365 -0.0787214 0 
0.0058024 -0.0766475 0 
0.0046365 -0.0787214 0 
0.00403519 -0.0783686 0 
0.0046365 -0.0787214 0 
-7.13445e-12 -0.0772266 0 
0.00395248 -0.0736947 0 
-1.6614e-11 -0.0699213 0 
0.00395248 -0.0736947 0 
-1.6614e-11 -0.0699213 0 
0.00395248 -0.0736947 0 
0.00582061 -0.0634623 0 
0.00395248 -0.0736947 0 
0.00582061 -0.0634623 0 
0.00395248 -0.0736947 0 
0.00577038 -0.0745232 0 
0.00395248 -0.0736947 0 
-7.13445e-12 -0.0772266 0 
0.00264357 -0.0807378 0 
0.00395248 -0.0736947 0 
0.00264357 -0.0807378 0 
2.02836e-12 -0.0816513 0 
0.00264357 -0.0807378 0 
-7.13445e-12 -0.0772266 0 
0.00264357 -0.0807378 0 
0.00395248 -0.0736947 0 
0.00264357 -0.0807378 0 
0.00577038 -0.0745232 0 
0.00264357 -0.0807378 0 
0.00577038 -0.0745232 0 
0.00264357 -0.0807378 0 
0.00404545 -0.0795484 0 
0.00264357 -0.0807378 0 
0.00404545 -0.0795484 0 
0.00264357 -0.0807378 0 
0.00197393 -0.0819358 0 
0.00264357 -0.0807378 0 
9.49597e-12 -0.0835947 0 
0.00264357 -0.0807378 0 
2.02836e-12 -0.0816513 0 
0.00264357 -0.0807378 0 
0.00197393 -0.0819358 0 
0.00264357 -0.0807378 0 
9.49597e-12 -0.0835947 0 
0.00264357 -0.0807378 0 
0.00711105 -0.0474877 0 
0.00302969 -0.0410131 0 
0.00582061 -0.0634623 0 
0.00302969 -0.0410131 0 
-3.4568e-11 -0.0478248 0 
0.00302969 -0.0410131 0 
-4.37135e-11 -0.0335252 0 
0.00302969 -0.0410131 0 
-4.37135e-11 -0.0335252 0 
0.00302969 -0.0410131 0 
0.00299856 -0.0257853 0 
0.00302969 -0.0410131 0 
0.00582061 -0.0634623 0 
0.00302969 -0.0410131 0 
-2.55917e-11 -0.060198 0 
0.00302969 -0.0410131 0 
-2.55917e-11 -0.060198 0 
0.00302969 -0.0410131 0 
-3.4568e-11 -0.0478248 0 
0.00302969 -0.0410131 0 
0.00577038 -0.0745232 0 
0.00782352 -0.066403 0 
0.00582061 -0.0634623 0 
0.00782352 -0.066403 0 
0.00711105 -0.0474877 0 
0.00782352 -0.066403 0 
0.0103009 -0.0600567 0 
0.00782352 -0.066403 0 
0.00582061 -0.0634623 0 
0.00782352 -0.066403 0 
0.00711105 -0.0474877 0 
0.00782352 -0.066403 0 
0.012617 -0.0432555 0 
0.0116461 -0.030736 0 
0.00800453 -0.0218024 0 
0.0116461 -0.030736 0 
0.00503743 -0.0123574 0 
0.00961878 -0.0230117 0 
0.00693807 -0.0214957 0 
0.00961878 -0.0230117 0 
0.00800453 -0.0218024 0 
0.00662848 -0.0149598 0 
2.39596e-11 -1.84036e-10 0 
0.00662848 -0.0149598 0 
0.00907001 -0.020401 0 
0.00662848 -0.0149598 0 
0.0116461 -0.030736 0 
0.00662848 -0.0149598 0 
0.0116461 -0.030736 0 
0.00662848 -0.0149598 0 
0.00800453 -0.0218024 0 
0.00662848 -0.0149598 0 
0.00886277 -0.0356495 0 
0.00591246 -0.0318813 0 
0.00711105 -0.0474877 0 
0.00591246 -0.0318813 0 
0.00299856 -0.0257853 0 
0.00591246 -0.0318813 0 
8.66767e-12 -2.09831e-10 0 
0.00591246 -0.0318813 0 
0.00711105 -0.0474877 0 
0.00591246 -0.0318813 0 
0.00302969 -0.0410131 0 
0.00591246 -0.0318813 0 
0.00302969 -0.0410131 0 
0.00591246 -0.0318813 0 
0.00299856 -0.0257853 0 
0.00591246 -0.0318813 0 
0.00886277 -0.0356495 0 
0.0108594 -0.0484338 0 
0.012617 -0.0432555 0 
0.0108594 -0.0484338 0 
0.00711105 -0.0474877 0 
0.0108594 -0.0484338 0 
0.00886277 -0.0356495 0 
0.0108594 -0.0484338 0 
0.0103009 -0.0600567 0 
0.0108594 -0.0484338 0 
0.00711105 -0.0474877 0 
0.0108594 -0.0484338 0 
0.012617 -0.0432555 0 
0.0108594 -0.0484338 0 
0.0124911 -0.0548908 0 
0.0108594 -0.0484338 0 
0.0124911 -0.0548908 0 
0.0108594 -0.0484338 0 
0.0103009 -0.0600567 0 
0.0108594 -0.0484338 0 
0.00886277 -0.0356495 0 
0.00558919 -0.0186876 0 
0.00591246 -0.0318813 0 
0.00558919 -0.0186876 0 
0.00591246 -0.0318813 0 
0.00558919 -0.0186876 0 
8.66766e-12 -2.09831e-10 0 
0.00558919 -0.0186876 0 
8.66767e-12 -2.09831e-10 0 
0.00558919 -0.0186876 0 
1.87553e-11 -2.01219e-10 0 
0.00558919 -0.0186876 0 
0.00800453 -0.0218024 0 
0.00558919 -0.0186876 0 
0.00886277 -0.0356495 0 
0.00558919 -0.0186876 0 
1.87553e-11 -2.01219e-10 0 
0.00558919 -0.0186876 0 
0.00800453 -0.0218024 0 
0.00558919 -0.0186876 0 
0.00791185 -0.0305051 0 
0.0100895 -0.0334345 0 
0.067985 0.0554968 0 
0.0100895 -0.0334345 0 
0.067985 0.0554968 0 
0.0100895 -0.0334345 0 
0.0119533 -0.0399991 0 
0.0100895 -0.0334345 0 
0.0119533 -0.0399991 0 
0.0100895 -0.0334345 0 
0.0109673 -0.0338414 0 
0.0100895 -0.0334345 0 
0.00693807 -0.0214957 0 
0.00835654 -0.0259469 0 
0.00563222 -0.025029 0 
0.00835654 -0.0259469 0 
0.00563222 -0.025029 0 
0.00835654 -0.0259469 0 
0.00931733 -0.029224 0 
0.00835654 -0.0259469 0 
5.66758e-11 -0.0226969 0 
0.00244793 -0.024755 0 
4.12244e-11 -0.0254144 0 
0.00244793 -0.024755 0 
0.00286446 -0.0260727 0 
0.00244793 -0.024755 0 
0.00563222 -0.025029 0 
0.00244793 -0.024755 0 
4.12244e-11 -0.0254144 0 
0.00244793 -0.024755 0 
0.00286446 -0.0260727 0 
0.00244793 -0.024755 0 
0.00563222 -0.025029 0 
0.00244793 -0.024755 0 
0.00317186 -0.0199981 0 
0.00244793 -0.024755 0 
0.00317186 -0.0199981 0 
0.00244793 -0.024755 0 
5.66758e-11 -0.0226969 0 
0.00244793 -0.024755 0 
0.0100895 -0.0334345 0 
0.00831895 -0.0300333 0 
0.0109673 -0.0338414 0 
0.00831895 -0.0300333 0 
0.00601422 -0.0277469 0 
0.00831895 -0.0300333 0 
0.00503419 -0.028374 0 
0.00831895 -0.0300333 0 
0.00931733 -0.029224 0 
0.00831895 -0.0300333 0 
0.00601422 -0.0277469 0 
0.00831895 -0.0300333 0 
0.0109673 -0.0338414 0 
0.00831895 -0.0300333 0 
0.00931733 -0.029224 0 
0.00831895 -0.0300333 0 
0.00791185 -0.0305051 0 
0.00831895 -0.0300333 0 
0.0100895 -0.0334345 0 
0.00831895 -0.0300333 0 
0.00503419 -0.028374 0 
0.00831895 -0.0300333 0 
0.00791185 -0.0305051 0 
0.00831895 -0.0300333 0 
0.603783 -0.329782 0 
0.00676706 -0.0734887 0 
0.370483 -0.247613 0 
0.00676706 -0.0734887 0 
0.370483 -0.247613 0 
0.00676706 -0.0734887 0 
0.0058024 -0.0766475 0 
0.00676706 -0.0734887 0 
0.0257188 -0.0625218 0 
0.712468 -0.187222 0 
4.0292 -1.04662 0 
0.712468 -0.187222 0 
4.0292 -1.04662 0 
0.712468 -0.187222 0 
4.03052 -1.72555 0 
0.712468 -0.187222 0 
4.03052 -1.72555 0 
0.712468 -0.187222 0 
0.603783 -0.329782 0 
0.712468 -0.187222 0 
4.0292 -1.04662 0 
2.75913 0.220001 0 
0.0257188 -0.0625218 0 
2.75913 0.220001 0 
5.74729 -0.122089 0 
2.75913 0.220001 0 
4.0292 -1.04662 0 
2.75913 0.220001 0 
8.90804 1.85194 0 
2.75913 0.220001 0 
5.74729 -0.122089 0 
2.75913 0.220001 0 
0.0124911 -0.0548908 0 
0.0142401 -0.0469448 0 
0.012617 -0.0432555 0 
0.0142401 -0.0469448 0 
0.00782352 -0.066403 0 
0.00892818 -0.0676636 0 
0.0103009 -0.0600567 0 
0.00892818 -0.0676636 0 
0.00577038 -0.0745232 0 
0.00892818 -0.0676636 0 
0.00782352 -0.066403 0 
0.00892818 -0.0676636 0 
0.0103009 -0.0600567 0 
0.0110483 -0.0625743 0 
0.0124911 -0.0548908 0 
0.0110483 -0.0625743 0 
0.0124911 -0.0548908 0 
0.0110483 -0.0625743 0 
0.0124223 -0.0588803 0 
0.0110483 -0.0625743 0 
0.00927532 -0.0690383 0 
0.0110483 -0.0625743 0 
0.00892818 -0.0676636 0 
0.0110483 -0.0625743 0 
0.00892818 -0.0676636 0 
0.0110483 -0.0625743 0 
0.0103009 -0.0600567 0 
0.0110483 -0.0625743 0 
0.00927532 -0.0690383 0 
0.0100691 -0.0667379 0 
0.0110483 -0.0625743 0 
0.0100691 -0.0667379 0 
0.0110483 -0.0625743 0 
0.0100691 -0.0667379 0 
0.0124223 -0.0588803 0 
0.0100691 -0.0667379 0 
0.0124223 -0.0588803 0 
0.0100691 -0.0667379 0 
0.0120645 -0.0574391 0 
0.0100691 -0.0667379 0 
0.0120645 -0.0574391 0 
0.0100691 -0.0667379 0 
0.0257188 -0.0625218 0 
0.0100691 -0.0667379 0 
2.23668e-11 -1.64113e-10 0 
0.00697574 -0.0153401 0 
0.00503743 -0.0123574 0 
0.00697574 -0.0153401 0 
0.00503743 -0.0123574 0 
0.00697574 -0.0153401 0 
0.00961878 -0.0230117 0 
0.00697574 -0.0153401 0 
0.00961878 -0.0230117 0 
0.00697574 -0.0153401 0 
0.00907001 -0.020401 0 
0.00697574 -0.0153401 0 
0.00662848 -0.0149598 0 
2.41068e-11 -1.74169e-10 0 
2.39596e-11 -1.84036e-10 0 
2.41068e-11 -1.74169e-10 0 
0.00907001 -0.020401 0 
2.41068e-11 -1.74169e-10 0 
0.00662848 -0.0149598 0 
2.41068e-11 -1.74169e-10 0 
2.23668e-11 -1.64113e-10 0 
2.41068e-11 -1.74169e-10 0 
0.00697574 -0.0153401 0 
2.41068e-11 -1.74169e-10 0 
0.00697574 -0.0153401 0 
2.41068e-11 -1.74169e-10 0 
0.00907001 -0.020401 0 
2.41068e-11 -1.74169e-10 0 
0.00676706 -0.0734887 0 
0.0073353 -0.0737315 0 
0.0058024 -0.0766475 0 
0.0073353 -0.0737315 0 
0.0058024 -0.0766475 0 
0.0073353 -0.0737315 0 
0.00598771 -0.0766295 0 
0.0073353 -0.0737315 0 
0.712468 -0.187222 0 
0.0145837 -0.0736118 0 
0.603783 -0.329782 0 
0.0145837 -0.0736118 0 
0.603783 -0.329782 0 
0.0145837 -0.0736118 0 
0.00676706 -0.0734887 0 
0.0145837 -0.0736118 0 
0.0145294 -0.0469266 0 
0.0771484 -0.0325961 0 
0.432466 0.315805 0 
0.0771484 -0.0325961 0 
0.0141169 -0.050355 0 
0.0771484 -0.0325961 0 
0.0145294 -0.0469266 0 
0.0771484 -0.0325961 0 
8.90804 1.85194 0 
0.0771484 -0.0325961 0 
2.75913 0.220001 0 
0.0771484 -0.0325961 0 
0.432466 0.315805 0 
0.0771484 -0.0325961 0 
8.90804 1.85194 0 
0.0771484 -0.0325961 0 
0.0120645 -0.0574391 0 
0.0771484 -0.0325961 0 
0.0141169 -0.050355 0 
0.0771484 -0.0325961 0 
0.0257188 -0.0625218 0 
0.0771484 -0.0325961 0 
0.0120645 -0.0574391 0 
0.0771484 -0.0325961 0 
2.75913 0.220001 0 
0.0771484 -0.0325961 0 
0.0257188 -0.0625218 0 
0.0771484 -0.0325961 0 
0.0142401 -0.0469448 0 
0.0135005 -0.0395046 0 
0.012617 -0.0432555 0 
0.0135005 -0.0395046 0 
0.012617 -0.0432555 0 
0.0135005 -0.0395046 0 
0.0116461 -0.030736 0 
0.0135005 -0.0395046 0 
0.0124911 -0.0548908 0 
0.0136518 -0.0524503 0 
0.0142401 -0.0469448 0 
0.0136518 -0.0524503 0 
0.0124223 -0.0588803 0 
0.0136518 -0.0524503 0 
0.0124911 -0.0548908 0 
0.0136518 -0.0524503 0 
0.0141169 -0.050355 0 
0.0136518 -0.0524503 0 
0.0120645 -0.0574391 0 
0.0136518 -0.0524503 0 
0.0120645 -0.0574391 0 
0.0136518 -0.0524503 0 
0.0124223 -0.0588803 0 
0.0136518 -0.0524503 0 
0.00892818 -0.0676636 0 
0.00761109 -0.072764 0 
0.00927532 -0.0690383 0 
0.00761109 -0.072764 0 
0.00577038 -0.0745232 0 
0.00761109 -0.072764 0 
0.00892818 -0.0676636 0 
0.00761109 -0.072764 0 
0.00598771 -0.0766295 0 
0.00761109 -0.072764 0 
0.00577038 -0.0745232 0 
0.00761109 -0.072764 0 
0.00927532 -0.0690383 0 
0.00761109 -0.072764 0 
0.0073353 -0.0737315 0 
0.00761109 -0.072764 0 
0.0073353 -0.0737315 0 
0.00761109 -0.072764 0 
0.00598771 -0.0766295 0 
0.00761109 -0.072764 0 
0.0100691 -0.0667379 0 
0.0191903 -0.067191 0 
0.0257188 -0.0625218 0 
0.0191903 -0.067191 0 
0.0257188 -0.0625218 0 
0.0191903 -0.067191 0 
0.712468 -0.187222 0 
0.0191903 -0.067191 0 
0.712468 -0.187222 0 
0.0191903 -0.067191 0 
0.0145837 -0.0736118 0 
0.0191903 -0.067191 0 
0.0145837 -0.0736118 0 
0.0191903 -0.067191 0 
0.0100691 -0.0667379 0 
0.0191903 -0.067191 0 
0.0109673 -0.0338414 0 
0.0134856 -0.0380509 0 
0.0119533 -0.0399991 0 
0.0134856 -0.0380509 0 
0.0116461 -0.030736 0 
0.0120204 -0.0290569 0 
0.00907001 -0.020401 0 
0.0120204 -0.0290569 0 
0.00907001 -0.020401 0 
0.0120204 -0.0290569 0 
0.00961878 -0.0230117 0 
0.0120204 -0.0290569 0 
0.0135005 -0.0395046 0 
0.0120204 -0.0290569 0 
0.0116461 -0.030736 0 
0.0120204 -0.0290569 0 
0.00835654 -0.0259469 0 
0.0106209 -0.0275059 0 
0.00931733 -0.029224 0 
0.0106209 -0.0275059 0 
0.0128627 -0.0331114 0 
0.0106209 -0.0275059 0 
0.0120204 -0.0290569 0 
0.0106209 -0.0275059 0 
0.0120204 -0.0290569 0 
0.0106209 -0.0275059 0 
0.00961878 -0.0230117 0 
0.0106209 -0.0275059 0 
0.00693807 -0.0214957 0 
0.0106209 -0.0275059 0 
0.00835654 -0.0259469 0 
0.0106209 -0.0275059 0 
0.00961878 -0.0230117 0 
0.0106209 -0.0275059 0 
0.00693807 -0.0214957 0 
0.0106209 -0.0275059 0 
0.432466 0.315805 0 
0.0387872 -0.0255265 0 
0.0145294 -0.0469266 0 
0.0387872 -0.0255265 0 
0.0145294 -0.0469266 0 
0.0387872 -0.0255265 0 
0.0119533 -0.0399991 0 
0.0387872 -0.0255265 0 
0.265362 0.376559 0 
0.0387872 -0.0255265 0 
0.432466 0.315805 0 
0.0387872 -0.0255265 0 
0.067985 0.0554968 0 
0.0387872 -0.0255265 0 
0.265362 0.376559 0 
0.0387872 -0.0255265 0 
0.0119533 -0.0399991 0 
0.0387872 -0.0255265 0 
0.067985 0.0554968 0 
0.0387872 -0.0255265 0 
0.0100691 -0.0667379 0 
0.00783434 -0.0720054 0 
0.0145837 -0.0736118 0 
0.00783434 -0.0720054 0 
0.0145837 -0.0736118 0 
0.00783434 -0.0720054 0 
0.00676706 -0.0734887 0 
0.00783434 -0.0720054 0 
0.00676706 -0.0734887 0 
0.00783434 -0.0720054 0 
0.0073353 -0.0737315 0 
0.00783434 -0.0720054 0 
0.0073353 -0.0737315 0 
0.00783434 -0.0720054 0 
0.00927532 -0.0690383 0 
0.00783434 -0.0720054 0 
0.00927532 -0.0690383 0 
0.00783434 -0.0720054 0 
0.0100691 -0.0667379 0 
0.00783434 -0.0720054 0 
0.0142401 -0.0469448 0 
0.0140934 -0.0385802 0 
0.0135005 -0.0395046 0 
0.0140934 -0.0385802 0 
0.0135005 -0.0395046 0 
0.0140934 -0.0385802 0 
0.0120204 -0.0290569 0 
0.0140934 -0.0385802 0 
0.0120204 -0.0290569 0 
0.0140934 -0.0385802 0 
0.0128627 -0.0331114 0 
0.0140934 -0.0385802 0 
0.0128627 -0.0331114 0 
0.0140934 -0.0385802 0 
0.0134856 -0.0380509 0 
0.0140934 -0.0385802 0 
0.0142401 -0.0469448 0 
0.0144038 -0.044353 0 
0.0140934 -0.0385802 0 
0.0144038 -0.044353 0 
0.0140934 -0.0385802 0 
0.0144038 -0.044353 0 
0.0134856 -0.0380509 0 
0.0144038 -0.044353 0 
0.0141169 -0.050355 0 
0.0144038 -0.044353 0 
0.0136518 -0.0524503 0 
0.0144038 -0.044353 0 
0.0136518 -0.0524503 0 
0.0144038 -0.044353 0 
0.0142401 -0.0469448 0 
0.0144038 -0.044353 0 
0.0144038 -0.044353 0 
0.0135705 -0.0428277 0 
0.0134856 -0.0380509 0 
0.0135705 -0.0428277 0 
0.0141169 -0.050355 0 
0.0135705 -0.0428277 0 
0.0144038 -0.044353 0 
0.0135705 -0.0428277 0 
0.0145294 -0.0469266 0 
0.0135705 -0.0428277 0 
0.0141169 -0.050355 0 
0.0135705 -0.0428277 0 
0.0134856 -0.0380509 0 
0.0135705 -0.0428277 0 
0.0119533 -0.0399991 0 
0.0135705 -0.0428277 0 
0.0119533 -0.0399991 0 
0.0135705 -0.0428277 0 
0.0145294 -0.0469266 0 
0.0135705 -0.0428277 0 
0.0134856 -0.0380509 0 
0.0117535 -0.0325234 0 
0.0128627 -0.0331114 0 
0.0117535 -0.0325234 0 
0.0109673 -0.0338414 0 
0.0117535 -0.0325234 0 
0.0134856 -0.0380509 0 
0.0117535 -0.0325234 0 
0.00931733 -0.029224 0 
0.0117535 -0.0325234 0 
0.0109673 -0.0338414 0 
0.0117535 -0.0325234 0 
0.0128627 -0.0331114 0 
0.0117535 -0.0325234 0 
0.0106209 -0.0275059 0 
0.0117535 -0.0325234 0 
0.0106209 -0.0275059 0 
0.0117535 -0.0325234 0 
0.00931733 -0.029224 0 
0.0117535 -0.0325234 0 

