# vtk DataFile Version 3.0
Arquivo gerado por PZ
ASCII

DATASET UNSTRUCTURED_GRID
POINTS 1080 float
-3.91743 -17.8868 0
-1.81242 -14.6334 0
0.292581 -17.8868 0
-1.81242 -14.6334 0
4.32224 -17.8868 0
6.38715 -15.434 0
8.45206 -17.8868 0
6.38715 -15.434 0
12.8868 -14.1828 0
10.5795 -12.5271 0
12.8868 -10.8714 0
10.5795 -12.5271 0
11.4073 -5 0
10.6676 -7.19534 0
9.92788 -5 0
10.6676 -7.19534 0
12.8868 -5 0
12.8868 -6.43009 0
11.4073 -5 0
12.8868 -6.43009 0
11.4073 -5 0
12.8868 -6.43009 0
10.6676 -7.19534 0
12.8868 -6.43009 0
10.6676 -7.19534 0
12.8868 -6.43009 0
12.8868 -7.86019 0
12.8868 -6.43009 0
-6.69529 0 0
-8.07936 -2.10558 0
-9.46343 0 0
-8.07936 -2.10558 0
-8.07936 -4.62532 0
-8.07936 -2.10558 0
-5.57612 -2.85464 0
-8.07936 -2.10558 0
-12.8868 -13.2697 0
-9.45493 -14.4239 0
-12.8868 -15.5782 0
-9.45493 -14.4239 0
-12.8868 -15.5782 0
-10.642 -17.8868 0
-12.8868 -17.8868 0
-10.642 -17.8868 0
-8.39729 -17.8868 0
-10.642 -17.8868 0
-9.45493 -14.4239 0
-10.642 -17.8868 0
-9.45493 -14.4239 0
-10.642 -17.8868 0
-12.8868 -15.5782 0
-10.642 -17.8868 0
-12.8868 -6.41634 0
-9.41354 -7.91563 0
-12.8868 -8.65256 0
-9.41354 -7.91563 0
-1.81242 -14.6334 0
-4.63599 -12.696 0
-1.81242 -10.7585 0
-4.63599 -12.696 0
7.7397 -12.5271 0
9.15961 -10.0511 0
10.5795 -12.5271 0
9.15961 -10.0511 0
8.45206 -17.8868 0
10.4015 -15.2107 0
10.6694 -17.8868 0
10.4015 -15.2107 0
12.8868 -14.1828 0
10.4015 -15.2107 0
10.5795 -12.5271 0
10.4015 -15.2107 0
6.38715 -15.434 0
10.4015 -15.2107 0
8.45206 -17.8868 0
10.4015 -15.2107 0
10.6694 -17.8868 0
10.4015 -15.2107 0
12.8868 -17.8868 0
10.4015 -15.2107 0
12.8868 -17.8868 0
10.4015 -15.2107 0
12.8868 -14.1828 0
10.4015 -15.2107 0
10.5795 -12.5271 0
10.4015 -15.2107 0
7.7397 -12.5271 0
10.4015 -15.2107 0
7.7397 -12.5271 0
10.4015 -15.2107 0
6.38715 -15.434 0
10.4015 -15.2107 0
6.59932 -8.78956 0
8.32661 -7.2094 0
9.15961 -10.0511 0
8.32661 -7.2094 0
9.15961 -10.0511 0
8.32661 -7.2094 0
10.6676 -7.19534 0
8.32661 -7.2094 0
10.6676 -7.19534 0
8.32661 -7.2094 0
9.92788 -5 0
8.32661 -7.2094 0
9.92788 -5 0
8.32661 -7.2094 0
7.55266 -5 0
8.32661 -7.2094 0
-1.91522 -1.10722 0
-3.55197 -1.39354 0
-2.64699 0 0
-3.55197 -1.39354 0
-2.64699 0 0
-3.55197 -1.39354 0
-4.45694 0 0
-3.55197 -1.39354 0
-4.45694 0 0
-5.57612 -1.20793 0
-6.69529 0 0
-5.57612 -1.20793 0
-6.69529 0 0
-5.57612 -1.20793 0
-8.07936 -2.10558 0
-5.57612 -1.20793 0
-8.07936 -2.10558 0
-5.57612 -1.20793 0
-5.57612 -2.85464 0
-5.57612 -1.20793 0
-5.57612 -2.85464 0
-5.57612 -1.20793 0
-3.55197 -1.39354 0
-5.57612 -1.20793 0
-3.55197 -1.39354 0
-5.57612 -1.20793 0
-4.45694 0 0
-5.57612 -1.20793 0
-12.8868 -4.18012 0
-10.566 -5.29823 0
-12.8868 -6.41634 0
-10.566 -5.29823 0
-12.8868 -6.41634 0
-10.566 -5.29823 0
-9.41354 -7.91563 0
-10.566 -5.29823 0
-9.41354 -7.91563 0
-10.566 -5.29823 0
-8.07936 -4.62532 0
-10.566 -5.29823 0
-12.8868 -4.18012 0
-10.4833 -2.17809 0
-10.566 -5.29823 0
-10.4833 -2.17809 0
-12.8868 -2.09006 0
-10.4833 -2.17809 0
-12.8868 -4.18012 0
-10.4833 -2.17809 0
-10.566 -5.29823 0
-10.4833 -2.17809 0
-8.07936 -4.62532 0
-10.4833 -2.17809 0
-8.07936 -4.62532 0
-10.4833 -2.17809 0
-8.07936 -2.10558 0
-10.4833 -2.17809 0
-8.07936 -2.10558 0
-10.4833 -2.17809 0
-9.46343 0 0
-10.4833 -2.17809 0
-12.8868 0 0
-10.4833 -2.17809 0
-12.8868 -2.09006 0
-10.4833 -2.17809 0
-9.46343 0 0
-10.4833 -2.17809 0
-12.8868 0 0
-10.4833 -2.17809 0
-7.58835 -10.9611 0
-10.5885 -12.1154 0
-9.41354 -7.91563 0
-10.5885 -12.1154 0
-12.8868 -10.9611 0
-10.5885 -12.1154 0
-12.8868 -13.2697 0
-10.5885 -12.1154 0
-12.8868 -13.2697 0
-10.5885 -12.1154 0
-9.45493 -14.4239 0
-10.5885 -12.1154 0
-9.41354 -7.91563 0
-10.5885 -12.1154 0
-12.8868 -8.65256 0
-10.5885 -12.1154 0
-12.8868 -8.65256 0
-10.5885 -12.1154 0
-12.8868 -10.9611 0
-10.5885 -12.1154 0
-8.07936 -4.62532 0
-7.07701 -6.94741 0
-9.41354 -7.91563 0
-7.07701 -6.94741 0
-7.58835 -10.9611 0
-7.07701 -6.94741 0
-4.79907 -8.04641 0
-7.07701 -6.94741 0
-9.41354 -7.91563 0
-7.07701 -6.94741 0
-7.58835 -10.9611 0
-7.07701 -6.94741 0
-1.81242 -10.7585 0
0.0946823 -12.696 0
-1.81242 -14.6334 0
0.0946823 -12.696 0
6.38715 -15.434 0
4.88357 -12.9663 0
7.7397 -12.5271 0
4.88357 -12.9663 0
-1.81242 -14.6334 0
0.342426 -15.5468 0
0.292581 -17.8868 0
0.342426 -15.5468 0
2.30741 -14.2754 0
0.342426 -15.5468 0
0.0946823 -12.696 0
0.342426 -15.5468 0
0.0946823 -12.696 0
0.342426 -15.5468 0
-1.81242 -14.6334 0
0.342426 -15.5468 0
-4.63599 -12.696 0
-7.07734 -13.471 0
-7.58835 -10.9611 0
-7.07734 -13.471 0
-9.45493 -14.4239 0
-7.07734 -13.471 0
-8.39729 -17.8868 0
-7.07734 -13.471 0
-7.58835 -10.9611 0
-7.07734 -13.471 0
-10.5885 -12.1154 0
-7.07734 -13.471 0
-10.5885 -12.1154 0
-7.07734 -13.471 0
-9.45493 -14.4239 0
-7.07734 -13.471 0
-4.63599 -12.696 0
-4.16793 -10.3519 0
-1.81242 -10.7585 0
-4.16793 -10.3519 0
-7.58835 -10.9611 0
-4.16793 -10.3519 0
-4.63599 -12.696 0
-4.16793 -10.3519 0
-4.79907 -8.04641 0
-4.16793 -10.3519 0
-7.58835 -10.9611 0
-4.16793 -10.3519 0
-1.81242 -10.7585 0
-4.16793 -10.3519 0
-2.46992 -8.48202 0
-4.16793 -10.3519 0
-2.46992 -8.48202 0
-4.16793 -10.3519 0
-4.79907 -8.04641 0
-4.16793 -10.3519 0
-4.63599 -12.696 0
-4.34706 -15.3011 0
-7.07734 -13.471 0
-4.34706 -15.3011 0
-7.07734 -13.471 0
-4.34706 -15.3011 0
-8.39729 -17.8868 0
-4.34706 -15.3011 0
-8.39729 -17.8868 0
-4.34706 -15.3011 0
-3.91743 -17.8868 0
-4.34706 -15.3011 0
-1.81242 -14.6334 0
-4.34706 -15.3011 0
-4.63599 -12.696 0
-4.34706 -15.3011 0
-3.91743 -17.8868 0
-4.34706 -15.3011 0
-1.81242 -14.6334 0
-4.34706 -15.3011 0
5.64598 -5 0
4.88069 -5.97094 0
4.11541 -5 0
4.88069 -5.97094 0
4.11541 -5 0
4.88069 -5.97094 0
3.50108 -6.44928 0
4.88069 -5.97094 0
3.50108 -6.44928 0
4.88069 -5.97094 0
4.88069 -7.20722 0
4.88069 -5.97094 0
7.7397 -12.5271 0
7.28714 -10.6224 0
9.15961 -10.0511 0
7.28714 -10.6224 0
9.15961 -10.0511 0
7.28714 -10.6224 0
6.59932 -8.78956 0
7.28714 -10.6224 0
12.8868 -10.8714 0
11.2393 -9.32323 0
12.8868 -7.86019 0
11.2393 -9.32323 0
10.6676 -7.19534 0
11.2393 -9.32323 0
9.15961 -10.0511 0
11.2393 -9.32323 0
12.8868 -7.86019 0
11.2393 -9.32323 0
10.6676 -7.19534 0
11.2393 -9.32323 0
9.15961 -10.0511 0
11.2393 -9.32323 0
10.5795 -12.5271 0
11.2393 -9.32323 0
10.5795 -12.5271 0
11.2393 -9.32323 0
12.8868 -10.8714 0
11.2393 -9.32323 0
4.88069 -5.97094 0
6.60374 -7.06026 0
4.88069 -7.20722 0
6.60374 -7.06026 0
8.32661 -7.2094 0
6.60374 -7.06026 0
7.55266 -5 0
6.60374 -7.06026 0
6.59932 -8.78956 0
6.60374 -7.06026 0
8.32661 -7.2094 0
6.60374 -7.06026 0
4.88069 -7.20722 0
6.60374 -7.06026 0
6.59932 -8.78956 0
6.60374 -7.06026 0
5.64598 -5 0
6.60374 -7.06026 0
4.88069 -5.97094 0
6.60374 -7.06026 0
7.55266 -5 0
6.60374 -7.06026 0
5.64598 -5 0
6.60374 -7.06026 0
-1.91522 -1.10722 0
-2.53991 -2.35756 0
-3.55197 -1.39354 0
-2.53991 -2.35756 0
-2.46992 -8.48202 0
0.1237 -8.96711 0
-1.81242 -10.7585 0
0.1237 -8.96711 0
-7.07701 -6.94741 0
-5.32701 -6.2304 0
-4.79907 -8.04641 0
-5.32701 -6.2304 0
-8.07936 -4.62532 0
-5.32701 -6.2304 0
-7.07701 -6.94741 0
-5.32701 -6.2304 0
-4.79907 -8.04641 0
-3.3926 -6.97086 0
-2.46992 -8.48202 0
-3.3926 -6.97086 0
-2.46992 -8.48202 0
-3.3926 -6.97086 0
-1.03411 -6.59704 0
-3.3926 -6.97086 0
-3.7214 -5.23108 0
-3.3926 -6.97086 0
-5.32701 -6.2304 0
-3.3926 -6.97086 0
-5.32701 -6.2304 0
-3.3926 -6.97086 0
-4.79907 -8.04641 0
-3.3926 -6.97086 0
-3.7214 -5.23108 0
-1.82512 -4.82685 0
-3.3926 -6.97086 0
-1.82512 -4.82685 0
-3.3926 -6.97086 0
-1.82512 -4.82685 0
-1.03411 -6.59704 0
-1.82512 -4.82685 0
-1.03411 -6.59704 0
-1.82512 -4.82685 0
0.099933 -5.92589 0
-1.82512 -4.82685 0
0.099933 -5.92589 0
-1.82512 -4.82685 0
0.101391 -4.60813 0
-1.82512 -4.82685 0
4.32224 -17.8868 0
4.30254 -15.0123 0
6.38715 -15.434 0
4.30254 -15.0123 0
6.38715 -15.434 0
4.30254 -15.0123 0
4.88357 -12.9663 0
4.30254 -15.0123 0
4.88357 -12.9663 0
4.30254 -15.0123 0
2.30741 -14.2754 0
4.30254 -15.0123 0
0.342426 -15.5468 0
2.30741 -17.8868 0
0.292581 -17.8868 0
2.30741 -17.8868 0
2.30741 -14.2754 0
2.30741 -17.8868 0
0.342426 -15.5468 0
2.30741 -17.8868 0
4.32224 -17.8868 0
2.30741 -17.8868 0
4.30254 -15.0123 0
2.30741 -17.8868 0
4.30254 -15.0123 0
2.30741 -17.8868 0
2.30741 -14.2754 0
2.30741 -17.8868 0
-2.53991 -2.35756 0
-3.91637 -3.47126 0
-3.55197 -1.39354 0
-3.91637 -3.47126 0
-3.55197 -1.39354 0
-3.91637 -3.47126 0
-5.57612 -2.85464 0
-3.91637 -3.47126 0
1.24432 -6.57924 0
1.75276 -4.98805 0
2.34788 -6.08326 0
1.75276 -4.98805 0
0.099933 -5.92589 0
1.75276 -4.98805 0
1.24432 -6.57924 0
1.75276 -4.98805 0
0.101391 -4.60813 0
1.75276 -4.98805 0
0.099933 -5.92589 0
1.75276 -4.98805 0
0.1237 -8.96711 0
0.0515479 -10.8311 0
-1.81242 -10.7585 0
0.0515479 -10.8311 0
-1.81242 -10.7585 0
0.0515479 -10.8311 0
0.0946823 -12.696 0
0.0515479 -10.8311 0
-2.46992 -8.48202 0
0.112273 -7.50486 0
0.1237 -8.96711 0
0.112273 -7.50486 0
-1.03411 -6.59704 0
0.112273 -7.50486 0
-2.46992 -8.48202 0
0.112273 -7.50486 0
1.24432 -6.57924 0
0.112273 -7.50486 0
0.099933 -5.92589 0
0.112273 -7.50486 0
0.099933 -5.92589 0
0.112273 -7.50486 0
-1.03411 -6.59704 0
0.112273 -7.50486 0
-5.32701 -6.2304 0
-5.27199 -4.52927 0
-3.7214 -5.23108 0
-5.27199 -4.52927 0
-8.07936 -4.62532 0
-5.27199 -4.52927 0
-5.32701 -6.2304 0
-5.27199 -4.52927 0
-5.57612 -2.85464 0
-5.27199 -4.52927 0
-8.07936 -4.62532 0
-5.27199 -4.52927 0
-3.7214 -5.23108 0
-5.27199 -4.52927 0
-3.91637 -3.47126 0
-5.27199 -4.52927 0
-3.91637 -3.47126 0
-5.27199 -4.52927 0
-5.57612 -2.85464 0
-5.27199 -4.52927 0
-1.82512 -4.82685 0
-0.933179 -4.08934 0
0.101391 -4.60813 0
-0.933179 -4.08934 0
-1.66269 -3.01958 0
-0.933179 -4.08934 0
-1.82512 -4.82685 0
-0.933179 -4.08934 0
4.88069 -7.20722 0
3.38678 -8.2919 0
3.50108 -6.44928 0
3.38678 -8.2919 0
0.0946823 -12.696 0
2.81958 -12.094 0
2.30741 -14.2754 0
2.81958 -12.094 0
2.30741 -14.2754 0
2.81958 -12.094 0
4.88357 -12.9663 0
2.81958 -12.094 0
0.0515479 -10.8311 0
2.81958 -12.094 0
0.0946823 -12.696 0
2.81958 -12.094 0
7.28714 -10.6224 0
5.43311 -11.1255 0
6.59932 -8.78956 0
5.43311 -11.1255 0
3.81675 -10.0873 0
5.43311 -11.1255 0
2.81958 -12.094 0
5.43311 -11.1255 0
2.81958 -12.094 0
5.43311 -11.1255 0
4.88357 -12.9663 0
5.43311 -11.1255 0
7.7397 -12.5271 0
5.43311 -11.1255 0
7.28714 -10.6224 0
5.43311 -11.1255 0
4.88357 -12.9663 0
5.43311 -11.1255 0
7.7397 -12.5271 0
5.43311 -11.1255 0
2.34788 -6.08326 0
3.19392 -5.72464 0
3.50108 -6.44928 0
3.19392 -5.72464 0
3.50108 -6.44928 0
3.19392 -5.72464 0
4.11541 -5 0
3.19392 -5.72464 0
-1.82512 -4.82685 0
-2.73329 -3.52601 0
-1.66269 -3.01958 0
-2.73329 -3.52601 0
-1.66269 -3.01958 0
-2.73329 -3.52601 0
-2.53991 -2.35756 0
-2.73329 -3.52601 0
-2.53991 -2.35756 0
-2.73329 -3.52601 0
-3.91637 -3.47126 0
-2.73329 -3.52601 0
-3.91637 -3.47126 0
-2.73329 -3.52601 0
-3.7214 -5.23108 0
-2.73329 -3.52601 0
-3.7214 -5.23108 0
-2.73329 -3.52601 0
-1.82512 -4.82685 0
-2.73329 -3.52601 0
0.1237 -8.96711 0
1.83688 -9.96681 0
0.0515479 -10.8311 0
1.83688 -9.96681 0
0.0515479 -10.8311 0
1.83688 -9.96681 0
2.81958 -12.094 0
1.83688 -9.96681 0
2.81958 -12.094 0
1.83688 -9.96681 0
3.81675 -10.0873 0
1.83688 -9.96681 0
3.81675 -10.0873 0
1.83688 -9.96681 0
3.38678 -8.2919 0
1.83688 -9.96681 0
0.1237 -8.96711 0
1.64476 -8.22405 0
1.83688 -9.96681 0
1.64476 -8.22405 0
1.83688 -9.96681 0
1.64476 -8.22405 0
3.38678 -8.2919 0
1.64476 -8.22405 0
1.24432 -6.57924 0
1.64476 -8.22405 0
0.112273 -7.50486 0
1.64476 -8.22405 0
0.112273 -7.50486 0
1.64476 -8.22405 0
0.1237 -8.96711 0
1.64476 -8.22405 0
1.64476 -8.22405 0
2.59077 -7.31767 0
3.38678 -8.2919 0
2.59077 -7.31767 0
1.24432 -6.57924 0
2.59077 -7.31767 0
1.64476 -8.22405 0
2.59077 -7.31767 0
2.34788 -6.08326 0
2.59077 -7.31767 0
1.24432 -6.57924 0
2.59077 -7.31767 0
3.38678 -8.2919 0
2.59077 -7.31767 0
3.50108 -6.44928 0
2.59077 -7.31767 0
3.50108 -6.44928 0
2.59077 -7.31767 0
2.34788 -6.08326 0
2.59077 -7.31767 0
3.38678 -8.2919 0
4.94226 -8.86857 0
3.81675 -10.0873 0
4.94226 -8.86857 0
4.88069 -7.20722 0
4.94226 -8.86857 0
3.38678 -8.2919 0
4.94226 -8.86857 0
6.59932 -8.78956 0
4.94226 -8.86857 0
4.88069 -7.20722 0
4.94226 -8.86857 0
3.81675 -10.0873 0
4.94226 -8.86857 0
5.43311 -11.1255 0
4.94226 -8.86857 0
5.43311 -11.1255 0
4.94226 -8.86857 0
6.59932 -8.78956 0
4.94226 -8.86857 0
0 0 0
-0.295861 -0.504149 0
-0.591721 0 0
-0.295861 -0.504149 0
-0.591721 0 0
-0.887582 -0.504149 0
-1.18344 0 0
-0.887582 -0.504149 0
-0.295861 -0.504149 0
-0.591721 -1.0083 0
-0.887582 -0.504149 0
-0.591721 -1.0083 0
-0.887582 -0.504149 0
-0.591721 0 0
-0.295861 -0.504149 0
-0.591721 0 0
0.57735 -1 0
-0.00718542 -1.00415 0
0.288675 -0.5 0
-0.00718542 -1.00415 0
0.288675 -0.5 0
-0.295861 -0.504149 0
0 0 0
-0.295861 -0.504149 0
-0.00718542 -1.00415 0
-0.591721 -1.0083 0
-0.295861 -0.504149 0
-0.591721 -1.0083 0
-0.295861 -0.504149 0
0.288675 -0.5 0
-0.00718542 -1.00415 0
0.288675 -0.5 0
-0.591721 -1.0083 0
-1.25347 -1.05776 0
-0.887582 -0.504149 0
-1.25347 -1.05776 0
-0.887582 -0.504149 0
-1.54933 -0.553609 0
-1.18344 0 0
-1.54933 -0.553609 0
-1.25347 -1.05776 0
-1.91522 -1.10722 0
-1.54933 -0.553609 0
-1.91522 -1.10722 0
-1.54933 -0.553609 0
-0.887582 -0.504149 0
-1.25347 -1.05776 0
-0.887582 -0.504149 0
-1.18344 0 0
-1.54933 -0.553609 0
-1.91522 0 0
-1.54933 -0.553609 0
-1.91522 0 0
-2.2811 -0.553609 0
-2.64699 0 0
-2.2811 -0.553609 0
-1.54933 -0.553609 0
-1.91522 -1.10722 0
-2.2811 -0.553609 0
-1.91522 -1.10722 0
-2.2811 -0.553609 0
-1.91522 0 0
-1.54933 -0.553609 0
-1.91522 0 0
0.57735 -1 0
0.288616 -1.50003 0
-0.00718542 -1.00415 0
0.288616 -1.50003 0
-0.00718542 -1.00415 0
-0.295919 -1.50418 0
-0.591721 -1.0083 0
-0.295919 -1.50418 0
0.288616 -1.50003 0
-0.000117289 -2.00007 0
-0.295919 -1.50418 0
-0.000117289 -2.00007 0
-0.295919 -1.50418 0
-0.00718542 -1.00415 0
0.288616 -1.50003 0
-0.00718542 -1.00415 0
1.1547 -2 0
0.577292 -2.00003 0
0.866025 -1.5 0
0.577292 -2.00003 0
0.866025 -1.5 0
0.288616 -1.50003 0
0.57735 -1 0
0.288616 -1.50003 0
0.577292 -2.00003 0
-0.000117289 -2.00007 0
0.288616 -1.50003 0
-0.000117289 -2.00007 0
0.288616 -1.50003 0
0.866025 -1.5 0
0.577292 -2.00003 0
0.866025 -1.5 0
-0.000117289 -2.00007 0
-0.590387 -2.016 0
-0.295919 -1.50418 0
-0.590387 -2.016 0
-0.295919 -1.50418 0
-0.886189 -1.52012 0
-0.591721 -1.0083 0
-0.886189 -1.52012 0
-0.590387 -2.016 0
-1.18066 -2.03194 0
-0.886189 -1.52012 0
-1.18066 -2.03194 0
-0.886189 -1.52012 0
-0.295919 -1.50418 0
-0.590387 -2.016 0
-0.295919 -1.50418 0
-0.591721 -1.0083 0
-0.886189 -1.52012 0
-1.25347 -1.05776 0
-0.886189 -1.52012 0
-1.25347 -1.05776 0
-1.54794 -1.56958 0
-1.91522 -1.10722 0
-1.54794 -1.56958 0
-0.886189 -1.52012 0
-1.18066 -2.03194 0
-1.54794 -1.56958 0
-1.18066 -2.03194 0
-1.54794 -1.56958 0
-1.25347 -1.05776 0
-0.886189 -1.52012 0
-1.25347 -1.05776 0
1.1547 -2 0
0.866025 -2.5 0
0.577292 -2.00003 0
0.866025 -2.5 0
0.577292 -2.00003 0
0.288616 -2.50003 0
-0.000117289 -2.00007 0
0.288616 -2.50003 0
0.866025 -2.5 0
0.57735 -3 0
0.288616 -2.50003 0
0.57735 -3 0
0.288616 -2.50003 0
0.577292 -2.00003 0
0.866025 -2.5 0
0.577292 -2.00003 0
1.73205 -3 0
1.1547 -3 0
1.44338 -2.5 0
1.1547 -3 0
1.44338 -2.5 0
0.866025 -2.5 0
1.1547 -2 0
0.866025 -2.5 0
1.1547 -3 0
0.57735 -3 0
0.866025 -2.5 0
0.57735 -3 0
0.866025 -2.5 0
1.44338 -2.5 0
1.1547 -3 0
1.44338 -2.5 0
-1.18066 -2.03194 0
-1.86028 -2.19475 0
-1.54794 -1.56958 0
-1.86028 -2.19475 0
-1.54794 -1.56958 0
-2.22756 -1.73239 0
-1.91522 -1.10722 0
-2.22756 -1.73239 0
-1.86028 -2.19475 0
-2.53991 -2.35756 0
-2.22756 -1.73239 0
-2.53991 -2.35756 0
-2.22756 -1.73239 0
-1.54794 -1.56958 0
-1.86028 -2.19475 0
-1.54794 -1.56958 0
0.101391 -4.60813 0
-0.231317 -3.80028 0
0.339371 -3.80406 0
-0.231317 -3.80028 0
0.339371 -3.80406 0
0.00666239 -2.99622 0
0.57735 -3 0
0.00666239 -2.99622 0
-0.231317 -3.80028 0
-0.564025 -2.99244 0
0.00666239 -2.99622 0
-0.564025 -2.99244 0
0.00666239 -2.99622 0
0.339371 -3.80406 0
-0.231317 -3.80028 0
0.339371 -3.80406 0
0.57735 -3 0
0.00666239 -2.99622 0
0.288616 -2.50003 0
0.00666239 -2.99622 0
0.288616 -2.50003 0
-0.282071 -2.49625 0
-0.000117289 -2.00007 0
-0.282071 -2.49625 0
0.00666239 -2.99622 0
-0.564025 -2.99244 0
-0.282071 -2.49625 0
-0.564025 -2.99244 0
-0.282071 -2.49625 0
0.288616 -2.50003 0
0.00666239 -2.99622 0
0.288616 -2.50003 0
-0.000117289 -2.00007 0
-0.282071 -2.49625 0
-0.590387 -2.016 0
-0.282071 -2.49625 0
-0.590387 -2.016 0
-0.872341 -2.51219 0
-1.18066 -2.03194 0
-0.872341 -2.51219 0
-0.282071 -2.49625 0
-0.564025 -2.99244 0
-0.872341 -2.51219 0
-0.564025 -2.99244 0
-0.872341 -2.51219 0
-0.590387 -2.016 0
-0.282071 -2.49625 0
-0.590387 -2.016 0
0.57735 -3 0
0.854838 -3.51938 0
0.339371 -3.80406 0
0.854838 -3.51938 0
0.339371 -3.80406 0
0.616858 -4.32344 0
0.101391 -4.60813 0
0.616858 -4.32344 0
0.854838 -3.51938 0
1.13233 -4.03876 0
0.616858 -4.32344 0
1.13233 -4.03876 0
0.616858 -4.32344 0
0.339371 -3.80406 0
0.854838 -3.51938 0
0.339371 -3.80406 0
1.73205 -3 0
1.43219 -3.51938 0
1.1547 -3 0
1.43219 -3.51938 0
1.1547 -3 0
0.854838 -3.51938 0
0.57735 -3 0
0.854838 -3.51938 0
1.43219 -3.51938 0
1.13233 -4.03876 0
0.854838 -3.51938 0
1.13233 -4.03876 0
0.854838 -3.51938 0
1.1547 -3 0
1.43219 -3.51938 0
1.1547 -3 0
2.3094 -4 0
1.72086 -4.01938 0
2.02073 -3.5 0
1.72086 -4.01938 0
2.02073 -3.5 0
1.43219 -3.51938 0
1.73205 -3 0
1.43219 -3.51938 0
1.72086 -4.01938 0
1.13233 -4.03876 0
1.43219 -3.51938 0
1.13233 -4.03876 0
1.43219 -3.51938 0
2.02073 -3.5 0
1.72086 -4.01938 0
2.02073 -3.5 0
-0.564025 -2.99244 0
-1.11336 -3.00601 0
-0.872341 -2.51219 0
-1.11336 -3.00601 0
-0.872341 -2.51219 0
-1.42167 -2.52576 0
-1.18066 -2.03194 0
-1.42167 -2.52576 0
-1.11336 -3.00601 0
-1.66269 -3.01958 0
-1.42167 -2.52576 0
-1.66269 -3.01958 0
-1.42167 -2.52576 0
-0.872341 -2.51219 0
-1.11336 -3.00601 0
-0.872341 -2.51219 0
-1.18066 -2.03194 0
-1.42167 -2.52576 0
-1.86028 -2.19475 0
-1.42167 -2.52576 0
-1.86028 -2.19475 0
-2.1013 -2.68857 0
-2.53991 -2.35756 0
-2.1013 -2.68857 0
-1.42167 -2.52576 0
-1.66269 -3.01958 0
-2.1013 -2.68857 0
-1.66269 -3.01958 0
-2.1013 -2.68857 0
-1.86028 -2.19475 0
-1.42167 -2.52576 0
-1.86028 -2.19475 0
2.34788 -6.08326 0
2.05032 -5.53565 0
2.61732 -5.54163 0
2.05032 -5.53565 0
2.61732 -5.54163 0
2.31975 -4.99402 0
2.88675 -5 0
2.31975 -4.99402 0
2.05032 -5.53565 0
1.75276 -4.98805 0
2.31975 -4.99402 0
1.75276 -4.98805 0
2.31975 -4.99402 0
2.61732 -5.54163 0
2.05032 -5.53565 0
2.61732 -5.54163 0
2.3094 -4 0
2.03108 -4.49402 0
1.72086 -4.01938 0
2.03108 -4.49402 0
1.72086 -4.01938 0
1.44254 -4.5134 0
1.13233 -4.03876 0
1.44254 -4.5134 0
2.03108 -4.49402 0
1.75276 -4.98805 0
1.44254 -4.5134 0
1.75276 -4.98805 0
1.44254 -4.5134 0
1.72086 -4.01938 0
2.03108 -4.49402 0
1.72086 -4.01938 0
2.88675 -5 0
2.31975 -4.99402 0
2.59808 -4.5 0
2.31975 -4.99402 0
2.59808 -4.5 0
2.03108 -4.49402 0
2.3094 -4 0
2.03108 -4.49402 0
2.31975 -4.99402 0
1.75276 -4.98805 0
2.03108 -4.49402 0
1.75276 -4.98805 0
2.03108 -4.49402 0
2.59808 -4.5 0
2.31975 -4.99402 0
2.59808 -4.5 0
1.13233 -4.03876 0
1.44254 -4.5134 0
0.616858 -4.32344 0
1.44254 -4.5134 0
0.616858 -4.32344 0
0.927074 -4.79809 0
0.101391 -4.60813 0
0.927074 -4.79809 0
1.44254 -4.5134 0
1.75276 -4.98805 0
0.927074 -4.79809 0
1.75276 -4.98805 0
0.927074 -4.79809 0
0.616858 -4.32344 0
1.44254 -4.5134 0
0.616858 -4.32344 0
0.101391 -4.60813 0
-0.415894 -4.34874 0
-0.231317 -3.80028 0
-0.415894 -4.34874 0
-0.231317 -3.80028 0
-0.748602 -3.54089 0
-0.564025 -2.99244 0
-0.748602 -3.54089 0
-0.415894 -4.34874 0
-0.933179 -4.08934 0
-0.748602 -3.54089 0
-0.933179 -4.08934 0
-0.748602 -3.54089 0
-0.231317 -3.80028 0
-0.415894 -4.34874 0
-0.231317 -3.80028 0
-0.564025 -2.99244 0
-0.748602 -3.54089 0
-1.11336 -3.00601 0
-0.748602 -3.54089 0
-1.11336 -3.00601 0
-1.29793 -3.55446 0
-1.66269 -3.01958 0
-1.29793 -3.55446 0
-0.748602 -3.54089 0
-0.933179 -4.08934 0
-1.29793 -3.55446 0
-0.933179 -4.08934 0
-1.29793 -3.55446 0
-1.11336 -3.00601 0
-0.748602 -3.54089 0
-1.11336 -3.00601 0
2.88675 -5 0
3.04033 -5.36232 0
2.61732 -5.54163 0
3.04033 -5.36232 0
2.61732 -5.54163 0
2.7709 -5.90395 0
2.34788 -6.08326 0
2.7709 -5.90395 0
3.04033 -5.36232 0
3.19392 -5.72464 0
2.7709 -5.90395 0
3.19392 -5.72464 0
2.7709 -5.90395 0
2.61732 -5.54163 0
3.04033 -5.36232 0
2.61732 -5.54163 0
3.50108 -5 0
3.3475 -5.36232 0
3.19392 -5 0
3.3475 -5.36232 0
3.19392 -5 0
3.04033 -5.36232 0
2.88675 -5 0
3.04033 -5.36232 0
3.3475 -5.36232 0
3.19392 -5.72464 0
3.04033 -5.36232 0
3.19392 -5.72464 0
3.04033 -5.36232 0
3.19392 -5 0
3.3475 -5.36232 0
3.19392 -5 0
4.11541 -5 0
3.65466 -5.36232 0
3.80824 -5 0
3.65466 -5.36232 0
3.80824 -5 0
3.3475 -5.36232 0
3.50108 -5 0
3.3475 -5.36232 0
3.65466 -5.36232 0
3.19392 -5.72464 0
3.3475 -5.36232 0
3.19392 -5.72464 0
3.3475 -5.36232 0
3.80824 -5 0
3.65466 -5.36232 0
3.80824 -5 0

CELLS 270 1350
4 0 2 3 1
4 4 6 7 5
4 8 10 11 9
4 12 14 15 13
4 16 18 19 17
4 20 22 23 21
4 24 26 27 25
4 28 30 31 29
4 32 34 35 33
4 36 38 39 37
4 40 42 43 41
4 44 46 47 45
4 48 50 51 49
4 52 54 55 53
4 56 58 59 57
4 60 62 63 61
4 64 66 67 65
4 68 70 71 69
4 72 74 75 73
4 76 78 79 77
4 80 82 83 81
4 84 86 87 85
4 88 90 91 89
4 92 94 95 93
4 96 98 99 97
4 100 102 103 101
4 104 106 107 105
4 108 110 111 109
4 112 114 115 113
4 116 118 119 117
4 120 122 123 121
4 124 126 127 125
4 128 130 131 129
4 132 134 135 133
4 136 138 139 137
4 140 142 143 141
4 144 146 147 145
4 148 150 151 149
4 152 154 155 153
4 156 158 159 157
4 160 162 163 161
4 164 166 167 165
4 168 170 171 169
4 172 174 175 173
4 176 178 179 177
4 180 182 183 181
4 184 186 187 185
4 188 190 191 189
4 192 194 195 193
4 196 198 199 197
4 200 202 203 201
4 204 206 207 205
4 208 210 211 209
4 212 214 215 213
4 216 218 219 217
4 220 222 223 221
4 224 226 227 225
4 228 230 231 229
4 232 234 235 233
4 236 238 239 237
4 240 242 243 241
4 244 246 247 245
4 248 250 251 249
4 252 254 255 253
4 256 258 259 257
4 260 262 263 261
4 264 266 267 265
4 268 270 271 269
4 272 274 275 273
4 276 278 279 277
4 280 282 283 281
4 284 286 287 285
4 288 290 291 289
4 292 294 295 293
4 296 298 299 297
4 300 302 303 301
4 304 306 307 305
4 308 310 311 309
4 312 314 315 313
4 316 318 319 317
4 320 322 323 321
4 324 326 327 325
4 328 330 331 329
4 332 334 335 333
4 336 338 339 337
4 340 342 343 341
4 344 346 347 345
4 348 350 351 349
4 352 354 355 353
4 356 358 359 357
4 360 362 363 361
4 364 366 367 365
4 368 370 371 369
4 372 374 375 373
4 376 378 379 377
4 380 382 383 381
4 384 386 387 385
4 388 390 391 389
4 392 394 395 393
4 396 398 399 397
4 400 402 403 401
4 404 406 407 405
4 408 410 411 409
4 412 414 415 413
4 416 418 419 417
4 420 422 423 421
4 424 426 427 425
4 428 430 431 429
4 432 434 435 433
4 436 438 439 437
4 440 442 443 441
4 444 446 447 445
4 448 450 451 449
4 452 454 455 453
4 456 458 459 457
4 460 462 463 461
4 464 466 467 465
4 468 470 471 469
4 472 474 475 473
4 476 478 479 477
4 480 482 483 481
4 484 486 487 485
4 488 490 491 489
4 492 494 495 493
4 496 498 499 497
4 500 502 503 501
4 504 506 507 505
4 508 510 511 509
4 512 514 515 513
4 516 518 519 517
4 520 522 523 521
4 524 526 527 525
4 528 530 531 529
4 532 534 535 533
4 536 538 539 537
4 540 542 543 541
4 544 546 547 545
4 548 550 551 549
4 552 554 555 553
4 556 558 559 557
4 560 562 563 561
4 564 566 567 565
4 568 570 571 569
4 572 574 575 573
4 576 578 579 577
4 580 582 583 581
4 584 586 587 585
4 588 590 591 589
4 592 594 595 593
4 596 598 599 597
4 600 602 603 601
4 604 606 607 605
4 608 610 611 609
4 612 614 615 613
4 616 618 619 617
4 620 622 623 621
4 624 626 627 625
4 628 630 631 629
4 632 634 635 633
4 636 638 639 637
4 640 642 643 641
4 644 646 647 645
4 648 650 651 649
4 652 654 655 653
4 656 658 659 657
4 660 662 663 661
4 664 666 667 665
4 668 670 671 669
4 672 674 675 673
4 676 678 679 677
4 680 682 683 681
4 684 686 687 685
4 688 690 691 689
4 692 694 695 693
4 696 698 699 697
4 700 702 703 701
4 704 706 707 705
4 708 710 711 709
4 712 714 715 713
4 716 718 719 717
4 720 722 723 721
4 724 726 727 725
4 728 730 731 729
4 732 734 735 733
4 736 738 739 737
4 740 742 743 741
4 744 746 747 745
4 748 750 751 749
4 752 754 755 753
4 756 758 759 757
4 760 762 763 761
4 764 766 767 765
4 768 770 771 769
4 772 774 775 773
4 776 778 779 777
4 780 782 783 781
4 784 786 787 785
4 788 790 791 789
4 792 794 795 793
4 796 798 799 797
4 800 802 803 801
4 804 806 807 805
4 808 810 811 809
4 812 814 815 813
4 816 818 819 817
4 820 822 823 821
4 824 826 827 825
4 828 830 831 829
4 832 834 835 833
4 836 838 839 837
4 840 842 843 841
4 844 846 847 845
4 848 850 851 849
4 852 854 855 853
4 856 858 859 857
4 860 862 863 861
4 864 866 867 865
4 868 870 871 869
4 872 874 875 873
4 876 878 879 877
4 880 882 883 881
4 884 886 887 885
4 888 890 891 889
4 892 894 895 893
4 896 898 899 897
4 900 902 903 901
4 904 906 907 905
4 908 910 911 909
4 912 914 915 913
4 916 918 919 917
4 920 922 923 921
4 924 926 927 925
4 928 930 931 929
4 932 934 935 933
4 936 938 939 937
4 940 942 943 941
4 944 946 947 945
4 948 950 951 949
4 952 954 955 953
4 956 958 959 957
4 960 962 963 961
4 964 966 967 965
4 968 970 971 969
4 972 974 975 973
4 976 978 979 977
4 980 982 983 981
4 984 986 987 985
4 988 990 991 989
4 992 994 995 993
4 996 998 999 997
4 1000 1002 1003 1001
4 1004 1006 1007 1005
4 1008 1010 1011 1009
4 1012 1014 1015 1013
4 1016 1018 1019 1017
4 1020 1022 1023 1021
4 1024 1026 1027 1025
4 1028 1030 1031 1029
4 1032 1034 1035 1033
4 1036 1038 1039 1037
4 1040 1042 1043 1041
4 1044 1046 1047 1045
4 1048 1050 1051 1049
4 1052 1054 1055 1053
4 1056 1058 1059 1057
4 1060 1062 1063 1061
4 1064 1066 1067 1065
4 1068 1070 1071 1069
4 1072 1074 1075 1073
4 1076 1078 1079 1077

CELL_TYPES 270
9
9
9
9
9
9
9
9
9
9
9
9
9
9
9
9
9
9
9
9
9
9
9
9
9
9
9
9
9
9
9
9
9
9
9
9
9
9
9
9
9
9
9
9
9
9
9
9
9
9
9
9
9
9
9
9
9
9
9
9
9
9
9
9
9
9
9
9
9
9
9
9
9
9
9
9
9
9
9
9
9
9
9
9
9
9
9
9
9
9
9
9
9
9
9
9
9
9
9
9
9
9
9
9
9
9
9
9
9
9
9
9
9
9
9
9
9
9
9
9
9
9
9
9
9
9
9
9
9
9
9
9
9
9
9
9
9
9
9
9
9
9
9
9
9
9
9
9
9
9
9
9
9
9
9
9
9
9
9
9
9
9
9
9
9
9
9
9
9
9
9
9
9
9
9
9
9
9
9
9
9
9
9
9
9
9
9
9
9
9
9
9
9
9
9
9
9
9
9
9
9
9
9
9
9
9
9
9
9
9
9
9
9
9
9
9
9
9
9
9
9
9
9
9
9
9
9
9
9
9
9
9
9
9
9
9
9
9
9
9
9
9
9
9
9
9
9
9
9
9
9
9
9
9
9
9
9
9
9
9
9
9
9
9
9
9
9
9
9
9

POINT_DATA 1080
SCALARS POrder float
LOOKUP_TABLE default
2 
2 
2 
2 
2 
2 
2 
2 
2 
2 
2 
2 
2 
2 
2 
2 
2 
2 
2 
2 
2 
2 
2 
2 
2 
2 
2 
2 
2 
2 
2 
2 
2 
2 
2 
2 
2 
2 
2 
2 
2 
2 
2 
2 
2 
2 
2 
2 
2 
2 
2 
2 
2 
2 
2 
2 
2 
2 
2 
2 
2 
2 
2 
2 
2 
2 
2 
2 
2 
2 
2 
2 
2 
2 
2 
2 
2 
2 
2 
2 
2 
2 
2 
2 
2 
2 
2 
2 
2 
2 
2 
2 
2 
2 
2 
2 
2 
2 
2 
2 
2 
2 
2 
2 
2 
2 
2 
2 
2 
2 
2 
2 
2 
2 
2 
2 
2 
2 
2 
2 
2 
2 
2 
2 
2 
2 
2 
2 
2 
2 
2 
2 
2 
2 
2 
2 
2 
2 
2 
2 
2 
2 
2 
2 
2 
2 
2 
2 
2 
2 
2 
2 
2 
2 
2 
2 
2 
2 
2 
2 
2 
2 
2 
2 
2 
2 
2 
2 
2 
2 
2 
2 
2 
2 
2 
2 
2 
2 
2 
2 
2 
2 
2 
2 
2 
2 
2 
2 
2 
2 
2 
2 
2 
2 
2 
2 
2 
2 
2 
2 
2 
2 
2 
2 
2 
2 
2 
2 
2 
2 
2 
2 
2 
2 
2 
2 
2 
2 
2 
2 
2 
2 
2 
2 
2 
2 
2 
2 
2 
2 
2 
2 
2 
2 
2 
2 
2 
2 
2 
2 
2 
2 
2 
2 
2 
2 
2 
2 
2 
2 
2 
2 
2 
2 
2 
2 
2 
2 
2 
2 
2 
2 
2 
2 
2 
2 
2 
2 
2 
2 
2 
2 
2 
2 
2 
2 
2 
2 
2 
2 
2 
2 
2 
2 
2 
2 
2 
2 
2 
2 
2 
2 
2 
2 
2 
2 
2 
2 
2 
2 
2 
2 
2 
2 
2 
2 
2 
2 
2 
2 
2 
2 
2 
2 
2 
2 
2 
2 
2 
2 
2 
2 
2 
2 
2 
2 
2 
2 
2 
2 
2 
2 
2 
2 
2 
2 
2 
2 
2 
2 
2 
2 
2 
2 
2 
2 
2 
2 
2 
2 
2 
2 
2 
2 
2 
2 
2 
2 
2 
2 
2 
2 
2 
2 
2 
2 
2 
2 
2 
2 
2 
2 
2 
2 
2 
2 
2 
2 
2 
2 
2 
2 
2 
2 
2 
2 
2 
2 
2 
2 
2 
2 
2 
2 
2 
2 
2 
2 
2 
2 
2 
2 
2 
2 
2 
2 
2 
2 
2 
2 
2 
2 
2 
2 
2 
2 
2 
2 
2 
2 
2 
2 
2 
2 
2 
2 
2 
2 
2 
2 
2 
2 
2 
2 
2 
2 
2 
2 
2 
2 
2 
2 
2 
2 
2 
2 
2 
2 
2 
2 
2 
2 
2 
2 
2 
2 
2 
2 
2 
2 
2 
2 
2 
2 
2 
2 
2 
2 
2 
2 
2 
2 
2 
2 
2 
2 
2 
2 
2 
2 
2 
2 
2 
2 
2 
2 
2 
2 
2 
2 
2 
2 
2 
2 
2 
2 
2 
2 
2 
2 
2 
2 
2 
2 
2 
2 
2 
2 
2 
2 
2 
2 
2 
2 
2 
2 
2 
2 
2 
2 
2 
2 
2 
2 
2 
2 
2 
2 
2 
2 
2 
2 
2 
2 
2 
2 
2 
2 
2 
2 
2 
2 
2 
2 
2 
2 
2 
2 
2 
2 
2 
2 
2 
2 
2 
2 
2 
2 
2 
2 
2 
2 
2 
2 
2 
2 
2 
2 
2 
2 
2 
2 
2 
2 
2 
2 
2 
2 
2 
2 
2 
2 
2 
2 
2 
2 
2 
2 
2 
2 
2 
2 
2 
2 
2 
2 
2 
2 
2 
2 
2 
2 
2 
2 
2 
2 
2 
2 
2 
2 
2 
2 
2 
2 
2 
2 
2 
2 
2 
2 
2 
2 
2 
2 
2 
2 
2 
2 
2 
2 
2 
2 
2 
2 
2 
2 
2 
2 
2 
2 
2 
2 
2 
2 
2 
2 
2 
2 
2 
2 
2 
2 
2 
2 
2 
2 
2 
2 
2 
2 
2 
2 
2 
2 
2 
2 
2 
2 
2 
2 
2 
2 
2 
2 
2 
2 
2 
2 
2 
2 
2 
2 
2 
2 
2 
2 
2 
2 
2 
2 
2 
2 
2 
2 
2 
2 
2 
2 
2 
2 
2 
2 
2 
2 
2 
2 
2 
2 
2 
2 
2 
2 
2 
2 
2 
2 
2 
2 
2 
2 
2 
2 
2 
2 
2 
2 
2 
2 
2 
2 
2 
2 
2 
2 
2 
2 
2 
2 
2 
2 
2 
2 
2 
2 
2 
2 
2 
2 
2 
2 
2 
2 
2 
2 
2 
2 
2 
2 
2 
2 
2 
2 
2 
2 
2 
2 
2 
2 
2 
2 
2 
2 
2 
2 
2 
2 
2 
2 
2 
2 
2 
2 
2 
2 
2 
2 
2 
2 
2 
2 
2 
2 
2 
2 
2 
2 
2 
2 
2 
2 
2 
2 
2 
2 
2 
2 
2 
2 
2 
2 
2 
2 
2 
2 
2 
2 
2 
2 
2 
2 
2 
2 
2 
2 
2 
2 
2 
2 
2 
2 
2 
2 
2 
2 
2 
2 
2 
2 
2 
2 
2 
2 
2 
2 
2 
2 
2 
2 
2 
2 
2 
2 
2 
2 
2 
2 
2 
2 
2 
2 
2 
2 
2 
2 
2 
2 
2 
2 
2 
2 
2 
2 
2 
2 
2 
2 
2 
2 
2 
2 
2 
2 
2 
2 
2 
2 
2 
2 
2 
2 
2 
2 
2 
2 
2 
2 
2 
2 
2 
2 
2 
2 
2 
2 
2 
2 
2 
2 
2 
2 
2 
2 
2 
2 
2 
2 
2 
2 
2 
2 
2 
2 
2 
2 
2 
2 
2 
2 
2 
2 
2 
2 
2 
2 
2 
2 
2 
2 
2 
2 
2 
2 
2 
2 
2 
2 
2 
2 
2 
2 
2 
2 
2 
2 
2 
2 
2 
2 
2 
2 
2 
2 
2 
2 
2 
2 
2 
2 
2 
2 
2 
2 
2 
2 
2 
2 
2 
2 
2 
2 
2 
2 
2 
2 
2 
2 
2 
2 
2 
2 
2 
2 
2 
2 
2 
2 
2 
2 
2 
2 
2 
2 
2 
2 
2 
2 
2 
2 
2 
2 
2 
2 
2 
2 
2 
2 
2 
2 
2 
2 
2 
2 
2 
2 
2 
2 
2 
2 
2 
2 
2 
2 
2 
2 
2 
2 
2 
2 
2 
2 
2 
2 
2 
2 
2 
2 
2 
2 
2 
2 
2 
2 
2 
2 
2 
2 
2 
2 
2 
2 
2 
2 
2 
2 
2 
2 
2 
2 
2 
2 
2 
2 
2 
2 
2 
2 
2 
2 
2 
2 

SCALARS Atrito float
LOOKUP_TABLE default
0.523599 
0.523599 
0.523599 
0.523599 
0.523599 
0.523599 
0.523599 
0.523599 
0.523599 
0.523599 
0.523599 
0.523599 
0.523599 
0.523599 
0.523599 
0.523599 
0.523599 
0.523599 
0.523599 
0.523599 
0.523599 
0.523599 
0.523599 
0.523599 
0.523599 
0.523599 
0.523599 
0.523599 
0.523599 
0.523599 
0.523599 
0.523599 
0.523599 
0.523599 
0.523599 
0.523599 
0.523599 
0.523599 
0.523599 
0.523599 
0.523599 
0.523599 
0.523599 
0.523599 
0.523599 
0.523599 
0.523599 
0.523599 
0.523599 
0.523599 
0.523599 
0.523599 
0.523599 
0.523599 
0.523599 
0.523599 
0.523599 
0.523599 
0.523599 
0.523599 
0.523599 
0.523599 
0.523599 
0.523599 
0.523599 
0.523599 
0.523599 
0.523599 
0.523599 
0.523599 
0.523599 
0.523599 
0.523599 
0.523599 
0.523599 
0.523599 
0.523599 
0.523599 
0.523599 
0.523599 
0.523599 
0.523599 
0.523599 
0.523599 
0.523599 
0.523599 
0.523599 
0.523599 
0.523599 
0.523599 
0.523599 
0.523599 
0.523599 
0.523599 
0.523599 
0.523599 
0.523599 
0.523599 
0.523599 
0.523599 
0.523599 
0.523599 
0.523599 
0.523599 
0.523599 
0.523599 
0.523599 
0.523599 
0.523599 
0.523599 
0.523599 
0.523599 
0.523599 
0.523599 
0.523599 
0.523599 
0.523599 
0.523599 
0.523599 
0.523599 
0.523599 
0.523599 
0.523599 
0.523599 
0.523599 
0.523599 
0.523599 
0.523599 
0.523599 
0.523599 
0.523599 
0.523599 
0.523599 
0.523599 
0.523599 
0.523599 
0.523599 
0.523599 
0.523599 
0.523599 
0.523599 
0.523599 
0.523599 
0.523599 
0.523599 
0.523599 
0.523599 
0.523599 
0.523599 
0.523599 
0.523599 
0.523599 
0.523599 
0.523599 
0.523599 
0.523599 
0.523599 
0.523599 
0.523599 
0.523599 
0.523599 
0.523599 
0.523599 
0.523599 
0.523599 
0.523599 
0.523599 
0.523599 
0.523599 
0.523599 
0.523599 
0.523599 
0.523599 
0.523599 
0.523599 
0.523599 
0.523599 
0.523599 
0.523599 
0.523599 
0.523599 
0.523599 
0.523599 
0.523599 
0.523599 
0.523599 
0.523599 
0.523599 
0.523599 
0.523599 
0.523599 
0.523599 
0.523599 
0.523599 
0.523599 
0.523599 
0.523599 
0.523599 
0.523599 
0.523599 
0.523599 
0.523599 
0.523599 
0.523599 
0.523599 
0.523599 
0.523599 
0.523599 
0.523599 
0.523599 
0.523599 
0.523599 
0.523599 
0.523599 
0.523599 
0.523599 
0.523599 
0.523599 
0.523599 
0.523599 
0.523599 
0.523599 
0.523599 
0.523599 
0.523599 
0.523599 
0.523599 
0.523599 
0.523599 
0.523599 
0.523599 
0.523599 
0.523599 
0.523599 
0.523599 
0.523599 
0.523599 
0.523599 
0.523599 
0.523599 
0.523599 
0.523599 
0.523599 
0.523599 
0.523599 
0.523599 
0.523599 
0.523599 
0.523599 
0.523599 
0.523599 
0.523599 
0.523599 
0.523599 
0.523599 
0.523599 
0.523599 
0.523599 
0.523599 
0.523599 
0.523599 
0.523599 
0.523599 
0.523599 
0.523599 
0.523599 
0.523599 
0.523599 
0.523599 
0.523599 
0.523599 
0.523599 
0.523599 
0.523599 
0.523599 
0.523599 
0.523599 
0.523599 
0.523599 
0.523599 
0.523599 
0.523599 
0.523599 
0.523599 
0.523599 
0.523599 
0.523599 
0.523599 
0.523599 
0.523599 
0.523599 
0.523599 
0.523599 
0.523599 
0.523599 
0.523599 
0.523599 
0.523599 
0.523599 
0.523599 
0.523599 
0.523599 
0.523599 
0.523599 
0.523599 
0.523599 
0.523599 
0.523599 
0.523599 
0.523599 
0.523599 
0.523599 
0.523599 
0.523599 
0.523599 
0.523599 
0.523599 
0.523599 
0.523599 
0.523599 
0.523599 
0.523599 
0.523599 
0.523599 
0.523599 
0.523599 
0.523599 
0.523599 
0.523599 
0.523599 
0.523599 
0.523599 
0.523599 
0.523599 
0.523599 
0.523599 
0.523599 
0.523599 
0.523599 
0.523599 
0.523599 
0.523599 
0.523599 
0.523599 
0.523599 
0.523599 
0.523599 
0.523599 
0.523599 
0.523599 
0.523599 
0.523599 
0.523599 
0.523599 
0.523599 
0.523599 
0.523599 
0.523599 
0.523599 
0.523599 
0.523599 
0.523599 
0.523599 
0.523599 
0.523599 
0.523599 
0.523599 
0.523599 
0.523599 
0.523599 
0.523599 
0.523599 
0.523599 
0.523599 
0.523599 
0.523599 
0.523599 
0.523599 
0.523599 
0.523599 
0.523599 
0.523599 
0.523599 
0.523599 
0.523599 
0.523599 
0.523599 
0.523599 
0.523599 
0.523599 
0.523599 
0.523599 
0.523599 
0.523599 
0.523599 
0.523599 
0.523599 
0.523599 
0.523599 
0.523599 
0.523599 
0.523599 
0.523599 
0.523599 
0.523599 
0.523599 
0.523599 
0.523599 
0.523599 
0.523599 
0.523599 
0.523599 
0.523599 
0.523599 
0.523599 
0.523599 
0.523599 
0.523599 
0.523599 
0.523599 
0.523599 
0.523599 
0.523599 
0.523599 
0.523599 
0.523599 
0.523599 
0.523599 
0.523599 
0.523599 
0.523599 
0.523599 
0.523599 
0.523599 
0.523599 
0.523599 
0.523599 
0.523599 
0.523599 
0.523599 
0.523599 
0.523599 
0.523599 
0.523599 
0.523599 
0.523599 
0.523599 
0.523599 
0.523599 
0.523599 
0.523599 
0.523599 
0.523599 
0.523599 
0.523599 
0.523599 
0.523599 
0.523599 
0.523599 
0.523599 
0.523599 
0.523599 
0.523599 
0.523599 
0.523599 
0.523599 
0.523599 
0.523599 
0.523599 
0.523599 
0.523599 
0.523599 
0.523599 
0.523599 
0.523599 
0.523599 
0.523599 
0.523599 
0.523599 
0.523599 
0.523599 
0.523599 
0.523599 
0.523599 
0.523599 
0.523599 
0.523599 
0.523599 
0.523599 
0.523599 
0.523599 
0.523599 
0.523599 
0.523599 
0.523599 
0.523599 
0.523599 
0.523599 
0.523599 
0.523599 
0.523599 
0.523599 
0.523599 
0.523599 
0.523599 
0.523599 
0.523599 
0.523599 
0.523599 
0.523599 
0.523599 
0.523599 
0.523599 
0.523599 
0.523599 
0.523599 
0.523599 
0.523599 
0.523599 
0.523599 
0.523599 
0.523599 
0.523599 
0.523599 
0.523599 
0.523599 
0.523599 
0.523599 
0.523599 
0.523599 
0.523599 
0.523599 
0.523599 
0.523599 
0.523599 
0.523599 
0.523599 
0.523599 
0.523599 
0.523599 
0.523599 
0.523599 
0.523599 
0.523599 
0.523599 
0.523599 
0.523599 
0.523599 
0.523599 
0.523599 
0.523599 
0.523599 
0.523599 
0.523599 
0.523599 
0.523599 
0.523599 
0.523599 
0.523599 
0.523599 
0.523599 
0.523599 
0.523599 
0.523599 
0.523599 
0.523599 
0.523599 
0.523599 
0.523599 
0.523599 
0.523599 
0.523599 
0.523599 
0.523599 
0.523599 
0.523599 
0.523599 
0.523599 
0.523599 
0.523599 
0.523599 
0.523599 
0.523599 
0.523599 
0.523599 
0.523599 
0.523599 
0.523599 
0.523599 
0.523599 
0.523599 
0.523599 
0.523599 
0.523599 
0.523599 
0.523599 
0.523599 
0.523599 
0.523599 
0.523599 
0.523599 
0.523599 
0.523599 
0.523599 
0.523599 
0.523599 
0.523599 
0.523599 
0.523599 
0.523599 
0.523599 
0.523599 
0.523599 
0.523599 
0.523599 
0.523599 
0.523599 
0.523599 
0.523599 
0.523599 
0.523599 
0.523599 
0.523599 
0.523599 
0.523599 
0.523599 
0.523599 
0.523599 
0.523599 
0.523599 
0.523599 
0.523599 
0.523599 
0.523599 
0.523599 
0.523599 
0.523599 
0.523599 
0.523599 
0.523599 
0.523599 
0.523599 
0.523599 
0.523599 
0.523599 
0.523599 
0.523599 
0.523599 
0.523599 
0.523599 
0.523599 
0.523599 
0.523599 
0.523599 
0.523599 
0.523599 
0.523599 
0.523599 
0.523599 
0.523599 
0.523599 
0.523599 
0.523599 
0.523599 
0.523599 
0.523599 
0.523599 
0.523599 
0.523599 
0.523599 
0.523599 
0.523599 
0.523599 
0.523599 
0.523599 
0.523599 
0.523599 
0.523599 
0.523599 
0.523599 
0.523599 
0.523599 
0.523599 
0.523599 
0.523599 
0.523599 
0.523599 
0.523599 
0.523599 
0.523599 
0.523599 
0.523599 
0.523599 
0.523599 
0.523599 
0.523599 
0.523599 
0.523599 
0.523599 
0.523599 
0.523599 
0.523599 
0.523599 
0.523599 
0.523599 
0.523599 
0.523599 
0.523599 
0.523599 
0.523599 
0.523599 
0.523599 
0.523599 
0.523599 
0.523599 
0.523599 
0.523599 
0.523599 
0.523599 
0.523599 
0.523599 
0.523599 
0.523599 
0.523599 
0.523599 
0.523599 
0.523599 
0.523599 
0.523599 
0.523599 
0.523599 
0.523599 
0.523599 
0.523599 
0.523599 
0.523599 
0.523599 
0.523599 
0.523599 
0.523599 
0.523599 
0.523599 
0.523599 
0.523599 
0.523599 
0.523599 
0.523599 
0.523599 
0.523599 
0.523599 
0.523599 
0.523599 
0.523599 
0.523599 
0.523599 
0.523599 
0.523599 
0.523599 
0.523599 
0.523599 
0.523599 
0.523599 
0.523599 
0.523599 
0.523599 
0.523599 
0.523599 
0.523599 
0.523599 
0.523599 
0.523599 
0.523599 
0.523599 
0.523599 
0.523599 
0.523599 
0.523599 
0.523599 
0.523599 
0.523599 
0.523599 
0.523599 
0.523599 
0.523599 
0.523599 
0.523599 
0.523599 
0.523599 
0.523599 
0.523599 
0.523599 
0.523599 
0.523599 
0.523599 
0.523599 
0.523599 
0.523599 
0.523599 
0.523599 
0.523599 
0.523599 
0.523599 
0.523599 
0.523599 
0.523599 
0.523599 
0.523599 
0.523599 
0.523599 
0.523599 
0.523599 
0.523599 
0.523599 
0.523599 
0.523599 
0.523599 
0.523599 
0.523599 
0.523599 
0.523599 
0.523599 
0.523599 
0.523599 
0.523599 
0.523599 
0.523599 
0.523599 
0.523599 
0.523599 
0.523599 
0.523599 
0.523599 
0.523599 
0.523599 
0.523599 
0.523599 
0.523599 
0.523599 
0.523599 
0.523599 
0.523599 
0.523599 
0.523599 
0.523599 
0.523599 
0.523599 
0.523599 
0.523599 
0.523599 
0.523599 
0.523599 
0.523599 
0.523599 
0.523599 
0.523599 
0.523599 
0.523599 
0.523599 
0.523599 
0.523599 
0.523599 
0.523599 
0.523599 
0.523599 
0.523599 
0.523599 
0.523599 
0.523599 
0.523599 
0.523599 
0.523599 
0.523599 
0.523599 
0.523599 
0.523599 
0.523599 
0.523599 
0.523599 
0.523599 
0.523599 
0.523599 
0.523599 
0.523599 
0.523599 
0.523599 
0.523599 
0.523599 
0.523599 
0.523599 
0.523599 
0.523599 
0.523599 
0.523599 
0.523599 
0.523599 
0.523599 
0.523599 
0.523599 
0.523599 
0.523599 
0.523599 
0.523599 
0.523599 
0.523599 
0.523599 
0.523599 
0.523599 
0.523599 
0.523599 
0.523599 
0.523599 
0.523599 
0.523599 
0.523599 
0.523599 
0.523599 
0.523599 
0.523599 
0.523599 
0.523599 
0.523599 
0.523599 
0.523599 
0.523599 
0.523599 
0.523599 
0.523599 
0.523599 
0.523599 
0.523599 
0.523599 
0.523599 
0.523599 
0.523599 
0.523599 
0.523599 
0.523599 
0.523599 
0.523599 
0.523599 
0.523599 
0.523599 
0.523599 
0.523599 
0.523599 
0.523599 
0.523599 
0.523599 
0.523599 
0.523599 
0.523599 
0.523599 
0.523599 
0.523599 
0.523599 
0.523599 
0.523599 
0.523599 
0.523599 
0.523599 
0.523599 
0.523599 
0.523599 
0.523599 
0.523599 
0.523599 
0.523599 
0.523599 
0.523599 
0.523599 
0.523599 
0.523599 
0.523599 
0.523599 
0.523599 
0.523599 
0.523599 
0.523599 
0.523599 
0.523599 
0.523599 
0.523599 
0.523599 
0.523599 
0.523599 
0.523599 
0.523599 
0.523599 
0.523599 
0.523599 
0.523599 
0.523599 
0.523599 
0.523599 
0.523599 
0.523599 
0.523599 
0.523599 
0.523599 
0.523599 
0.523599 
0.523599 
0.523599 
0.523599 
0.523599 
0.523599 
0.523599 
0.523599 
0.523599 
0.523599 
0.523599 
0.523599 
0.523599 
0.523599 
0.523599 
0.523599 
0.523599 
0.523599 
0.523599 
0.523599 
0.523599 
0.523599 
0.523599 
0.523599 
0.523599 
0.523599 
0.523599 
0.523599 
0.523599 
0.523599 
0.523599 
0.523599 
0.523599 
0.523599 
0.523599 
0.523599 
0.523599 
0.523599 
0.523599 
0.523599 
0.523599 
0.523599 
0.523599 
0.523599 
0.523599 
0.523599 
0.523599 
0.523599 
0.523599 
0.523599 
0.523599 
0.523599 
0.523599 
0.523599 
0.523599 
0.523599 
0.523599 
0.523599 
0.523599 
0.523599 
0.523599 
0.523599 
0.523599 
0.523599 
0.523599 
0.523599 
0.523599 
0.523599 
0.523599 
0.523599 
0.523599 
0.523599 
0.523599 
0.523599 
0.523599 
0.523599 
0.523599 
0.523599 
0.523599 
0.523599 

SCALARS Coesion float
LOOKUP_TABLE default
10 
10 
10 
10 
10 
10 
10 
10 
10 
10 
10 
10 
10 
10 
10 
10 
10 
10 
10 
10 
10 
10 
10 
10 
10 
10 
10 
10 
10 
10 
10 
10 
10 
10 
10 
10 
10 
10 
10 
10 
10 
10 
10 
10 
10 
10 
10 
10 
10 
10 
10 
10 
10 
10 
10 
10 
10 
10 
10 
10 
10 
10 
10 
10 
10 
10 
10 
10 
10 
10 
10 
10 
10 
10 
10 
10 
10 
10 
10 
10 
10 
10 
10 
10 
10 
10 
10 
10 
10 
10 
10 
10 
10 
10 
10 
10 
10 
10 
10 
10 
10 
10 
10 
10 
10 
10 
10 
10 
10 
10 
10 
10 
10 
10 
10 
10 
10 
10 
10 
10 
10 
10 
10 
10 
10 
10 
10 
10 
10 
10 
10 
10 
10 
10 
10 
10 
10 
10 
10 
10 
10 
10 
10 
10 
10 
10 
10 
10 
10 
10 
10 
10 
10 
10 
10 
10 
10 
10 
10 
10 
10 
10 
10 
10 
10 
10 
10 
10 
10 
10 
10 
10 
10 
10 
10 
10 
10 
10 
10 
10 
10 
10 
10 
10 
10 
10 
10 
10 
10 
10 
10 
10 
10 
10 
10 
10 
10 
10 
10 
10 
10 
10 
10 
10 
10 
10 
10 
10 
10 
10 
10 
10 
10 
10 
10 
10 
10 
10 
10 
10 
10 
10 
10 
10 
10 
10 
10 
10 
10 
10 
10 
10 
10 
10 
10 
10 
10 
10 
10 
10 
10 
10 
10 
10 
10 
10 
10 
10 
10 
10 
10 
10 
10 
10 
10 
10 
10 
10 
10 
10 
10 
10 
10 
10 
10 
10 
10 
10 
10 
10 
10 
10 
10 
10 
10 
10 
10 
10 
10 
10 
10 
10 
10 
10 
10 
10 
10 
10 
10 
10 
10 
10 
10 
10 
10 
10 
10 
10 
10 
10 
10 
10 
10 
10 
10 
10 
10 
10 
10 
10 
10 
10 
10 
10 
10 
10 
10 
10 
10 
10 
10 
10 
10 
10 
10 
10 
10 
10 
10 
10 
10 
10 
10 
10 
10 
10 
10 
10 
10 
10 
10 
10 
10 
10 
10 
10 
10 
10 
10 
10 
10 
10 
10 
10 
10 
10 
10 
10 
10 
10 
10 
10 
10 
10 
10 
10 
10 
10 
10 
10 
10 
10 
10 
10 
10 
10 
10 
10 
10 
10 
10 
10 
10 
10 
10 
10 
10 
10 
10 
10 
10 
10 
10 
10 
10 
10 
10 
10 
10 
10 
10 
10 
10 
10 
10 
10 
10 
10 
10 
10 
10 
10 
10 
10 
10 
10 
10 
10 
10 
10 
10 
10 
10 
10 
10 
10 
10 
10 
10 
10 
10 
10 
10 
10 
10 
10 
10 
10 
10 
10 
10 
10 
10 
10 
10 
10 
10 
10 
10 
10 
10 
10 
10 
10 
10 
10 
10 
10 
10 
10 
10 
10 
10 
10 
10 
10 
10 
10 
10 
10 
10 
10 
10 
10 
10 
10 
10 
10 
10 
10 
10 
10 
10 
10 
10 
10 
10 
10 
10 
10 
10 
10 
10 
10 
10 
10 
10 
10 
10 
10 
10 
10 
10 
10 
10 
10 
10 
10 
10 
10 
10 
10 
10 
10 
10 
10 
10 
10 
10 
10 
10 
10 
10 
10 
10 
10 
10 
10 
10 
10 
10 
10 
10 
10 
10 
10 
10 
10 
10 
10 
10 
10 
10 
10 
10 
10 
10 
10 
10 
10 
10 
10 
10 
10 
10 
10 
10 
10 
10 
10 
10 
10 
10 
10 
10 
10 
10 
10 
10 
10 
10 
10 
10 
10 
10 
10 
10 
10 
10 
10 
10 
10 
10 
10 
10 
10 
10 
10 
10 
10 
10 
10 
10 
10 
10 
10 
10 
10 
10 
10 
10 
10 
10 
10 
10 
10 
10 
10 
10 
10 
10 
10 
10 
10 
10 
10 
10 
10 
10 
10 
10 
10 
10 
10 
10 
10 
10 
10 
10 
10 
10 
10 
10 
10 
10 
10 
10 
10 
10 
10 
10 
10 
10 
10 
10 
10 
10 
10 
10 
10 
10 
10 
10 
10 
10 
10 
10 
10 
10 
10 
10 
10 
10 
10 
10 
10 
10 
10 
10 
10 
10 
10 
10 
10 
10 
10 
10 
10 
10 
10 
10 
10 
10 
10 
10 
10 
10 
10 
10 
10 
10 
10 
10 
10 
10 
10 
10 
10 
10 
10 
10 
10 
10 
10 
10 
10 
10 
10 
10 
10 
10 
10 
10 
10 
10 
10 
10 
10 
10 
10 
10 
10 
10 
10 
10 
10 
10 
10 
10 
10 
10 
10 
10 
10 
10 
10 
10 
10 
10 
10 
10 
10 
10 
10 
10 
10 
10 
10 
10 
10 
10 
10 
10 
10 
10 
10 
10 
10 
10 
10 
10 
10 
10 
10 
10 
10 
10 
10 
10 
10 
10 
10 
10 
10 
10 
10 
10 
10 
10 
10 
10 
10 
10 
10 
10 
10 
10 
10 
10 
10 
10 
10 
10 
10 
10 
10 
10 
10 
10 
10 
10 
10 
10 
10 
10 
10 
10 
10 
10 
10 
10 
10 
10 
10 
10 
10 
10 
10 
10 
10 
10 
10 
10 
10 
10 
10 
10 
10 
10 
10 
10 
10 
10 
10 
10 
10 
10 
10 
10 
10 
10 
10 
10 
10 
10 
10 
10 
10 
10 
10 
10 
10 
10 
10 
10 
10 
10 
10 
10 
10 
10 
10 
10 
10 
10 
10 
10 
10 
10 
10 
10 
10 
10 
10 
10 
10 
10 
10 
10 
10 
10 
10 
10 
10 
10 
10 
10 
10 
10 
10 
10 
10 
10 
10 
10 
10 
10 
10 
10 
10 
10 
10 
10 
10 
10 
10 
10 
10 
10 
10 
10 
10 
10 
10 
10 
10 
10 
10 
10 
10 
10 
10 
10 
10 
10 
10 
10 
10 
10 
10 
10 
10 
10 
10 
10 
10 
10 
10 
10 
10 
10 
10 
10 
10 
10 
10 
10 
10 
10 
10 
10 
10 
10 
10 
10 
10 
10 
10 
10 
10 
10 
10 
10 
10 
10 
10 
10 
10 
10 
10 
10 
10 
10 
10 
10 
10 
10 
10 
10 
10 
10 
10 
10 
10 
10 
10 
10 
10 
10 
10 
10 
10 
10 
10 
10 
10 
10 
10 
10 
10 
10 
10 
10 
10 
10 
10 
10 
10 
10 
10 
10 
10 
10 
10 
10 
10 
10 
10 
10 
10 
10 
10 
10 
10 
10 
10 
10 
10 
10 
10 
10 
10 
10 
10 
10 
10 
10 
10 
10 
10 
10 
10 
10 
10 
10 
10 
10 
10 
10 
10 
10 
10 
10 
10 
10 
10 
10 
10 
10 
10 
10 
10 
10 
10 
10 
10 
10 
10 
10 
10 
10 
10 
10 
10 
10 
10 
10 
10 
10 
10 

SCALARS StrainPlasticJ2 float
LOOKUP_TABLE default
0 
0 
0 
0 
0 
0 
0 
0 
0 
0 
0 
0 
0 
0 
0 
0 
0 
0 
0 
0 
0 
0 
0 
0 
0 
0 
0 
0 
0 
0 
0 
0 
0 
0 
0 
0 
0 
0 
0 
0 
0 
0 
0 
0 
0 
0 
0 
0 
0 
0 
0 
0 
4.28461e-07 
6.02876e-09 
3.34618e-07 
6.02876e-09 
0 
0 
0 
0 
0 
0 
0 
0 
0 
0 
0 
0 
0 
0 
0 
0 
0 
0 
0 
0 
0 
0 
0 
0 
0 
0 
0 
0 
0 
0 
0 
0 
0 
0 
0 
0 
0 
0 
0 
0 
0 
0 
0 
0 
0 
0 
0 
0 
0 
0 
0 
0 
0.00126034 
2.33488e-05 
0.000783822 
2.33488e-05 
0.00090845 
1.13446e-05 
1.14971e-05 
1.13446e-05 
0 
0 
0 
0 
0 
0 
0 
0 
0 
0 
0 
0 
0 
0 
0 
0 
0 
0 
0 
0 
3.38422e-07 
5.61126e-08 
4.34447e-07 
5.61126e-08 
4.28596e-07 
5.96117e-08 
4.00446e-09 
5.96117e-08 
-1.15868e-12 
2.61282e-09 
2.37583e-10 
2.61282e-09 
3.3107e-07 
3.49576e-09 
4.18357e-08 
3.49576e-09 
9.67863e-08 
9.15743e-10 
3.24374e-07 
9.15743e-10 
1.96873e-09 
8.20059e-11 
1.62784e-10 
8.20059e-11 
0 
0 
0 
0 
0 
0 
0 
0 
1.17245e-09 
7.6056e-10 
9.62235e-08 
7.6056e-10 
5.75855e-11 
7.78695e-10 
5.75855e-11 
7.78695e-10 
5.34249e-10 
6.56497e-10 
1.90282e-08 
6.56497e-10 
7.1802e-08 
1.61171e-09 
4.09498e-09 
1.61171e-09 
0 
0 
0 
0 
4.76422e-09 
1.66646e-09 
3.40362e-07 
1.66646e-09 
4.07476e-07 
3.92684e-09 
7.35897e-08 
3.92684e-09 
0 
0 
0 
0 
0 
0 
0 
0 
0 
0 
0 
0 
0 
0 
0 
0 
0 
0 
0 
0 
0 
0 
0 
0 
0 
0 
0 
0 
0 
0 
0 
0 
0 
0 
0 
0 
0 
0 
0 
0 
0 
0 
0 
0 
0 
0 
0 
0 
0 
0 
0 
0 
0 
0 
0 
0 
0 
0 
0 
0 
0 
0 
0 
0 
0 
0 
0 
0 
0 
0 
0 
0 
0 
0 
0 
0 
0 
0 
0 
0 
0 
0 
0 
0 
0 
0 
0 
0 
5.15203e-08 
8.07334e-08 
1.65787e-06 
8.07334e-08 
5.90047e-06 
2.02263e-07 
1.00689e-07 
2.02263e-07 
2.62799e-09 
1.94344e-10 
1.94344e-10 
1.94344e-10 
0 
0 
0 
0 
0 
0 
0 
0 
0 
0 
0 
0 
0 
0 
0 
0 
0 
0 
0 
0 
0 
0 
0 
0 
0 
0 
0 
0 
0 
0 
0 
0 
0 
0 
0 
0 
0 
0 
0 
0 
0 
0 
0 
0 
0 
0 
0 
0 
0 
0 
0 
0 
0.00114806 
1.48496e-06 
1.77504e-05 
1.48496e-06 
0 
0 
0 
0 
0 
0 
0 
0 
0 
0 
0 
0 
0 
0 
0 
0 
0 
0 
0 
0 
0 
0 
0 
0 
0 
0 
0 
0 
0 
0 
0 
0 
0 
0 
0 
0 
0 
0 
0 
0 
1.71609e-12 
1.26907e-13 
1.26907e-13 
1.26907e-13 
0 
0 
0 
0 
0 
0 
0 
0 
0 
0 
0 
0 
0 
0 
0 
0 
0 
0 
0 
0 
0 
0 
0 
0 
0 
0 
0 
0 
0 
0 
0 
0 
0 
0 
0 
0 
7.23271e-11 
9.78036e-10 
7.23271e-11 
9.78036e-10 
2.25129e-08 
6.35994e-07 
4.99046e-08 
6.35994e-07 
3.12606e-07 
6.98565e-07 
3.87448e-08 
6.98565e-07 
0 
0 
0 
0 
0 
0 
0 
0 
0 
0 
0 
0 
0 
0 
0 
0 
0 
0 
0 
0 
0 
0 
0 
0 
0 
0 
0 
0 
0 
0 
0 
0 
0 
0 
0 
0 
0 
0 
0 
0 
0 
0 
0 
0 
0 
0 
0 
0 
0 
0 
0 
0 
0 
0 
0 
0 
0 
0 
0 
0 
0 
0 
0 
0 
0 
0 
0 
0 
0 
0 
0 
0 
0 
0 
0 
0 
0 
0 
0 
0 
0 
0 
0 
0 
0 
0 
0 
0 
9.96408e-08 
2.09157e-06 
6.86395e-08 
2.09157e-06 
4.75621e-07 
1.27911e-05 
1.16997e-05 
1.27911e-05 
0 
0 
0 
0 
4.87923e-11 
3.60826e-12 
3.60826e-12 
3.60826e-12 
0 
0 
0 
0 
0 
0 
0 
0 
0 
0 
0 
0 
0 
0 
0 
0 
0 
0 
0 
0 
0 
0 
0 
0 
0 
0 
0 
0 
0 
0 
0 
0 
0 
0 
0 
0 
0 
0 
0 
0 
0 
0 
0 
0 
0 
0 
0 
0 
0 
0 
0 
0 
0 
0 
0 
0 
0 
0 
0 
0 
0 
0 
0 
0 
0 
0 
0 
0 
0 
0 
0 
0 
0 
0 
0 
0 
0 
0 
0 
0 
0 
0 
0 
0 
2.09347e-05 
0.000342126 
7.08237e-06 
0.000342126 
0.00146541 
0.132234 
0.000750097 
0.132234 
1.01548e-05 
0.0269389 
0.141501 
0.0269389 
0.14475 
0.0258184 
0.00042748 
0.0258184 
0.000431016 
8.26268e-05 
0.000193143 
8.26268e-05 
3.27703e-05 
8.97437e-05 
1.74196e-05 
8.97437e-05 
0.000378638 
0.0378291 
5.50938e-05 
0.0378291 
4.41913e-05 
5.24099e-05 
0.000245891 
5.24099e-05 
0.196679 
0.635224 
0.320866 
0.635224 
0.25825 
0.262116 
2.60482e-05 
0.262116 
1.25804 
0.015301 
0.559052 
0.015301 
0.293529 
0.232524 
0.619095 
0.232524 
0.0465869 
0.436764 
0.504062 
0.436764 
0.817061 
0.00318957 
0.00013864 
0.00318957 
0.819247 
0.061174 
0.0031236 
0.061174 
0.00313054 
0.683757 
0.791969 
0.683757 
0.000333393 
0.00018856 
8.05864e-05 
0.00018856 
0.000217485 
0.0233061 
0.0376398 
0.0233061 
8.92402e-05 
0.0263376 
0.0213611 
0.0263376 
0.0227236 
0.000163777 
0.00019831 
0.000163777 
0.00104218 
3.35721e-05 
0.00085171 
3.35721e-05 
0.000756265 
6.01421e-05 
0.000745227 
6.01421e-05 
0.000156468 
0.0226086 
0.000116251 
0.0226086 
2.33611e-05 
0.000492789 
3.96892e-05 
0.000492789 
0.408618 
0.614465 
0.269613 
0.614465 
0.255305 
0.487643 
0.268085 
0.487643 
1.42359 
0.430531 
1.60052 
0.430531 
0.491549 
0.251565 
0.384453 
0.251565 
0.187669 
0.307058 
0.664325 
0.307058 
1.24012 
0.272594 
0.0160937 
0.272594 
1.42494 
0.578366 
0.155686 
0.578366 
0.16971 
1.3493 
1.37372 
1.3493 
0.000858992 
2.85122e-05 
1.56638e-05 
2.85122e-05 
0.000145032 
0.0502686 
0.0213248 
0.0502686 
0.000279974 
0.200355 
0.0574198 
0.200355 
0.041947 
0.000398574 
6.33125e-05 
0.000398574 
0.000427093 
0.000619086 
7.06789e-05 
0.000619086 
0.00115805 
0.000396804 
0.00196924 
0.000396804 
0.0155702 
0.217432 
0.000219609 
0.217432 
0.000493443 
0.000334438 
0.000772988 
0.000334438 
0.140182 
0.000248028 
0.00779796 
0.000248028 
0.0690933 
0.000182296 
0.00191677 
0.000182296 
0.000429385 
4.78334e-06 
0.000449011 
4.78334e-06 
4.0188e-05 
0.034576 
0.0014149 
0.034576 
0.00119324 
0.0375416 
0.438775 
0.0375416 
0.652851 
1.48327 
1.74031 
1.48327 
0.0782104 
0.354716 
1.21838 
0.354716 
1.55316 
0.642251 
0.0428658 
0.642251 
1.51352 
1.59854 
0.717731 
1.59854 
0.76666 
0.949206 
0.39574 
0.949206 
1.36753 
0.364403 
1.85868 
0.364403 
0.933521 
0.782783 
1.22862 
0.782783 
0.404492 
0.632437 
0.61195 
0.632437 
1.42283 
0.451308 
0.429161 
0.451308 
1.44701 
0.41733 
0.505258 
0.41733 
0.504422 
1.89644 
1.47297 
1.89644 
1.25567 
3.102 
0.772495 
3.102 
0.59125 
0.225161 
0.00631199 
0.225161 
2.76311 
2.53537 
0.290901 
2.53537 
0.222473 
0.905806 
2.61532 
0.905806 
0.00680864 
9.49212e-05 
0.000291897 
9.49212e-05 
0.0154257 
1.98066 
0.646609 
1.98066 
0.2706 
2.90121 
2.19277 
2.90121 
1.71087 
0.0126998 
0.197537 
0.0126998 
0.0182184 
1.39043 
0.00852859 
1.39043 
0.02012 
0.103163 
0.058305 
0.103163 
1.75615 
2.68835 
0.48141 
2.68835 
0.229557 
0.00657702 
1.02771 
0.00657702 
0.145043 
0.0152911 
0.148432 
0.0152911 
0.120514 
0.0152822 
0.0733831 
0.0152822 
0.00184401 
0.000146779 
0.00217886 
0.000146779 
0.0138717 
0.120717 
0.0149534 
0.120717 
0.106977 
0.0223222 
7.83711e-05 
0.0223222 
0.000435103 
1.50235e-05 
4.16379e-06 
1.50235e-05 
0.00237358 
0.000132097 
3.91304e-06 
0.000132097 
2.70209e-05 
6.78073e-05 
0.00318238 
6.78073e-05 
3.91287e-09 
4.88035e-05 
1.65475e-06 
4.88035e-05 
0.00186787 
0.0350169 
0.978141 
0.0350169 
0.000991033 
0.0249471 
0.282212 
0.0249471 
0.149356 
5.88753e-05 
0.000416807 
5.88753e-05 
0.0711697 
7.13335 
2.93719 
7.13335 
2.9724 
2.67251 
2.87043 
2.67251 
9.51587 
0.169657 
1.52308 
0.169657 
2.01078 
3.22659 
6.58303 
3.22659 
26.2022 
2.13635 
28.7036 
2.13635 
4.75972 
5.63061 
0.221179 
5.63061 
3.0137 
0.157941 
8.8523 
0.157941 
7.47451 
19.6891 
2.24991 
19.6891 
2.46858 
2.51934 
0.284899 
2.51934 
0.231084 
0.0110194 
0.00463088 
0.0110194 
1.66336 
0.247449 
0.00959551 
0.247449 
0.00989803 
0.24039 
1.53915 
0.24039 
1.46646e-07 
7.43562e-05 
0.0147449 
7.43562e-05 
0.0581762 
0.00452861 
0.17185 
0.00452861 
1.26191e-05 
2.24287e-05 
0.00150188 
2.24287e-05 
0.00479687 
0.0284778 
0.000337084 
0.0284778 
0.148807 
0.00852868 
0.0154569 
0.00852868 
0.00181454 
2.08241e-05 
0.000128244 
2.08241e-05 
0.00272272 
6.48188e-05 
2.08478e-05 
6.48188e-05 
2.19821e-05 
0.00148625 
0.00216929 
0.00148625 
0.765378 
0.0662969 
0.00251139 
0.0662969 
2.7788e-09 
3.14153e-09 
3.72133e-08 
3.14153e-09 
0.0033306 
7.79672e-06 
7.33023e-05 
7.79672e-06 
0.000104907 
0.000151755 
0.00418669 
0.000151755 
0.609816 
0.00494832 
1.05364 
0.00494832 
1.49055 
0.0358375 
1.99542 
0.0358375 
0.00436979 
1.11292e-05 
0.00494164 
1.11292e-05 
0.0355485 
1.27566 
0.00106189 
1.27566 
0.0110779 
0.00523384 
0.000719715 
0.00523384 
0.0824104 
0.00826638 
0.647375 
0.00826638 
0.00304566 
8.38948e-05 
0.00479151 
8.38948e-05 
0.00260664 
0.00165656 
0.00435165 
0.00165656 

SCALARS FailureType float
LOOKUP_TABLE default
0 
0 
0 
0 
0 
0 
0 
0 
0 
0 
0 
0 
0 
0 
0 
0 
0 
0 
0 
0 
0 
0 
0 
0 
0 
0 
0 
0 
0 
0 
0 
0 
0 
0 
0 
0 
0 
0 
0 
0 
0 
0 
0 
0 
0 
0 
0 
0 
0 
0 
0 
0 
1 
1 
1 
1 
0 
0 
0 
0 
0 
0 
0 
0 
0 
0 
0 
0 
0 
0 
0 
0 
0 
0 
0 
0 
0 
0 
0 
0 
0 
0 
0 
0 
0 
0 
0 
0 
0 
0 
0 
0 
0 
0 
0 
0 
0 
0 
0 
0 
0 
0 
0 
0 
0 
0 
0 
0 
1 
1 
1 
1 
0.722881 
-1.01222 
-1.01222 
-1.01222 
0 
0 
0 
0 
0 
0 
0 
0 
0 
0 
0 
0 
0 
0 
0 
0 
0 
0 
0 
0 
1 
1 
1 
1 
1 
1 
1 
1 
1.5 
0.7351 
-0.2351 
0.7351 
1 
1 
1 
1 
1 
1 
1 
1 
0.59654 
-0.373659 
-0.373659 
-0.373659 
0 
0 
0 
0 
0 
0 
0 
0 
1 
1 
1 
1 
0 
0 
0 
0 
-0.373659 
-0.373659 
0.59654 
-0.373659 
0.59654 
-0.373659 
-0.373659 
-0.373659 
0 
0 
0 
0 
1 
1 
1 
1 
1 
1 
1 
1 
0 
0 
0 
0 
0 
0 
0 
0 
0 
0 
0 
0 
0 
0 
0 
0 
0 
0 
0 
0 
0 
0 
0 
0 
0 
0 
0 
0 
0 
0 
0 
0 
0 
0 
0 
0 
0 
0 
0 
0 
0 
0 
0 
0 
0 
0 
0 
0 
0 
0 
0 
0 
0 
0 
0 
0 
0 
0 
0 
0 
0 
0 
0 
0 
0 
0 
0 
0 
0 
0 
0 
0 
0 
0 
0 
0 
0 
0 
0 
0 
0 
0 
0 
0 
0 
0 
0 
0 
-0.373659 
-0.373659 
0.59654 
-0.373659 
0.86144 
-0.873659 
0.86144 
-0.873659 
1.87366 
0.13856 
0.13856 
0.13856 
0 
0 
0 
0 
0 
0 
0 
0 
0 
0 
0 
0 
0 
0 
0 
0 
0 
0 
0 
0 
0 
0 
0 
0 
0 
0 
0 
0 
0 
0 
0 
0 
0 
0 
0 
0 
0 
0 
0 
0 
0 
0 
0 
0 
0 
0 
0 
0 
0 
0 
0 
0 
0.86144 
0.86144 
-0.873659 
0.86144 
0 
0 
0 
0 
0 
0 
0 
0 
0 
0 
0 
0 
0 
0 
0 
0 
0 
0 
0 
0 
0 
0 
0 
0 
0 
0 
0 
0 
0 
0 
0 
0 
0 
0 
0 
0 
0 
0 
0 
0 
0 
0 
0 
0 
0 
0 
0 
0 
0 
0 
0 
0 
0 
0 
0 
0 
0 
0 
0 
0 
0 
0 
0 
0 
0 
0 
0 
0 
0 
0 
0 
0 
0 
0 
0 
0 
0 
0 
0 
0 
0.13856 
1.87366 
0.13856 
1.87366 
-0.373659 
0.59654 
-0.373659 
0.59654 
0.86144 
0.86144 
-0.873659 
0.86144 
0 
0 
0 
0 
0 
0 
0 
0 
0 
0 
0 
0 
0 
0 
0 
0 
0 
0 
0 
0 
0 
0 
0 
0 
0 
0 
0 
0 
0 
0 
0 
0 
0 
0 
0 
0 
0 
0 
0 
0 
0 
0 
0 
0 
0 
0 
0 
0 
0 
0 
0 
0 
0 
0 
0 
0 
0 
0 
0 
0 
0 
0 
0 
0 
0 
0 
0 
0 
0 
0 
0 
0 
0 
0 
0 
0 
0 
0 
0 
0 
0 
0 
0 
0 
0 
0 
0 
0 
-0.373659 
0.59654 
-0.373659 
0.59654 
1 
1 
1 
1 
0 
0 
0 
0 
1.87366 
0.13856 
0.13856 
0.13856 
0 
0 
0 
0 
0 
0 
0 
0 
0 
0 
0 
0 
0 
0 
0 
0 
0 
0 
0 
0 
0 
0 
0 
0 
0 
0 
0 
0 
0 
0 
0 
0 
0 
0 
0 
0 
0 
0 
0 
0 
0 
0 
0 
0 
0 
0 
0 
0 
0 
0 
0 
0 
0 
0 
0 
0 
0 
0 
0 
0 
0 
0 
0 
0 
0 
0 
0 
0 
0 
0 
0 
0 
0 
0 
0 
0 
0 
0 
0 
0 
0 
0 
0 
0 
2.27712 
4.01222 
-0.987781 
4.01222 
-1.12634 
2.13856 
2.13856 
2.13856 
0.849222 
-3.38588 
0.0843212 
-3.38588 
1.74732 
-0.19308 
1.74732 
-0.19308 
2.40346 
1.63856 
0.108759 
1.63856 
2.40346 
1.63856 
0.108759 
1.63856 
1.36144 
-0.16836 
-1.34386 
-0.16836 
2.02444 
3.55424 
2.02444 
3.55424 
1 
1 
1 
1 
2.27712 
2.27712 
0.747319 
2.27712 
1.12634 
0.36144 
0.36144 
0.36144 
1 
1 
1 
1 
1.12634 
0.36144 
0.36144 
0.36144 
1 
1 
1 
1 
1 
1 
1 
1 
1.12634 
0.36144 
0.36144 
0.36144 
3.55424 
2.02444 
2.02444 
2.02444 
1 
1 
1 
1 
1 
1 
1 
1 
-0.277119 
0.487781 
0.487781 
0.487781 
1.13856 
2.87366 
1.13856 
2.87366 
1 
1 
1 
1 
1 
1 
1 
1 
0.487781 
-0.277119 
0.487781 
-0.277119 
1 
1 
1 
1 
1 
1 
1 
1 
1 
1 
1 
1 
2.27712 
0.747319 
2.27712 
0.747319 
1 
1 
1 
1 
1 
1 
1 
1 
1 
1 
1 
1 
1 
1 
1 
1 
0.36144 
0.36144 
1.12634 
0.36144 
-2.74732 
0.722881 
0.722881 
0.722881 
1 
1 
1 
1 
1 
1 
1 
1 
2.02444 
3.55424 
2.02444 
3.55424 
0.36144 
0.36144 
1.12634 
0.36144 
0.36144 
0.36144 
1.12634 
0.36144 
0.36144 
0.36144 
1.12634 
0.36144 
1.13856 
1.13856 
2.87366 
1.13856 
2.02444 
2.02444 
3.55424 
2.02444 
1 
1 
1 
1 
1 
1 
1 
1 
1 
1 
1 
1 
0.36144 
0.36144 
1.12634 
0.36144 
1 
1 
1 
1 
2.27712 
2.27712 
0.747319 
2.27712 
2.02444 
3.55424 
2.02444 
3.55424 
2.27712 
2.27712 
0.747319 
2.27712 
2.27712 
0.747319 
2.27712 
0.747319 
2.02444 
2.02444 
3.55424 
2.02444 
0.108759 
1.63856 
2.40346 
1.63856 
1 
1 
1 
1 
1 
1 
1 
1 
1 
1 
1 
1 
-2.74732 
0.722881 
0.722881 
0.722881 
3.55424 
2.02444 
2.02444 
2.02444 
1 
1 
1 
1 
2.27712 
2.27712 
0.747319 
2.27712 
-0.33164 
-0.126341 
1.60876 
-0.126341 
2.02444 
2.02444 
3.55424 
2.02444 
0.470199 
-1.4702 
2 
-1.4702 
2.27712 
0.747319 
2.27712 
0.747319 
-0.873659 
0.86144 
0.86144 
0.86144 
2.02444 
3.55424 
2.02444 
3.55424 
0.722881 
0.722881 
-2.74732 
0.722881 
2.27712 
2.27712 
0.747319 
2.27712 
1 
1 
1 
1 
1 
1 
1 
1 
1 
1 
1 
1 
1 
1 
1 
1 
1 
1 
1 
1 
1 
1 
1 
1 
1 
1 
1 
1 
1 
1 
1 
1 
1 
1 
1 
1 
1.13856 
2.87366 
1.13856 
2.87366 
0.747319 
2.27712 
2.27712 
2.27712 
0.849222 
-3.38588 
0.0843212 
-3.38588 
2.40346 
0.108759 
1.63856 
0.108759 
1.12634 
0.36144 
0.36144 
0.36144 
2.27712 
0.747319 
2.27712 
0.747319 
1.12634 
0.36144 
0.36144 
0.36144 
3.30156 
3.30156 
3.30156 
3.30156 
3.54202 
1.24732 
-0.487781 
1.24732 
2.27712 
0.747319 
2.27712 
0.747319 
2.02444 
2.02444 
3.55424 
2.02444 
2.27712 
2.27712 
0.747319 
2.27712 
1.12634 
0.36144 
0.36144 
0.36144 
1 
1 
1 
1 
1 
1 
1 
1 
0.722881 
-2.74732 
0.722881 
-2.74732 
1 
1 
1 
1 
0.86144 
-0.873659 
0.86144 
-0.873659 
0.722881 
-2.74732 
0.722881 
-2.74732 
1 
1 
1 
1 
1 
1 
1 
1 
0.86144 
-0.873659 
0.86144 
-0.873659 
1 
1 
1 
1 
1 
1 
1 
1 
0.277119 
2.01222 
2.01222 
2.01222 
1 
1 
1 
1 
-0.873659 
0.86144 
0.86144 
0.86144 
0.747319 
2.27712 
2.27712 
2.27712 
1.38588 
1.38588 
3.68058 
1.38588 
1 
1 
1 
1 
0.36144 
0.36144 
1.12634 
0.36144 
1 
1 
1 
1 
0.36144 
0.36144 
1.12634 
0.36144 
1 
1 
1 
1 
1.13856 
2.87366 
1.13856 
2.87366 

VECTORS Displacement float
1.69934e-11 -1.83133e-10 0 
0.00721938 -0.0198497 0 
2.1748e-11 -1.67612e-10 0 
0.00721938 -0.0198497 0 
2.03737e-11 -1.49382e-10 0 
0.00460247 -0.0112376 0 
1.26613e-11 -1.35092e-10 0 
0.00460247 -0.0112376 0 
5.51231e-11 -0.0138281 0 
0.00288606 -0.0180719 0 
5.09801e-11 -0.0204711 0 
0.00288606 -0.0180719 0 
0.00106012 -0.0231717 0 
0.0024166 -0.0235418 0 
0.00209703 -0.0237504 0 
0.0024166 -0.0235418 0 
1.58341e-11 -0.0229912 0 
2.61183e-11 -0.0232041 0 
0.00106012 -0.0231717 0 
2.61183e-11 -0.0232041 0 
0.00106012 -0.0231717 0 
2.61183e-11 -0.0232041 0 
0.0024166 -0.0235418 0 
2.61183e-11 -0.0232041 0 
0.0024166 -0.0235418 0 
2.61183e-11 -0.0232041 0 
3.5865e-11 -0.0229305 0 
2.61183e-11 -0.0232041 0 
0.00279209 -0.0731808 0 
0.00346567 -0.0724798 0 
0.00159183 -0.0746332 0 
0.00346567 -0.0724798 0 
0.00497592 -0.0678465 0 
0.00346567 -0.0724798 0 
0.00538377 -0.0698625 0 
0.00346567 -0.0724798 0 
-4.09899e-11 -0.0305939 0 
0.00270098 -0.0234905 0 
-5.40595e-11 -0.0160067 0 
0.00270098 -0.0234905 0 
-5.40595e-11 -0.0160067 0 
-2.87003e-12 -1.92521e-10 0 
-4.24431e-11 -1.9291e-10 0 
-2.87003e-12 -1.92521e-10 0 
7.92917e-12 -1.9116e-10 0 
-2.87003e-12 -1.92521e-10 0 
0.00270098 -0.0234905 0 
-2.87003e-12 -1.92521e-10 0 
0.00270098 -0.0234905 0 
-2.87002e-12 -1.92521e-10 0 
-5.40595e-11 -0.0160067 0 
-2.87002e-12 -1.92521e-10 0 
-1.41299e-11 -0.0636909 0 
0.00495691 -0.0577457 0 
-2.22889e-11 -0.0548419 0 
0.00495691 -0.0577457 0 
0.00721938 -0.0198497 0 
0.00795783 -0.032419 0 
0.0113648 -0.0393786 0 
0.00795783 -0.032419 0 
0.00631222 -0.0195052 0 
0.00504797 -0.0226323 0 
0.00288606 -0.0180719 0 
0.00504797 -0.0226323 0 
1.26613e-11 -1.35092e-10 0 
0.00200947 -0.0109131 0 
1.19932e-11 -1.3135e-10 0 
0.00200947 -0.0109131 0 
5.51231e-11 -0.0138281 0 
0.00200947 -0.0109131 0 
0.00288606 -0.0180719 0 
0.00200947 -0.0109131 0 
0.00460247 -0.0112376 0 
0.00200947 -0.0109131 0 
1.26613e-11 -1.35092e-10 0 
0.00200947 -0.0109131 0 
1.19932e-11 -1.3135e-10 0 
0.00200947 -0.0109131 0 
3.37145e-11 -1.30954e-10 0 
0.00200947 -0.0109131 0 
3.37145e-11 -1.30954e-10 0 
0.00200947 -0.0109131 0 
5.51231e-11 -0.0138281 0 
0.00200947 -0.0109131 0 
0.00288606 -0.0180719 0 
0.00200947 -0.0109131 0 
0.00631222 -0.0195052 0 
0.00200947 -0.0109131 0 
0.00631222 -0.0195052 0 
0.00200947 -0.0109131 0 
0.00460247 -0.0112376 0 
0.00200947 -0.0109131 0 
0.00827174 -0.0265831 0 
0.00511143 -0.0251041 0 
0.00504797 -0.0226323 0 
0.00511143 -0.0251041 0 
0.00504797 -0.0226323 0 
0.00511143 -0.0251041 0 
0.0024166 -0.0235418 0 
0.00511143 -0.0251041 0 
0.0024166 -0.0235418 0 
0.00511143 -0.0251041 0 
0.00209703 -0.0237504 0 
0.00511143 -0.0251041 0 
0.00209703 -0.0237504 0 
0.00511143 -0.0251041 0 
0.00369182 -0.0257894 0 
0.00511143 -0.0251041 0 
0.0451544 -0.0868 0 
0.00527649 -0.0698287 0 
0.0392296 -0.0871241 0 
0.00527649 -0.0698287 0 
0.0392296 -0.0871241 0 
0.00527649 -0.0698287 0 
0.00353281 -0.0714428 0 
0.00527649 -0.0698287 0 
0.00353281 -0.0714428 0 
0.00413371 -0.0718168 0 
0.00279209 -0.0731808 0 
0.00413371 -0.0718168 0 
0.00279209 -0.0731808 0 
0.00413371 -0.0718168 0 
0.00346567 -0.0724798 0 
0.00413371 -0.0718168 0 
0.00346567 -0.0724798 0 
0.00413371 -0.0718168 0 
0.00538377 -0.0698625 0 
0.00413371 -0.0718168 0 
0.00538377 -0.0698625 0 
0.00413371 -0.0718168 0 
0.00527649 -0.0698287 0 
0.00413371 -0.0718168 0 
0.00527649 -0.0698287 0 
0.00413371 -0.0718168 0 
0.00353281 -0.0714428 0 
0.00413371 -0.0718168 0 
-5.33969e-12 -0.0702762 0 
0.00329762 -0.0670301 0 
-1.41299e-11 -0.0636909 0 
0.00329762 -0.0670301 0 
-1.41299e-11 -0.0636909 0 
0.00329762 -0.0670301 0 
0.00495691 -0.0577457 0 
0.00329762 -0.0670301 0 
0.00495691 -0.0577457 0 
0.00329762 -0.0670301 0 
0.00497592 -0.0678465 0 
0.00329762 -0.0670301 0 
-5.33969e-12 -0.0702762 0 
0.00204405 -0.0734423 0 
0.00329762 -0.0670301 0 
0.00204405 -0.0734423 0 
2.84816e-12 -0.0741594 0 
0.00204405 -0.0734423 0 
-5.33969e-12 -0.0702762 0 
0.00204405 -0.0734423 0 
0.00329762 -0.0670301 0 
0.00204405 -0.0734423 0 
0.00497592 -0.0678465 0 
0.00204405 -0.0734423 0 
0.00497592 -0.0678465 0 
0.00204405 -0.0734423 0 
0.00346567 -0.0724798 0 
0.00204405 -0.0734423 0 
0.00346567 -0.0724798 0 
0.00204405 -0.0734423 0 
0.00159183 -0.0746332 0 
0.00204405 -0.0734423 0 
8.05606e-12 -0.0757815 0 
0.00204405 -0.0734423 0 
2.84816e-12 -0.0741594 0 
0.00204405 -0.0734423 0 
0.00159183 -0.0746332 0 
0.00204405 -0.0734423 0 
8.05607e-12 -0.0757815 0 
0.00204405 -0.0734423 0 
0.00626392 -0.0431911 0 
0.00263437 -0.0373896 0 
0.00495691 -0.0577457 0 
0.00263437 -0.0373896 0 
-3.03267e-11 -0.0435983 0 
0.00263437 -0.0373896 0 
-4.09899e-11 -0.0305939 0 
0.00263437 -0.0373896 0 
-4.09899e-11 -0.0305939 0 
0.00263437 -0.0373896 0 
0.00270098 -0.0234905 0 
0.00263437 -0.0373896 0 
0.00495691 -0.0577457 0 
0.00263437 -0.0373896 0 
-2.22889e-11 -0.0548419 0 
0.00263437 -0.0373896 0 
-2.22889e-11 -0.0548419 0 
0.00263437 -0.0373896 0 
-3.03267e-11 -0.0435983 0 
0.00263437 -0.0373896 0 
0.00497592 -0.0678465 0 
0.00685685 -0.0604369 0 
0.00495691 -0.0577457 0 
0.00685685 -0.0604369 0 
0.00626392 -0.0431911 0 
0.00685685 -0.0604369 0 
0.00920545 -0.0546749 0 
0.00685685 -0.0604369 0 
0.00495691 -0.0577457 0 
0.00685685 -0.0604369 0 
0.00626392 -0.0431911 0 
0.00685685 -0.0604369 0 
0.0113648 -0.0393786 0 
0.0105059 -0.0280249 0 
0.00721938 -0.0198497 0 
0.0105059 -0.0280249 0 
0.00460247 -0.0112376 0 
0.00873808 -0.0209769 0 
0.00631222 -0.0195052 0 
0.00873808 -0.0209769 0 
0.00721938 -0.0198497 0 
0.00599431 -0.0136334 0 
2.1748e-11 -1.67612e-10 0 
0.00599431 -0.0136334 0 
0.00821922 -0.0186099 0 
0.00599431 -0.0136334 0 
0.0105059 -0.0280249 0 
0.00599431 -0.0136334 0 
0.0105059 -0.0280249 0 
0.00599431 -0.0136334 0 
0.00721938 -0.0198497 0 
0.00599431 -0.0136334 0 
0.00795783 -0.032419 0 
0.0053067 -0.0289986 0 
0.00626392 -0.0431911 0 
0.0053067 -0.0289986 0 
0.00270098 -0.0234905 0 
0.0053067 -0.0289986 0 
7.92917e-12 -1.9116e-10 0 
0.0053067 -0.0289986 0 
0.00626392 -0.0431911 0 
0.0053067 -0.0289986 0 
0.00263437 -0.0373896 0 
0.0053067 -0.0289986 0 
0.00263437 -0.0373896 0 
0.0053067 -0.0289986 0 
0.00270098 -0.0234905 0 
0.0053067 -0.0289986 0 
0.00795783 -0.032419 0 
0.0097363 -0.0440647 0 
0.0113648 -0.0393786 0 
0.0097363 -0.0440647 0 
0.00626392 -0.0431911 0 
0.0097363 -0.0440647 0 
0.00795783 -0.032419 0 
0.0097363 -0.0440647 0 
0.00920545 -0.0546749 0 
0.0097363 -0.0440647 0 
0.00626392 -0.0431911 0 
0.0097363 -0.0440647 0 
0.0113648 -0.0393786 0 
0.0097363 -0.0440647 0 
0.0113057 -0.049989 0 
0.0097363 -0.0440647 0 
0.0113057 -0.049989 0 
0.0097363 -0.0440647 0 
0.00920545 -0.0546749 0 
0.0097363 -0.0440647 0 
0.00795783 -0.032419 0 
0.00503862 -0.0169973 0 
0.0053067 -0.0289986 0 
0.00503862 -0.0169973 0 
0.0053067 -0.0289986 0 
0.00503862 -0.0169973 0 
7.92917e-12 -1.9116e-10 0 
0.00503862 -0.0169973 0 
7.92917e-12 -1.9116e-10 0 
0.00503862 -0.0169973 0 
1.69934e-11 -1.83133e-10 0 
0.00503862 -0.0169973 0 
0.00721938 -0.0198497 0 
0.00503862 -0.0169973 0 
0.00795783 -0.032419 0 
0.00503862 -0.0169973 0 
1.69934e-11 -1.83133e-10 0 
0.00503862 -0.0169973 0 
0.00721938 -0.0198497 0 
0.00503862 -0.0169973 0 
0.00511937 -0.0288961 0 
0.00769596 -0.0309582 0 
0.0077152 -0.0310349 0 
0.00769596 -0.0309582 0 
0.0077152 -0.0310349 0 
0.00769596 -0.0309582 0 
0.0103724 -0.0361065 0 
0.00769596 -0.0309582 0 
0.0103724 -0.0361065 0 
0.00769596 -0.0309582 0 
0.00949419 -0.0309843 0 
0.00769596 -0.0309582 0 
0.00631222 -0.0195052 0 
0.00754 -0.0235578 0 
0.00504797 -0.0226323 0 
0.00754 -0.0235578 0 
0.00504797 -0.0226323 0 
0.00754 -0.0235578 0 
0.00827174 -0.0265831 0 
0.00754 -0.0235578 0 
5.09801e-11 -0.0204711 0 
0.00216597 -0.0223304 0 
3.5865e-11 -0.0229305 0 
0.00216597 -0.0223304 0 
0.0024166 -0.0235418 0 
0.00216597 -0.0223304 0 
0.00504797 -0.0226323 0 
0.00216597 -0.0223304 0 
3.5865e-11 -0.0229305 0 
0.00216597 -0.0223304 0 
0.0024166 -0.0235418 0 
0.00216597 -0.0223304 0 
0.00504797 -0.0226323 0 
0.00216597 -0.0223304 0 
0.00288606 -0.0180719 0 
0.00216597 -0.0223304 0 
0.00288606 -0.0180719 0 
0.00216597 -0.0223304 0 
5.09801e-11 -0.0204711 0 
0.00216597 -0.0223304 0 
0.00769596 -0.0309582 0 
0.00707969 -0.0273709 0 
0.00949419 -0.0309843 0 
0.00707969 -0.0273709 0 
0.00511143 -0.0251041 0 
0.00707969 -0.0273709 0 
0.00369182 -0.0257894 0 
0.00707969 -0.0273709 0 
0.00827174 -0.0265831 0 
0.00707969 -0.0273709 0 
0.00511143 -0.0251041 0 
0.00707969 -0.0273709 0 
0.00949419 -0.0309843 0 
0.00707969 -0.0273709 0 
0.00827174 -0.0265831 0 
0.00707969 -0.0273709 0 
0.00511937 -0.0288961 0 
0.00707969 -0.0273709 0 
0.00769596 -0.0309582 0 
0.00707969 -0.0273709 0 
0.00369182 -0.0257894 0 
0.00707969 -0.0273709 0 
0.00511937 -0.0288961 0 
0.00707969 -0.0273709 0 
0.0451544 -0.0868 0 
0.00633146 -0.0678226 0 
0.00527649 -0.0698287 0 
0.00633146 -0.0678226 0 
0.0113057 -0.049989 0 
0.0128651 -0.0427745 0 
0.0113648 -0.0393786 0 
0.0128651 -0.0427745 0 
0.00685685 -0.0604369 0 
0.00796169 -0.0616266 0 
0.00920545 -0.0546749 0 
0.00796169 -0.0616266 0 
0.00497592 -0.0678465 0 
0.00796169 -0.0616266 0 
0.00685685 -0.0604369 0 
0.00796169 -0.0616266 0 
0.00920545 -0.0546749 0 
0.00996808 -0.0570374 0 
0.0113057 -0.049989 0 
0.00996808 -0.0570374 0 
0.0113057 -0.049989 0 
0.00996808 -0.0570374 0 
0.0114714 -0.0537167 0 
0.00996808 -0.0570374 0 
0.00839732 -0.0629545 0 
0.00996808 -0.0570374 0 
0.00796169 -0.0616266 0 
0.00996808 -0.0570374 0 
0.00796169 -0.0616266 0 
0.00996808 -0.0570374 0 
0.00920545 -0.0546749 0 
0.00996808 -0.0570374 0 
0.00839732 -0.0629545 0 
0.00923341 -0.0610193 0 
0.00996808 -0.0570374 0 
0.00923341 -0.0610193 0 
0.00996808 -0.0570374 0 
0.00923341 -0.0610193 0 
0.0114714 -0.0537167 0 
0.00923341 -0.0610193 0 
0.0114714 -0.0537167 0 
0.00923341 -0.0610193 0 
0.0114181 -0.0521799 0 
0.00923341 -0.0610193 0 
0.0114181 -0.0521799 0 
0.00923341 -0.0610193 0 
0.00977307 -0.0556049 0 
0.00923341 -0.0610193 0 
2.03737e-11 -1.49382e-10 0 
0.00634819 -0.0139798 0 
0.00460247 -0.0112376 0 
0.00634819 -0.0139798 0 
0.00460247 -0.0112376 0 
0.00634819 -0.0139798 0 
0.00873808 -0.0209769 0 
0.00634819 -0.0139798 0 
0.00873808 -0.0209769 0 
0.00634819 -0.0139798 0 
0.00821922 -0.0186099 0 
0.00634819 -0.0139798 0 
0.00599431 -0.0136334 0 
2.18905e-11 -1.58593e-10 0 
2.1748e-11 -1.67612e-10 0 
2.18905e-11 -1.58593e-10 0 
0.00821922 -0.0186099 0 
2.18905e-11 -1.58593e-10 0 
0.00599431 -0.0136334 0 
2.18905e-11 -1.58593e-10 0 
2.03737e-11 -1.49382e-10 0 
2.18905e-11 -1.58593e-10 0 
0.00634819 -0.0139798 0 
2.18905e-11 -1.58593e-10 0 
0.00634819 -0.0139798 0 
2.18905e-11 -1.58593e-10 0 
0.00821922 -0.0186099 0 
2.18905e-11 -1.58593e-10 0 
0.00633146 -0.0678226 0 
0.00670293 -0.0672676 0 
0.00527649 -0.0698287 0 
0.00670293 -0.0672676 0 
0.00527649 -0.0698287 0 
0.00670293 -0.0672676 0 
0.00538377 -0.0698625 0 
0.00670293 -0.0672676 0 
0.0121059 -0.046169 0 
0.0112642 -0.047007 0 
0.0110305 -0.0422746 0 
0.0112642 -0.047007 0 
0.0114181 -0.0521799 0 
0.0112642 -0.047007 0 
0.0121059 -0.046169 0 
0.0112642 -0.047007 0 
0.00977307 -0.0556049 0 
0.0112642 -0.047007 0 
0.0114181 -0.0521799 0 
0.0112642 -0.047007 0 
0.0128651 -0.0427745 0 
0.0121675 -0.0360269 0 
0.0113648 -0.0393786 0 
0.0121675 -0.0360269 0 
0.0113648 -0.0393786 0 
0.0121675 -0.0360269 0 
0.0105059 -0.0280249 0 
0.0121675 -0.0360269 0 
0.0113057 -0.049989 0 
0.0125957 -0.0475981 0 
0.0128651 -0.0427745 0 
0.0125957 -0.0475981 0 
0.0114714 -0.0537167 0 
0.0125957 -0.0475981 0 
0.0113057 -0.049989 0 
0.0125957 -0.0475981 0 
0.0121059 -0.046169 0 
0.0125957 -0.0475981 0 
0.0114181 -0.0521799 0 
0.0125957 -0.0475981 0 
0.0114181 -0.0521799 0 
0.0125957 -0.0475981 0 
0.0114714 -0.0537167 0 
0.0125957 -0.0475981 0 
0.00796169 -0.0616266 0 
0.00682745 -0.0663057 0 
0.00839732 -0.0629545 0 
0.00682745 -0.0663057 0 
0.00497592 -0.0678465 0 
0.00682745 -0.0663057 0 
0.00796169 -0.0616266 0 
0.00682745 -0.0663057 0 
0.00538377 -0.0698625 0 
0.00682745 -0.0663057 0 
0.00497592 -0.0678465 0 
0.00682745 -0.0663057 0 
0.00839732 -0.0629545 0 
0.00682745 -0.0663057 0 
0.00670293 -0.0672676 0 
0.00682745 -0.0663057 0 
0.00670293 -0.0672676 0 
0.00682745 -0.0663057 0 
0.00538377 -0.0698625 0 
0.00682745 -0.0663057 0 
0.00923341 -0.0610193 0 
0.00879047 -0.060587 0 
0.00977307 -0.0556049 0 
0.00879047 -0.060587 0 
0.00748492 -0.0654358 0 
0.00879047 -0.060587 0 
0.00923341 -0.0610193 0 
0.00879047 -0.060587 0 
0.00949419 -0.0309843 0 
0.0120647 -0.034728 0 
0.0103724 -0.0361065 0 
0.0120647 -0.034728 0 
0.0105059 -0.0280249 0 
0.0108751 -0.0265364 0 
0.00821922 -0.0186099 0 
0.0108751 -0.0265364 0 
0.00821922 -0.0186099 0 
0.0108751 -0.0265364 0 
0.00873808 -0.0209769 0 
0.0108751 -0.0265364 0 
0.0121675 -0.0360269 0 
0.0108751 -0.0265364 0 
0.0105059 -0.0280249 0 
0.0108751 -0.0265364 0 
0.00754 -0.0235578 0 
0.00960737 -0.025068 0 
0.00827174 -0.0265831 0 
0.00960737 -0.025068 0 
0.011599 -0.0302527 0 
0.00960737 -0.025068 0 
0.0108751 -0.0265364 0 
0.00960737 -0.025068 0 
0.0108751 -0.0265364 0 
0.00960737 -0.025068 0 
0.00873808 -0.0209769 0 
0.00960737 -0.025068 0 
0.00631222 -0.0195052 0 
0.00960737 -0.025068 0 
0.00754 -0.0235578 0 
0.00960737 -0.025068 0 
0.00873808 -0.0209769 0 
0.00960737 -0.025068 0 
0.00631222 -0.0195052 0 
0.00960737 -0.025068 0 
0.0110305 -0.0422746 0 
0.00994942 -0.0378827 0 
0.0103724 -0.0361065 0 
0.00994942 -0.0378827 0 
0.0103724 -0.0361065 0 
0.00994942 -0.0378827 0 
0.0077152 -0.0310349 0 
0.00994942 -0.0378827 0 
0.00923341 -0.0610193 0 
0.00725734 -0.0658108 0 
0.00748492 -0.0654358 0 
0.00725734 -0.0658108 0 
0.00748492 -0.0654358 0 
0.00725734 -0.0658108 0 
0.00633146 -0.0678226 0 
0.00725734 -0.0658108 0 
0.00633146 -0.0678226 0 
0.00725734 -0.0658108 0 
0.00670293 -0.0672676 0 
0.00725734 -0.0658108 0 
0.00670293 -0.0672676 0 
0.00725734 -0.0658108 0 
0.00839732 -0.0629545 0 
0.00725734 -0.0658108 0 
0.00839732 -0.0629545 0 
0.00725734 -0.0658108 0 
0.00923341 -0.0610193 0 
0.00725734 -0.0658108 0 
0.0128651 -0.0427745 0 
0.0127025 -0.035271 0 
0.0121675 -0.0360269 0 
0.0127025 -0.035271 0 
0.0121675 -0.0360269 0 
0.0127025 -0.035271 0 
0.0108751 -0.0265364 0 
0.0127025 -0.035271 0 
0.0108751 -0.0265364 0 
0.0127025 -0.035271 0 
0.011599 -0.0302527 0 
0.0127025 -0.035271 0 
0.011599 -0.0302527 0 
0.0127025 -0.035271 0 
0.0120647 -0.034728 0 
0.0127025 -0.035271 0 
0.0128651 -0.0427745 0 
0.0129683 -0.040683 0 
0.0127025 -0.035271 0 
0.0129683 -0.040683 0 
0.0127025 -0.035271 0 
0.0129683 -0.040683 0 
0.0120647 -0.034728 0 
0.0129683 -0.040683 0 
0.0121059 -0.046169 0 
0.0129683 -0.040683 0 
0.0125957 -0.0475981 0 
0.0129683 -0.040683 0 
0.0125957 -0.0475981 0 
0.0129683 -0.040683 0 
0.0128651 -0.0427745 0 
0.0129683 -0.040683 0 
0.0129683 -0.040683 0 
0.012233 -0.039183 0 
0.0120647 -0.034728 0 
0.012233 -0.039183 0 
0.0121059 -0.046169 0 
0.012233 -0.039183 0 
0.0129683 -0.040683 0 
0.012233 -0.039183 0 
0.0110305 -0.0422746 0 
0.012233 -0.039183 0 
0.0121059 -0.046169 0 
0.012233 -0.039183 0 
0.0120647 -0.034728 0 
0.012233 -0.039183 0 
0.0103724 -0.0361065 0 
0.012233 -0.039183 0 
0.0103724 -0.0361065 0 
0.012233 -0.039183 0 
0.0110305 -0.0422746 0 
0.012233 -0.039183 0 
0.0120647 -0.034728 0 
0.0104773 -0.0296824 0 
0.011599 -0.0302527 0 
0.0104773 -0.0296824 0 
0.00949419 -0.0309843 0 
0.0104773 -0.0296824 0 
0.0120647 -0.034728 0 
0.0104773 -0.0296824 0 
0.00827174 -0.0265831 0 
0.0104773 -0.0296824 0 
0.00949419 -0.0309843 0 
0.0104773 -0.0296824 0 
0.011599 -0.0302527 0 
0.0104773 -0.0296824 0 
0.00960737 -0.025068 0 
0.0104773 -0.0296824 0 
0.00960737 -0.025068 0 
0.0104773 -0.0296824 0 
0.00827174 -0.0265831 0 
0.0104773 -0.0296824 0 
0.985675 -0.736844 0 
1.13465 -0.824555 0 
0.987592 -0.903315 0 
1.13465 -0.824555 0 
0.987592 -0.903315 0 
1.00164 -0.859815 0 
1.01056 -0.755851 0 
1.00164 -0.859815 0 
1.13465 -0.824555 0 
1.22685 -0.853878 0 
1.00164 -0.859815 0 
1.22685 -0.853878 0 
1.00164 -0.859815 0 
0.987592 -0.903315 0 
1.13465 -0.824555 0 
0.987592 -0.903315 0 
1.29766 -0.544662 0 
1.2949 -0.742096 0 
1.1338 -0.647567 0 
1.2949 -0.742096 0 
1.1338 -0.647567 0 
1.13465 -0.824555 0 
0.985675 -0.736844 0 
1.13465 -0.824555 0 
1.2949 -0.742096 0 
1.22685 -0.853878 0 
1.13465 -0.824555 0 
1.22685 -0.853878 0 
1.13465 -0.824555 0 
1.1338 -0.647567 0 
1.2949 -0.742096 0 
1.1338 -0.647567 0 
1.22685 -0.853878 0 
0.648572 -0.516541 0 
1.00164 -0.859815 0 
0.648572 -0.516541 0 
1.00164 -0.859815 0 
0.537616 -0.432974 0 
1.01056 -0.755851 0 
0.537616 -0.432974 0 
0.648572 -0.516541 0 
0.0451544 -0.0868 0 
0.537616 -0.432974 0 
0.0451544 -0.0868 0 
0.537616 -0.432974 0 
1.00164 -0.859815 0 
0.648572 -0.516541 0 
1.00164 -0.859815 0 
1.01056 -0.755851 0 
0.537616 -0.432974 0 
0.522339 -0.354157 0 
0.537616 -0.432974 0 
0.522339 -0.354157 0 
0.0400974 -0.0876707 0 
0.0392296 -0.0871241 0 
0.0400974 -0.0876707 0 
0.537616 -0.432974 0 
0.0451544 -0.0868 0 
0.0400974 -0.0876707 0 
0.0451544 -0.0868 0 
0.0400974 -0.0876707 0 
0.522339 -0.354157 0 
0.537616 -0.432974 0 
0.522339 -0.354157 0 
1.29766 -0.544662 0 
1.47094 -0.646977 0 
1.2949 -0.742096 0 
1.47094 -0.646977 0 
1.2949 -0.742096 0 
1.41569 -0.795592 0 
1.22685 -0.853878 0 
1.41569 -0.795592 0 
1.47094 -0.646977 0 
1.60562 -0.711573 0 
1.41569 -0.795592 0 
1.60562 -0.711573 0 
1.41569 -0.795592 0 
1.2949 -0.742096 0 
1.47094 -0.646977 0 
1.2949 -0.742096 0 
1.66916 -0.30756 0 
1.66127 -0.54119 0 
1.47675 -0.430491 0 
1.66127 -0.54119 0 
1.47675 -0.430491 0 
1.47094 -0.646977 0 
1.29766 -0.544662 0 
1.47094 -0.646977 0 
1.66127 -0.54119 0 
1.60562 -0.711573 0 
1.47094 -0.646977 0 
1.60562 -0.711573 0 
1.47094 -0.646977 0 
1.47675 -0.430491 0 
1.66127 -0.54119 0 
1.47675 -0.430491 0 
1.60562 -0.711573 0 
0.997711 -0.575849 0 
1.41569 -0.795592 0 
0.997711 -0.575849 0 
1.41569 -0.795592 0 
0.90571 -0.609526 0 
1.22685 -0.853878 0 
0.90571 -0.609526 0 
0.997711 -0.575849 0 
0.199787 -0.160976 0 
0.90571 -0.609526 0 
0.199787 -0.160976 0 
0.90571 -0.609526 0 
1.41569 -0.795592 0 
0.997711 -0.575849 0 
1.41569 -0.795592 0 
1.22685 -0.853878 0 
0.90571 -0.609526 0 
0.648572 -0.516541 0 
0.90571 -0.609526 0 
0.648572 -0.516541 0 
0.120269 -0.127695 0 
0.0451544 -0.0868 0 
0.120269 -0.127695 0 
0.90571 -0.609526 0 
0.199787 -0.160976 0 
0.120269 -0.127695 0 
0.199787 -0.160976 0 
0.120269 -0.127695 0 
0.648572 -0.516541 0 
0.90571 -0.609526 0 
0.648572 -0.516541 0 
1.66916 -0.30756 0 
1.86299 -0.426906 0 
1.66127 -0.54119 0 
1.86299 -0.426906 0 
1.66127 -0.54119 0 
1.78054 -0.606321 0 
1.60562 -0.711573 0 
1.78054 -0.606321 0 
1.86299 -0.426906 0 
1.86564 -0.477771 0 
1.78054 -0.606321 0 
1.86564 -0.477771 0 
1.78054 -0.606321 0 
1.66127 -0.54119 0 
1.86299 -0.426906 0 
1.66127 -0.54119 0 
2.10928 -0.0299199 0 
2.1015 -0.297873 0 
1.87864 -0.171698 0 
2.1015 -0.297873 0 
1.87864 -0.171698 0 
1.86299 -0.426906 0 
1.66916 -0.30756 0 
1.86299 -0.426906 0 
2.1015 -0.297873 0 
1.86564 -0.477771 0 
1.86299 -0.426906 0 
1.86564 -0.477771 0 
1.86299 -0.426906 0 
1.87864 -0.171698 0 
2.1015 -0.297873 0 
1.87864 -0.171698 0 
0.199787 -0.160976 0 
0.0173213 -0.0711606 0 
0.120269 -0.127695 0 
0.0173213 -0.0711606 0 
0.120269 -0.127695 0 
0.0154496 -0.073051 0 
0.0451544 -0.0868 0 
0.0154496 -0.073051 0 
0.0173213 -0.0711606 0 
0.00633146 -0.0678226 0 
0.0154496 -0.073051 0 
0.00633146 -0.0678226 0 
0.0154496 -0.073051 0 
0.120269 -0.127695 0 
0.0173213 -0.0711606 0 
0.120269 -0.127695 0 
0.00977307 -0.0556049 0 
0.0710405 -0.0641273 0 
0.38689 -0.115325 0 
0.0710405 -0.0641273 0 
0.38689 -0.115325 0 
0.898573 -0.340251 0 
1.86564 -0.477771 0 
0.898573 -0.340251 0 
0.0710405 -0.0641273 0 
0.227223 -0.139291 0 
0.898573 -0.340251 0 
0.227223 -0.139291 0 
0.898573 -0.340251 0 
0.38689 -0.115325 0 
0.0710405 -0.0641273 0 
0.38689 -0.115325 0 
1.86564 -0.477771 0 
0.898573 -0.340251 0 
1.78054 -0.606321 0 
0.898573 -0.340251 0 
1.78054 -0.606321 0 
1.03758 -0.486711 0 
1.60562 -0.711573 0 
1.03758 -0.486711 0 
0.898573 -0.340251 0 
0.227223 -0.139291 0 
1.03758 -0.486711 0 
0.227223 -0.139291 0 
1.03758 -0.486711 0 
1.78054 -0.606321 0 
0.898573 -0.340251 0 
1.78054 -0.606321 0 
1.60562 -0.711573 0 
1.03758 -0.486711 0 
0.997711 -0.575849 0 
1.03758 -0.486711 0 
0.997711 -0.575849 0 
0.219935 -0.166185 0 
0.199787 -0.160976 0 
0.219935 -0.166185 0 
1.03758 -0.486711 0 
0.227223 -0.139291 0 
0.219935 -0.166185 0 
0.227223 -0.139291 0 
0.219935 -0.166185 0 
0.997711 -0.575849 0 
1.03758 -0.486711 0 
0.997711 -0.575849 0 
1.86564 -0.477771 0 
1.6413 -0.277368 0 
0.38689 -0.115325 0 
1.6413 -0.277368 0 
0.38689 -0.115325 0 
0.192036 -0.0285044 0 
0.00977307 -0.0556049 0 
0.192036 -0.0285044 0 
1.6413 -0.277368 0 
1.20794 -0.029175 0 
0.192036 -0.0285044 0 
1.20794 -0.029175 0 
0.192036 -0.0285044 0 
0.38689 -0.115325 0 
1.6413 -0.277368 0 
0.38689 -0.115325 0 
2.10928 -0.0299199 0 
2.30417 -0.183944 0 
2.1015 -0.297873 0 
2.30417 -0.183944 0 
2.1015 -0.297873 0 
1.6413 -0.277368 0 
1.86564 -0.477771 0 
1.6413 -0.277368 0 
2.30417 -0.183944 0 
1.20794 -0.029175 0 
1.6413 -0.277368 0 
1.20794 -0.029175 0 
1.6413 -0.277368 0 
2.1015 -0.297873 0 
2.30417 -0.183944 0 
2.1015 -0.297873 0 
2.72996 0.377996 0 
2.34337 0.0676413 0 
2.46064 0.235756 0 
2.34337 0.0676413 0 
2.46064 0.235756 0 
2.30417 -0.183944 0 
2.10928 -0.0299199 0 
2.30417 -0.183944 0 
2.34337 0.0676413 0 
1.20794 -0.029175 0 
2.30417 -0.183944 0 
1.20794 -0.029175 0 
2.30417 -0.183944 0 
2.46064 0.235756 0 
2.34337 0.0676413 0 
2.46064 0.235756 0 
0.227223 -0.139291 0 
0.0285734 -0.0711892 0 
0.219935 -0.166185 0 
0.0285734 -0.0711892 0 
0.219935 -0.166185 0 
0.0334116 -0.0757507 0 
0.199787 -0.160976 0 
0.0334116 -0.0757507 0 
0.0285734 -0.0711892 0 
0.00748492 -0.0654358 0 
0.0334116 -0.0757507 0 
0.00748492 -0.0654358 0 
0.0334116 -0.0757507 0 
0.219935 -0.166185 0 
0.0285734 -0.0711892 0 
0.219935 -0.166185 0 
0.199787 -0.160976 0 
0.0334116 -0.0757507 0 
0.0173213 -0.0711606 0 
0.0334116 -0.0757507 0 
0.0173213 -0.0711606 0 
0.00688094 -0.0667937 0 
0.00633146 -0.0678226 0 
0.00688094 -0.0667937 0 
0.0334116 -0.0757507 0 
0.00748492 -0.0654358 0 
0.00688094 -0.0667937 0 
0.00748492 -0.0654358 0 
0.00688094 -0.0667937 0 
0.0173213 -0.0711606 0 
0.0334116 -0.0757507 0 
0.0173213 -0.0711606 0 
0.0110305 -0.0422746 0 
0.010655 -0.0448689 0 
0.010136 -0.0417166 0 
0.010655 -0.0448689 0 
0.010136 -0.0417166 0 
0.188747 0.0384778 0 
0.328265 0.208026 0 
0.188747 0.0384778 0 
0.010655 -0.0448689 0 
0.0112642 -0.047007 0 
0.188747 0.0384778 0 
0.0112642 -0.047007 0 
0.188747 0.0384778 0 
0.010136 -0.0417166 0 
0.010655 -0.0448689 0 
0.010136 -0.0417166 0 
2.72996 0.377996 0 
1.67374 0.331612 0 
2.34337 0.0676413 0 
1.67374 0.331612 0 
2.34337 0.0676413 0 
0.588329 0.0633563 0 
1.20794 -0.029175 0 
0.588329 0.0633563 0 
1.67374 0.331612 0 
0.0112642 -0.047007 0 
0.588329 0.0633563 0 
0.0112642 -0.047007 0 
0.588329 0.0633563 0 
2.34337 0.0676413 0 
1.67374 0.331612 0 
2.34337 0.0676413 0 
0.328265 0.208026 0 
0.188747 0.0384778 0 
3.13961 0.730512 0 
0.188747 0.0384778 0 
3.13961 0.730512 0 
1.67374 0.331612 0 
2.72996 0.377996 0 
1.67374 0.331612 0 
0.188747 0.0384778 0 
0.0112642 -0.047007 0 
1.67374 0.331612 0 
0.0112642 -0.047007 0 
1.67374 0.331612 0 
3.13961 0.730512 0 
0.188747 0.0384778 0 
3.13961 0.730512 0 
1.20794 -0.029175 0 
0.588329 0.0633563 0 
0.192036 -0.0285044 0 
0.588329 0.0633563 0 
0.192036 -0.0285044 0 
0.0106326 -0.0511498 0 
0.00977307 -0.0556049 0 
0.0106326 -0.0511498 0 
0.588329 0.0633563 0 
0.0112642 -0.047007 0 
0.0106326 -0.0511498 0 
0.0112642 -0.047007 0 
0.0106326 -0.0511498 0 
0.192036 -0.0285044 0 
0.588329 0.0633563 0 
0.192036 -0.0285044 0 
0.00977307 -0.0556049 0 
0.00933327 -0.0581631 0 
0.0710405 -0.0641273 0 
0.00933327 -0.0581631 0 
0.0710405 -0.0641273 0 
0.0280223 -0.0632462 0 
0.227223 -0.139291 0 
0.0280223 -0.0632462 0 
0.00933327 -0.0581631 0 
0.00879047 -0.060587 0 
0.0280223 -0.0632462 0 
0.00879047 -0.060587 0 
0.0280223 -0.0632462 0 
0.0710405 -0.0641273 0 
0.00933327 -0.0581631 0 
0.0710405 -0.0641273 0 
0.227223 -0.139291 0 
0.0280223 -0.0632462 0 
0.0285734 -0.0711892 0 
0.0280223 -0.0632462 0 
0.0285734 -0.0711892 0 
0.00797722 -0.0631164 0 
0.00748492 -0.0654358 0 
0.00797722 -0.0631164 0 
0.0280223 -0.0632462 0 
0.00879047 -0.060587 0 
0.00797722 -0.0631164 0 
0.00879047 -0.060587 0 
0.00797722 -0.0631164 0 
0.0285734 -0.0711892 0 
0.0280223 -0.0632462 0 
0.0285734 -0.0711892 0 
0.328265 0.208026 0 
0.0260411 -0.024376 0 
0.010136 -0.0417166 0 
0.0260411 -0.024376 0 
0.010136 -0.0417166 0 
0.0102703 -0.0401734 0 
0.0110305 -0.0422746 0 
0.0102703 -0.0401734 0 
0.0260411 -0.024376 0 
0.00994942 -0.0378827 0 
0.0102703 -0.0401734 0 
0.00994942 -0.0378827 0 
0.0102703 -0.0401734 0 
0.010136 -0.0417166 0 
0.0260411 -0.024376 0 
0.010136 -0.0417166 0 
0.0984398 0.129351 0 
0.0188545 -0.0221253 0 
0.226736 0.277004 0 
0.0188545 -0.0221253 0 
0.226736 0.277004 0 
0.0260411 -0.024376 0 
0.328265 0.208026 0 
0.0260411 -0.024376 0 
0.0188545 -0.0221253 0 
0.00994942 -0.0378827 0 
0.0260411 -0.024376 0 
0.00994942 -0.0378827 0 
0.0260411 -0.024376 0 
0.226736 0.277004 0 
0.0188545 -0.0221253 0 
0.226736 0.277004 0 
0.0077152 -0.0310349 0 
0.00917698 -0.0334204 0 
0.0176209 -0.0138608 0 
0.00917698 -0.0334204 0 
0.0176209 -0.0138608 0 
0.0188545 -0.0221253 0 
0.0984398 0.129351 0 
0.0188545 -0.0221253 0 
0.00917698 -0.0334204 0 
0.00994942 -0.0378827 0 
0.0188545 -0.0221253 0 
0.00994942 -0.0378827 0 
0.0188545 -0.0221253 0 
0.0176209 -0.0138608 0 
0.00917698 -0.0334204 0 
0.0176209 -0.0138608 0 

