MESH dimension 3 ElemType Linear Nnode 2
Coordinates
    1               5               0               0
    2           3.875               0               0
    3               5            1.25               0
    4            2.75               0               0
    5        3.457105        1.792895               0
    6               5             2.5               0
    7      2.71782875      1.71967125               0
    8      3.53032875      2.59467125               0
    9           1.625               0               0
   10       1.9785525       1.6464475               0
   11       3.6035525       3.3964475               0
   12               5            3.75               0
   13      1.23927625      1.57322375               0
   14      3.67677625      4.19822375               0
   15             0.5               0               0
   16           0.375               0               0
   17         1.91421         3.58579               0
   18             0.5             1.5               0
   19            0.25               0               0
   20       1.5606575       3.4393425               0
   21           0.375       1.5258885               0
   22           0.125               0               0
   23       2.0606575       3.9393425               0
   24            0.25      1.55177699               0
   25               0               0               0
   26               5               5               0
   27        1.207105        3.292895               0
   28        2.207105        4.292895               0
   29           0.125      1.57766549               0
   30            3.75               5               0
   31       0.8535525       3.1464475               0
   32         1.56066         3.93934               0
   33               0      1.60355399               0
   34        1.295495        3.829505               0
   35       2.3535525       4.6464475               0
   36        1.670495        4.204505               0
   37             0.5               3               0
   38         1.03033         3.71967               0
   39         1.78033         4.46967               0
   40           0.375      3.05177699               0
   41        0.765165        3.609835               0
   42             2.5               5               0
   43        1.890165        4.734835               0
   44            0.25      3.10355399               0
   45             0.5             3.5               0
   46         1.20711         4.29289               0
   47       1.0303325       4.2196675               0
   48       1.1553325       4.3446675               0
   49           0.125      3.15533098               0
   50       1.2803325       4.4696675               0
   51               2               5               0
   52           0.375      3.55177655               0
   53     0.989679072      4.27605232               0
   54        0.853555        4.146445               0
   55        1.103555        4.396445               0
   56      1.22394768      4.51032093               0
   57        1.353555        4.646445               0
   58      0.82766625        4.208945               0
   59      0.95266625        4.333945               0
   60       0.6767775       4.0732225               0
   61               0      3.20710798               0
   62       1.0517775       4.4482225               0
   63        1.166055      4.54733375               0
   64            0.25       3.6035531               0
   65        1.291055      4.67233375               0
   66       0.8017775        4.271445               0
   67     0.665653428      4.14183768               0
   68     0.915653428      4.39183768               0
   69       1.4267775       4.8232225               0
   70      1.10816232      4.58434657               0
   71             0.5               4               0
   72               1             4.5               0
   73        1.228555       4.6982225               0
   74      0.77588875        4.333945               0
   75      0.65088875        4.208945               0
   76      1.35816232      4.83434657               0
   77           0.875       4.4482225               0
   78             0.5       4.0732225               0
   79       1.0517775           4.625               0
   80        1.166055      4.72411125               0
   81           0.125      3.65532966               0
   82     0.945710678      4.55428932               0
   83             1.5               5               0
   84        1.291055      4.84911125               0
   85     0.636124072      4.27605232               0
   86            0.75        4.396445               0
   87             0.5        4.146445               0
   88       0.8323744      4.50734327               0
   89        1.103555            4.75               0
   90       1.4267775               5               0
   91           0.375      4.05177611               0
   92     0.992656734       4.6676256               0
   93      1.22394768      4.86387593               0
   94           0.625       4.3446675               0
   95             0.5       4.2196675               0
   96     0.891421356      4.60857864               0
   97     0.722855339      4.46197841               0
   98        1.353555               5               0
   99           0.375      4.12499891               0
  100      1.03802159      4.77714466               0
  101       1.1553325           4.875               0
  102     0.793566017      4.56804523               0
  103             0.5         4.29289               0
  104     0.931954767      4.70643398               0
  105               0      3.70710621               0
  106     0.613336279      4.41661356               0
  107       1.2803325               5               0
  108           0.375      4.19822181               0
  109     0.695710678      4.52751182               0
  110     0.837132034      4.66286797               0
  111      1.08338644      4.88666372               0
  112     0.972488178      4.80428932               0
  113             0.5       4.3696675               0
  114         1.20711               5               0
  115            0.25      4.10355222               0
  116     0.754757635       4.6287472               0
  117     0.597855339      4.48697841               0
  118     0.871252801      4.74524237               0
  119           0.375       4.2714447               0
  120     0.668566017      4.59304523               0
  121      1.01302159      4.90214466               0
  122       1.1303325               5               0
  123            0.25      4.17677542               0
  124             0.5        4.446445               0
  125     0.782842712      4.71715729               0
  126     0.906954767      4.83143398               0
  127           0.375       4.3446675               0
  128       0.5823744      4.55734327               0
  129     0.712132034      4.68786797               0
  130     0.812132034      4.78786797               0
  131        1.053555               5               0
  132            0.25      4.24999861               0
  133     0.942656734       4.9176256               0
  134     0.747487284      4.75251297               0
  135     0.641421356      4.65857864               0
  136             0.5       4.5232225               0
  137     0.386663721      4.41661356               0
  138     0.841421356      4.85857864               0
  139     0.684372499      4.72636988               0
  140           0.125      4.15532833               0
  141     0.570710678      4.62928932               0
  142     0.773630311       4.8156277               0
  143       0.9767775               5               0
  144            0.25      4.32322181               0
  145     0.623743642      4.70125648               0
  146     0.402144661      4.48697841               0
  147     0.712131856      4.78786864               0
  148     0.870710678      4.92928932               0
  149             0.5             4.6               0
  150     0.798743642      4.87625648               0
  151     0.563114785      4.67614308               0
  152     0.659098892      4.76590148               0
  153     0.734098892      4.84090148               0
  154           0.125      4.22855192               0
  155       0.4176256      4.55734327               0
  156             0.9               5               0
  157     0.606065928      4.74393432               0
  158     0.823856973      4.93688527               0
  159             0.5            4.65               0
  160            0.25        4.396445               0
  161     0.676776428      4.82322432               0
  162     0.756065928      4.89393432               0
  163     0.553032964      4.72196716               0
  164     0.633825285      4.80543308               0
  165     0.277144661      4.46197841               0
  166     0.694567473      4.86617527               0
  167            0.85               5               0
  168           0.125      4.30177542               0
  169     0.778032964      4.94696716               0
  170     0.429289322      4.62928932               0
  171             0.5             4.7               0
  172     0.588388214      4.78661216               0
  173     0.713388214      4.91161216               0
  174     0.304289322      4.52751182               0
  175     0.542951143      4.76779124               0
  176        0.641421         4.85858               0
  177             0.8               5               0
  178     0.436885215      4.67614308               0
  179               0      4.20710444               0
  180      0.60606575        4.843935               0
  181     0.732208955      4.95704905               0
  182             0.5            4.75               0
  183      0.65606575        4.893935               0
  184     0.331433983      4.59304523               0
  185           0.125      4.37499891               0
  186       0.6237435       4.8762575               0
  187       0.5707105         4.82929               0
  188     0.446967036      4.72196716               0
  189       0.6707105         4.92929               0
  190            0.75               5               0
  191      0.59218615      4.86318569               0
  192      0.53535525        4.814645               0
  193     0.636815057       4.9078146               0
  194      0.56187175      4.85062875               0
  195     0.358578644      4.65857864               0
  196        0.606066        4.893935               0
  197      0.68535525        4.964645               0
  198             0.5             4.8               0
  199      0.64937175      4.93812875               0
  200               0      4.28032833               0
  201     0.457048857      4.76779124               0
  202      0.53155735      4.83807181               0
  203       0.5795495      4.88295125               0
  204       0.6170495      4.92045125               0
  205     0.376256358      4.70125648               0
  206             0.7               5               0
  207     0.661928443       4.9684429               0
  208        0.553033       4.8719675               0
  209             0.5           4.825               0
  210           0.125       4.4482225               0
  211       0.5883885       4.9116125               0
  212        0.628033       4.9469675               0
  213       0.5265165      4.86098375               0
  214       0.1676256      4.50734327               0
  215      0.56691285      4.90271681               0
  216           0.675               5               0
  217     0.597283943       4.9330879               0
  218     0.393934072      4.74393432               0
  219      0.46464475        4.814645               0
  220       0.6390165      4.97348375               0
  221             0.5            4.85               0
  222      0.54419425      4.89330625               0
  223     0.206433983      4.56804523               0
  224      0.60669425      4.95580625               0
  225      0.52147565      4.88389569               0
  226        0.570711         4.92929               0
  227            0.65               5               0
  228      0.46844265      4.83807181               0
  229               0      4.35355222               0
  230     0.411611786      4.78661216               0
  231      0.55303325       4.9219675               0
  232     0.616104557       4.9785246               0
  233             0.5           4.875               0
  234      0.57803325       4.9469675               0
  235     0.245242365       4.6287472               0
  236       0.5353555        4.914645               0
  237       0.4734835      4.86098375               0
  238       0.5853555        4.964645               0
  239           0.625               5               0
  240      0.55803325       4.9419675               0
  241      0.51767775       4.9073225               0
  242     0.287867966      4.68786797               0
  243       0.4292895         4.82929               0
  244     0.543079235      4.93621819               0
  245      0.59267775       4.9823225               0
  246      0.56378236      4.95692132               0
  247             0.5             4.9               0
  248     0.315627501      4.72636988               0
  249      0.47852435      4.88389569               0
  250     0.529016625      4.93098375               0
  251      0.43812825      4.85062875               0
  252     0.569016625      4.97098375               0
  253             0.6               5               0
  254     0.514954015      4.92574931               0
  255       0.5453555        4.954645               0
  256     0.340901108      4.76590148               0
  257      0.57425089      4.98504618               0
  258             0.5            4.92               0
  259     0.534016625      4.95098375               0
  260        0.446967       4.8719675               0
  261     0.549016625      4.96598375               0
  262      0.48232225       4.9073225               0
  263      0.52267775       4.9473225               0
  264            0.58               5               0
  265      0.55267775       4.9773225               0
  266     0.366174715      4.80543308               0
  267     0.511338875      4.94366125               0
  268      0.45580575      4.89330625               0
  269               0      4.42677611               0
  270      0.53267775       4.9673225               0
  271     0.556338875      4.98866125               0
  272     0.485045985      4.92574931               0
  273             0.5            4.94               0
  274      0.39393425        4.843935               0
  275     0.524954015      4.96574931               0
  276      0.53425089      4.97504618               0
  277            0.56               5               0
  278       0.4646445        4.914645               0
  279      0.40781385      4.86318569               0
  280     0.516338875      4.96366125               0
  281     0.536338875      4.98366125               0
  282     0.488661125      4.94366125               0
  283     0.507723735      4.96157319               0
  284       0.4204505      4.88295125               0
  285     0.470983375      4.93098375               0
  286      0.53842686      4.99227632               0
  287             0.5            4.96               0
  288            0.52            4.98               0
  289            0.54               5               0
  290      0.43308715      4.90271681               0
  291           0.515            4.98               0
  292            0.52           4.985               0
  293      0.47732225       4.9473225               0
  294     0.492276265      4.96157319               0
  295      0.44696675       4.9219675               0
  296            0.51            4.98               0
  297           0.515           4.985               0
  298            0.52            4.99               0
  299           0.505            4.98               0
  300     0.456920765      4.93621819               0
  301            0.51           4.985               0
  302           0.515            4.99               0
  303            0.52           4.995               0
  304     0.483661125      4.96366125               0
  305             0.5            4.98               0
  306           0.505           4.985               0
  307            0.51            4.99               0
  308           0.515           4.995               0
  309     0.465983375      4.95098375               0
  310            0.52               5               0
  311           0.495            4.98               0
  312             0.5           4.985               0
  313           0.505            4.99               0
  314            0.51           4.995               0
  315           0.515               5               0
  316     0.252512716      4.75251297               0
  317     0.217157288      4.71715729               0
  318     0.287868144      4.78786864               0
  319     0.475045985      4.96574931               0
  320     0.323223572      4.82322432               0
  321     0.162867966      4.66286797               0
  322            0.49            4.98               0
  323           0.495           4.985               0
  324        0.358579         4.85858               0
  325             0.5            4.99               0
  326           0.505           4.995               0
  327       0.3762565       4.8762575               0
  328            0.51               5               0
  329     0.108578644      4.60857864               0
  330        0.393934        4.893935               0
  331       0.4116115       4.9116125               0
  332           0.485            4.98               0
  333        0.429289         4.92929               0
  334            0.49           4.985               0
  335           0.495            4.99               0
  336      0.44196675       4.9419675               0
  337             0.5           4.995               0
  338    0.0542893219      4.55428932               0
  339           0.505               5               0
  340       0.4546445        4.954645               0
  341      0.46732225       4.9673225               0
  342            0.48            4.98               0
  343           0.485           4.985               0
  344            0.49            4.99               0
  345           0.495           4.995               0
  346             0.5               5               0
  347               0             4.5               0
  348            0.48           4.985               0
  349           0.485            4.99               0
  350            0.49           4.995               0
  351           0.495               5               0
  352      0.46574911      4.97504618               0
  353            0.48            4.99               0
  354           0.485           4.995               0
  355            0.49               5               0
  356     0.450983375      4.96598375               0
  357            0.48           4.995               0
  358           0.485               5               0
  359      0.43621764      4.95692132               0
  360     0.463661125      4.98366125               0
  361            0.48               5               0
  362      0.42196675       4.9469675               0
  363     0.402716057       4.9330879               0
  364      0.44732225       4.9773225               0
  365      0.46157314      4.99227632               0
  366       0.3829505      4.92045125               0
  367     0.430983375      4.97098375               0
  368     0.363184943       4.9078146               0
  369            0.46               5               0
  370      0.34393425        4.893935               0
  371     0.443661125      4.98866125               0
  372       0.4146445        4.964645               0
  373     0.305432527      4.86617527               0
  374      0.42574911      4.98504618               0
  375      0.39330575      4.95580625               0
  376            0.44               5               0
  377     0.265901108      4.84090148               0
  378        0.371967       4.9469675               0
  379      0.40732225       4.9823225               0
  380            0.42               5               0
  381     0.226369689       4.8156277               0
  382      0.35062825      4.93812875               0
  383     0.187867966      4.78786797               0
  384     0.383895443       4.9785246               0
  385       0.3292895         4.92929               0
  386     0.139871272      4.74524237               0
  387             0.4               5               0
  388    0.0939339828      4.70643398               0
  389       0.3609835      4.97348375               0
  390    0.0479966941       4.6676256               0
  391     0.286611786      4.91161216               0
  392           0.375               5               0
  393               0           4.625               0
  394     0.338071557       4.9684429               0
  395     0.243934072      4.89393432               0
  396      0.31464475        4.964645               0
  397            0.35               5               0
  398     0.201256358      4.87625648               0
  399           0.325               5               0
  400     0.267791045      4.95704905               0
  401     0.158578644      4.85857864               0
  402             0.3               5               0
  403     0.118933983      4.83143398               0
  404    0.0792893219      4.80428932               0
  405     0.221967036      4.94696716               0
  406    0.0396446609      4.77714466               0
  407            0.25               5               0
  408               0            4.75               0
  409     0.176143027      4.93688527               0
  410     0.129289322      4.92928932               0
  411             0.2               5               0
  412    0.0979966941       4.9176256               0
  413    0.0646446609      4.90214466               0
  414            0.15               5               0
  415    0.0312926277      4.88666372               0
  416               0           4.875               0
  417             0.1               5               0
  418             0.1               5     0.217157288
  419           0.075               5               0
  420            0.05               5               0
  421           0.025               5               0
  422               0               5               0
End Coordinates

Elements
385 328 339
386 339 346
387 315 328
388 310 315
389 346 351
390 351 355
391 355 358
392 358 361
393 380 387
394 376 380
395 361 369
396 369 376
397 253 264
398 277 289
399 289 310
400 264 277
401 206 216
402 239 253
403 227 239
404 216 227
405 399 402
406 397 399
407 392 397
408 387 392
409 402 407
410 411 414
411 414 417
412 407 411
413 190 206
414 177 190
415 167 177
416 156 167
417 393 347
418 422 416
419 421 422
420 416 408
421 417 419
422 420 421
423 419 420
424 408 393
425 114 122
426 131 143
427 143 156
428 122 131
429 90 98
430 98 107
431 83 90
432 107 114
433 42 51
434 51 83
435 269 229
436 347 269
437 229 200
438 200 179
439 105 61
440 179 105
441 33 25
442 25 22
443 61 33
444 22 19
445 19 16
446 16 15
447 9 4
448 15 9
449 4 2
450 2 1
451 30 42
452 6 12
453 12 26
454 3 6
455 1 3
456 26 30
457 328 339
458 339 346
459 315 328
460 310 315
461 346 351
462 351 355
463 355 358
464 358 361
465 380 387
466 376 380
467 361 369
468 369 376
469 253 264
470 277 289
471 289 310
472 264 277
473 206 216
474 239 253
475 227 239
476 216 227
477 399 402
478 397 399
479 392 397
480 387 392
481 402 407
482 411 414
483 414 417
484 407 411
485 190 206
486 177 190
487 167 177
488 156 167
489 393 347
490 422 416
491 421 422
492 416 408
493 417 419
494 420 421
495 419 420
496 408 393
497 114 122
498 131 143
499 143 156
500 122 131
501 90 98
502 98 107
503 83 90
504 107 114
505 42 51
506 51 83
507 269 229
508 347 269
509 229 200
510 200 179
511 105 61
512 179 105
513 33 25
514 25 22
515 61 33
516 22 19
517 19 16
518 16 15
519 9 4
520 15 9
521 4 2
522 2 1
523 30 42
524 6 12
525 12 26
526 3 6
527 1 3
528 26 30
End Elements

MESH dimension 3 ElemType Quadrilateral Nnode 4
Coordinates
End Coordinates

Elements
1 357 354 358 361
2 353 349 354 357
3 348 343 349 353
4 342 332 343 348
5 354 350 355 358
6 349 344 350 354
7 343 334 344 349
8 332 322 334 343
9 350 345 351 355
10 344 335 345 350
11 334 323 335 344
12 322 311 323 334
13 345 337 346 351
14 335 325 337 345
15 323 312 325 335
16 311 305 312 323
17 337 326 339 346
18 325 313 326 337
19 312 306 313 325
20 305 299 306 312
21 326 314 328 339
22 313 307 314 326
23 306 301 307 313
24 299 296 301 306
25 314 308 315 328
26 307 302 308 314
27 301 297 302 307
28 296 291 297 301
29 308 303 310 315
30 302 298 303 308
31 297 292 298 302
32 291 288 292 297
33 379 374 380 387
34 372 367 374 379
35 362 359 367 372
36 333 336 359 362
37 374 371 376 380
38 367 364 371 374
39 359 356 364 367
40 336 340 356 359
41 371 365 369 376
42 364 360 365 371
43 356 352 360 364
44 340 341 352 356
45 365 357 361 369
46 360 353 357 365
47 352 348 353 360
48 341 342 348 352
49 295 300 336 333
50 278 285 300 295
51 262 272 285 278
52 247 258 272 262
53 300 309 340 336
54 285 293 309 300
55 272 282 293 285
56 258 273 282 272
57 309 319 341 340
58 293 304 319 309
59 282 294 304 293
60 273 287 294 282
61 319 332 342 341
62 304 322 332 319
63 294 311 322 304
64 287 305 311 294
65 241 254 258 247
66 236 250 254 241
67 231 244 250 236
68 226 240 244 231
69 254 267 273 258
70 250 263 267 254
71 244 259 263 250
72 240 255 259 244
73 267 283 287 273
74 263 280 283 267
75 259 275 280 263
76 255 270 275 259
77 283 299 305 287
78 280 296 299 283
79 275 291 296 280
80 270 288 291 275
81 234 246 240 226
82 238 252 246 234
83 245 257 252 238
84 253 264 257 245
85 246 261 255 240
86 252 265 261 246
87 257 271 265 252
88 264 277 271 257
89 261 276 270 255
90 265 281 276 261
91 271 286 281 265
92 277 289 286 271
93 276 292 288 270
94 281 298 292 276
95 286 303 298 281
96 289 310 303 286
97 183 193 186 176
98 189 199 193 183
99 197 207 199 189
100 206 216 207 197
101 193 204 196 186
102 199 212 204 193
103 207 220 212 199
104 216 227 220 207
105 204 217 211 196
106 212 224 217 204
107 220 232 224 212
108 227 239 232 220
109 217 234 226 211
110 224 238 234 217
111 232 245 238 224
112 239 253 245 232
113 192 202 209 198
114 187 194 202 192
115 180 191 194 187
116 176 186 191 180
117 202 213 221 209
118 194 208 213 202
119 191 203 208 194
120 186 196 203 191
121 213 225 233 221
122 208 222 225 213
123 203 215 222 208
124 196 211 215 203
125 225 241 247 233
126 222 236 241 225
127 215 231 236 222
128 211 226 231 215
129 274 279 327 324
130 243 251 279 274
131 219 228 251 243
132 198 209 228 219
133 279 284 330 327
134 251 260 284 279
135 228 237 260 251
136 209 221 237 228
137 284 290 331 330
138 260 268 290 284
139 237 249 268 260
140 221 233 249 237
141 290 295 333 331
142 268 278 295 290
143 249 262 278 268
144 233 247 262 249
145 396 394 399 402
146 385 382 394 396
147 370 368 382 385
148 324 327 368 370
149 394 389 397 399
150 382 378 389 394
151 368 366 378 382
152 327 330 366 368
153 389 384 392 397
154 378 375 384 389
155 366 363 375 378
156 330 331 363 366
157 384 379 387 392
158 375 372 379 384
159 363 362 372 375
160 331 333 362 363
161 370 373 320 324
162 385 391 373 370
163 396 400 391 385
164 402 407 400 396
165 373 377 318 320
166 391 395 377 373
167 400 405 395 391
168 407 411 405 400
169 377 381 316 318
170 395 398 381 377
171 405 409 398 395
172 411 414 409 405
173 381 383 317 316
174 398 401 383 381
175 409 410 401 398
176 414 417 410 409
177 219 201 182 198
178 243 230 201 219
179 274 266 230 243
180 324 320 266 274
181 201 188 171 182
182 230 218 188 201
183 266 256 218 230
184 320 318 256 266
185 188 178 159 171
186 218 205 178 188
187 256 248 205 218
188 318 316 248 256
189 178 170 149 159
190 205 195 170 178
191 248 242 195 205
192 316 317 242 248
193 180 164 161 176
194 187 172 164 180
195 192 175 172 187
196 198 182 175 192
197 164 152 147 161
198 172 157 152 164
199 175 163 157 172
200 182 171 163 175
201 152 139 134 147
202 157 145 139 152
203 163 151 145 157
204 171 159 151 163
205 139 129 125 134
206 145 135 129 139
207 151 141 135 145
208 159 149 141 151
209 197 181 190 206
210 189 173 181 197
211 183 166 173 189
212 176 161 166 183
213 181 169 177 190
214 173 162 169 181
215 166 153 162 173
216 161 147 153 166
217 169 158 167 177
218 162 150 158 169
219 153 142 150 162
220 147 134 142 153
221 158 148 156 167
222 150 138 148 158
223 142 130 138 150
224 134 125 130 142
225 416 415 421 422
226 408 406 415 416
227 393 390 406 408
228 347 338 390 393
229 415 413 420 421
230 406 404 413 415
231 390 388 404 406
232 338 329 388 390
233 413 412 419 420
234 404 403 412 413
235 388 386 403 404
236 329 321 386 388
237 412 410 417 419
238 403 401 410 412
239 386 383 401 403
240 321 317 383 386
241 170 155 136 149
242 195 184 155 170
243 242 235 184 195
244 317 321 235 242
245 155 146 124 136
246 184 174 146 155
247 235 223 174 184
248 321 329 223 235
249 146 137 113 124
250 174 165 137 146
251 223 214 165 174
252 329 338 214 223
253 137 127 103 113
254 165 160 127 137
255 214 210 160 165
256 338 347 210 214
257 129 116 110 125
258 135 120 116 129
259 141 128 120 135
260 149 136 128 141
261 116 102 96 110
262 120 109 102 116
263 128 117 109 120
264 136 124 117 128
265 102 88 82 96
266 109 97 88 102
267 117 106 97 109
268 124 113 106 117
269 88 77 72 82
270 97 86 77 88
271 106 94 86 97
272 113 103 94 106
273 148 133 143 156
274 138 126 133 148
275 130 118 126 138
276 125 110 118 130
277 133 121 131 143
278 126 112 121 133
279 118 104 112 126
280 110 96 104 118
281 121 111 122 131
282 112 100 111 121
283 104 92 100 112
284 96 82 92 104
285 111 101 114 122
286 100 89 101 111
287 92 79 89 100
288 82 72 79 92
289 101 93 107 114
290 89 80 93 101
291 79 70 80 89
292 72 62 70 79
293 93 84 98 107
294 80 73 84 93
295 70 63 73 80
296 62 55 63 70
297 84 76 90 98
298 73 65 76 84
299 63 56 65 73
300 55 48 56 63
301 76 69 83 90
302 65 57 69 76
303 56 50 57 65
304 48 46 50 56
305 23 36 32 17
306 28 39 36 23
307 35 43 39 28
308 42 51 43 35
309 36 50 46 32
310 39 57 50 36
311 43 69 57 39
312 51 83 69 43
313 31 41 45 37
314 27 38 41 31
315 20 34 38 27
316 17 32 34 20
317 41 60 71 45
318 38 54 60 41
319 34 47 54 38
320 32 46 47 34
321 77 68 62 72
322 86 74 68 77
323 94 85 74 86
324 103 95 85 94
325 68 59 55 62
326 74 66 59 68
327 85 75 66 74
328 95 87 75 85
329 59 53 48 55
330 66 58 53 59
331 75 67 58 66
332 87 78 67 75
333 53 47 46 48
334 58 54 47 53
335 67 60 54 58
336 78 71 60 67
337 269 185 210 347
338 229 168 185 269
339 200 154 168 229
340 179 140 154 200
341 185 144 160 210
342 168 132 144 185
343 154 123 132 168
344 140 115 123 154
345 144 119 127 160
346 132 108 119 144
347 123 99 108 132
348 115 91 99 123
349 119 95 103 127
350 108 87 95 119
351 99 78 87 108
352 91 71 78 99
353 49 81 105 61
354 44 64 81 49
355 40 52 64 44
356 37 45 52 40
357 81 140 179 105
358 64 115 140 81
359 52 91 115 64
360 45 71 91 52
361 40 21 18 37
362 44 24 21 40
363 49 29 24 44
364 61 33 29 49
365 21 16 15 18
366 24 19 16 21
367 29 22 19 24
368 33 25 22 29
369 20 7 5 17
370 27 10 7 20
371 31 13 10 27
372 37 18 13 31
373 7 2 1 5
374 10 4 2 7
375 13 9 4 10
376 18 15 9 13
377 35 14 30 42
378 28 11 14 35
379 23 8 11 28
380 17 5 8 23
381 14 12 26 30
382 11 6 12 14
383 8 3 6 11
384 5 1 3 8
End Elements

