MESH dimension 3 ElemType Linear Nnode 2
Coordinates
    1               5               0               0
    2           3.875               0               0
    3       4.2285525       0.8964475               0
    4               5            1.25               0
    5      3.30699525     0.836649545               0
    6       4.2648822      1.92294381               0
    7            2.75               0               0
    8        3.457105        1.792895               0
    9               5             2.5               0
   10      2.37557499     0.792736672               0
   11      2.73474757      1.68185181               0
   12      3.52955101      2.59687726               0
   13      4.30117526      2.95028803               0
   14      2.00000628      1.59294367               0
   15           1.625               0               0
   16       2.6856575       2.6893425               0
   17      1.43889803     0.767100504               0
   18       3.6025451      3.39916736               0
   19      2.17474873      2.50553233               0
   20               5            3.75               0
   21      2.79443438      3.26861404               0
   22      4.33800153      3.97540611               0
   23      1.25364605      1.53276112               0
   24      1.63602273      2.36457838               0
   25      2.90395371      3.84645373               0
   26      3.67615265      4.19968587               0
   27             0.5               0               0
   28      1.07354889      2.28103795               0
   29             0.5            0.75               0
   30           0.375               0               0
   31     0.373897183     0.760324446               0
   32      1.64253335      3.28650994               0
   33         1.91421         3.58579               0
   34             0.5             1.5               0
   35            0.25               0               0
   36       0.2485175     0.772333831               0
   37      1.29578702      3.07879959               0
   38     0.372815667      1.52050484               0
   39           0.125               0               0
   40      3.01422702      4.42332888               0
   41      2.05890578      3.94006863               0
   42     0.124044202     0.786559222               0
   43      1.46968633      3.54551983               0
   44        1.737435        3.762565               0
   45     0.247096616      1.54476827               0
   46               0               0               0
   47               5               5               0
   48             0.5            2.25               0
   49           4.375               5               0
   50      1.16827162      3.38414565               0
   51               0     0.801776994               0
   52     0.903727533      2.98048393               0
   53      2.20477142      4.29386349               0
   54      0.12302006      1.57300778               0
   55       1.8651048      4.07140961               0
   56            3.75               5               0
   57     0.371284223      2.27939647               0
   58      1.32051686      3.77100908               0
   59         1.56066         3.93934               0
   60     0.839754673      3.29097316               0
   61               0      1.60355399               0
   62     0.244766582      2.31502837               0
   63      1.06147148      3.64153872               0
   64       1.9932951      4.38124139               0
   65           3.125               5               0
   66      2.35180172      4.64717593               0
   67      1.67088392        4.202249               0
   68             0.5               3               0
   69     0.121122757      2.35760008               0
   70     0.784983218      3.55624648               0
   71      1.18387046      3.97705681               0
   72        1.383885        4.116115               0
   73      2.12153275      4.69073368               0
   74      1.78117103      4.46829552               0
   75     0.367927235      3.03297269               0
   76               0      2.40533098               0
   77     0.968043552      3.86851306               0
   78             0.5            3.25               0
   79      1.47618885      4.32948459               0
   80             2.5               5               0
   81      1.89077505      4.73420466               0
   82     0.239746067      3.07879907               0
   83     0.369424287      3.28784635               0
   84     0.737689048      3.79591389               0
   85             0.5             3.5               0
   86      1.56925912      4.55491079               0
   87            2.25               5               0
   88         1.20711         4.29289               0
   89      1.06100206      4.15936611               0
   90     0.888125552      4.06298269               0
   91      1.01907599      4.21982545               0
   92       1.1553325       4.3446675               0
   93     0.116704387      3.13703321               0
   94     0.242251975      3.33508336               0
   95      1.28461724      4.46786676               0
   96     0.369509622      3.53827264               0
   97               2               5               0
   98       1.6602787      4.77764539               0
   99     0.861185147       4.1312222               0
  100             0.5            3.75               0
  101      1.23318082       4.5055834               0
  102        1.103555        4.396445               0
  103     0.976925003      4.28571358               0
  104     0.697729424      4.00889602               0
  105      1.35928016      4.64407361               0
  106     0.829362086      4.20484953               0
  107      1.18665376      4.53729208               0
  108     0.685879152      4.08181205               0
  109               0      3.20710798               0
  110     0.119500296      3.39274025               0
  111       1.0517775       4.4482225               0
  112      1.30358185      4.66646295               0
  113     0.242586105      3.58592225               0
  114     0.934774019      4.35160171               0
  115            1.75               5               0
  116     0.368276776      3.78440155               0
  117       1.1401267      4.56900075               0
  118     0.797539024      4.27847685               0
  119       1.2568171      4.68651585               0
  120      1.43108061      4.82146612               0
  121     0.667839741      4.15768665               0
  122             0.5               4               0
  123               1             4.5               0
  124     0.892847941      4.41206105               0
  125      1.21005235      4.70656874               0
  126      1.08869028      4.60671739               0
  127       1.3677738      4.83052242               0
  128     0.770598619      4.34671636               0
  129             0.5       4.0732225               0
  130      0.64980033      4.23356124               0
  131               0      3.45710709               0
  132      1.31272102      4.84164613               0
  133     0.119857351      3.64350987               0
  134      1.15435403      4.72895808               0
  135     0.945710678      4.55428932               0
  136     0.849400504       4.4737971               0
  137             1.5               5               0
  138     0.240350483      3.83039444               0
  139      1.02680598      4.65015829               0
  140             0.5        4.146445               0
  141      1.25766823      4.85276985               0
  142     0.637950058      4.30647727               0
  143     0.742669779      4.41587869               0
  144     0.364059483       4.0207379               0
  145       1.4267775               5               0
  146      1.08497667      4.75684086               0
  147             0.5       4.2196675               0
  148     0.891421356      4.60857864               0
  149      1.19436142      4.86182615               0
  150     0.807537994      4.53973651               0
  151     0.363745488       4.0928432               0
  152        1.353555               5               0
  153     0.625700227      4.38113625               0
  154      0.96063905      4.69224456               0
  155     0.711835977      4.48858219               0
  156             0.5         4.29289               0
  157               0      3.70710621               0
  158      1.11954916       4.8740573               0
  159      1.01195292      4.78794227               0
  160       1.2803325               5               0
  161       0.3630547      4.16360759               0
  162     0.117749256      3.88916358               0
  163     0.837132034      4.66286797               0
  164     0.765675484      4.60567592               0
  165     0.607993081       4.4570815               0
  166     0.233196047      4.06298319               0
  167      0.89447212      4.73433082               0
  168             0.5       4.3696675               0
  169         1.20711               5               0
  170     0.362363912      4.23437198               0
  171     0.681002176      4.56128568               0
  172      1.04333777      4.89189495               0
  173      0.93892917      4.81904369               0
  174      0.23260312       4.1347752               0
  175       1.1303325               5               0
  176     0.590285936      4.53302674               0
  177             0.5        4.446445               0
  178     0.782842712      4.71715729               0
  179     0.362049917      4.30647728               0
  180     0.722228046      4.66741196               0
  181     0.832587821      4.77777172               0
  182     0.653073336      4.63044801               0
  183      0.96712637      4.90973259               0
  184     0.231298683      4.20484979               0
  185     0.869551806      4.84692647               0
  186        1.053555               5               0
  187     0.374248517      4.38115748               0
  188               0      3.95710532               0
  189     0.747487284      4.75251297               0
  190     0.693863534      4.70758816               0
  191             0.5       4.5232225               0
  192     0.578036104      4.60768572               0
  193     0.792392355      4.80608947               0
  194     0.634775545       4.6754438               0
  195     0.110789191       4.1256447               0
  196     0.229994245      4.27492438               0
  197     0.892314111      4.92196374               0
  198     0.392006899       4.4570815               0
  199     0.824525572      4.86515068               0
  200       0.9767775               5               0
  201     0.570006633      4.65628474               0
  202     0.712131856      4.78786864               0
  203     0.666670946       4.7505596               0
  204             0.5             4.6               0
  205     0.749440588      4.83332938               0
  206     0.110220875      4.19785614               0
  207     0.614804974      4.72283649               0
  208      0.84370063      4.92995829               0
  209     0.409765282      4.53300552               0
  210     0.229401319      4.34671639               0
  211     0.777163548      4.88519526               0
  212             0.9               5               0
  213     0.558527099      4.70576456               0
  214             0.5            4.65               0
  215     0.676776428      4.82322432               0
  216     0.639478358      4.79353104               0
  217     0.257221841      4.41592358               0
  218     0.706488821       4.8605693               0
  219     0.794235372        4.941473               0
  220     0.108970579       4.2688529               0
  221     0.594834404      4.77022917               0
  222     0.421963882      4.60768572               0
  223            0.85               5               0
  224     0.729801524      4.90523984               0
  225             0.5             4.7               0
  226     0.288163974      4.48858221               0
  227     0.547047564      4.75524439               0
  228     0.429958339      4.65629925               0
  229        0.641421         4.85858               0
  230     0.611113845      4.83370723               0
  231     0.744770114      4.95298772               0
  232             0.8               5               0
  233     0.666293355      4.88888705               0
  234               0      4.20710444               0
  235     0.319106106      4.56124083               0
  236     0.576536613      4.81522497               0
  237     0.107720284      4.33984967               0
  238             0.5            4.75               0
  239     0.684775291      4.92346405               0
  240     0.441472912      4.70576457               0
  241       0.6237435       4.8762575               0
  242     0.596931737      4.85379501               0
  243     0.539018093      4.80384341               0
  244     0.646195858      4.90304567               0
  245     0.567387796      4.83772263               0
  246            0.75               5               0
  247     0.346926629      4.63044802               0
  248     0.696156634      4.96098226               0
  249     0.662262378      4.93257604               0
  250     0.535003376       4.8281428               0
  251        0.606066        4.893935               0
  252     0.583335578      4.87528036               0
  253     0.452987484      4.75522988               0
  254             0.5             4.8               0
  255     0.624720289      4.91666541               0
  256               0      4.28032833               0
  257     0.365150669      4.67547437               0
  258     0.557402592      4.86141864               0
  259      0.67185001      4.96497958               0
  260     0.107151968      4.41206111               0
  261     0.638581718      4.94259833               0
  262             0.7               5               0
  263             0.5           4.825               0
  264     0.150530084      4.47382587               0
  265     0.529263629       4.8528825               0
  266       0.5883885       4.9116125               0
  267     0.385195025      4.72283649               0
  268     0.569739419      4.89676572               0
  269      0.60324472      4.93028516               0
  270      0.64711763      4.97073715               0
  271     0.460981942      4.80384341               0
  272     0.547417387      4.88511466               0
  273           0.675               5               0
  274     0.192461935      4.53973656               0
  275     0.614901057      4.95262061               0
  276             0.5            4.85               0
  277     0.523523881       4.8776222               0
  278     0.405239381      4.77019862               0
  279      0.46497916      4.82815005               0
  280        0.570711         4.92929               0
  281            0.65               5               0
  282     0.234393785      4.60564724               0
  283     0.555557311      4.91685349               0
  284     0.622385251      4.97649472               0
  285               0      4.35355222               0
  286     0.583147223      4.94444378               0
  287     0.538268571      4.90761232               0
  288             0.5           4.875               0
  289     0.592388144       4.9617326               0
  290      0.47073644      4.85288249               0
  291     0.277771902        4.667412               0
  292     0.519509164      4.90192158               0
  293     0.423463421      4.81522497               0
  294           0.625               5               0
  295      0.55803325       4.9419675               0
  296      0.54520289      4.93189977               0
  297     0.598078627      4.98049203               0
  298     0.568092983       4.9547845               0
  299     0.306089405      4.70760766               0
  300     0.531464962       4.9250444               0
  301     0.476493719      4.87761493               0
  302             0.5             4.9               0
  303     0.432575391      4.83773788               0
  304     0.574943593      4.96851459               0
  305     0.516494672      4.92118963               0
  306     0.333329045      4.75055961               0
  307             0.6               5               0
  308     0.578804586      4.98349602               0
  309       0.5453555        4.954645               0
  310      0.44259752       4.8614186               0
  311     0.535278655      4.94842675               0
  312     0.551573612      4.96472189               0
  313     0.480490937      4.90192156               0
  314             0.5            4.92               0
  315     0.524134285      4.94380616               0
  316     0.360568685      4.79351156               0
  317     0.556194072       4.9758663               0
  318            0.58               5               0
  319     0.452619649      4.88509933               0
  320     0.512254582      4.94096079               0
  321               0      4.42677611               0
  322     0.559039314      4.98774602               0
  323     0.483495154      4.92119554               0
  324     0.388886188      4.83370723               0
  325      0.53267775       4.9673225               0
  326             0.5            4.94               0
  327     0.525354421      4.96495372               0
  328     0.461731619      4.90761224               0
  329     0.535054241      4.97465928               0
  330      0.40304484      4.85380469               0
  331            0.56               5               0
  332     0.516803609      4.96256792               0
  333     0.537444551        4.983218               0
  334     0.487745469      4.94096078               0
  335     0.416664566      4.87528028               0
  336     0.508014492      4.96073196               0
  337     0.468513838      4.92505668               0
  338     0.539274041      4.99199601               0
  339             0.5            4.96               0
  340     0.430284292      4.89675586               0
  341            0.52            4.98               0
  342            0.54               5               0
  343     0.475865809      4.94380612               0
  344           0.515            4.98               0
  345            0.52           4.985               0
  346     0.444442944      4.91685332               0
  347     0.491995784      4.96072602               0
  348            0.51            4.98               0
  349           0.515           4.985               0
  350            0.52            4.99               0
  351      0.45478386      4.93190741               0
  352           0.505            4.98               0
  353            0.51           4.985               0
  354           0.515            4.99               0
  355            0.52           4.995               0
  356      0.48321778      4.96255556               0
  357             0.5            4.98               0
  358           0.505           4.985               0
  359     0.464721472      4.94842666               0
  360            0.51            4.99               0
  361           0.515           4.995               0
  362            0.52               5               0
  363           0.495            4.98               0
  364             0.5           4.985               0
  365           0.505            4.99               0
  366            0.51           4.995               0
  367           0.515               5               0
  368     0.252512716      4.75251297               0
  369     0.217157288      4.71715729               0
  370     0.287868144      4.78786864               0
  371     0.474659084      4.96494591               0
  372     0.323223572      4.82322432               0
  373     0.162867966      4.66286797               0
  374            0.49            4.98               0
  375           0.495           4.985               0
  376        0.358579         4.85858               0
  377             0.5            4.99               0
  378           0.505           4.995               0
  379     0.376256573      4.87625743               0
  380            0.51               5               0
  381     0.108578644      4.60857864               0
  382     0.393934146      4.89393485               0
  383     0.411611719      4.91161228               0
  384           0.485            4.98               0
  385     0.429289292      4.92928971               0
  386            0.49           4.985               0
  387           0.495            4.99               0
  388     0.441966969      4.94196728               0
  389             0.5           4.995               0
  390    0.0542893219      4.55428932               0
  391           0.505               5               0
  392     0.454644646      4.95464485               0
  393     0.467322323      4.96732243               0
  394            0.48            4.98               0
  395           0.485           4.985               0
  396            0.49            4.99               0
  397           0.495           4.995               0
  398             0.5               5               0
  399               0             4.5               0
  400            0.48           4.985               0
  401           0.485            4.99               0
  402            0.49           4.995               0
  403           0.495               5               0
  404     0.464953572      4.97464578               0
  405            0.48            4.99               0
  406           0.485           4.995               0
  407            0.49               5               0
  408     0.448426472      4.96472176               0
  409            0.48           4.995               0
  410           0.485               5               0
  411     0.431899372      4.95479775               0
  412     0.462567802      4.98319662               0
  413            0.48               5               0
  414     0.416852943      4.94444353               0
  415     0.396765142      4.93026146               0
  416     0.443805965      4.97586621               0
  417     0.460731888      4.99198574               0
  418      0.37527981      4.91666529               0
  419            0.46               5               0
  420     0.425044128       4.9685358               0
  421     0.353794478      4.90306911               0
  422     0.440960695      4.98774597               0
  423     0.333706677      4.88888704               0
  424     0.407611929      4.96173242               0
  425     0.293530681      4.86052228               0
  426            0.44               5               0
  427     0.421189502      4.98350621               0
  428     0.385114275      4.95258359               0
  429     0.250559418       4.8333294               0
  430     0.361418335      4.94259823               0
  431      0.40192139      4.98049195               0
  432            0.42               5               0
  433     0.207588155      4.80613652               0
  434     0.337722395      4.93261288               0
  435     0.377622017      4.97647714               0
  436             0.4               5               0
  437     0.167412158      4.77777175               0
  438     0.315224741      4.92346405               0
  439     0.122917149      4.73728988               0
  440    0.0837060791      4.70138587               0
  441     0.352882393       4.9707371               0
  442    0.0444950094      4.66548187               0
  443           0.375               5               0
  444               0           4.625               0
  445     0.270229057      4.90516607               0
  446      0.32814277      4.96499707               0
  447            0.35               5               0
  448     0.303843397      4.96098226               0
  449     0.222836469      4.88519525               0
  450           0.325               5               0
  451     0.175443882      4.86522444               0
  452      0.25524442      4.95295268               0
  453             0.3               5               0
  454     0.130448198      4.84692646               0
  455    0.0956913399      4.82251518               0
  456    0.0652240989      4.79846323               0
  457     0.205764649      4.94147297               0
  458    0.0347568578      4.77441128               0
  459            0.25               5               0
  460               0            4.75               0
  461     0.156284878      4.92999327               0
  462             0.2               5               0
  463     0.107685901      4.92196369               0
  464     0.080007772      4.91188753               0
  465    0.0538429503      4.89848184               0
  466            0.15               5               0
  467    0.0276781286      4.88507616               0
  468               0           4.875               0
  469             0.1               5               0
  470           0.075               5               0
  471            0.05               5               0
  472           0.025               5               0
  473               0               5               0
End Coordinates

Elements
433 407 410
434 403 407
435 410 413
436 380 391
437 367 380
438 391 398
439 362 367
440 398 403
441 426 432
442 419 426
443 413 419
444 432 436
445 307 318
446 318 331
447 342 362
448 331 342
449 262 273
450 294 307
451 281 294
452 273 281
453 450 453
454 443 447
455 447 450
456 436 443
457 453 459
458 466 469
459 462 466
460 459 462
461 469 470
462 470 471
463 460 444
464 468 460
465 472 473
466 473 468
467 444 399
468 471 472
469 246 262
470 232 246
471 212 223
472 223 232
473 399 321
474 285 256
475 321 285
476 256 234
477 131 109
478 188 157
479 234 188
480 157 131
481 30 27
482 109 76
483 39 35
484 46 39
485 76 61
486 61 51
487 51 46
488 35 30
489 27 15
490 15 7
491 7 2
492 2 1
493 200 212
494 169 175
495 186 200
496 175 186
497 152 160
498 160 169
499 145 152
500 137 145
501 80 87
502 87 97
503 97 115
504 115 137
505 4 9
506 9 20
507 1 4
508 56 65
509 65 80
510 49 56
511 47 49
512 20 47
End Elements

MESH dimension 3 ElemType Quadrilateral Nnode 4
Coordinates
End Coordinates

Elements
1 409 406 410 413
2 405 401 406 409
3 400 395 401 405
4 394 384 395 400
5 406 402 407 410
6 401 396 402 406
7 395 386 396 401
8 384 374 386 395
9 402 397 403 407
10 396 387 397 402
11 386 375 387 396
12 374 363 375 386
13 397 389 398 403
14 387 377 389 397
15 375 364 377 387
16 363 357 364 375
17 389 378 391 398
18 377 365 378 389
19 364 358 365 377
20 357 352 358 364
21 378 366 380 391
22 365 360 366 378
23 358 353 360 365
24 352 348 353 358
25 366 361 367 380
26 360 354 361 366
27 353 349 354 360
28 348 344 349 353
29 361 355 362 367
30 354 350 355 361
31 349 345 350 354
32 344 341 345 349
33 400 404 393 394
34 405 412 404 400
35 409 417 412 405
36 413 419 417 409
37 404 408 392 393
38 412 416 408 404
39 417 422 416 412
40 419 426 422 417
41 408 411 388 392
42 416 420 411 408
43 422 427 420 416
44 426 432 427 422
45 411 414 385 388
46 420 424 414 411
47 427 431 424 420
48 432 436 431 427
49 363 347 339 357
50 374 356 347 363
51 384 371 356 374
52 394 393 371 384
53 347 334 326 339
54 356 343 334 347
55 371 359 343 356
56 393 392 359 371
57 334 323 314 326
58 343 337 323 334
59 359 351 337 343
60 392 388 351 359
61 323 313 302 314
62 337 328 313 323
63 351 346 328 337
64 388 385 346 351
65 344 327 325 341
66 348 332 327 344
67 352 336 332 348
68 357 339 336 352
69 327 311 309 325
70 332 315 311 327
71 336 320 315 332
72 339 326 320 336
73 311 296 295 309
74 315 300 296 311
75 320 305 300 315
76 326 314 305 320
77 296 283 280 295
78 300 287 283 296
79 305 292 287 300
80 314 302 292 305
81 355 338 342 362
82 350 333 338 355
83 345 329 333 350
84 341 325 329 345
85 338 322 331 342
86 333 317 322 338
87 329 312 317 333
88 325 309 312 329
89 322 308 318 331
90 317 304 308 322
91 312 298 304 317
92 309 295 298 312
93 308 297 307 318
94 304 289 297 308
95 298 286 289 304
96 295 280 286 298
97 273 259 248 262
98 281 270 259 273
99 294 284 270 281
100 307 297 284 294
101 259 249 239 248
102 270 261 249 259
103 284 275 261 270
104 297 289 275 284
105 249 244 233 239
106 261 255 244 249
107 275 269 255 261
108 289 286 269 275
109 244 241 229 233
110 255 251 241 244
111 269 266 251 255
112 286 280 266 269
113 241 242 230 229
114 251 252 242 241
115 266 268 252 251
116 280 283 268 266
117 242 245 236 230
118 252 258 245 242
119 268 272 258 252
120 283 287 272 268
121 245 250 243 236
122 258 265 250 245
123 272 277 265 258
124 287 292 277 272
125 250 263 254 243
126 265 276 263 250
127 277 288 276 265
128 292 302 288 277
129 443 435 431 436
130 447 441 435 443
131 450 446 441 447
132 453 448 446 450
133 435 428 424 431
134 441 430 428 435
135 446 434 430 441
136 448 438 434 446
137 428 415 414 424
138 430 418 415 428
139 434 421 418 430
140 438 423 421 434
141 415 383 385 414
142 418 382 383 415
143 421 379 382 418
144 423 376 379 421
145 313 301 288 302
146 328 319 301 313
147 346 340 319 328
148 385 383 340 346
149 301 290 276 288
150 319 310 290 301
151 340 335 310 319
152 383 382 335 340
153 290 279 263 276
154 310 303 279 290
155 335 330 303 310
156 382 379 330 335
157 279 271 254 263
158 303 293 271 279
159 330 324 293 303
160 379 376 324 330
161 459 452 448 453
162 462 457 452 459
163 466 461 457 462
164 469 463 461 466
165 452 445 438 448
166 457 449 445 452
167 461 451 449 457
168 463 454 451 461
169 445 425 423 438
170 449 429 425 445
171 451 433 429 449
172 454 437 433 451
173 425 372 376 423
174 429 370 372 425
175 433 368 370 429
176 437 369 368 433
177 468 467 472 473
178 460 458 467 468
179 444 442 458 460
180 399 390 442 444
181 467 465 471 472
182 458 456 465 467
183 442 440 456 458
184 390 381 440 442
185 465 464 470 471
186 456 455 464 465
187 440 439 455 456
188 381 373 439 440
189 464 463 469 470
190 455 454 463 464
191 439 437 454 455
192 373 369 437 439
193 223 208 197 212
194 232 219 208 223
195 246 231 219 232
196 262 248 231 246
197 208 199 185 197
198 219 211 199 208
199 231 224 211 219
200 248 239 224 231
201 199 193 181 185
202 211 205 193 199
203 224 218 205 211
204 239 233 218 224
205 193 189 178 181
206 205 202 189 193
207 218 215 202 205
208 233 229 215 218
209 230 216 215 229
210 236 221 216 230
211 243 227 221 236
212 254 238 227 243
213 216 203 202 215
214 221 207 203 216
215 227 213 207 221
216 238 225 213 227
217 203 190 189 202
218 207 194 190 203
219 213 201 194 207
220 225 214 201 213
221 190 180 178 189
222 194 182 180 190
223 201 192 182 194
224 214 204 192 201
225 191 176 192 204
226 177 165 176 191
227 168 153 165 177
228 156 142 153 168
229 176 171 182 192
230 165 155 171 176
231 153 143 155 165
232 142 128 143 153
233 171 164 180 182
234 155 150 164 171
235 143 136 150 155
236 128 124 136 143
237 164 163 178 180
238 150 148 163 164
239 136 135 148 150
240 124 123 135 136
241 92 91 89 88
242 102 103 91 92
243 111 114 103 102
244 123 124 114 111
245 91 99 90 89
246 103 106 99 91
247 114 118 106 103
248 124 128 118 114
249 99 108 104 90
250 106 121 108 99
251 118 130 121 106
252 128 142 130 118
253 108 129 122 104
254 121 140 129 108
255 130 147 140 121
256 142 156 147 130
257 373 282 291 369
258 381 274 282 373
259 390 264 274 381
260 399 260 264 390
261 282 235 247 291
262 274 226 235 282
263 264 217 226 274
264 260 210 217 264
265 235 209 222 247
266 226 198 209 235
267 217 187 198 226
268 210 179 187 217
269 209 191 204 222
270 198 177 191 209
271 187 168 177 198
272 179 156 168 187
273 321 237 260 399
274 285 220 237 321
275 256 206 220 285
276 234 195 206 256
277 237 196 210 260
278 220 184 196 237
279 206 174 184 220
280 195 166 174 206
281 196 170 179 210
282 184 161 170 196
283 174 151 161 184
284 166 144 151 174
285 170 147 156 179
286 161 140 147 170
287 151 129 140 161
288 144 122 129 151
289 271 253 238 254
290 293 278 253 271
291 324 316 278 293
292 376 372 316 324
293 253 240 225 238
294 278 267 240 253
295 316 306 267 278
296 372 370 306 316
297 240 228 214 225
298 267 257 228 240
299 306 299 257 267
300 370 368 299 306
301 228 222 204 214
302 257 247 222 228
303 299 291 247 257
304 368 369 291 299
305 188 162 195 234
306 157 133 162 188
307 131 110 133 157
308 109 93 110 131
309 162 138 166 195
310 133 113 138 162
311 110 94 113 133
312 93 82 94 110
313 138 116 144 166
314 113 96 116 138
315 94 83 96 113
316 82 75 83 94
317 116 100 122 144
318 96 85 100 116
319 83 78 85 96
320 75 68 78 83
321 44 43 32 33
322 59 58 43 44
323 72 71 58 59
324 88 89 71 72
325 43 50 37 32
326 58 63 50 43
327 71 77 63 58
328 89 90 77 71
329 50 60 52 37
330 63 70 60 50
331 77 84 70 63
332 90 104 84 77
333 60 78 68 52
334 70 85 78 60
335 84 100 85 70
336 104 122 100 84
337 39 42 51 46
338 35 36 42 39
339 30 31 36 35
340 27 29 31 30
341 42 54 61 51
342 36 45 54 42
343 31 38 45 36
344 29 34 38 31
345 54 69 76 61
346 45 62 69 54
347 38 57 62 45
348 34 48 57 38
349 69 93 109 76
350 62 82 93 69
351 57 75 82 62
352 48 68 75 57
353 15 17 29 27
354 7 10 17 15
355 2 5 10 7
356 1 3 5 2
357 17 23 34 29
358 10 14 23 17
359 5 11 14 10
360 3 8 11 5
361 23 28 48 34
362 14 24 28 23
363 11 19 24 14
364 8 16 19 11
365 28 52 68 48
366 24 37 52 28
367 19 32 37 24
368 16 33 32 19
369 175 158 149 169
370 186 172 158 175
371 200 183 172 186
372 212 197 183 200
373 158 146 134 149
374 172 159 146 158
375 183 173 159 172
376 197 185 173 183
377 146 139 126 134
378 159 154 139 146
379 173 167 154 159
380 185 181 167 173
381 139 135 123 126
382 154 148 135 139
383 167 163 148 154
384 181 178 163 167
385 145 127 120 137
386 152 132 127 145
387 160 141 132 152
388 169 149 141 160
389 127 112 105 120
390 132 119 112 127
391 141 125 119 132
392 149 134 125 141
393 112 101 95 105
394 119 107 101 112
395 125 117 107 119
396 134 126 117 125
397 101 92 88 95
398 107 102 92 101
399 117 111 102 107
400 126 123 111 117
401 72 79 95 88
402 59 67 79 72
403 44 55 67 59
404 33 41 55 44
405 79 86 105 95
406 67 74 86 79
407 55 64 74 67
408 41 53 64 55
409 86 98 120 105
410 74 81 98 86
411 64 73 81 74
412 53 66 73 64
413 98 115 137 120
414 81 97 115 98
415 73 87 97 81
416 66 80 87 73
417 4 6 3 1
418 9 13 6 4
419 20 22 13 9
420 47 49 22 20
421 6 12 8 3
422 13 18 12 6
423 22 26 18 13
424 49 56 26 22
425 12 21 16 8
426 18 25 21 12
427 26 40 25 18
428 56 65 40 26
429 21 41 33 16
430 25 53 41 21
431 40 66 53 25
432 65 80 66 40
End Elements

